<?xml version="1.0" encoding="UTF-8"?>
<svg id="_レイヤー_1" xmlns="http://www.w3.org/2000/svg" xmlns:xlink="http://www.w3.org/1999/xlink" version="1.1" viewBox="0 0 300 300">
  <!-- Generator: Adobe Illustrator 29.5.1, SVG Export Plug-In . SVG Version: 2.1.0 Build 141)  -->
  <defs>
    <style>
      .st0 {
        fill: url(#_名称未設定グラデーション_9);
      }

      .st1 {
        fill: url(#_名称未設定グラデーション_6);
      }

      .st2 {
        fill: url(#_名称未設定グラデーション_5);
      }

      .st3 {
        fill: url(#_名称未設定グラデーション_4);
      }

      .st4 {
        fill: url(#_名称未設定グラデーション_3);
      }

      .st5 {
        fill: url(#_名称未設定グラデーション_2);
      }

      .st6 {
        fill: url(#_名称未設定グラデーション_8);
      }

      .st7 {
        fill: url(#_名称未設定グラデーション_7);
      }

      .st8 {
        fill: url(#_名称未設定グラデーション);
      }
    </style>
    <linearGradient id="_名称未設定グラデーション" data-name="名称未設定グラデーション" x1="150" y1="28.1" x2="150" y2="275.9" gradientTransform="translate(0 302) scale(1 -1)" gradientUnits="userSpaceOnUse">
      <stop offset="0" stop-color="#fff500"/>
      <stop offset="0" stop-color="#ffd212"/>
      <stop offset=".2" stop-color="#ffaf24"/>
      <stop offset=".2" stop-color="#ff9a2f"/>
      <stop offset=".3" stop-color="#ff9333"/>
      <stop offset=".3" stop-color="#ff8454"/>
      <stop offset=".3" stop-color="#ff727f"/>
      <stop offset=".4" stop-color="#ff63a1"/>
      <stop offset=".4" stop-color="#ff59ba"/>
      <stop offset=".5" stop-color="#ff53c8"/>
      <stop offset=".5" stop-color="#ff51ce"/>
      <stop offset=".5" stop-color="#f450cd"/>
      <stop offset=".6" stop-color="#d94fca"/>
      <stop offset=".7" stop-color="#ad4ec7"/>
      <stop offset=".8" stop-color="#6f4cc2"/>
      <stop offset=".9" stop-color="#224abb"/>
      <stop offset="1" stop-color="#0049b9"/>
    </linearGradient>
    <linearGradient id="_名称未設定グラデーション_2" data-name="名称未設定グラデーション 2" x1="193.5" y1="71.3" x2="193.5" y2="241.8" gradientTransform="translate(0 302) scale(1 -1)" gradientUnits="userSpaceOnUse">
      <stop offset="0" stop-color="#fff500"/>
      <stop offset="0" stop-color="#ffd212"/>
      <stop offset=".2" stop-color="#ffaf24"/>
      <stop offset=".2" stop-color="#ff9a2f"/>
      <stop offset=".3" stop-color="#ff9333"/>
      <stop offset=".3" stop-color="#ff8454"/>
      <stop offset=".3" stop-color="#ff727f"/>
      <stop offset=".4" stop-color="#ff63a1"/>
      <stop offset=".4" stop-color="#ff59ba"/>
      <stop offset=".5" stop-color="#ff53c8"/>
      <stop offset=".5" stop-color="#ff51ce"/>
      <stop offset=".5" stop-color="#f450cd"/>
      <stop offset=".6" stop-color="#d94fca"/>
      <stop offset=".7" stop-color="#ad4ec7"/>
      <stop offset=".8" stop-color="#6f4cc2"/>
      <stop offset=".9" stop-color="#224abb"/>
      <stop offset="1" stop-color="#0049b9"/>
    </linearGradient>
    <linearGradient id="_名称未設定グラデーション_3" data-name="名称未設定グラデーション 3" x1="193.5" y1="71.3" x2="193.5" y2="241.8" gradientTransform="translate(0 302) scale(1 -1)" gradientUnits="userSpaceOnUse">
      <stop offset="0" stop-color="#fff500"/>
      <stop offset="0" stop-color="#ffd212"/>
      <stop offset=".2" stop-color="#ffaf24"/>
      <stop offset=".2" stop-color="#ff9a2f"/>
      <stop offset=".3" stop-color="#ff9333"/>
      <stop offset=".3" stop-color="#ff8454"/>
      <stop offset=".3" stop-color="#ff727f"/>
      <stop offset=".4" stop-color="#ff63a1"/>
      <stop offset=".4" stop-color="#ff59ba"/>
      <stop offset=".5" stop-color="#ff53c8"/>
      <stop offset=".5" stop-color="#ff51ce"/>
      <stop offset=".5" stop-color="#f450cd"/>
      <stop offset=".6" stop-color="#d94fca"/>
      <stop offset=".7" stop-color="#ad4ec7"/>
      <stop offset=".8" stop-color="#6f4cc2"/>
      <stop offset=".9" stop-color="#224abb"/>
      <stop offset="1" stop-color="#0049b9"/>
    </linearGradient>
    <linearGradient id="_名称未設定グラデーション_4" data-name="名称未設定グラデーション 4" x1="94.5" y1="67.2" x2="94.5" y2="237.7" gradientTransform="translate(0 302) scale(1 -1)" gradientUnits="userSpaceOnUse">
      <stop offset="0" stop-color="#fff500"/>
      <stop offset="0" stop-color="#ffd212"/>
      <stop offset=".2" stop-color="#ffaf24"/>
      <stop offset=".2" stop-color="#ff9a2f"/>
      <stop offset=".3" stop-color="#ff9333"/>
      <stop offset=".3" stop-color="#ff8454"/>
      <stop offset=".3" stop-color="#ff727f"/>
      <stop offset=".4" stop-color="#ff63a1"/>
      <stop offset=".4" stop-color="#ff59ba"/>
      <stop offset=".5" stop-color="#ff53c8"/>
      <stop offset=".5" stop-color="#ff51ce"/>
      <stop offset=".5" stop-color="#f450cd"/>
      <stop offset=".6" stop-color="#d94fca"/>
      <stop offset=".7" stop-color="#ad4ec7"/>
      <stop offset=".8" stop-color="#6f4cc2"/>
      <stop offset=".9" stop-color="#224abb"/>
      <stop offset="1" stop-color="#0049b9"/>
    </linearGradient>
    <linearGradient id="_名称未設定グラデーション_5" data-name="名称未設定グラデーション 5" x1="94.5" y1="67.2" x2="94.5" y2="237.7" gradientTransform="translate(0 302) scale(1 -1)" gradientUnits="userSpaceOnUse">
      <stop offset="0" stop-color="#fff500"/>
      <stop offset="0" stop-color="#ffd212"/>
      <stop offset=".2" stop-color="#ffaf24"/>
      <stop offset=".2" stop-color="#ff9a2f"/>
      <stop offset=".3" stop-color="#ff9333"/>
      <stop offset=".3" stop-color="#ff8454"/>
      <stop offset=".3" stop-color="#ff727f"/>
      <stop offset=".4" stop-color="#ff63a1"/>
      <stop offset=".4" stop-color="#ff59ba"/>
      <stop offset=".5" stop-color="#ff53c8"/>
      <stop offset=".5" stop-color="#ff51ce"/>
      <stop offset=".5" stop-color="#f450cd"/>
      <stop offset=".6" stop-color="#d94fca"/>
      <stop offset=".7" stop-color="#ad4ec7"/>
      <stop offset=".8" stop-color="#6f4cc2"/>
      <stop offset=".9" stop-color="#224abb"/>
      <stop offset="1" stop-color="#0049b9"/>
    </linearGradient>
    <linearGradient id="_名称未設定グラデーション_6" data-name="名称未設定グラデーション 6" x1="192.8" y1="105" x2="192.8" y2="205.1" gradientTransform="translate(0 302) scale(1 -1)" gradientUnits="userSpaceOnUse">
      <stop offset="0" stop-color="#fff500"/>
      <stop offset="0" stop-color="#ffd212"/>
      <stop offset=".2" stop-color="#ffaf24"/>
      <stop offset=".2" stop-color="#ff9a2f"/>
      <stop offset=".3" stop-color="#ff9333"/>
      <stop offset=".3" stop-color="#ff8454"/>
      <stop offset=".3" stop-color="#ff727f"/>
      <stop offset=".4" stop-color="#ff63a1"/>
      <stop offset=".4" stop-color="#ff59ba"/>
      <stop offset=".5" stop-color="#ff53c8"/>
      <stop offset=".5" stop-color="#ff51ce"/>
      <stop offset=".5" stop-color="#f450cd"/>
      <stop offset=".6" stop-color="#d94fca"/>
      <stop offset=".7" stop-color="#ad4ec7"/>
      <stop offset=".8" stop-color="#6f4cc2"/>
      <stop offset=".9" stop-color="#224abb"/>
      <stop offset="1" stop-color="#0049b9"/>
    </linearGradient>
    <linearGradient id="_名称未設定グラデーション_7" data-name="名称未設定グラデーション 7" x1="192.8" y1="105" x2="192.8" y2="205.1" gradientTransform="translate(0 302) scale(1 -1)" gradientUnits="userSpaceOnUse">
      <stop offset="0" stop-color="#fff500"/>
      <stop offset="0" stop-color="#ffd212"/>
      <stop offset=".2" stop-color="#ffaf24"/>
      <stop offset=".2" stop-color="#ff9a2f"/>
      <stop offset=".3" stop-color="#ff9333"/>
      <stop offset=".3" stop-color="#ff8454"/>
      <stop offset=".3" stop-color="#ff727f"/>
      <stop offset=".4" stop-color="#ff63a1"/>
      <stop offset=".4" stop-color="#ff59ba"/>
      <stop offset=".5" stop-color="#ff53c8"/>
      <stop offset=".5" stop-color="#ff51ce"/>
      <stop offset=".5" stop-color="#f450cd"/>
      <stop offset=".6" stop-color="#d94fca"/>
      <stop offset=".7" stop-color="#ad4ec7"/>
      <stop offset=".8" stop-color="#6f4cc2"/>
      <stop offset=".9" stop-color="#224abb"/>
      <stop offset="1" stop-color="#0049b9"/>
    </linearGradient>
    <linearGradient id="_名称未設定グラデーション_8" data-name="名称未設定グラデーション 8" x1="95.5" y1="101.2" x2="95.5" y2="201" gradientTransform="translate(0 302) scale(1 -1)" gradientUnits="userSpaceOnUse">
      <stop offset="0" stop-color="#fff500"/>
      <stop offset="0" stop-color="#ffd212"/>
      <stop offset=".2" stop-color="#ffaf24"/>
      <stop offset=".2" stop-color="#ff9a2f"/>
      <stop offset=".3" stop-color="#ff9333"/>
      <stop offset=".3" stop-color="#ff8454"/>
      <stop offset=".3" stop-color="#ff727f"/>
      <stop offset=".4" stop-color="#ff63a1"/>
      <stop offset=".4" stop-color="#ff59ba"/>
      <stop offset=".5" stop-color="#ff53c8"/>
      <stop offset=".5" stop-color="#ff51ce"/>
      <stop offset=".5" stop-color="#f450cd"/>
      <stop offset=".6" stop-color="#d94fca"/>
      <stop offset=".7" stop-color="#ad4ec7"/>
      <stop offset=".8" stop-color="#6f4cc2"/>
      <stop offset=".9" stop-color="#224abb"/>
      <stop offset="1" stop-color="#0049b9"/>
    </linearGradient>
    <linearGradient id="_名称未設定グラデーション_9" data-name="名称未設定グラデーション 9" x1="95.5" y1="101.2" x2="95.5" y2="201" gradientTransform="translate(0 302) scale(1 -1)" gradientUnits="userSpaceOnUse">
      <stop offset="0" stop-color="#fff500"/>
      <stop offset="0" stop-color="#ffd212"/>
      <stop offset=".2" stop-color="#ffaf24"/>
      <stop offset=".2" stop-color="#ff9a2f"/>
      <stop offset=".3" stop-color="#ff9333"/>
      <stop offset=".3" stop-color="#ff8454"/>
      <stop offset=".3" stop-color="#ff727f"/>
      <stop offset=".4" stop-color="#ff63a1"/>
      <stop offset=".4" stop-color="#ff59ba"/>
      <stop offset=".5" stop-color="#ff53c8"/>
      <stop offset=".5" stop-color="#ff51ce"/>
      <stop offset=".5" stop-color="#f450cd"/>
      <stop offset=".6" stop-color="#d94fca"/>
      <stop offset=".7" stop-color="#ad4ec7"/>
      <stop offset=".8" stop-color="#6f4cc2"/>
      <stop offset=".9" stop-color="#224abb"/>
      <stop offset="1" stop-color="#0049b9"/>
    </linearGradient>
  </defs>
  <path class="st8" d="M42.7,190.5c.1,1,.4,2,.6,3.1.2,1,.3,2,.5,3.1.2,1,.5,2,.7,3,.2,1,1.1,1.9,1.3,2.9.2,1,.4,2,.6,3,.2,1-.1,2.1.1,3.1s0,2.1.3,3.1c.3,1,1.3,1.8,1.6,2.8.3,1,.2,2.1.5,3.1.3,1,.2,2.1.5,3.1.3,1,1.2,1.8,1.6,2.7.3,1,.7,1.9,1,2.9.4,1,.8,1.9,1.2,2.8.4,1,0,2.2.5,3.2.4.9,1.2,1.7,1.6,2.7.4.9,1.2,1.7,1.7,2.6.5.9.1,2.2.6,3.2.5.9,1.1,1.8,1.6,2.7.5.9,1.1,1.7,1.7,2.6.5.9,1.5,1.5,2.1,2.4.6.9,1.5,1.5,2.1,2.3.6.8,1.1,1.7,1.8,2.5.6.8,1.1,1.7,1.8,2.5.7.8,1.2,1.7,1.9,2.5.7.8,1.6,1.3,2.3,2.1.7.7,1.5,1.3,2.3,2,.8.7,1.5,1.3,2.3,2,.8.6,1.3,1.6,2.2,2.2.8.6,2,.7,2.8,1.2.9.5,1.6,1.3,2.5,1.7.9.5,1.6,1.4,2.6,1.8.9.4,2.3-.2,3.2,0,1,.3,1.8,1,2.8,1.3,1,.2,1.9,1.1,2.9,1.2,1,.1,2.1-.5,3.1-.5,1,0,2,.2,3.1.2,1,0,2.1.1,3.1,0,1-.2,2.1-.3,3.1-.6,1-.3,1.9-.8,2.9-1.2.9-.4,1.8-.9,2.8-1.4.9-.5,2-.8,2.9-1.4.9-.6,1.7-1.3,2.5-1.9.8-.7.9-2.1,1.7-2.8.7-.7,1.6-1.4,2.2-2.2.7-.8,1.1-1.8,1.7-2.6.6-.8,1.6-1.4,2.2-2.3.6-.9,1.5-1.5,2.1-2.4.5-.9.3-2.3.8-3.2.5-.9,1.6-1.5,2.1-2.4.5-.9,1.2-1.8,1.6-2.7.5-.9.6-2,1.1-3,.4-1,.8-1.9,1.2-2.9.4-1,.6-2,.9-3,.4-1,.4-2.1.8-3,.4-1,1.2-1.8,1.5-2.8.4-1,1.1-1.9,1.4-2.8.4-1,0-2.3.3-3.2.4-1.1.5-2.1.8-3,.4-1.1.8-2.1,1.2-2.9.6-1.7,1.7-2.8,2.1-2.9.4.9,0,2.3.2,3.3.3,1,1.2,1.7,1.5,2.7.3,1,.8,1.9,1,2.9.3,1-.1,2.1.1,3.1s.7,1.9.9,2.9c.3,1,.2,2.1.5,3,.3,1,1.2,1.7,1.6,2.7.4.9.8,1.9,1.2,2.8.5.9,1.2,1.7,1.7,2.6.5.9.5,2.1,1,3,.5.9,1.6,1.5,2.1,2.4.5.9.9,1.9,1.5,2.7.6.9,1,1.8,1.6,2.7.6.8,1.6,1.4,2.3,2.2.7.8,1,1.9,1.7,2.6.7.8,1,2,1.7,2.7.7.7,2,1,2.7,1.6.8.7,1.7,1.2,2.6,1.8.8.6,1.3,1.8,2.2,2.3.9.5,1.8,1.1,2.7,1.6.9.5,2,.6,3,1,1,.3,2,.8,3,1.1,1,.2,2.1-.2,3.2-.1,1,.1,2,0,3.1,0,1,0,2.1.8,3.2.7,1-.1,1.8-1.3,2.8-1.5,1-.2,1.9-.5,2.9-.8,1-.3,1.8-.8,2.8-1.2.9-.4,2.2,0,3.1-.5.9-.5,1.8-1.1,2.6-1.6.9-.5,1.6-1.3,2.4-1.9.8-.6,1.5-1.3,2.3-2,.8-.7,1.6-1.3,2.3-2,.7-.7,1.4-1.5,2.1-2.2.7-.7,1.1-1.8,1.7-2.5.7-.8,1.6-1.3,2.3-2.1.6-.8,1-1.8,1.6-2.6.6-.8,1.4-1.5,2-2.3.6-.8,1.4-1.6,1.9-2.4.6-.9.5-2.1,1.1-2.9.5-.9,1.2-1.7,1.7-2.6.5-.9,1.3-1.6,1.7-2.5.5-.9.7-2,1.2-3,.5-1,1.6-1.6,2-2.6.4-1,.6-2.1,1-3,.4-1,1.3-1.8,1.7-2.8.4-1,.6-2.1.9-3.1.3-1,.7-2,1-3,.3-1,.1-2.2.4-3.2.3-1,1.1-1.9,1.4-2.9.3-1-.2-2.2,0-3.3.2-1,.9-2,1.2-3,.2-1,.8-2,1-3.1.2-1,0-2.2.2-3.2.2-1,.3-2.1.5-3.2.2-1,.6-2,.8-3.1.2-1,.3-2.1.5-3.2.2-1,.5-2.1.7-3.1,0-.4-.1-1.5.3-3,.2-.8,1-1.6,1.3-2.7.2-.9-.2-2,0-3,.2-.9.8-1.8,1-2.8.2-.9.4-1.9.6-2.9.1-1,.7-1.9.8-2.9.1-1-.5-2-.5-3,0-1,.1-2,.1-2.9,0-1,0-2,0-2.9,0-1.1-.2-2.1-.2-2.9-.1-1.8-.6-1.5.4-2.6,1-1.2.7-.1,2.6-.2.9,0,1.9-.8,3-.8.9,0,2-.2,3.1-.3,1,0,2,.1,3.1,0,1,0,2-.3,3.1-.3,1,0,2,.2,3.1.2,1,0,2.1.2,3.1.1,1,0,2-.4,3.1-.4,1,0,2-.5,3.1-.6,1,0,2.1.7,3.1.7,1,0,2.1.1,3.1,0,1,0,2-.5,3-.6,1,0,2-.5,3-.6,1,0,2.1.8,3.1.7,1.1,0,2.1-.2,3.1-.2.3,0,.6-.1.9-.2,1.9-2.5,3.8-4.9,5.2-7.7,0-.2.2-.5.4-.8,0-.1,0-.2,0-.3,0,0,0-.2,0-.2-.3-.6-.6-1.2-1-1.7,0,0-.1-.1-.2-.2-.3-.4-.7-.8-1-1.2-.9-.9-1.8-1.8-2.7-2.6-.2,0-.4,0-.6,0-1,.2-2,1-3.2,1.1-1.1,0-2.3-.8-3.3-.8s-2.6.5-3.2.6c-1.1,0-2.1.5-3.2.5-1.1,0-2.2,0-3.2.1-1.1,0-2.2-.3-3.3-.2s-2.2-.2-3.3-.1-2.1,1-3.2,1c-1,0-2.1-.2-3.1-.2s-2.1-.4-3.1-.3c-1,0-2,.5-3,.6s-2,.6-3,.7c-1,0-2.1-.6-3.1-.5-1,0-2,.1-3,.2-1,0-2,.8-3,.9,0,0,.5-1.6.4-3.6,0-.9-.6-1.9-.6-3.1,0-1,.4-2.1.4-3.2,0-1-.6-2-.7-3.1,0-1,0-2.1,0-3.2,0-1,.2-2.1.2-3.2,0-1-1-2-1.1-3.1,0-1.1,0-2.1,0-3.1,0-1.1.2-2.1,0-3.2,0-1.1.2-2.2.2-3.2,0-1.1-.8-2.1-.9-3.1,0-1.2-.4-2.2-.4-3.1-.1-1.6,0-2.7-.1-3.1-.2-1-.4-2-.7-3-.2-1,.3-2.1,0-3.1-.2-1-.8-1.9-1-2.9-.2-1-.9-1.9-1.1-2.9-.2-1,0-2.1-.3-3.1-.2-1-1.2-1.8-1.4-2.8-.3-1,.2-2.2,0-3.2-.3-1-.3-2-.6-3-.3-1-.7-1.9-1-2.9-.3-1-.6-2-.9-2.9-.3-1-.8-1.9-1.1-2.9-.3-1-1.4-1.7-1.7-2.6-.3-1-.7-1.9-1.1-2.9-.4-1-.2-2.1-.6-3.1-.4-.9-.4-2.1-.8-3-.4-.9-1.6-1.5-2.1-2.4-.5-.9-.6-2-1.1-2.9-.5-.9-.6-2-1.1-2.9-.5-.9-1.6-1.4-2.1-2.3-.6-.9-1.1-1.7-1.7-2.5-.6-.8-1.3-1.6-1.9-2.4-.6-.8-.7-2.1-1.4-2.9-.7-.8-1.7-1.3-2.4-2-.7-.7-1.7-1.2-2.5-1.9-.8-.7-1-2-1.8-2.7-.8-.6-1.7-1.2-2.6-1.8-.8-.6-1.8-1-2.7-1.6-.9-.5-2-.6-2.9-1-.9-.4-1.9-.4-2.9-.7-.9-.3-1.9-.6-2.9-.8-1-.2-1.9-.4-3-.5-1,0-2-.3-3-.2-1,0-2,.3-3,.5-1,.1-2,.4-2.9.6-1,.2-1.9.4-2.9.7-1,.3-2.1.1-3,.5-1,.4-1.7,1.3-2.5,1.7-.9.5-1.9.7-2.7,1.2-.9.6-2,.7-2.8,1.4-.8.7-.9,2.2-1.6,2.9-.8.7-1.8,1.1-2.5,1.9-.7.8-1.9,1.1-2.6,1.9-.7.8-.8,2.1-1.4,2.9-.6.8-1.5,1.6-2,2.4-.6.9-1.5,1.6-2,2.5-.6.9-1.2,1.8-1.7,2.7-.5.9-.9,2-1.3,2.9-.5.9-.8,2-1.2,2.9-.4,1-1.1,1.8-1.5,2.8-.4,1-.8,2-1.1,3-.4,1,.1,2.3-.2,3.3-.3,1-.8,1.9-1.2,2.9-.3,1-.3,2.1-.6,3.1-.3,1-1.1,1.9-1.3,2.9-.3,1-1,1.9-1.2,2.9-.3,1,.4,2.3.1,3.3-.3,1-1.2,1.9-1.5,2.9-.3,1-.7,2-1,3-.3,1-.2,2.1-.5,3.1-.3,1-.5,2-.8,3.1-.1.5-.2,1.6-.5,3-.2.9-.2,2-.5,3-.3,1-1.1,1.9-1.4,2.8-.5,1.5-.7,2.2-1.1,2.2-.5-.7-1.5-1-1.8-1.9-.3-.8-.8-1.7-1-2.5-.2-.9-.3-1.8-.5-2.6-.3-1.1-.5-2.1-.8-3.2-.3-1.1.4-2.3.2-3.4-.3-1.1-1.1-1.9-1.4-3-.3-1-.8-2-1.1-3.1-.3-1,0-2.1-.2-3.1-.3-1-.7-1.9-1-2.9-.3-1-.2-2.1-.5-3.1-.3-1-1.1-1.8-1.5-2.8-.3-1-.7-1.9-1-2.9-.3-1-1-1.8-1.3-2.8-.4-1-.2-2.1-.6-3.1-.4-.9-1.4-1.6-1.8-2.6-.4-.9-.7-1.9-1.1-2.9-.5-.9-.7-1.9-1.2-2.8-.5-.9-1.4-1.5-1.9-2.4-.5-.9-.7-2-1.3-2.8-.6-.9-.6-2.1-1.3-2.9-.6-.8-1.7-1.2-2.4-2-.7-.8-1.5-1.4-2.2-2.2-.7-.7-1-2-1.8-2.7-.8-.7-1.6-1.4-2.4-2.1-.8-.6-1.8-1-2.7-1.6-.9-.6-1.7-1.3-2.6-1.8-.9-.5-2.1-.4-3.1-.8-1-.4-2-.7-2.9-1-1-.4-1.7-1.5-2.7-1.8-1-.3-2.2.4-3.3.3-1-.2-2-.3-3.1-.3-1,0-2,0-3.1.2-1,0-2.2-.7-3.2-.5-1,.2-2.1.6-3,.9-1,.3-1.9,1-2.8,1.5-.9.4-1.7,1-2.5,1.6-.8.5-1.7,1-2.6,1.5-.8.6-1.6,1.2-2.4,1.8-.8.6-1.3,1.6-2,2.2-.8.6-1.8,1-2.5,1.7-.7.7-1.2,1.6-1.9,2.3-.7.7-1.5,1.3-2.2,2-.7.8-1.5,1.4-2.1,2.2-.6.8-.6,2-1.1,2.8-.5.9-1.1,1.6-1.5,2.5-.5.9-1.2,1.7-1.6,2.6-.4.9-.6,2-1,2.9-.4.9-1.5,1.6-1.9,2.5-.4.9-.5,2-.9,3-.4,1-1.3,1.7-1.6,2.7-.4,1-.6,2-.9,2.9-.3,1-.7,1.9-1,2.9-.3,1-.1,2.1-.4,3.1-.3,1-1.1,1.8-1.4,2.8-.3,1,.2,2.2,0,3.2-.3,1-1,1.9-1.2,2.8-.3,1-.8,1.9-1,2.9-.2,1,0,2.1-.2,3.1-.2,1-.3,2-.5,3-.2,1-.7,2-.9,3-.2,1-.3,2-.5,3-.2,1-.5,2-.6,3-.2,1,.2,2.1,0,3.1-.1,1-.9,2-1,3-.1,1,.4,2.1.3,3.1-.1,1-.6,2-.8,3-.1,1-.3,2-.4,3,0,1-.6,2-.7,3,0,1,.5,2.1.5,3.1,0,1-.2,2-.3,3.1,0,1-.2,2-.3,3.1,0,1,0,1.9,0,2.9s-.8,1.9-.9,2.8c0,1,.2,1.9.1,2.9,0,1,.6,2,.5,2.9,0,1,0,1.9-.1,2.9,0,1-.4,1.9-.5,2.9,0,.9,0,1.9,0,2.8,0,1-.4,1.9-.5,2.7,0,1.6.6,1.6-.3,2.6-.9,1-1.1.5-2.4.7-1,.2-1.9.8-2.5.9-1,.1-2.2-.6-3.2-.5-1,.1-2.1,0-3.1.1-1,.1-2,.7-3.1.8-1,.1-2,.6-3.1.8-1.1.1-2.2-.6-3.3-.5-1.1.1-2.1.4-3.2.5-1.1.1-2,1.2-3.1,1.3s-2.2-.7-3.3-.6c-1.1.1-2,1.3-3.1,1.4-1.1.1-2.2-.7-3.3-.7-.9,0-1.7.4-2.5.4-.4,0-.7,0-1,.2,0,1-.2,2-.2,3.1,0,1.2,0,2.4,0,3.6,0,.5,0,1,.1,1.5.2,1.1.4,2.2.8,3.2,0,.3.2.6.3.9.3,0,.7,0,1.3-.1,1.6-.1,1.7.4,3.3.3,1.6-.1,1.6-.7,3.2-.8,1.6-.1,1.6,0,3.2-.2,1.6-.1,1.6.2,3.2,0,1.6-.1,1.5-1,3.1-1.1,1.6-.1,1.6,0,3.2-.2,1.6-.1,1.6.1,3.2,0,1.6-.1,1.6.2,3.2,0,1.6-.1,1.5-.8,3.1-1,1.6-.1,1.6-.3,3.2-.5,1.6-.1,1.6.1,3.2,0,1.6-.1,1.7-.7,3.2-.3,0,1-.5,2.3-.4,3.3,0,1,.5,2,.6,3.1,0,1,.6,2,.7,3,0,1-.2,2.1,0,3.1.1,1,.9,2,1,3,.1,1-.5,2.1-.4,3.2.1,1,0,2.1.2,3.1h0ZM152.9,140c0-1,1-2,1.1-3.1,0-1-.2-2.1-.1-3.1,0-1-.3-2.1-.2-3.1,0-1,1.1-2,1.2-3,0-1-.3-2.1-.2-3.1.1-1-.2-2.1,0-3.1.1-1,0-2.1.2-3.1.1-1,.3-2,.4-3.1.1-1,.6-2,.7-3,.2-1,.3-2,.4-3.1.2-1,.3-2,.5-3,.2-1,.8-2,.9-3,.2-1,.7-2,.9-3,.2-1-.5-2.2-.3-3.2.2-1,.6-2,.9-3,.2-1,.8-1.9,1-2.9.3-1,1-1.9,1.2-2.9.3-1,.6-2,.9-3,.3-1-.2-2.2.1-3.2.3-1,1.6-1.6,1.9-2.6.3-1,.5-2,.8-3,.4-1,0-2.2.4-3.2.4-1,1.4-1.7,1.8-2.6.4-1,.8-1.9,1.3-2.8.4-.9,1-1.8,1.5-2.7.4-.9.3-2.1.8-3,.5-.9,1.2-1.7,1.7-2.6.5-.9,1.2-1.6,1.7-2.5.5-.8,1.1-1.7,1.7-2.5.6-.8,1-1.7,1.7-2.5.6-.8,1.1-1.7,1.8-2.4.7-.8,1.7-1.2,2.4-1.9.7-.7,1.3-1.5,2.1-2.1.8-.6,1.3-1.6,2.2-2.1.9-.6,2.1-.4,3-.8.9-.4,1.6-1.4,2.6-1.6,1-.3,2-.2,3-.3,1,0,2,0,3,.2,1,.2,2,.2,3,.6.9.4,1.9.6,2.8,1.2.8.5,1.7,1.1,2.5,1.8.8.7,1.5,1.4,2.2,2.2.7.7,1,1.9,1.6,2.7.6.8,1.4,1.5,2,2.3.6.8,1.1,1.7,1.6,2.6.5.9.8,1.9,1.3,2.8.5.9.8,1.9,1.2,2.8.4.9.9,1.8,1.4,2.8.4.9,1.4,1.6,1.8,2.6.4.9,1.2,1.8,1.5,2.7.4,1,.6,2,.9,3,.3,1,.3,2.1.6,3.1.3,1,0,2.2.3,3.2.3,1,1.2,1.8,1.5,2.8.3,1,1,1.9,1.3,2.9.3,1,.4,2,.6,3,.2,1-.3,2.2,0,3.2.2,1,.5,2,.8,3,.2,1,.6,2,.8,3,.2,1,.4,2,.5,3,.2,1,.8,2,1,3,.2,1-.4,2.2-.2,3.2.2,1,1.2,1.9,1.4,2.9.2,1-.7,2.2-.6,3.2.1,1.1,1.1,2,1.2,3,.1,1.1,0,2.1,0,3.1,0,1-.3,2.1-.2,3.1,0,1,.7,2,.8,3,0,1,.3,2,.3,3.1,0,1-.2,2.1-.2,3.1,0,1-.3,2.1-.3,3.1,0,1,.2,2.1.2,3.1,0,1,.4,2.1.4,3.1,0,1-.2,2.1-.2,3.1,0,1,.3,2.1.2,3.1,0,1-1.1,2-1.2,3.1,0,1,.4,2.1.3,3.1,0,1,0,2.1,0,3.1,0,1-.4,2.1-.5,3.1,0,1,0,2.1-.1,3.1,0,1-.7,2-.8,3.1,0,1,.7,2.2.6,3.2,0,1-1,2-1.1,3-.1,1,0,2.1,0,3.1-.1,1,.4,2.2.3,3.2-.1,1-.8,2-.9,3-.1,1-.7,2-.9,3-.2,1,.4,2.2.2,3.2-.2,1-.5,2-.7,3.1-.2,1-.4,2-.6,3.1-.2,1-1.1,1.9-1.3,2.9-.2,1-.2,2.1-.4,3.1-.2,1,.4,2.2.1,3.2-.2,1-.5,2-.7,3-.2,1-.7,2-1,3-.3,1-.7,2-.9,3-.3,1-.3,2.1-.5,3.1-.3,1-1.1,1.8-1.4,2.8-.3,1-.8,1.9-1.1,2.9-.3,1-.7,2-1,2.9-.4,1-.6,2-.9,3-.4,1-.8,1.9-1.2,2.9-.4,1-.6,2-1,2.9-.4,1-.3,2.2-.8,3.1-.5.9-1.9,1.4-2.3,2.3-.5.9-.8,2-1.3,2.8-.5.9-.9,1.9-1.4,2.8-.6.9-1.4,1.6-2,2.4-.6.9-1,1.8-1.7,2.6-.7.8-1.3,1.6-2,2.4-.7.8-1.7,1.2-2.5,1.9-.8.7-1.2,1.8-2,2.4-.9.7-1.8,1.2-2.8,1.7-.9.6-2,.8-3,1.2-1,.4-1.9,1.1-3,1.3-1.1.3-2.2.2-3.2.2-1.1,0-2.1-.1-3.2-.4-1-.2-2.2-.2-3.2-.7-.9-.5-1.5-1.6-2.3-2.3-.7-.7-1.5-1.4-2.2-2.2-.7-.8-1.9-1.2-2.6-2.1-.6-.9-.8-2-1.4-3-.5-.9-.8-2-1.3-2.9-.5-.9-1.4-1.7-1.9-2.7-.5-1-1-1.9-1.5-2.9-.4-1-.6-2.1-1-3.1-.4-1-.8-2-1.2-3-.4-1-.6-2.1-1-3.1-.4-1-1.2-1.9-1.5-2.9-.3-1.1-.1-2.3-.4-3.2-.3-1.1-1.3-1.9-1.5-2.9-.3-1-.1-2.1-.4-3-.3-1-.4-2-.6-3-.2-1,0-2.1-.3-3.1-.2-1-1.1-1.9-1.3-2.9-.2-1-.3-2-.5-3-.2-1-.3-2-.5-3.1-.2-1-.5-2-.6-3-.2-1,.4-2.1.2-3.2-.2-1-.6-2-.7-3-.1-1-1-2-1.1-3-.1-1-.4-2-.5-3.1-.1-1,0-2.1-.1-3.1-.1-1-.4-2-.5-3.1-.1-1,.1-2.1,0-3.1,0-1,.1-2.1,0-3.1,0-1-.4-2-.5-3.1,0-1-.6-2-.6-3.1,0-1,.7-2.1.6-3.1,0-1,.1-2.1.1-3.1,0-1-.5-2.1-.5-3.1,0-1-.5-2.1-.5-3.1,0-1,.9-2.1.9-3.1,0-1,0-2.1,0-3.1,0-1-.9-2.1-.9-3.1,0-1,1-2,1-3.1s-1-2.1-.9-3.1h0ZM56.5,133.3c0-1,.2-2.1.3-3.1,0-1,.1-2.1.2-3.1,0-1,.8-2,.9-3.1,0-1,0-2.1,0-3.1,0-1-.6-2.1-.5-3.2,0-1,.2-2.1.3-3.1.1-1,.5-2.1.6-3.1.1-1,.4-2.1.5-3.1.1-1,0-2.1.1-3.1.2-1,.8-2,1-3,.2-1,.5-2,.7-3,.2-1,.4-2,.6-3.1.2-1,.3-2.1.5-3.1.2-1,.5-2,.7-3,.2-1,.3-2.1.5-3.1.3-1,0-2.2.2-3.2.3-1,1.6-1.7,1.9-2.7.3-1,.4-2.1.7-3,.3-1,.5-2,.8-3,.4-1,1-1.8,1.4-2.8.4-1,.5-2,.9-3,.4-1,.8-1.9,1.3-2.9.4-1,1.3-1.7,1.8-2.6.5-.9.5-2.1,1.1-3,.5-.9,1.2-1.7,1.7-2.6.6-.9,1.4-1.6,2-2.4.6-.9,1-1.9,1.6-2.7.6-.7,1.5-1.4,2.4-2.4.7-.8,1.6-1.5,2.5-2.3.9-.8,1.4-1.9,2.3-2.5,1.1-.8,2.3-.8,3.1-1.1,1-.3,1.9-.5,2.9-.5,1,0,2.1-.7,3.1-.5,1,.2,1.8,1,2.8,1.3.9.4,1.7,1.1,2.6,1.6.9.5,2,.7,2.8,1.3.8.6,1.7,1.1,2.5,1.8.8.7,1.3,1.6,2,2.3.7.7,1.4,1.4,2.1,2.2.7.8,1.2,1.6,1.8,2.4.6.8,1.6,1.4,2.2,2.2.6.9.7,2.1,1.1,2.9.5.9,1.6,1.4,2.1,2.3.5.9.6,2,1.1,2.9.5.9.8,1.9,1.3,2.8.4.9.5,2,.9,3,.4.9,1.5,1.6,1.8,2.6.4.9.7,1.9,1.1,2.9.4,1,.7,2,1,2.9.3,1,.8,1.9,1.1,2.9.3,1,0,2.2.3,3.2.3,1,.9,1.9,1.2,2.9.3,1,1.2,1.8,1.5,2.8.3,1,.6,2,.9,3,.3,1,.3,2.1.5,3.1.2,1,.6,2,.9,3,.2,1,.1,2.1.3,3.1.2,1,.1,2.1.3,3.1.2,1,.6,2,.8,3,.2,1,.8,2,.9,3,.2,1-.5,2.2-.3,3.2.1,1,0,2.1.2,3.1.1,1,.7,2,.8,3,.1,1,.6,2,.8,3,.1,1-.7,2.1-.6,3.2,0,1,.3,2,.4,3.1,0,1,1.1,2,1.2,3,0,1-.8,2.1-.8,3.1,0,1,1.1,2,1.2,3,0,1-.8,2.1-.8,3.1,0,1,.4,2,.4,3.1,0,1,.5,2.1.5,3.1,0,1-.9,2.1-.9,3.1,0,1,.5,2.1.5,3.1,0,1,.4,2.1.4,3.1,0,1,.1,2.1,0,3.1,0,1,0,2.1-.1,3.1,0,1-.4,2-.4,3.1,0,1,0,2.1-.1,3.1,0,1-.1,2.1-.2,3.1,0,1-.5,2-.6,3,0,1-.5,2-.6,3,0,1,.8,2.1.7,3.1-.1,1-.4,2-.5,3-.1,1-.5,2-.6,3-.1,1-.7,2-.8,3-.1,1-.3,2-.5,3-.2,1,.5,2.2.4,3.2-.2,1-1.3,1.9-1.5,2.9-.2,1-.1,2.1-.3,3.1-.2,1,.4,2.2.2,3.2-.2,1-1.1,1.9-1.3,2.9-.2,1-.5,2-.7,3-.2,1-.6,2-.9,2.9-.3,1,0,2.1-.2,3.1-.3,1-.9,1.9-1.1,2.9-.3,1-.8,1.9-1.1,2.9-.3,1-.6,2-1,3-.3,1-.5,2-.9,3-.4,1-.5,2-.9,3-.4,1-1.2,1.8-1.6,2.7-.4,1-.7,2-1.1,2.9-.5.9-.5,2.1-1,3-.5.9-1.6,1.5-2.1,2.4-.5.9-.5,2.1-1.1,3-.6.9-1.3,1.6-2,2.4-.7.8-1.3,1.6-2,2.4-.7.8-1.3,1.7-2.1,2.3-.8.7-1.5,1.5-2.4,2-.9.6-1.9,1.1-2.8,1.4-1,.4-2.1.6-3.1.7-1,.1-2.1-.4-3.1-.6-1-.1-2-.2-3.1-.5-.9-.3-1.8-.9-2.8-1.4-.8-.5-1.5-1.3-2.4-2-.8-.6-1.4-1.4-2.2-2.2-.7-.7-1.5-1.4-2.2-2.2-.7-.7-1.8-1.1-2.5-2-.6-.8-1.6-1.4-2.3-2.2-.6-.8-1.1-1.8-1.7-2.7-.6-.9-.8-1.9-1.3-2.8-.5-.9-.5-2.1-1-3-.5-.9-1.5-1.5-2-2.5-.5-.9-1.4-1.7-1.8-2.6-.4-.9-.7-2-1.1-2.9-.4-.9,0-2.2-.5-3.2-.4-1-.8-1.9-1.2-2.9-.4-1-.8-1.9-1.2-2.9-.3-1-.6-2-.9-3-.3-1-1.1-1.8-1.4-2.9-.3-1,.1-2.2-.2-3.2-.3-1-1.4-1.8-1.7-2.8-.3-1,.5-2.3.2-3.3-.2-1-1.3-1.8-1.5-2.9-.2-1-.2-2.1-.4-3.1-.2-1,0-2.1-.2-3.2-.2-1-1-1.9-1.2-3-.2-1-.6-2-.7-3.1-.2-1,0-2.1-.2-3.1-.2-1,0-2.1-.2-3.1-.2-1-.5-2-.7-3.1-.1-1-.7-2-.9-3.1-.1-1,0-2.1-.2-3.1-.1-1-.5-2-.6-3.1-.1-1,.8-2.2.7-3.2,0-1-.7-2-.8-3.1,0-1-.3-2.1-.4-3.1,0-1,.1-2.1,0-3.1,0-1-.2-2.1-.3-3.1,0-1,.4-2.1.4-3.1,0-1-.9-2.1-1-3.1,0-1,.7-2.1.7-3.1,0-1-.4-2.1-.4-3.1,0-1-.7-2.1-.7-3.1,0-1,.5-2.1.5-3.1,0-1,.5-2.1.5-3.1,0-1-.7-2.1-.6-3.1h0Z"/>
  <path class="st5" d="M186.4,64c.8-.8,1.4-2,2.3-2.6,1-.6,2.2-.8,3.3-1,1.1-.3,2.1-.3,3.3,0,1,.2,2.2.3,3.2.8.9.5,1.8,1.2,2.8,2,.3.2.5.4.8.6.7.7,1.5,1.5,2.1,2.3.6.8.8,1.9,1.3,2.9.5.9,1.1,1.7,1.6,2.7.4.9.7,1.9,1.1,2.9.4,1,.9,1.9,1.2,2.9.3,1,.7,2,1,3,.3,1,.3,2.1.6,3.1.3,1,1,1.9,1.2,2.9.3,1.1,0,2.2.3,3.2.2,1,.7,1.9.9,2.9.2,1,.4,2,.6,3,.2,1,.2,2,.4,3,.2,1,.5,2,.7,3,.2,1,.8,1.9,1,2.9.2,1,.5,2,.6,3,.2,1,.1,2,.3,3,.2,1,0,2,.1,3,.1,1,.5,2,.6,3,.1,1,.5,2,.6,3,.1,1,.3,2,.4,3,.1,1-.2,2.1-.1,3.1,0,1,.6,2,.7,3,0,1-.4,2.1-.3,3.1,0,1,.2,2,.2,3,0,1,.2,2,.3,3,0,1-.3,2-.3,3,0,1,0,2,0,3,0,1,.2,2,.2,3,0,1,0,2,0,3,0,1,0,2,0,3,0,1-.2,2-.3,3,0,1.1-.1,2.1-.2,3.1,0,1.1.1,2.1,0,3.2-.1,1-.7,2-.9,3.1-.1,1,.2,2.1,0,3.2-.1,1-.2,2.1-.4,3.1-.2,1-.3,2.1-.5,3.1-.2,1-.3,2.1-.5,3.1-.2,1-.7,2-.9,3-.2,1-.2,2.1-.4,3.1-.2,1-.6,2-.9,3-.2,1-.5,2-.7,3.1-.2,1-.3,2.1-.6,3.1-.3,1-.5,2-.7,3.1-.3,1-.8,2-1.1,3-.3,1-.3,2.1-.6,3.1-.3,1-.7,2-1,3-.3,1-.8,2-1.1,3-.3,1-.3,2.1-.6,3.1s-.9,1.9-1.2,2.9,0,2.2-.4,3.2-1.1,1.9-1.4,2.9c-.2.7,0,1.4-.2,2.1-.3,1-.9,1.9-1.4,2.7-.5.9-.8,2-1.5,2.7-.7.7-1.6,1.4-2.5,1.8-.9.5-2,.5-3,.7-1,.2-1.9.1-3,0-1,0-2,.4-3.1.2-1-.2-1.9-.8-2.8-1.1-.9-.3-1.9-.7-2.8-1.1-.9-.4-1.9-.8-2.7-1.3-.9-.5-1.9-.9-2.6-1.5-.8-.6-1.2-1.7-1.9-2.4-.7-.7-1.9-1.1-2.5-1.8-.6-.8-.9-1.9-1.4-2.8-.5-.9-1-1.8-1.4-2.7-.4-.9-.8-1.9-1.2-2.9-.3-1-.5-2-.8-3-.3-1-.3-2-.6-3-.2-1-.2-2-.4-3.1-.2-1-.4-2-.5-3-.1-1-.5-2-.6-3-.1-1-.1-2-.2-3.1,0-1-.2-2-.2-3.1,0-1-.3-2-.4-3.1,0-1,0-2.1,0-3.1,0-1,.3-2.1.3-3.1,0-1-.2-2.1-.3-3.1,0-1,0-2.1,0-3.1,0-1-.1-2.1-.1-3.1,0-1.1,0-2.1.1-3.1,0-1.1.2-2.1.2-3.1,0-1.1.3-2.1.3-3.1,0-1.1-.4-2.1-.4-3.1,0-1.1.2-2.1.2-3.1,0-1.1,0-2.1,0-3.1,0-1.1.3-2.1.3-3.2,0-1.1,0-2.1,0-3.2,0-1.1,0-2.1,0-3.2,0-1.1.1-2.1.1-3.2,0-1.1-.2-2.1-.1-3.2,0-1.1.3-2.1.3-3.2,0-1.1.2-2.1.2-3.2,0-1.1.1-2.1.2-3.2,0-1.1-.3-2.1-.2-3.2,0-1.1-.2-2.1-.1-3.2,0-1.1.5-2.1.6-3.1,0-1.1.3-2.1.4-3.2,0-1.1.2-2.1.3-3.2.1-1.1.2-2.1.3-3.2.1-1.1.2-2.1.4-3.2.2-1,0-2.1.2-3.2.2-1,.3-2.1.5-3.1.2-1,.6-2,.8-3.1.2-.8.2-1.9.4-3.1.2-.9.5-1.9.8-3,.2-.9,1-1.8,1.3-2.8.3-1,.7-1.9,1-2.9.3-1,.3-2,.6-3,.3-1,.9-1.8,1.3-2.8.4-1,.7-1.9,1.1-2.9.4-1,.6-2,1-2.9.4-.9,1-1.8,1.5-2.7.5-.9,1.1-1.7,1.7-2.6.6-.9,1.2-1.7,1.8-2.5.6-.8,1.3-1.6,2-2.3h0ZM189.6,73.4c-.2.1-.6,1.5-1.6,2.8-.6.8-1.6,1.5-2.2,2.3-.9,1.2-1.7,2.2-1.9,2.5-.5.8-.7,1.9-1.1,3-.4.9-.8,1.9-1.1,2.9-.3,1-.5,2-.8,3-.3,1-.4,2-.7,3.1-.2,1-.9,1.9-1.1,3-.2,1-.2,2.1-.4,3.1-.2,1-.4,2-.6,3.1-.2,1-.2,2.1-.3,3.1-.2,1-.2,2.1-.3,3.1-.1,1-.5,2-.6,3.1-.1,1,.2,2.1,0,3.2-.1,1-.7,2-.8,3.1-.1,1,0,2.1,0,3.2,0,1-.2,2.1-.3,3.1,0,1.1-.4,2.1-.5,3.1,0,1.1-.1,2.1-.2,3.2,0,1.1.3,2.1.2,3.2,0,1.1,0,2.1,0,3.2,0,1.1-.3,2.1-.4,3.1,0,1.1-.4,2.1-.5,3.1,0,1.1.1,2.1,0,3.2,0,1.1.2,2.1.2,3.2,0,1.1,0,2.1,0,3.2,0,1.1-.5,2.1-.5,3.2,0,1.1.5,2.2.5,3.1,0,1.1-.5,2.2-.4,3.1,0,.9.1,1.9.2,3,0,1,.2,2,.3,3,0,1-.3,2-.2,3.1,0,1,0,2,.1,3,0,1,.3,2,.4,3,0,1,.2,2,.3,3,0,1,.3,2,.4,3,0,1,0,2,.2,3,.1,1,.2,2,.4,3,.1,1,.6,2,.7,3,.1,1-.2,2.1,0,3.1.2,1,.8,1.9,1,2.9.2,1,.5,2,.7,3,.2,1,.5,2,.8,3,.3,1,.6,2,.9,2.9.3,1,.4,2,.8,3,.4,1,1,1.8,1.5,2.6.5.9.9,1.9,1.5,2.6.7.8,1.2,1.6,1.8,2.2.7.8,1.4,1.3,2.2,1.8.8.5,1.5.7,2.6.7.8,0,1.7.2,2.8-.1,1-.3,1.8-.9,2.6-1.4.9-.5,1.7-1,2.3-1.8.6-.7,1.3-1.5,1.8-2.4.4-.9.5-1.9.9-2.8.3-.9.9-1.8,1.1-2.7.2-1-.1-2,0-3,.2-1,.9-1.8,1.2-2.8.2-1,0-2.1.3-3.1.2-1,.7-2,.9-3,.2-1,0-2.1.2-3.1.2-1,.4-2,.6-3.1.2-1,.7-2,.8-3,.2-1,.5-2,.6-3.1.2-1-.2-2.1,0-3.2.1-1,.6-2,.8-3,.1-1,.2-2.1.4-3.1.1-1,.1-2.1.2-3.1.1-1,0-2.1,0-3.1,0-1,.7-2,.8-3.1,0-1-.5-2.1-.4-3.2,0-1,.5-2.1.5-3.1,0-1,0-2.1,0-3.1,0-1,0-2.1,0-3.1,0-1,.2-2.1.2-3.1,0-1,.2-2.1.2-3.1,0-1,.3-2.1.3-3.1,0-1,0-2.1,0-3.1,0-1-.2-2.1-.2-3.1,0-1,0-2.1,0-3.1,0-1,0-2.1,0-3.1,0-1-.3-2.1-.3-3.1,0-1,0-2.1-.1-3.1,0-1.1.2-2.1.2-3.2,0-1.1-.4-2.1-.4-3.1,0-1-.2-2.1-.3-3.1,0-1-.3-2.1-.4-3.1-.1-1-.2-2.1-.3-3.1-.1-1-.1-2.1-.2-3.1-.1-1,0-2.1-.2-3.1-.2-1-.7-2-.9-3-.2-1-.2-2.1-.4-3.1-.2-1-.4-2-.6-3-.1-.7-.1-1.8-.4-3.1-.2-.9-.5-1.9-.8-3-.2-.9-.6-1.9-.9-2.9-.3-1-.5-2-.9-3-.4-1-.9-1.9-1.3-2.8-.4-1-.7-2-1.2-2.9-.6-.9-1.1-1.9-1.7-2.6-.7-.8-1.6-1.6-2.5-2-.9-.4-2-.2-3.1,0-.9.2-1.9.4-2.9,1.2h0Z"/>
  <path class="st4" d="M186.4,64c.8-.8,1.4-2,2.3-2.6,1-.6,2.2-.8,3.3-1,1.1-.3,2.1-.3,3.3,0,1,.2,2.2.3,3.2.8.9.5,1.8,1.2,2.8,2,.3.2.5.4.8.6.7.7,1.5,1.5,2.1,2.3.6.8.8,1.9,1.3,2.9.5.9,1.1,1.7,1.6,2.7.4.9.7,1.9,1.1,2.9.4,1,.9,1.9,1.2,2.9.3,1,.7,2,1,3,.3,1,.3,2.1.6,3.1.3,1,1,1.9,1.2,2.9.3,1.1,0,2.2.3,3.2.2,1,.7,1.9.9,2.9.2,1,.4,2,.6,3,.2,1,.2,2,.4,3,.2,1,.5,2,.7,3,.2,1,.8,1.9,1,2.9.2,1,.5,2,.6,3,.2,1,.1,2,.3,3,.2,1,0,2,.1,3,.1,1,.5,2,.6,3,.1,1,.5,2,.6,3,.1,1,.3,2,.4,3,.1,1-.2,2.1-.1,3.1,0,1,.6,2,.7,3,0,1-.4,2.1-.3,3.1,0,1,.2,2,.2,3,0,1,.2,2,.3,3,0,1-.3,2-.3,3,0,1,0,2,0,3,0,1,.2,2,.2,3,0,1,0,2,0,3,0,1,0,2,0,3,0,1-.2,2-.3,3,0,1.1-.1,2.1-.2,3.1,0,1.1.1,2.1,0,3.2-.1,1-.7,2-.9,3.1-.1,1,.2,2.1,0,3.2-.1,1-.2,2.1-.4,3.1-.2,1-.3,2.1-.5,3.1-.2,1-.3,2.1-.5,3.1-.2,1-.7,2-.9,3-.2,1-.2,2.1-.4,3.1-.2,1-.6,2-.9,3-.2,1-.5,2-.7,3.1-.2,1-.3,2.1-.6,3.1-.3,1-.5,2-.7,3.1-.3,1-.8,2-1.1,3-.3,1-.3,2.1-.6,3.1-.3,1-.7,2-1,3-.3,1-.8,2-1.1,3-.3,1-.3,2.1-.6,3.1s-.9,1.9-1.2,2.9,0,2.2-.4,3.2-1.1,1.9-1.4,2.9c-.2.7,0,1.4-.2,2.1-.3,1-.9,1.9-1.4,2.7-.5.9-.8,2-1.5,2.7-.7.7-1.6,1.4-2.5,1.8-.9.5-2,.5-3,.7-1,.2-1.9.1-3,0-1,0-2,.4-3.1.2-1-.2-1.9-.8-2.8-1.1-.9-.3-1.9-.7-2.8-1.1-.9-.4-1.9-.8-2.7-1.3-.9-.5-1.9-.9-2.6-1.5-.8-.6-1.2-1.7-1.9-2.4-.7-.7-1.9-1.1-2.5-1.8-.6-.8-.9-1.9-1.4-2.8-.5-.9-1-1.8-1.4-2.7-.4-.9-.8-1.9-1.2-2.9-.3-1-.5-2-.8-3-.3-1-.3-2-.6-3-.2-1-.2-2-.4-3.1-.2-1-.4-2-.5-3-.1-1-.5-2-.6-3-.1-1-.1-2-.2-3.1,0-1-.2-2-.2-3.1,0-1-.3-2-.4-3.1,0-1,0-2.1,0-3.1,0-1,.3-2.1.3-3.1,0-1-.2-2.1-.3-3.1,0-1,0-2.1,0-3.1,0-1-.1-2.1-.1-3.1,0-1.1,0-2.1.1-3.1,0-1.1.2-2.1.2-3.1,0-1.1.3-2.1.3-3.1,0-1.1-.4-2.1-.4-3.1,0-1.1.2-2.1.2-3.1,0-1.1,0-2.1,0-3.1,0-1.1.3-2.1.3-3.2,0-1.1,0-2.1,0-3.2,0-1.1,0-2.1,0-3.2,0-1.1.1-2.1.1-3.2,0-1.1-.2-2.1-.1-3.2,0-1.1.3-2.1.3-3.2,0-1.1.2-2.1.2-3.2,0-1.1.1-2.1.2-3.2,0-1.1-.3-2.1-.2-3.2,0-1.1-.2-2.1-.1-3.2,0-1.1.5-2.1.6-3.1,0-1.1.3-2.1.4-3.2,0-1.1.2-2.1.3-3.2.1-1.1.2-2.1.3-3.2.1-1.1.2-2.1.4-3.2.2-1,0-2.1.2-3.2.2-1,.3-2.1.5-3.1.2-1,.6-2,.8-3.1.2-.8.2-1.9.4-3.1.2-.9.5-1.9.8-3,.2-.9,1-1.8,1.3-2.8.3-1,.7-1.9,1-2.9.3-1,.3-2,.6-3,.3-1,.9-1.8,1.3-2.8.4-1,.7-1.9,1.1-2.9.4-1,.6-2,1-2.9.4-.9,1-1.8,1.5-2.7.5-.9,1.1-1.7,1.7-2.6.6-.9,1.2-1.7,1.8-2.5.6-.8,1.3-1.6,2-2.3h0ZM189.6,73.4c-.2.1-.6,1.5-1.6,2.8-.6.8-1.6,1.5-2.2,2.3-.9,1.2-1.7,2.2-1.9,2.5-.5.8-.7,1.9-1.1,3-.4.9-.8,1.9-1.1,2.9-.3,1-.5,2-.8,3-.3,1-.4,2-.7,3.1-.2,1-.9,1.9-1.1,3-.2,1-.2,2.1-.4,3.1-.2,1-.4,2-.6,3.1-.2,1-.2,2.1-.3,3.1-.2,1-.2,2.1-.3,3.1-.1,1-.5,2-.6,3.1-.1,1,.2,2.1,0,3.2-.1,1-.7,2-.8,3.1-.1,1,0,2.1,0,3.2,0,1-.2,2.1-.3,3.1,0,1.1-.4,2.1-.5,3.1,0,1.1-.1,2.1-.2,3.2,0,1.1.3,2.1.2,3.2,0,1.1,0,2.1,0,3.2,0,1.1-.3,2.1-.4,3.1,0,1.1-.4,2.1-.5,3.1,0,1.1.1,2.1,0,3.2,0,1.1.2,2.1.2,3.2,0,1.1,0,2.1,0,3.2,0,1.1-.5,2.1-.5,3.2,0,1.1.5,2.2.5,3.1,0,1.1-.5,2.2-.4,3.1,0,.9.1,1.9.2,3,0,1,.2,2,.3,3,0,1-.3,2-.2,3.1,0,1,0,2,.1,3,0,1,.3,2,.4,3,0,1,.2,2,.3,3,0,1,.3,2,.4,3,0,1,0,2,.2,3,.1,1,.2,2,.4,3,.1,1,.6,2,.7,3,.1,1-.2,2.1,0,3.1.2,1,.8,1.9,1,2.9.2,1,.5,2,.7,3,.2,1,.5,2,.8,3,.3,1,.6,2,.9,2.9.3,1,.4,2,.8,3,.4,1,1,1.8,1.5,2.6.5.9.9,1.9,1.5,2.6.7.8,1.2,1.6,1.8,2.2.7.8,1.4,1.3,2.2,1.8.8.5,1.5.7,2.6.7.8,0,1.7.2,2.8-.1,1-.3,1.8-.9,2.6-1.4.9-.5,1.7-1,2.3-1.8.6-.7,1.3-1.5,1.8-2.4.4-.9.5-1.9.9-2.8.3-.9.9-1.8,1.1-2.7.2-1-.1-2,0-3,.2-1,.9-1.8,1.2-2.8.2-1,0-2.1.3-3.1.2-1,.7-2,.9-3,.2-1,0-2.1.2-3.1.2-1,.4-2,.6-3.1.2-1,.7-2,.8-3,.2-1,.5-2,.6-3.1.2-1-.2-2.1,0-3.2.1-1,.6-2,.8-3,.1-1,.2-2.1.4-3.1.1-1,.1-2.1.2-3.1.1-1,0-2.1,0-3.1,0-1,.7-2,.8-3.1,0-1-.5-2.1-.4-3.2,0-1,.5-2.1.5-3.1,0-1,0-2.1,0-3.1,0-1,0-2.1,0-3.1,0-1,.2-2.1.2-3.1,0-1,.2-2.1.2-3.1,0-1,.3-2.1.3-3.1,0-1,0-2.1,0-3.1,0-1-.2-2.1-.2-3.1,0-1,0-2.1,0-3.1,0-1,0-2.1,0-3.1,0-1-.3-2.1-.3-3.1,0-1,0-2.1-.1-3.1,0-1.1.2-2.1.2-3.2,0-1.1-.4-2.1-.4-3.1,0-1-.2-2.1-.3-3.1,0-1-.3-2.1-.4-3.1-.1-1-.2-2.1-.3-3.1-.1-1-.1-2.1-.2-3.1-.1-1,0-2.1-.2-3.1-.2-1-.7-2-.9-3-.2-1-.2-2.1-.4-3.1-.2-1-.4-2-.6-3-.1-.7-.1-1.8-.4-3.1-.2-.9-.5-1.9-.8-3-.2-.9-.6-1.9-.9-2.9-.3-1-.5-2-.9-3-.4-1-.9-1.9-1.3-2.8-.4-1-.7-2-1.2-2.9-.6-.9-1.1-1.9-1.7-2.6-.7-.8-1.6-1.6-2.5-2-.9-.4-2-.2-3.1,0-.9.2-1.9.4-2.9,1.2h0Z"/>
  <path class="st3" d="M102.1,67.4c.3.3,1.2,1.3,2.1,2.7.5.9.8,2.1,1.4,3.1.6,1,1.2,2,1.7,2.9.6,1.1,1.1,2.1,1.6,3,.8,1.4,1.9,2.3,2.1,2.8.4,1,.4,2,.7,3,.3,1,.4,2,.7,3,.3,1,.5,2,.8,3,.3,1,.9,1.9,1.1,2.9.3,1,.4,2,.7,3,.2,1,.4,2,.7,3,.2,1,.6,2,.8,3,.2,1,.3,2,.5,3,.2,1,.3,2,.4,3,.2,1,.5,2,.6,3,.1,1,.4,2,.5,3,.1,1,.3,2,.4,3,.1,1,0,2,.1,3.1,0,1-.3,2.1-.2,3.1,0,1,.2,2,.2,3,0,1,.6,2,.7,3,0,1-.1,2,0,3.1,0,1,.5,2,.5,3,0,1-.5,2.1-.5,3.1,0,1,0,2,0,3,0,1,.4,2,.4,3,0,1,.1,2,.2,3.1,0,1-.5,2-.5,3.1,0,1,.4,2,.4,3.1,0,1-.1,2-.1,3.1,0,1,0,2,0,3.1,0,1,.4,2,.4,3.1,0,1-.2,2-.2,3.1,0,1-.4,2-.4,3.1s.4,2,.4,3.1c0,1-.3,2-.3,3.1,0,1,.5,2,.5,3,0,1-.6,2-.5,3.1,0,1,.6,2,.6,3,0,1-.6,2-.6,3.1,0,1,.5,2,.5,3,0,1-.3,2-.3,3,0,1,.2,2,.2,3.1,0,1-.3,2-.3,3,0,1-.1,2-.3,3-.1,1-.5,2-.7,3-.1,1,0,2.1-.1,3.1-.2,1-.4,2-.6,3-.2,1-.4,2-.7,2.9-.3,1-.7,1.9-1,2.8-.3.9-1,1.7-1.4,2.6-.4.9-.5,2-1,2.8-.5.9-1.5,1.4-2.1,2.2-.6.8-.9,1.9-1.6,2.6-.7.7-1.4,1.4-2.2,2.1-.8.6-1.7,1.2-2.5,1.7-.9.5-1.9.7-2.9,1.1-.9.4-1.9.8-2.8,1.1-1,.3-2,.3-3,.5-1,.1-2,.2-3,.1-1,0-1.9-.4-2.9-.8-1-.3-1.9-.5-2.7-1-.9-.5-1.5-1.2-2.2-2-.7-.7-1.4-1.4-2-2.2-.5-.8-.6-1.9-1-2.8-.4-.9-.7-1.8-1.1-2.7-.3-.9-.7-1.8-1-2.7-.3-.9-.7-1.8-1-2.7-.3-.9-1-1.7-1.3-2.7-.3-.9-.5-1.9-.8-2.8-.3-.9-.3-2-.6-2.9-.3-.9-.8-1.8-1-2.7-.3-1-.8-1.9-1.1-2.9-.3-1-.3-2-.5-3-.2-1-.7-2-.9-3-.2-1,0-2.1-.2-3.1-.2-1-.5-2-.7-3-.2-1-.8-1.9-1-2.9-.2-1-.2-2-.4-3.1-.2-1-.1-2.1-.3-3.1-.2-1-.4-2-.6-3-.2-1-.3-2-.4-3-.1-1-.7-2-.8-3-.1-1,.2-2.1,0-3.1-.1-1-.6-2-.7-3,0-1,0-2.1,0-3.1,0-1-.3-2-.4-3.1,0-1,.2-2.1.2-3.1,0-1-.5-2-.5-3.1,0-1,0-2.1,0-3.1,0-1-.2-2.1-.2-3.1s.6-2.1.6-3.1c0-1,0-2,0-3.1,0-1-.2-2.1-.1-3.1,0-1,.1-2,.2-3.1,0-1-.1-2.1,0-3.1,0-1-.1-2.1,0-3.1,0-1,.5-2,.6-3,0-1,.4-2,.5-3,.1-1-.1-2.1,0-3.1.1-1,.2-2,.3-3.1.1-1,.1-2.1.3-3.1.1-1,.6-2,.7-3,.2-1,.4-2,.5-3,.2-1,0-2.1.2-3.1.2-1,.5-2,.7-3,.2-1,.6-2,.8-3s.7-1.9,1-2.9c.2-.9,0-2,.4-3.1.2-.9.4-2,.7-3.1.3-1,1.1-1.8,1.4-2.9.3-1,0-2.2.3-3.2.3-1,1.1-1.8,1.5-2.8.4-1,.3-2.1.7-3.1.4-1,1.1-1.8,1.6-2.8.4-1,.8-2,1.3-2.9.5-1,.8-2.1,1.3-2.9.6-.9,1.5-1.6,2.2-2.3.7-.8,1.4-1.7,2.2-2.3.9-.6,1.9-1.1,2.9-1.3,1-.2,2-.1,3-.1,1,0,2.1-.2,3,0,1,.2,1.8,1,2.7,1.4.9.5,1.8.8,2.5,1.6h0ZM98.5,77.3c-.9-.7-1.9-.9-2.8-1-1-.1-2.1-.3-3,.1-.9.4-1.7,1-2.5,1.7-.7.7-1.4,1.4-2,2.3-.6.8-.6,2-1.1,2.9-.5.9-1.2,1.7-1.5,2.6-.3,1-.9,1.9-1.2,2.9-.3,1-.7,1.9-1,2.9-.3,1-.2,2.1-.5,3.1-.2,1-.6,2-.8,3-.2,1-.4,2-.6,3-.2,1-.2,2-.3,3.1-.2,1-.4,2-.6,3-.1,1-.3,2-.5,3-.1,1,0,2.1-.2,3.1-.1,1,0,2.1-.2,3.1,0,1-.1,2-.2,3.1,0,1-.3,2-.4,3.1,0,1-.6,2-.6,3.1,0,1,0,2.1-.1,3.1,0,1,.4,2.1.4,3.1,0,1-.3,2.1-.3,3.1,0,1,.4,2.1.4,3.1,0,1-.6,2.1-.6,3.1,0,1,0,2.1,0,3.1,0,1,.4,2.1.4,3.1,0,1,.2,2.1.2,3.1,0,1-.5,2.1-.4,3.1,0,1,.5,2.1.6,3.1,0,1,0,2.1,0,3.1,0,1,0,2.1.1,3.1,0,1,.6,2,.7,3.1,0,1,0,2.1,0,3.1,0,1-.2,2.1-.1,3.1,0,1,.6,2,.7,3.1,0,1-.2,2.1,0,3.1.1,1,.7,2,.8,3,.1,1-.4,2.1-.2,3.1.1,1,.8,2,.9,3,.1,1-.4,2.1-.2,3.1.1,1,.8,2,.9,3,.2,1.1,0,2.3.2,3.4.2,1.1.7,2.2.9,3.3.2,1.1.3,2.2.5,3.3s.5,2.2.7,3.3c.2,1,.1,2.1.4,3.1.2,1,.8,2,1.1,3,.3,1,.5,2,.9,3,.3,1,.8,1.9,1.3,2.8.5,1,1,1.8,1.7,2.6.8.9,1.5,1.8,2.4,2.3,1.1.5,2.2.4,3.3.4,1.1,0,2.3.2,3.3-.2,1-.4,1.6-1.5,2.5-2.2.8-.7,1.5-1.5,2.2-2.4.6-.8,1.2-1.7,1.7-2.6.5-.9,1.3-1.7,1.7-2.7.4-1,.8-2,1.1-3,.3-1,.8-2,1.1-3,.3-1,.5-2.1.7-3.1.2-1,.6-2.1.8-3.1.2-1.1,0-2.1.2-3.2.1-1.1.4-2.1.5-3.2.1-1.1,0-2.2,0-3.2.1-1.1.6-2.1.7-3.1,0-1.1.2-2.1.3-3.2,0-1,.1-2.1.2-3.1,0-1,0-2.1.2-3.1,0-1-.3-2.1-.2-3.2,0-1,.2-2.1.2-3.1,0-1,.4-2.1.4-3.1,0-1-.2-2.1-.2-3.1,0-1-.3-2.1-.3-3.1,0-1,.2-2.1.1-3.1,0-1-.3-2.1-.3-3.1,0-1,.4-2.1.4-3.1,0-1-.2-2.1-.3-3.1,0-1-.5-2.1-.6-3.1,0-1,0-2.1,0-3.1,0-1,0-2.1,0-3.1,0-1-.3-2.1-.3-3.1s-.1-2.1-.2-3.1-.6-2-.7-3.1c0-1,.2-2.1.2-3.2,0-1-.5-2-.6-3,0-1,0-2.1,0-3.1,0-1-.2-2-.3-3,0-1,.2-2.1.2-3.1,0-1-.5-2-.6-3,0-1-.1-2-.2-3,0-1-.3-2-.4-3-.1-1,.4-2.1.2-3.1-.1-1-.2-2-.4-3-.2-1-.6-2-.8-3-.2-1-.4-2-.6-3-.3-1-.8-1.9-1.1-2.9-.3-1-.8-1.8-1.2-2.8-.4-.9-.4-2-.8-2.9-.4-.9-.7-1.9-1.2-2.8-.5-.9-1.3-1.6-1.8-2.5-.5-.9-1.1-1.7-1.7-2.5-.6-.9-1.2-1.7-1.8-2.2h0Z"/>
  <path class="st2" d="M102.1,67.4c.3.3,1.2,1.3,2.1,2.7.5.9.8,2.1,1.4,3.1.6,1,1.2,2,1.7,2.9.6,1.1,1.1,2.1,1.6,3,.8,1.4,1.9,2.3,2.1,2.8.4,1,.4,2,.7,3,.3,1,.4,2,.7,3,.3,1,.5,2,.8,3,.3,1,.9,1.9,1.1,2.9.3,1,.4,2,.7,3,.2,1,.4,2,.7,3,.2,1,.6,2,.8,3,.2,1,.3,2,.5,3,.2,1,.3,2,.4,3,.2,1,.5,2,.6,3,.1,1,.4,2,.5,3,.1,1,.3,2,.4,3,.1,1,0,2,.1,3.1,0,1-.3,2.1-.2,3.1,0,1,.2,2,.2,3,0,1,.6,2,.7,3,0,1-.1,2,0,3.1,0,1,.5,2,.5,3,0,1-.5,2.1-.5,3.1,0,1,0,2,0,3,0,1,.4,2,.4,3,0,1,.1,2,.2,3.1,0,1-.5,2-.5,3.1,0,1,.4,2,.4,3.1,0,1-.1,2-.1,3.1,0,1,0,2,0,3.1,0,1,.4,2,.4,3.1,0,1-.2,2-.2,3.1,0,1-.4,2-.4,3.1s.4,2,.4,3.1c0,1-.3,2-.3,3.1,0,1,.5,2,.5,3,0,1-.6,2-.5,3.1,0,1,.6,2,.6,3,0,1-.6,2-.6,3.1,0,1,.5,2,.5,3,0,1-.3,2-.3,3,0,1,.2,2,.2,3.1,0,1-.3,2-.3,3,0,1-.1,2-.3,3-.1,1-.5,2-.7,3-.1,1,0,2.1-.1,3.1-.2,1-.4,2-.6,3-.2,1-.4,2-.7,2.9-.3,1-.7,1.9-1,2.8-.3.9-1,1.7-1.4,2.6-.4.9-.5,2-1,2.8-.5.9-1.5,1.4-2.1,2.2-.6.8-.9,1.9-1.6,2.6-.7.7-1.4,1.4-2.2,2.1-.8.6-1.7,1.2-2.5,1.7-.9.5-1.9.7-2.9,1.1-.9.4-1.9.8-2.8,1.1-1,.3-2,.3-3,.5-1,.1-2,.2-3,.1-1,0-1.9-.4-2.9-.8-1-.3-1.9-.5-2.7-1-.9-.5-1.5-1.2-2.2-2-.7-.7-1.4-1.4-2-2.2-.5-.8-.6-1.9-1-2.8-.4-.9-.7-1.8-1.1-2.7-.3-.9-.7-1.8-1-2.7-.3-.9-.7-1.8-1-2.7-.3-.9-1-1.7-1.3-2.7-.3-.9-.5-1.9-.8-2.8-.3-.9-.3-2-.6-2.9-.3-.9-.8-1.8-1-2.7-.3-1-.8-1.9-1.1-2.9-.3-1-.3-2-.5-3-.2-1-.7-2-.9-3-.2-1,0-2.1-.2-3.1-.2-1-.5-2-.7-3-.2-1-.8-1.9-1-2.9-.2-1-.2-2-.4-3.1-.2-1-.1-2.1-.3-3.1-.2-1-.4-2-.6-3-.2-1-.3-2-.4-3-.1-1-.7-2-.8-3-.1-1,.2-2.1,0-3.1-.1-1-.6-2-.7-3,0-1,0-2.1,0-3.1,0-1-.3-2-.4-3.1,0-1,.2-2.1.2-3.1,0-1-.5-2-.5-3.1,0-1,0-2.1,0-3.1,0-1-.2-2.1-.2-3.1s.6-2.1.6-3.1c0-1,0-2,0-3.1,0-1-.2-2.1-.1-3.1,0-1,.1-2,.2-3.1,0-1-.1-2.1,0-3.1,0-1-.1-2.1,0-3.1,0-1,.5-2,.6-3,0-1,.4-2,.5-3,.1-1-.1-2.1,0-3.1.1-1,.2-2,.3-3.1.1-1,.1-2.1.3-3.1.1-1,.6-2,.7-3,.2-1,.4-2,.5-3,.2-1,0-2.1.2-3.1.2-1,.5-2,.7-3,.2-1,.6-2,.8-3s.7-1.9,1-2.9c.2-.9,0-2,.4-3.1.2-.9.4-2,.7-3.1.3-1,1.1-1.8,1.4-2.9.3-1,0-2.2.3-3.2.3-1,1.1-1.8,1.5-2.8.4-1,.3-2.1.7-3.1.4-1,1.1-1.8,1.6-2.8.4-1,.8-2,1.3-2.9.5-1,.8-2.1,1.3-2.9.6-.9,1.5-1.6,2.2-2.3.7-.8,1.4-1.7,2.2-2.3.9-.6,1.9-1.1,2.9-1.3,1-.2,2-.1,3-.1,1,0,2.1-.2,3,0,1,.2,1.8,1,2.7,1.4.9.5,1.8.8,2.5,1.6h0ZM98.5,77.3c-.9-.7-1.9-.9-2.8-1-1-.1-2.1-.3-3,.1-.9.4-1.7,1-2.5,1.7-.7.7-1.4,1.4-2,2.3-.6.8-.6,2-1.1,2.9-.5.9-1.2,1.7-1.5,2.6-.3,1-.9,1.9-1.2,2.9-.3,1-.7,1.9-1,2.9-.3,1-.2,2.1-.5,3.1-.2,1-.6,2-.8,3-.2,1-.4,2-.6,3-.2,1-.2,2-.3,3.1-.2,1-.4,2-.6,3-.1,1-.3,2-.5,3-.1,1,0,2.1-.2,3.1-.1,1,0,2.1-.2,3.1,0,1-.1,2-.2,3.1,0,1-.3,2-.4,3.1,0,1-.6,2-.6,3.1,0,1,0,2.1-.1,3.1,0,1,.4,2.1.4,3.1,0,1-.3,2.1-.3,3.1,0,1,.4,2.1.4,3.1,0,1-.6,2.1-.6,3.1,0,1,0,2.1,0,3.1,0,1,.4,2.1.4,3.1,0,1,.2,2.1.2,3.1,0,1-.5,2.1-.4,3.1,0,1,.5,2.1.6,3.1,0,1,0,2.1,0,3.1,0,1,0,2.1.1,3.1,0,1,.6,2,.7,3.1,0,1,0,2.1,0,3.1,0,1-.2,2.1-.1,3.1,0,1,.6,2,.7,3.1,0,1-.2,2.1,0,3.1.1,1,.7,2,.8,3,.1,1-.4,2.1-.2,3.1.1,1,.8,2,.9,3,.1,1-.4,2.1-.2,3.1.1,1,.8,2,.9,3,.2,1.1,0,2.3.2,3.4.2,1.1.7,2.2.9,3.3.2,1.1.3,2.2.5,3.3s.5,2.2.7,3.3c.2,1,.1,2.1.4,3.1.2,1,.8,2,1.1,3,.3,1,.5,2,.9,3,.3,1,.8,1.9,1.3,2.8.5,1,1,1.8,1.7,2.6.8.9,1.5,1.8,2.4,2.3,1.1.5,2.2.4,3.3.4,1.1,0,2.3.2,3.3-.2,1-.4,1.6-1.5,2.5-2.2.8-.7,1.5-1.5,2.2-2.4.6-.8,1.2-1.7,1.7-2.6.5-.9,1.3-1.7,1.7-2.7.4-1,.8-2,1.1-3,.3-1,.8-2,1.1-3,.3-1,.5-2.1.7-3.1.2-1,.6-2.1.8-3.1.2-1.1,0-2.1.2-3.2.1-1.1.4-2.1.5-3.2.1-1.1,0-2.2,0-3.2.1-1.1.6-2.1.7-3.1,0-1.1.2-2.1.3-3.2,0-1,.1-2.1.2-3.1,0-1,0-2.1.2-3.1,0-1-.3-2.1-.2-3.2,0-1,.2-2.1.2-3.1,0-1,.4-2.1.4-3.1,0-1-.2-2.1-.2-3.1,0-1-.3-2.1-.3-3.1,0-1,.2-2.1.1-3.1,0-1-.3-2.1-.3-3.1,0-1,.4-2.1.4-3.1,0-1-.2-2.1-.3-3.1,0-1-.5-2.1-.6-3.1,0-1,0-2.1,0-3.1,0-1,0-2.1,0-3.1,0-1-.3-2.1-.3-3.1s-.1-2.1-.2-3.1-.6-2-.7-3.1c0-1,.2-2.1.2-3.2,0-1-.5-2-.6-3,0-1,0-2.1,0-3.1,0-1-.2-2-.3-3,0-1,.2-2.1.2-3.1,0-1-.5-2-.6-3,0-1-.1-2-.2-3,0-1-.3-2-.4-3-.1-1,.4-2.1.2-3.1-.1-1-.2-2-.4-3-.2-1-.6-2-.8-3-.2-1-.4-2-.6-3-.3-1-.8-1.9-1.1-2.9-.3-1-.8-1.8-1.2-2.8-.4-.9-.4-2-.8-2.9-.4-.9-.7-1.9-1.2-2.8-.5-.9-1.3-1.6-1.8-2.5-.5-.9-1.1-1.7-1.7-2.5-.6-.9-1.2-1.7-1.8-2.2h0Z"/>
  <path class="st1" d="M192.8,97.3c1.2-.4,2.3-.4,3.2,0,.9.3,1.5,1.2,2.2,2.4.5.9.8,1.8,1.2,2.7.4.9.7,1.9,1,2.8.3,1,.6,1.9.8,2.9.2,1,.3,2,.4,3,.1,1,.1,2,.2,3,0,1,.2,2,.2,3,0,1,0,2,0,3,0,1,0,2-.2,3-.1,1-.3,2-.4,3-.1,1-.4,2-.6,2.9-.2,1-.3,2-.5,2.9-.2,1-.1,2-.3,3-.1,1-.3,2-.4,3-.1,1-.3,2-.4,3,0,1-.2,2-.2,3,0,1,0,2-.1,3,0,1-.3,2-.3,3,0,1-.2,2-.2,3,0,1,0,2,0,3,0,1-.2,2-.2,3s0,2,0,3,.2,2,.2,3,0,2,0,3c0,.9.1,2,.1,3.2,0,1-.3,2.1-.3,3.2,0,1,0,2.1,0,3.2,0,1.1.2,2.1,0,3.2,0,1.1-.3,2.1-.5,3.2-.1,1.1-.3,2.1-.5,3.2-.2,1.1-.5,2.1-.8,3.1-.4,1.1-1,2-1.5,2.8-.6.9-1.2,1.9-2,2.5-1,.7-1.8,1.2-2.6,1.4-1.1.3-2.1,0-2.8-.6-.7-.5-1.3-1.4-1.7-2.3-.3-.8-.4-1.9-.6-2.8-.2-1-.5-1.9-.6-2.8-.1-1,0-2.1,0-3.1,0-1-.4-2.1-.5-3.1,0-1,0-2.1,0-3.1,0-1-.2-2.1-.3-3.1,0-1,.1-2.1.1-3.1,0-1,0-2.1,0-3.1,0-1,.1-2.1.1-3.1,0-1,0-2.1.1-3.1,0-1,0-2.1,0-3.1,0-1,0-2.1.2-3.1,0-1,.2-2.1.3-3.1,0-1,.1-2.1.2-3.1,0-1,.1-2.1.2-3.1,0-1,0-2.1.2-3.1s.2-2.1.3-3.1.4-2.1.5-3.1c0-1,0-2.1.1-3.1,0-1,.2-2.1.3-3.1,0-1,0-2.1,0-3.1,0-1,.5-2.1.5-3.1,0-1,0-2.1,0-3.1,0-1,.3-2.1.3-3.1,0-1,0-2.1,0-3.1,0-1,0-2.1,0-3.1,0-.9,0-1.9,0-3,0-1,.2-2,.3-3,0-1,0-2,.2-3,.2-1,.6-2,1-2.9.4-1,1.1-1.7,1.8-2.4.7-.7,1.4-1.4,2.4-1.7h0Z"/>
  <path class="st7" d="M192.8,97.3c1.2-.4,2.3-.4,3.2,0,.9.3,1.5,1.2,2.2,2.4.5.9.8,1.8,1.2,2.7.4.9.7,1.9,1,2.8.3,1,.6,1.9.8,2.9.2,1,.3,2,.4,3,.1,1,.1,2,.2,3,0,1,.2,2,.2,3,0,1,0,2,0,3,0,1,0,2-.2,3-.1,1-.3,2-.4,3-.1,1-.4,2-.6,2.9-.2,1-.3,2-.5,2.9-.2,1-.1,2-.3,3-.1,1-.3,2-.4,3-.1,1-.3,2-.4,3,0,1-.2,2-.2,3,0,1,0,2-.1,3,0,1-.3,2-.3,3,0,1-.2,2-.2,3,0,1,0,2,0,3,0,1-.2,2-.2,3s0,2,0,3,.2,2,.2,3,0,2,0,3c0,.9.1,2,.1,3.2,0,1-.3,2.1-.3,3.2,0,1,0,2.1,0,3.2,0,1.1.2,2.1,0,3.2,0,1.1-.3,2.1-.5,3.2-.1,1.1-.3,2.1-.5,3.2-.2,1.1-.5,2.1-.8,3.1-.4,1.1-1,2-1.5,2.8-.6.9-1.2,1.9-2,2.5-1,.7-1.8,1.2-2.6,1.4-1.1.3-2.1,0-2.8-.6-.7-.5-1.3-1.4-1.7-2.3-.3-.8-.4-1.9-.6-2.8-.2-1-.5-1.9-.6-2.8-.1-1,0-2.1,0-3.1,0-1-.4-2.1-.5-3.1,0-1,0-2.1,0-3.1,0-1-.2-2.1-.3-3.1,0-1,.1-2.1.1-3.1,0-1,0-2.1,0-3.1,0-1,.1-2.1.1-3.1,0-1,0-2.1.1-3.1,0-1,0-2.1,0-3.1,0-1,0-2.1.2-3.1,0-1,.2-2.1.3-3.1,0-1,.1-2.1.2-3.1,0-1,.1-2.1.2-3.1,0-1,0-2.1.2-3.1s.2-2.1.3-3.1.4-2.1.5-3.1c0-1,0-2.1.1-3.1,0-1,.2-2.1.3-3.1,0-1,0-2.1,0-3.1,0-1,.5-2.1.5-3.1,0-1,0-2.1,0-3.1,0-1,.3-2.1.3-3.1,0-1,0-2.1,0-3.1,0-1,0-2.1,0-3.1,0-.9,0-1.9,0-3,0-1,.2-2,.3-3,0-1,0-2,.2-3,.2-1,.6-2,1-2.9.4-1,1.1-1.7,1.8-2.4.7-.7,1.4-1.4,2.4-1.7h0Z"/>
  <path class="st6" d="M92.2,101.3c1.2-.3,2.1-.4,3-.2,1,.3,2,.6,2.7,1.5.6.7,1,1.8,1.4,2.8.4.9.7,1.9.9,3,.2,1,.6,2,.7,3,.2,1.1.1,2.2.2,3.1,0,1,.2,2.1.3,3.1,0,1,.3,2.1.3,3.1,0,1,0,2.1,0,3.1,0,1,.2,2.1.2,3.1,0,1,0,2.1,0,3.1,0,1,.2,2.1.2,3.1,0,1-.2,2.1-.1,3.1,0,1,.2,2.1.2,3.1,0,1,0,2.1.1,3.1,0,1-.1,2.1-.1,3.1,0,1,.2,2.1.3,3.1s0,2.1,0,3.1c0,1,0,2.1.1,3.1,0,1,.4,2,.5,3.1,0,1,.2,2.1.2,3.1,0,1,0,2.1,0,3.1,0,1,.4,2,.4,3.1,0,1,0,2.1,0,3.1,0,1,0,2.1,0,3.1,0,1,.4,2.1.4,3.1,0,1-.3,2.1-.3,3.1,0,1,0,2.1,0,3.1,0,1,0,2.1,0,3.1,0,1,.2,2.1.1,3.1,0,1-.5,2-.6,3-.1.9-.3,1.9-.5,2.8-.2,1-.2,2-.5,2.9-.4,1-1.1,1.7-1.8,2.2-.7.6-1.6,1-2.7.7-.7-.2-1.5-.9-2.5-1.6-.7-.5-1.3-1.4-1.9-2.5-.4-.8-1-1.7-1.3-2.9-.3-.9-.4-2-.6-3.1-.2-1-.5-2-.7-3.1-.1-1-.4-2.1-.5-3.1-.1-1,0-2.1-.1-3.2,0-1-.1-2.1-.2-3.2,0-1.1-.3-2.1-.4-3.2,0-1.1,0-2.1,0-3.2,0-1.1,0-2.1,0-3.2,0-1.1,0-2.1,0-3.2,0-1.1,0-2.2,0-3.2,0-1.1,0-2.2,0-3.2,0-1.1-.1-2.2-.1-3.2,0-1.1,0-2.2,0-3.2,0-1.2,0-2.3-.1-3.2,0-.8-.2-1.9-.4-3.1-.1-.9-.3-2-.5-3.1-.1-1-.2-2-.3-3.1-.1-1-.3-2-.5-3.1-.1-1-.4-2-.5-3.1-.1-1-.2-2.1-.3-3.1-.1-1,0-2.1,0-3.2,0-1.1-.2-2.1-.2-3.2,0-1.1-.3-2.1-.4-3.2,0-1.1,0-2.1,0-3.2,0-1.1,0-2.1,0-3.2,0-1.1-.2-2.2-.1-3.2.1-1.1.4-2.1.6-3.1.2-1.1.5-2.1.9-3,.4-1.1.8-2.1,1.4-2.8.7-.8,1.7-1.2,2.7-1.5h0Z"/>
  <path class="st0" d="M92.2,101.3c1.2-.3,2.1-.4,3-.2,1,.3,2,.6,2.7,1.5.6.7,1,1.8,1.4,2.8.4.9.7,1.9.9,3,.2,1,.6,2,.7,3,.2,1.1.1,2.2.2,3.1,0,1,.2,2.1.3,3.1,0,1,.3,2.1.3,3.1,0,1,0,2.1,0,3.1,0,1,.2,2.1.2,3.1,0,1,0,2.1,0,3.1,0,1,.2,2.1.2,3.1,0,1-.2,2.1-.1,3.1,0,1,.2,2.1.2,3.1,0,1,0,2.1.1,3.1,0,1-.1,2.1-.1,3.1,0,1,.2,2.1.3,3.1s0,2.1,0,3.1c0,1,0,2.1.1,3.1,0,1,.4,2,.5,3.1,0,1,.2,2.1.2,3.1,0,1,0,2.1,0,3.1,0,1,.4,2,.4,3.1,0,1,0,2.1,0,3.1,0,1,0,2.1,0,3.1,0,1,.4,2.1.4,3.1,0,1-.3,2.1-.3,3.1,0,1,0,2.1,0,3.1,0,1,0,2.1,0,3.1,0,1,.2,2.1.1,3.1,0,1-.5,2-.6,3-.1.9-.3,1.9-.5,2.8-.2,1-.2,2-.5,2.9-.4,1-1.1,1.7-1.8,2.2-.7.6-1.6,1-2.7.7-.7-.2-1.5-.9-2.5-1.6-.7-.5-1.3-1.4-1.9-2.5-.4-.8-1-1.7-1.3-2.9-.3-.9-.4-2-.6-3.1-.2-1-.5-2-.7-3.1-.1-1-.4-2.1-.5-3.1-.1-1,0-2.1-.1-3.2,0-1-.1-2.1-.2-3.2,0-1.1-.3-2.1-.4-3.2,0-1.1,0-2.1,0-3.2,0-1.1,0-2.1,0-3.2,0-1.1,0-2.1,0-3.2,0-1.1,0-2.2,0-3.2,0-1.1,0-2.2,0-3.2,0-1.1-.1-2.2-.1-3.2,0-1.1,0-2.2,0-3.2,0-1.2,0-2.3-.1-3.2,0-.8-.2-1.9-.4-3.1-.1-.9-.3-2-.5-3.1-.1-1-.2-2-.3-3.1-.1-1-.3-2-.5-3.1-.1-1-.4-2-.5-3.1-.1-1-.2-2.1-.3-3.1-.1-1,0-2.1,0-3.2,0-1.1-.2-2.1-.2-3.2,0-1.1-.3-2.1-.4-3.2,0-1.1,0-2.1,0-3.2,0-1.1,0-2.1,0-3.2,0-1.1-.2-2.2-.1-3.2.1-1.1.4-2.1.6-3.1.2-1.1.5-2.1.9-3,.4-1.1.8-2.1,1.4-2.8.7-.8,1.7-1.2,2.7-1.5h0Z"/>
</svg>