<svg xmlns="http://www.w3.org/2000/svg" viewBox="0 0 280 120.853"><path d="M85.455 77.927v19.035h-13.77v12.858H47.486q.404-4.252.608-12.858H0V76.509q23.59-18.123 42.12-40.196h29.565v41.614zM48.6 56.36q-6.986 7.19-12.049 11.998-5.064 4.81-11.44 9.569h23.185zM280 77.927v19.035h-13.77v12.858H242.03q.404-4.252.608-12.858h-48.094V76.509q23.59-18.123 42.12-40.196h29.565v41.614zM243.145 56.36q-6.987 7.19-12.049 11.998-5.064 4.81-11.441 9.569h23.186zM193.452 45.905c.049.206.085.4.037.605-.049.193-.121.387-.278.532a1.13 1.13 0 0 1-.544.29c-.194.036-.4 0-.593.036-.181.024-.362.133-.556.157l-.58.073a9 9 0 0 1-.58.048c-.194.024-.375.085-.569.109-.193.012-.398-.06-.592-.048s-.375.096-.568.108c-.206.013-.399-.048-.592-.036s-.387.085-.58.097-.388-.048-.581-.036-.387.072-.58.096c-.194.012-.387.037-.58.06l-.569.037c-.193.024-.374.109-.556.133-.193.012-.387.024-.568.048-.193.025-.375.037-.568.06-.182.025-.375.025-.556.05-.194.023-.363.144-.556.18-.182.025-.4-.096-.58-.06-.194.024-.375.036-.569.073a9 9 0 0 0-.568.084l-.556.073c-.194.024-.363.193-.556.217s-.375.025-.568.049c-.194.012-.375.012-.569.024s-.386-.036-.568-.024c-.157 0-.375.036-.616.036-.206 0-.436.048-.617 0-.242-.048-.399-.193-.46-.375-.06-.217-.06-.399-.011-.544.06-.181.133-.375.29-.483.145-.097.338-.157.544-.206.181-.036.375-.036.568-.084.181-.037.35-.158.544-.194s.387.012.58-.024c.182-.036.363-.145.556-.181.182-.037.387.024.58 0 .182-.037.363-.133.557-.17.181-.024.375-.048.568-.072.181-.036.387.072.58.036.194-.024.363-.145.556-.17s.4.061.58.037c.194-.024.363-.193.557-.218s.387.073.58.049.375-.121.556-.145c.193-.024.399.048.58.024.194-.024.375-.17.556-.193.194-.025.387-.037.569-.06.193-.025.399.072.592.047.181-.024.375-.072.568-.096.182-.024.363-.145.556-.17.182-.024.363-.084.556-.108.194-.037.4.084.593.06.181-.036.362-.133.556-.157.181-.036.375-.036.568-.073.193-.024.363-.108.556-.145s.363-.133.556-.169c.145-.036.339-.072.532-.109.181-.048.375-.084.556-.096.194-.025.4 0 .568.036.194.048.303.205.436.363s.205.326.253.52M189.705 64.39c.036.23.109.423.036.556a.98.98 0 0 1-.435.386c-.145.06-.363-.024-.556 0-.181.025-.363.133-.544.121-.182 0-.375-.036-.556-.06-.194-.024-.375-.024-.544-.06-.218-.037-.387-.194-.508-.218-.181-.048-.387-.024-.58-.073-.182-.036-.35-.157-.544-.205-.182-.049-.387 0-.58-.049-.182-.048-.351-.145-.545-.193-.18-.048-.362-.133-.544-.193-.18-.049-.374-.073-.556-.133a10 10 0 0 1-.568-.158c-.181-.048-.363-.132-.544-.193-.181-.048-.399-.024-.58-.085s-.35-.193-.532-.241c-.193-.06-.375-.133-.556-.182l-.544-.181c-.194-.06-.411 0-.593-.06a6 6 0 0 1-.544-.194c-.193-.06-.362-.145-.544-.217-.145-.049-.314-.194-.52-.279-.18-.06-.386-.12-.568-.205s-.386-.145-.531-.266c-.17-.145-.339-.326-.327-.52.012-.23.17-.375.29-.471.133-.121.302-.242.508-.254.17-.012.375.06.556.084.194.025.387.037.556.06.194.025.375.061.556.086.194.036.375.048.568.072.182.036.363.109.544.145.182.024.363.097.544.133.194.036.387.012.569.048s.35.17.532.218c.18.036.374.024.568.06.181.037.35.121.532.17.181.036.374.036.568.084.181.037.363.085.544.133.181.037.375.049.556.097s.363.097.544.133c.181.048.35.145.544.181.181.049.375.037.556.085.181.036.363.085.544.133.181.036.35.145.532.193.193.037.387 0 .568.037.194.036.375.084.556.12q.236.037.472.11c.157.036.314.084.46.157.12.072.253.157.35.253.096.11.169.242.23.375.072.145.036.314.06.46M189.258 28.666c0 .194.048.387-.085.532a2.4 2.4 0 0 1-.399.375c-.133.097-.326.133-.484.218-.157.096-.326.157-.483.23-.157.084-.266.29-.423.362-.17.085-.375.06-.532.133-.157.085-.314.17-.484.254-.157.072-.29.217-.46.29-.156.085-.35.097-.519.181-.157.073-.314.194-.471.266-.17.073-.327.17-.484.242-.17.085-.314.194-.484.266s-.338.17-.52.242c-.169.072-.362.12-.531.193-.182.073-.363.121-.544.182-.17.072-.327.205-.508.278-.17.072-.35.12-.532.193-.17.073-.35.12-.532.193s-.387.049-.568.121c-.17.073-.35.145-.52.206-.181.072-.35.157-.532.23-.169.072-.326.205-.495.278-.182.072-.375.096-.544.169-.17.084-.315.23-.496.302-.17.073-.363.097-.544.17-.17.084-.314.229-.484.314s-.374.084-.544.181c-.133.06-.266.181-.447.266-.145.072-.29.205-.46.278-.157.073-.338.109-.495.17-.181.06-.375.011-.544.048-.181.024-.35.12-.52.108-.181-.024-.338-.12-.483-.217-.206-.133-.351-.29-.351-.46 0-.157.097-.374.23-.544.109-.133.326-.205.471-.326s.29-.254.435-.363c.17-.108.315-.254.46-.338.205-.133.423-.145.532-.206.157-.084.29-.23.46-.314s.313-.206.483-.278.386-.036.556-.109c.169-.084.314-.205.483-.278s.303-.23.484-.302c.17-.073.387-.024.556-.097s.302-.242.471-.314.351-.121.52-.194.339-.169.508-.241.375-.073.544-.145.35-.121.52-.194.314-.205.483-.278c.17-.085.363-.097.532-.181.17-.073.339-.145.508-.23.157-.085.29-.242.46-.326.157-.085.314-.194.47-.278.17-.085.315-.206.484-.29.158-.097.4-.061.557-.158.157-.108.266-.29.423-.387.157-.108.326-.18.495-.278.157-.096.35-.133.52-.217.157-.097.314-.206.484-.29s.314-.194.495-.266c.17-.085.339-.145.52-.206.17-.06.363-.072.544-.109.182-.048.35-.12.544-.145.121-.012.278-.012.448.012.157.037.326.049.423.121.145.11.217.278.302.448s.097.338.097.507M176.492 10.291c.048.193.024.399-.013.592-.048.182-.169.339-.278.508-.096.17-.193.339-.326.484-.133.157-.193.362-.326.495s-.278.242-.411.387c-.133.133-.303.23-.424.363-.133.133-.205.326-.326.471-.12.133-.302.218-.423.363s-.278.266-.399.411c-.109.145-.157.339-.266.484s-.242.266-.363.41c-.108.146-.181.315-.29.46s-.278.242-.387.387-.241.278-.35.423-.23.278-.35.423c-.11.145-.182.302-.29.447-.122.145-.206.303-.327.448-.11.145-.17.326-.29.471-.11.133-.279.23-.387.375-.121.133-.218.29-.339.435l-.362.399c-.121.145-.279.266-.412.399-.12.145-.29.254-.41.399-.134.145-.158.375-.279.508-.133.145-.302.241-.435.387-.12.145-.254.29-.375.423-.133.145-.205.326-.338.471-.121.145-.302.242-.435.375-.121.145-.302.242-.423.387-.133.145-.254.29-.375.423-.133.145-.23.314-.363.46-.12.132-.193.338-.314.47-.133.146-.266.279-.4.412-.108.109-.217.254-.35.314-.241.097-.544-.06-.737-.218-.181-.157-.302-.314-.326-.507s.024-.4.096-.617c.073-.17.17-.363.278-.544.11-.17.29-.29.411-.46.133-.168.23-.35.35-.495.146-.181.291-.338.388-.46.12-.144.205-.314.314-.459.12-.145.29-.254.399-.399.12-.145.254-.278.375-.41.12-.146.193-.327.314-.472.12-.133.23-.29.35-.435.11-.145.206-.303.327-.448s.314-.217.435-.362.206-.315.327-.46c.12-.133.241-.278.362-.41.121-.146.218-.303.339-.448s.205-.314.326-.46c.109-.144.266-.265.375-.41.12-.145.218-.29.338-.436.11-.145.279-.266.387-.41.121-.146.194-.315.315-.46.12-.157.278-.278.386-.423.121-.157.17-.363.279-.508.12-.157.18-.35.29-.508s.266-.278.374-.435.242-.302.351-.46c.12-.156.157-.362.266-.519s.242-.302.35-.447c.085-.133.267-.23.375-.387.097-.145.145-.315.254-.472.109-.145.278-.241.387-.374.109-.145.206-.29.326-.424.133-.133.279-.23.411-.338.158-.109.279-.218.436-.266s.302-.06.471-.048c.157 0 .302.048.447.096.146.06.266.133.375.254.121.109.266.206.315.375M157.052 119.77l-.656.144-.89.198-.545-.089c-.157 0-.326.11-.52.133-.181.025-.363.049-.544.085s-.363.048-.544.085c-.181.048-.35.157-.52.193-.181.06-.387.048-.532.097-.254.06-.447.084-.544.084-.157.025-.338.121-.532.133-.157.012-.338-.06-.532-.072h-.531c-.17-.012-.351.024-.544.012-.17-.012-.339-.085-.52-.097-.182-.024-1.253.078-1.253.078l-.445.099-.502-.056c0-.024-.182-.024-.496-.157-.17-.085-.35-.193-.556-.278-.182-.085-.35-.218-.544-.302s-.387-.17-.556-.254c-.29-.121-.52-.17-.58-.218-.158-.097-.242-.278-.375-.387-.133-.12-.254-.241-.375-.362-.133-.121-.363-.157-.472-.29-.12-.146-.157-.363-.266-.508-.108-.157-.29-.266-.386-.423s-.194-.327-.29-.496c-.085-.157-.146-.338-.242-.508-.097-.157-.121-.29-.218-.447l-.713-.725c-.085-.17-.097-.327-.206-.472-.12-.145-.205-.326-.338-.447-.133-.133-.363-.133-.52-.242-.145-.109-.206-.375-.375-.46-.157-.084-.399-.023-.568-.096s-.29-.266-.471-.326-.375-.037-.557-.085-.362-.109-.544-.145c-.18-.048-.362-.06-.544-.097-.18-.048-.374-.072-.556-.109s-.338-.205-.52-.241-.459-.06-.64-.097l-.907.109c-.181-.037-.302-.133-.483-.157s-.375.048-.569.024c-.181-.012-.362-.037-.544-.037-.193 0-.374-.036-.568-.036-.181 0-.363.073-.544.085-.193.012-.375-.036-.568-.012-.181.012-.363 0-.556.024-.181.024-.35.133-.544.157-.181.024-.375-.024-.556 0s-.363.06-.556.085c-.182.036-.35.108-.544.133-.182.036-.375 0-.556.024-.182.036-.87.193-1.052.217l-.298.296-.593-.098-.445-.149-.593.05-.501.3c-.181.037-.35.17-.532.218-.193.048-.387.085-.568.133s-.375.06-.568.109c-.182.048-.351.169-.532.217-.194.06-.387.06-.568.121-.182.049-.375.085-.557.145-.193.06-.338.206-.52.266s-.374.049-.543.121c-.17.06-.774.447-.907.556l-.68.285-.691.198-.495.346-.612.235c-.11.06-.266.109-.46.218-.145.084-.242.278-.423.362-.145.085-.326.145-.483.23s-.327.17-.496.242c-.157.084-.375.048-.544.12-.157.073-.278.279-.447.351-.17.06-.327.17-.496.218-.181.06-.411-.073-.58-.036-.194.036-.363.217-.52.217-.206-.012-.411-.048-.568-.12s-.254-.267-.339-.448c-.084-.17-.084-.363-.097-.544-.024-.193.025-.363.073-.556.048-.181-.036-.423.06-.592.085-.145.242-.278.351-.424.109-.132.29-.217.411-.35l.399-.363c.133-.109.266-.23.411-.338s.326-.17.472-.266c.145-.109.302-.194.447-.29.157-.097.302-.218.447-.303.17-.096.29-.241.435-.326.17-.097.29-.254.436-.326.157-.085.386-.012.556-.097.157-.073.29-.218.459-.29.17-.06.314-.182.484-.254.169-.06.399.024.568-.036s.266-.303.435-.363.399.036.568-.024.242-.242.411-.302l.669-.439s1.556-.432 1.81-.516c.253-.073.253-.085.507-.17.242-.072.242-.084.496-.169s.278 0 .532-.085c.266-.072.254-.084.52-.157.253-.084.241-.133.495-.217.254-.073.302 0 .532-.121.109-.17.17-.423.29-.58s.254-.315.387-.472c.133-.145.266-.302.4-.447.132-.157.29-.278.422-.436s.194-.35.302-.507c.121-.17.303-.29.387-.46s.06-.386.133-.568c.06-.17.242-.302.302-.483.049-.182.121-.363.17-.544s-.037-.4 0-.58.217-.34.254-.533c.036-.18.06-.374.096-.556.024-.193-.084-.399-.06-.58.012-.193.06-.375.072-.556.012-.193.133-.375.145-.556.013-.194.049-.375.06-.568s-.084-.387-.072-.569c0-.193.133-.386.133-.568 0-.193-.072-.387-.072-.568-.012-.193-.049-.387-.049-.568-.012-.194.013-.387 0-.568l-.036-.568c-.012-.194-.097-.387-.12-.569-.013-.193.084-.399.06-.58-.024-.193-.121-.375-.157-.556-.037-.193-.158-.35-.194-.532-.048-.193-.06-.387-.109-.556-.048-.181-.048-.375-.108-.544-.049-.181-.182-.339-.242-.52-.06-.17.036-.399-.036-.58-.06-.17-.218-.314-.29-.484-.073-.181-.17-.338-.242-.507s-.025-.4-.097-.569c-.085-.169-.254-.29-.339-.459s-.193-.326-.278-.496-.084-.374-.169-.544c-.097-.157-.218-.302-.314-.471a10 10 0 0 0-.278-.484c-.085-.157-.194-.314-.29-.483-.097-.157-.133-.35-.23-.52-.097-.157-.314-.242-.411-.399s-.085-.387-.181-.544-.266-.278-.363-.435c-.109-.157-.109-.375-.206-.532-.108-.157-.35-.23-.459-.387-.097-.157-.06-.399-.157-.556-.109-.157-.35-.23-.447-.387s-.097-.387-.194-.544c-.109-.157-.205-.314-.314-.471-.097-.158-.17-.339-.266-.496s-.242-.29-.339-.447c-.108-.158-.157-.351-.254-.508-.108-.157-.35-.218-.447-.387-.097-.157-.157-.338-.254-.496-.096-.169-.157-.338-.254-.507-.096-.158-.18-.327-.278-.484-.084-.17-.278-.278-.362-.435-.097-.17-.049-.4-.133-.568s-.17-.327-.254-.496-.278-.29-.363-.46-.12-.362-.205-.531c-.085-.182-.194-.327-.278-.496-.085-.181-.073-.399-.158-.568s-.29-.278-.374-.447c-.085-.182-.121-.375-.194-.544-.084-.17-.181-.339-.266-.508-.084-.181-.145-.363-.23-.532s-.096-.375-.18-.544c-.085-.181-.279-.29-.363-.46-.085-.18-.194-.338-.278-.507s-.097-.375-.17-.556c-.084-.17-.12-.363-.193-.532-.085-.182-.302-.29-.387-.46-.073-.169-.024-.399-.109-.58-.072-.17-.109-.363-.181-.532-.073-.181-.133-.362-.206-.532-.072-.181-.145-.35-.217-.532-.073-.169-.145-.35-.218-.52-.072-.18-.23-.314-.302-.495-.06-.181-.181-.339-.242-.508-.072-.181-.109-.375-.181-.544l-.182-.544c-.06-.17-.132-.35-.193-.532s-.157-.35-.218-.52c-.06-.181.025-.41-.036-.592-.048-.181-.193-.326-.254-.52-.048-.181-.12-.35-.169-.532s-.072-.374-.109-.556c-.048-.181-.109-.363-.145-.556-.048-.181.036-.387 0-.58-.048-.182-.169-.35-.205-.532s-.06-.375-.097-.556c-.024-.182-.097-.363-.133-.556-.024-.182-.012-.375-.036-.569-.024-.18-.073-.362-.11-.556-.023-.18.025-.374 0-.568-.023-.181-.132-.362-.144-.556-.024-.181-.024-.375-.048-.568-.013-.181 0-.375-.013-.568-.012-.182.013-.375 0-.568-.012-.182-.084-.363-.096-.557-.012-.18.036-.374.024-.568 0-.193-.036-.374-.036-.568s.06-.375.06-.568c-.012-.194-.12-.375-.12-.568s.12-.375.12-.568c.012-.194-.085-.387-.085-.569.013-.193-.036-.387-.036-.58.012-.193 0-.387.012-.568.012-.194.024-.387.037-.568.012-.194.12-.375.133-.556.012-.194.036-.387.06-.569.012-.193-.036-.386-.012-.568.012-.193 0-.387.024-.568.012-.193-.024-.387-.012-.568.024-.194.145-.363.157-.556.024-.182.133-.363.157-.556.024-.182-.06-.387-.024-.569.024-.193.048-.374.085-.568.024-.181.024-.374.06-.568.036-.181.085-.363.121-.556.036-.181.024-.375.06-.556.037-.194.073-.375.11-.556.036-.194.072-.375.12-.556.049-.194.29-.327.339-.508s.036-.375.084-.556.073-.375.133-.544c.049-.181.11-.363.17-.544s.12-.35.193-.532c.06-.17.097-.363.157-.544.073-.17.254-.302.327-.472.072-.18.12-.362.193-.531s-.024-.411.06-.593c.073-.17.17-.338.242-.508.085-.169.314-.266.4-.435.084-.157.035-.399.12-.568.085-.157.302-.266.387-.423.097-.17.23-.302.326-.46.097-.169.145-.362.242-.52s.254-.277.363-.434c.096-.158.06-.412.157-.569.109-.145.217-.302.326-.46.11-.144.302-.24.411-.398.11-.145.17-.338.278-.496.11-.145.206-.314.327-.459.109-.145.29-.254.399-.399.12-.145.205-.314.326-.46s.242-.29.375-.422c.12-.146.314-.23.435-.363.133-.145.302-.242.423-.375.133-.145.242-.29.375-.423s.218-.314.35-.447.29-.242.424-.375.169-.375.314-.508c.133-.12.302-.217.435-.35.133-.121.242-.278.375-.411.145-.121.338-.182.471-.315.145-.12.23-.302.375-.423.133-.12.375-.133.52-.242.145-.12.206-.338.35-.459.146-.109.303-.218.448-.326.145-.121.326-.194.471-.303.157-.108.327-.181.484-.29.145-.109.278-.242.435-.35.157-.097.339-.158.496-.266.145-.097.278-.242.435-.339s.35-.145.508-.242.266-.29.423-.374c.157-.097.375-.097.532-.194.157-.084.242-.338.399-.423.157-.097.326-.181.495-.266.157-.097.35-.133.508-.217.17-.085.339-.17.508-.242.17-.085.387-.049.556-.133.17-.073.326-.182.496-.254s.35-.109.531-.181c.17-.073.303-.242.472-.303.17-.072.375-.048.556-.108.17-.073.339-.146.508-.206.181-.06.338-.181.508-.242.18-.06.338-.157.52-.217.169-.049.338-.158.52-.206.168-.06.35-.097.531-.145s.35-.145.532-.193.387.036.568-.012c.182-.037.363-.06.544-.11.182-.036.363-.096.544-.132s.35-.121.532-.157l.568-.11c.194-.023.375-.072.569-.096.18-.024.374-.06.568-.085.181-.024.374-.036.568-.06.193-.012.387.048.58.036.182-.024.375-.133.556-.145.194-.012.387-.048.58-.06.182 0 .387.06.569.048.193 0 .387-.072.58-.072.181 0 .375.133.568.133s.375.036.568.036.387-.012.58 0c.182 0 .375.036.569.048.181 0 .387-.109.58-.097.181.013.363.194.556.218.182.012.387-.072.58-.048.182.024.375.024.569.048s.374.06.568.085c.181.024.363.096.556.12.193.037.375.11.556.134.193.036.387.048.568.084.194.036.375.085.556.121.194.048.375.109.556.145.182.049.4 0 .58.049s.388.036.569.084.35.181.532.23.375.097.556.145c.181.06.363.097.544.157.181.048.375.073.556.133s.326.23.508.29c.169.073.326.182.507.254.17.073.375.097.544.17s.375.096.544.18c.17.073.315.206.496.29.17.073.314.206.484.29s.326.182.495.279c.17.085.363.12.532.218.17.084.339.169.496.266.17.096.375.108.544.205.157.109.326.206.484.302s.29.254.447.35c.157.11.29.255.447.364s.326.193.484.302.302.23.447.35c.157.11.266.278.411.4.157.108.35.169.496.29s.338.18.483.302.182.374.327.495.374.145.52.278c.132.121.23.303.374.436.133.133.254.278.4.41.132.121.338.182.47.315.134.145.206.338.34.471s.35.194.483.327c.133.145.205.338.326.471.133.145.23.302.35.448.134.145.315.241.436.386s.217.315.338.46.182.338.29.495c.121.145.327.23.436.375.12.157.157.363.278.52.109.145.133.363.242.52s.217.302.326.471c.097.157.35.218.447.375.109.157.06.411.157.58.097.157.218.303.315.472.096.157.326.242.423.41s.133.364.217.533c.097.169.194.326.278.495s.158.351.242.52.085.375.17.544c.084.182.314.278.386.448.085.18 0 .423.073.592.072.181.326.278.387.46.072.169.12.362.193.543.073.17.085.363.145.544.073.182.036.387.097.568s.266.315.326.496.073.375.121.556c.06.182.036.387.085.568.048.194.072.375.12.557.037.193.097.374.134.556.048.18.205.338.241.532.049.18.121.362.158.544.036.193-.012.398.012.58.036.193.145.362.169.556.024.181-.133.399-.109.58.012.049.109.097.109.145.024.194.073.375.097.568.012.194.06.375.084.569l.037.568c.024.193-.06.387-.049.58.024.194 0 .387.012.568.012.194.085.387.097.568.012.194.06.387.073.569 0 .193-.025.386-.025.58.012.181.133.375.133.568s-.108.375-.108.568.036.387.036.568c0 .194-.049.387-.049.58-.012.182-.036.376-.048.569 0 .181.157.387.145.568 0 .194-.145.375-.157.568 0 .194-.024.375-.036.568s.096.387.084.58c-.012.182-.072.376-.096.557-.012.193-.012.387-.037.568-.012.193-.084.375-.096.568-.024.194 0 .387-.024.58-.025.182-.11.363-.133.557-.025.18-.097.362-.133.556-.025.181.108.399.084.592a9 9 0 0 0-.097.556c-.036.194-.096.375-.133.556-.036.194-.084.375-.12.556-.049.194-.145.363-.194.544-.036.194.012.4-.024.58-.048.182-.145.363-.193.545s-.073.374-.121.556-.254.326-.303.507.073.412.025.593c-.06.181-.266.314-.327.496s-.109.362-.169.544-.024.386-.085.568-.096.374-.157.544c-.06.181-.242.314-.314.495-.06.182-.036.387-.097.569-.072.169-.23.314-.302.495-.073.17-.145.339-.218.52-.072.17-.12.35-.193.532-.073.17-.157.338-.23.52-.072.169-.12.362-.193.532s-.23.314-.315.483c-.072.17-.036.4-.12.568-.073.17-.278.278-.363.46-.073.17.012.41-.073.58s-.205.327-.29.496-.205.314-.302.483c-.085.17-.218.315-.302.484s-.073.387-.17.556c-.084.17-.302.266-.386.435-.085.157-.024.411-.11.58-.096.17-.301.266-.398.436-.085.157-.133.35-.23.52-.096.157-.169.338-.266.507-.084.17-.108.375-.193.544-.097.157-.194.315-.29.484-.085.157-.35.217-.448.387-.084.157-.084.362-.18.532-.098.157-.11.362-.206.52s-.363.217-.46.374-.193.314-.29.484c-.097.157-.024.41-.12.568s-.351.23-.448.387-.06.399-.157.556-.182.326-.278.483-.303.242-.4.411c-.096.158-.18.327-.277.484s-.218.314-.315.471-.084.387-.18.544-.206.315-.303.472-.17.338-.266.496c-.097.169-.363.23-.46.386-.096.17-.145.351-.241.508-.097.17-.194.327-.29.484-.097.169-.206.314-.303.483-.084.157-.157.327-.254.496-.084.157-.108.35-.205.52-.085.157-.278.266-.363.435-.084.157-.048.399-.133.556-.084.17-.217.302-.302.472s-.181.326-.266.495-.109.363-.193.532c-.073.157-.206.314-.278.484s-.23.302-.303.471-.012.4-.084.58c-.06.17-.121.351-.182.52-.072.17-.29.29-.35.472-.06.169-.024.387-.085.556-.06.181-.133.35-.181.532s-.121.35-.17.532.037.387-.011.568c-.037.193-.194.338-.23.532-.036.181.036.375 0 .556-.024.193-.17.35-.194.544-.024.181.013.375 0 .556a8 8 0 0 0-.048.544c0 .193.06.375.06.556s-.084.363-.072.544c0 .181-.024.375-.012.556.024.182.109.35.133.544.024.182.06.35.097.532.024.181.024.375.06.544.036.181.012.375.06.556s.17.339.218.508c.048.181.024.387.085.556.048.17.048.375.109.544.072.17.241.302.314.472s.145.338.23.495c.084.17.06.4.157.556.084.17.23.303.326.46s.29.254.4.41.18.327.301.484c.11.145.254.254.375.411.12.133.145.363.266.508.133.133.218.314.35.447s.303.23.436.363c.145.12.35.157.508.278.108.097.23.242.41.35.146.085.327.134.496.23.157.085.327.158.484.242.169.097.338.17.483.254.218.133.4.278.448.35.133.158.133.4.181.58s.157.388.145.581-.085.4-.157.58-.206.339-.327.496-.23.339-.386.46c-.158.108-.375.157-.569.217a1.8 1.8 0 0 1-.58.036c-.06 0-.145.012-.254.012a1.5 1.5 0 0 1-.302-.036c-.157-.048-.302-.181-.484-.254-.169-.06-.338-.12-.507-.193s-.363-.097-.52-.17c-.193-.096-.339-.23-.447-.302-.158-.096-.339-.181-.496-.29-.145-.109-.326-.193-.484-.314-.145-.121-.157-.387-.302-.52s-.35-.181-.495-.314c-.133-.133-.29-.254-.411-.4-.133-.144-.254-.29-.375-.434-.121-.158-.266-.29-.375-.436-.12-.157-.23-.314-.339-.471s-.193-.326-.302-.496c-.096-.157-.109-.374-.217-.532-.097-.169-.242-.302-.327-.471-.096-.17-.157-.35-.242-.52-.096-.17-.132-.363-.217-.532s-.157-.35-.23-.532c-.072-.169-.29-.29-.362-.471-.06-.17-.17-.339-.23-.52-.073-.181-.012-.411-.073-.592s-.109-.363-.169-.544c-.048-.182-.072-.375-.12-.557-.05-.193-.218-.35-.267-.531-.036-.194 0-.4-.036-.58-.036-.194.024-.388-.012-.581-.024-.193-.17-.363-.194-.556-.024-.181-.108-.375-.12-.556-.025-.194.108-.4.096-.593s-.169-.374-.181-.568c0-.193.097-.387.109-.568 0-.193 0-.387.012-.58s.072-.375.097-.556c.024-.194.012-.387.036-.58.024-.182-.036-.387-.012-.569.036-.193.254-.35.278-.532.036-.193.024-.387.06-.568s.109-.363.145-.544c.049-.193.012-.399.06-.58s.049-.375.11-.556c.048-.182.157-.35.205-.532.06-.182.17-.35.218-.52.06-.181.096-.375.157-.556s.024-.387.096-.568c.06-.182.206-.327.279-.508.072-.17.193-.326.265-.496.073-.181.013-.41.097-.58.073-.181.327-.278.4-.447.084-.17.011-.411.084-.58.084-.17.29-.29.375-.46s.096-.375.18-.544.182-.326.267-.496c.097-.169.157-.35.254-.52.084-.157.169-.338.266-.495.084-.17.302-.266.399-.423.096-.17.205-.314.302-.484.097-.157.12-.374.217-.532.097-.169.097-.386.194-.544.097-.169.29-.266.387-.423.096-.169.254-.29.362-.447.097-.17.218-.314.315-.472s.133-.362.241-.52c.097-.169.11-.386.206-.543s.193-.327.29-.484c.109-.157.23-.302.339-.46.096-.156.241-.29.35-.447.097-.169.206-.314.302-.483.11-.157.17-.339.266-.496.097-.17.278-.278.387-.435.097-.17.206-.314.302-.484.097-.157.194-.326.29-.483.097-.17.158-.35.254-.52.097-.157.158-.338.254-.508.097-.157.194-.326.29-.483.097-.17.218-.315.315-.484.084-.17.072-.387.169-.556.085-.157.29-.266.375-.435.096-.157.109-.363.205-.532.085-.17.145-.35.23-.52s.242-.302.326-.46c.085-.169.133-.362.218-.531.085-.157.145-.339.23-.508l.254-.508c.084-.169.193-.326.278-.495s.217-.315.29-.484c.084-.17.06-.399.133-.568.084-.17.181-.326.266-.496.072-.181.157-.35.23-.52s.265-.302.338-.471.012-.399.084-.58c.06-.17.097-.363.17-.532.06-.182.302-.29.362-.472.073-.169-.012-.399.06-.58.061-.181.134-.35.194-.532.06-.17.206-.326.266-.496.049-.18.157-.338.218-.52s.145-.35.193-.531c.06-.17-.06-.4-.012-.58.06-.182.157-.351.206-.52.048-.182.169-.351.217-.532.037-.182.085-.363.133-.544.037-.182.073-.363.121-.544.036-.182.133-.35.17-.532s.084-.375.12-.556.037-.363.073-.544c.036-.194 0-.387.036-.569s-.012-.386.012-.568c.036-.181.23-.338.266-.52.024-.18-.012-.374.012-.556.037-.193.012-.387.037-.568s.23-.338.253-.52-.12-.399-.096-.58c.024-.193.205-.423.241-.604-.18.012-.435.157-.628.169-.182.012-.363.036-.556.036-.182.012-.375-.133-.568-.133-.182.012-.363.097-.557.109-.18.012-.362.097-.544.109s-.374-.024-.556-.012c-.193 0-.387-.133-.568-.121-.193.012-.375.096-.556.109-.193 0-.387.06-.568.072-.194.012-.375-.036-.568-.024-.182 0-.375-.048-.556-.036-.194.012-.375.048-.557.06-.193.012-.386-.024-.568-.012-.193.012-.387.036-.556.048-.217.012-.399.145-.556.145-.338.025-.302-.169-.471.049-.17.205-.085.157-.073.471.012.157.048.339.048.532.013.17 0 .35 0 .544 0 .17-.012.35-.024.532s.11.375.085.544c-.012.181-.121.363-.145.532-.024.181-.073.363-.109.532-.036.193-.145.35-.181.52-.049.193.036.399 0 .556-.06.193-.206.35-.242.496-.073.265-.048.471-.06.544-.025.193-.085.374-.121.568-.025.193-.06.387-.085.568-.036.193-.12.375-.157.568s-.049.387-.085.568c-.036.194.012.4-.024.593-.048.193-.133.362-.181.556-.037.193-.17.362-.206.544-.048.193.049.41 0 .604-.06.182-.205.339-.254.532-.048.181-.012.399-.072.58s-.121.363-.194.556c-.06.182-.096.375-.169.557-.06.18-.23.314-.302.495s-.097.387-.181.556c-.073.182-.279.29-.363.472-.085.169-.121.362-.218.544-.084.157-.217.29-.314.46-.097.156-.206.301-.302.459s-.097.374-.194.531-.242.29-.35.448c-.097.145-.242.266-.35.423-.122.145-.182.326-.303.471-.109.145-.29.242-.411.375-.121.145-.181.327-.314.472-.133.133-.242.278-.387.399-.133.133-.278.241-.423.362s-.278.254-.424.363-.278.254-.435.35-.314.206-.483.303c-.157.084-.4.012-.569.084s-.326.17-.507.23c-.17.048-.339.097-.52.145-.181.036-.339.242-.52.266-.193.036-.399-.12-.58-.12-.194.011-.375.035-.556.011-.194-.024-.4.073-.593.024-.181-.036-.362-.133-.532-.193-.18-.06-.386-.097-.556-.181-.169-.073-.338-.182-.495-.278s-.254-.303-.4-.424c-.156-.108-.326-.193-.47-.314-.146-.133-.363-.17-.496-.302-.145-.133-.194-.35-.315-.496-.133-.133-.193-.326-.314-.483-.12-.145-.302-.242-.411-.387-.12-.157-.193-.339-.302-.496s-.182-.326-.278-.483c-.097-.17-.29-.278-.387-.436-.097-.169-.097-.374-.194-.544-.084-.169-.217-.314-.302-.483a6 6 0 0 1-.23-.496c-.06-.181-.217-.314-.278-.495-.06-.17-.048-.375-.096-.556-.049-.17-.121-.339-.17-.52s.013-.387-.024-.569c-.048-.18-.145-.338-.193-.52s-.218-.314-.278-.483c-.06-.181.024-.435-.049-.604-.06.024-.265.217-.374.52-.049.157-.133.326-.206.531-.06.17-.084.363-.145.556-.06.17.012.4-.06.58-.06.182-.194.327-.266.52-.06.17-.206.315-.266.508-.073.17-.085.375-.145.544-.073.182-.11.375-.182.544-.072.182-.145.35-.217.532-.085.17-.121.363-.206.532-.072.182-.205.327-.29.496s-.29.278-.387.447c-.084.17-.036.423-.133.58-.096.17-.278.278-.374.436-.11.169-.303.266-.412.41-.12.158-.193.34-.314.484s-.278.266-.41.4-.158.386-.303.507-.314.254-.46.35c-.169.11-.362.17-.531.254s-.339.194-.496.254c-.181.073-.35.17-.532.218-.181.06-.375.072-.556.109s-.387 0-.568.012-.375-.024-.556-.037c-.182 0-.387.121-.569.097s-.35-.181-.531-.217c-.182-.049-.327-.17-.508-.23s-.411.048-.593-.024c-.169-.073-.29-.23-.459-.327-.17-.084-.302-.217-.46-.314s-.362-.109-.52-.218-.253-.29-.398-.41a4 4 0 0 1-.411-.363c-.145-.121-.29-.23-.423-.363s-.29-.242-.411-.375c-.133-.133-.23-.302-.339-.447-.12-.145-.217-.314-.338-.46-.109-.145-.206-.302-.315-.459s-.278-.266-.374-.423c-.11-.157-.278-.266-.375-.435-.097-.157-.218-.314-.302-.472-.097-.157-.206-.326-.29-.483-.097-.17-.037-.411-.121-.58s-.218-.303-.303-.472c-.072-.181-.217-.314-.29-.496-.072-.169-.024-.399-.084-.568-.073-.181-.157-.35-.23-.52-.06-.181-.12-.35-.181-.532s-.23-.314-.278-.495c-.06-.182-.049-.387-.097-.568-.06-.182-.048-.375-.097-.556s-.242-.327-.29-.508-.012-.375-.06-.568c-.049-.182.024-.387-.025-.569l-.108-.544c-.037-.193-.206-.35-.242-.532s-.097-.362-.121-.556c-.036-.18-.06-.362-.097-.556-.024-.181-.072-.362-.096-.556-.025-.181-.013-.375-.037-.568-.024-.181.097-.387.073-.568-.024-.194-.17-.363-.194-.544-.012-.194.037-.387.012-.568-.012-.194-.108-.375-.133-.556-.012-.194-.096-.375-.108-.557-.012-.193.084-.41.072-.604-.29-.06-.302.036-.592.06s-.29-.012-.58.013-.29.06-.58.084-.279.145-.569.181c-.29.025-.302-.048-.592-.024s-.29-.024-.58 0-.29.012-.58.037-.279.18-.569.205-.302-.036-.592-.012-.29.012-.58.036-.29.121-.58.145-.303-.072-.593-.048-.278.012-.544.133c.048.181-.037.302.012.484.036.18.193.338.23.52.036.193.072.374.096.555.036.194-.048.4-.012.58s.157.351.206.533c.036.181.157.35.205.532.036.18-.012.386.036.568s.037.374.085.556.242.326.29.495c.06.182.049.387.097.557.06.18.036.386.097.568s.108.362.169.532c.06.181.181.338.242.52s.217.314.29.495c.06.17-.024.4.048.58.073.17.266.29.339.46.072.181.024.399.096.58.073.17.266.29.339.46.084.169.133.35.205.52.085.169.206.326.29.495.073.157.17.326.254.496.085.157.145.338.23.507.085.158.109.363.193.52.097.17.242.302.339.46.085.169.145.338.242.507.084.157.254.278.35.436.085.157.049.398.133.556.097.157.278.266.375.435.085.157.266.266.35.435.097.157.146.339.242.508.097.157.11.362.194.532.097.157.278.266.375.435.096.157.193.326.29.483.084.158.12.363.217.52s.218.315.315.472c.084.169.23.302.326.471.085.157.085.387.17.544.096.17.29.266.386.435.085.158.097.375.182.532.096.17.23.303.326.472.085.157.072.387.157.544.097.17.181.338.266.495.097.17.181.327.278.496.085.17.242.302.326.46.085.169.158.338.254.507.085.17.29.266.375.435s.048.4.133.569.181.326.266.495c.085.157.133.35.218.508.084.17.23.314.314.484.085.157.12.35.205.52s.279.29.351.459c.085.17.06.387.133.556.085.17.181.326.266.496.073.169.097.362.17.532.072.18.18.338.253.507s.121.35.194.532c.072.17.157.339.23.508.072.181.241.314.301.483.073.182-.012.411.049.58.072.182.157.351.217.52.06.182.11.363.17.545.06.169.145.338.193.52.06.18.194.326.254.507.048.181.012.387.073.568.048.182.145.339.193.52s.012.387.048.568c.049.182.23.339.278.52.037.182-.06.387-.012.568.037.194.17.35.206.532s.12.363.145.544c.036.182.084.375.109.556s-.012.375.012.569c.024.18-.06.386-.049.568.025.181.085.362.11.556.011.181.108.363.12.544.024.193-.06.387-.048.568s.12.375.12.556c.013.181-.048.375-.048.556.012.194.121.375.121.568 0 .182-.109.375-.109.557-.012.193 0 .374 0 .568-.012.181-.06.362-.072.556-.012.181-.012.375-.036.556-.013.193.036.387.012.568a3 3 0 0 1-.121.532c-.049.145-.133.314-.194.496-.06.157-.145.314-.205.483-.073.17-.242.29-.315.46-.06.169-.048.362-.108.532-.073.169-.194.314-.254.471-.073.181-.012.399-.06.544-.097.278-.218.46-.17.508.181-.012.363-.121.556-.133.182 0 .375.096.556.084.194-.012.375-.072.556-.096.182-.012.363-.073.544-.097.194-.012.375.012.569-.012.18-.012.362-.036.544-.06.193-.025.374-.013.568-.037.181-.012.362-.048.544-.06a132 132 0 0 0 1.112-.073c.193-.012.375-.072.556-.072.194-.012.375.048.556.06.194 0 .387-.085.568-.072s.363.12.556.145c.182.024.375.048.557.084.193.024.35.157.544.194.18.048.386.012.568.06s.35.133.532.181c.181.06.387.049.568.11.17.072.314.229.483.301.182.073.363.121.532.206l.508.254c.157.097.35.145.508.242.157.108.35.181.495.29.158.109.266.278.412.399s.253.29.386.423c.145.12.327.181.46.314s.326.218.447.363c.12.133.181.326.302.471.11.157.121.363.218.52.109.157.338.242.423.411.097.157.12.375.181.556s.097.387.157.568c.049.194.121.375.182.557s.084.386.17.556c.096.181.156.386.29.532s.35.193.519.29c.17.084.339.205.52.266.181.048.375.108.568.133.181.024.375.072.568.084s.387-.193.58-.193c.194.012.375.12.569.12.193-.011.374-.023.568-.036.193-.024.375-.072.568-.084.193-.024.363-.109.556-.133s.375-.036.568-.073c.182-.024.363-.072.556-.108.182-.037.387.036.58 0 .182-.037.375-.037.569-.073.181-.036.35-.157.544-.193.181-.037.375-.073.556-.11.193-.036.399.085.592.05.182-.037.35-.218.532-.243.194-.036.387 0 .58-.024s.387.024.569.012c.193-.024.375-.06.568-.072s.375-.145.568-.157c.194 0 .387.048.568.06q.29 0 .58.036c.182.012.375.024.569.049.181.024.375.036.568.084.181.037.363.121.532.17.084.024.181.048.278.072.085.024.17.06.254.097.169.084.338.181.483.302.133.109.158.326.254.496.097.145.339.23.4.423s.048.423.035.604c0 .194-.012.411-.072.593-.073.18-.266.302-.387.447-.12.157-.218.338-.375.447s-.35.17-.532.242c-.181.06-.386 0-.58.012s-.387.073-.58.06c-.194-.024-.411.06-.605.037s-.374-.194-.568-.218a3 3 0 0 0-.653.036 4 4 0 0 0-.616.17zm12.404-65.572c.06-.157-.06-.362-.073-.531-.012-.182 0-.375-.012-.569-.012-.181-.072-.362-.085-.556-.012-.181-.036-.374-.048-.556-.012-.193 0-.375-.012-.568-.012-.181.048-.375.036-.568-.024-.182-.096-.375-.12-.556-.013-.182 0-.375-.013-.568-.024-.182-.12-.363-.145-.544-.012-.194.121-.4.109-.58-.024-.194-.145-.363-.17-.557-.023-.181-.132-.363-.156-.544s0-.375-.025-.568c-.024-.181.037-.387.013-.568-.037-.182-.158-.35-.194-.544l-.109-.544c-.036-.182 0-.387-.048-.568-.036-.182-.109-.363-.157-.544-.036-.182-.145-.351-.194-.532s.012-.387-.036-.569-.23-.326-.29-.507c-.048-.17-.012-.387-.073-.568-.06-.17-.18-.327-.253-.508-.06-.17-.025-.387-.097-.568-.073-.17-.145-.351-.218-.52a10 10 0 0 1-.242-.508c-.084-.17-.23-.314-.326-.484-.085-.169-.157-.338-.242-.507s-.302-.266-.387-.435c-.096-.17-.06-.4-.157-.569-.096-.157-.205-.314-.302-.471s-.17-.339-.278-.496c-.097-.169-.266-.29-.363-.435-.108-.157-.181-.35-.29-.496-.109-.157-.314-.241-.435-.387-.109-.157-.133-.374-.242-.531-.109-.145-.254-.278-.375-.424s-.193-.326-.314-.471-.266-.278-.387-.423c-.12-.133-.242-.29-.362-.435-.121-.133-.266-.266-.4-.4-.132-.144-.338-.205-.47-.338s-.158-.375-.291-.508-.29-.253-.423-.374c-.133-.133-.266-.278-.411-.4-.133-.132-.302-.229-.435-.362-.145-.12-.35-.181-.496-.302s-.302-.206-.46-.327c-.144-.12-.229-.314-.374-.423s-.35-.145-.496-.254c-.157-.108-.302-.23-.46-.338-.144-.097-.277-.23-.434-.338-.157-.097-.35-.146-.508-.242s-.29-.23-.46-.327c-.157-.084-.302-.205-.47-.29-.158-.097-.364-.097-.533-.181s-.302-.23-.471-.314-.339-.158-.508-.23-.363-.097-.532-.17-.326-.193-.496-.265c-.169-.06-.362-.097-.532-.158-.18-.06-.362-.084-.544-.145s-.29-.29-.471-.35c-.181-.049-.387 0-.568-.049s-.375-.072-.544-.12c-.182-.037-.363-.097-.544-.145-.182-.037-.363-.049-.544-.097l-.544-.109c-.194-.036-.363-.097-.544-.133-.194-.024-.35-.157-.544-.181-.182-.024-.375 0-.556-.024s-.363-.073-.556-.097c-.182-.012-.363-.073-.544-.097-.194-.012-.375-.036-.569-.048-.181-.012-.374.12-.556.12-.193-.011-.375.013-.568.013-.181 0-.363-.133-.544-.133-.193 0-.375-.012-.568-.012-.181 0-.375-.012-.556-.012s-.363.145-.556.157c-.182 0-.375-.073-.556-.06s-.375-.061-.569-.05c-.18.025-.362.158-.544.182-.181.012-.362.097-.544.121s-.386-.097-.568-.06c-.193.024-.35.205-.532.23-.181.036-.387-.025-.568 0-.181.036-.363.096-.544.132s-.375.025-.556.073c-.181.036-.35.109-.532.157-.181.036-.338.17-.52.218s-.41-.085-.592-.037-.339.158-.52.218c-.181.048-.363.073-.544.133s-.326.193-.508.254c-.169.06-.326.17-.507.23-.17.06-.363.072-.544.145-.17.072-.363.096-.532.157-.17.072-.339.181-.508.254s-.29.253-.46.326c-.169.085-.374.085-.544.17-.169.072-.362.108-.52.193-.169.084-.265.302-.422.387-.17.096-.424.012-.58.108-.17.085-.243.327-.412.423-.157.097-.387.073-.544.17s-.266.266-.423.374l-.471.29c-.158.11-.29.23-.448.34s-.29.229-.447.338c-.145.108-.387.108-.532.217-.145.121-.314.206-.46.327-.144.108-.229.302-.374.423s-.218.326-.35.447c-.146.12-.363.145-.496.278-.145.121-.327.193-.472.326-.133.121-.29.23-.423.363s-.205.314-.338.447-.182.339-.315.472-.241.278-.374.41c-.121.146-.278.255-.4.4-.12.133-.29.23-.41.375s-.242.278-.363.423-.206.314-.314.46c-.121.144-.303.24-.423.386-.11.145-.23.29-.339.447a6 6 0 0 0-.314.46c-.11.145-.182.326-.29.483s-.182.339-.278.508a11 11 0 0 0-.315.484c-.097.169-.23.314-.314.483-.097.17-.085.399-.17.568-.096.17-.302.29-.386.46s-.085.387-.17.556c-.084.181-.132.362-.205.544-.085.169-.23.326-.302.495-.073.182-.109.375-.17.557-.072.18-.108.374-.18.556-.061.181-.122.362-.194.544-.06.181-.157.35-.218.532-.048.18-.169.35-.217.531-.06.194 0 .411-.049.593-.048.193-.133.362-.181.556-.048.181-.097.363-.145.556-.036.193-.206.35-.242.532-.048.193.06.411.024.604-.036.182-.036.387-.072.569-.037.193-.242.35-.278.544-.025.193.096.41.06.604-.024.193-.06.387-.085.58s-.133.375-.157.568-.096.375-.12.569-.085.387-.097.58c-.024.193.133.411.109.604s-.097.387-.11.58c-.023.194-.108.388-.12.581a9 9 0 0 0-.049.58c-.024.194-.024.387-.036.58-.012.146-.072.363-.084.617a9 9 0 0 0-.025.605c-.012.193.012.398.012.604-.012.218.06.423.049.617 0 .23.084.435.072.616 0 .363-.338.399-.169.64.133.194.242-.036.508-.036.145 0 .29-.06.46-.072.193-.012.398.145.592.12.193-.011.362-.217.556-.24s.41.12.604.096.363-.218.556-.242.387-.06.58-.085.4.121.593.097.375-.12.556-.145c.193-.024.375-.12.556-.145.194-.024.387 0 .58-.024.194-.012.4.109.58.084.122-.012.29-.12.472-.157.242-.048.278.049.435-.133.17-.181.06-.181.073-.483 0-.145.06-.315.072-.496.012-.157 0-.338.012-.508s.073-.338.085-.52c.012-.169.012-.35.024-.52.012-.18-.096-.362-.084-.531 0-.182-.037-.35-.025-.532.013-.17.146-.339.158-.52.012-.17 0-.35.012-.52.012-.193.036-.375.048-.556.012-.193.036-.375.048-.568.013-.181-.096-.375-.084-.568.024-.182.12-.363.133-.544.012-.194.06-.375.072-.556.025-.194.121-.363.145-.544.012-.194-.084-.387-.06-.58.024-.182.157-.351.181-.533.024-.193-.036-.386 0-.568.024-.193.073-.362.11-.556.035-.181.06-.363.096-.544.024-.193.109-.363.145-.544s.06-.375.097-.556 0-.375.036-.556c.048-.181.145-.35.193-.532s.17-.339.218-.52-.036-.399.012-.58c.06-.181.205-.327.254-.508.06-.17.024-.387.084-.556a9 9 0 0 1 .194-.532c.06-.17.097-.363.157-.532.073-.181.23-.314.302-.483.073-.182.085-.375.157-.544s.266-.29.339-.46c.085-.169.109-.362.181-.532.085-.169.218-.314.302-.483.073-.157.182-.29.279-.448s.096-.362.205-.507.254-.266.375-.4.266-.241.399-.374c.12-.12.205-.29.338-.411.133-.133.327-.193.46-.302.145-.121.23-.302.374-.411s.278-.23.424-.327c.157-.108.314-.193.471-.278.157-.096.302-.205.46-.29.169-.097.338-.205.507-.266.181-.072.375-.133.556-.17.194-.047.4.098.593.086s.374-.037.556-.037c.193.012.374.037.568.06.181.037.41-.096.592-.048s.315.266.496.327c.181.072.363.109.544.193.17.073.387.06.556.157.17.085.314.218.484.327.157.109.338.181.495.29.145.12.29.254.435.387.145.12.194.338.327.483.133.133.29.254.41.4s.327.217.436.362c.109.157.12.375.23.532.096.157.133.35.23.508.096.169.253.278.35.447.085.157.133.35.218.508.084.169.133.35.205.52.073.18.254.302.327.47.06.182.036.388.108.557.06.181.182.339.242.508.06.181.121.35.181.532s.206.326.266.507c.049.17.037.375.097.557.048.18.121.35.181.531.049.182-.024.387.025.569.06.181.145.362.193.556s.218.35.266.544-.085.423-.036.616l.145.58c.036.146.048.315.084.472s.121.314.182.472.23.217.326.338c.06 0 .097-.133.194-.411.048-.157.193-.314.241-.496.06-.181.049-.387.085-.556.073-.242.073-.447.097-.532.048-.193.096-.374.145-.556.036-.193.036-.387.084-.58.049-.181.133-.363.182-.544.048-.194.217-.35.266-.532.048-.193-.073-.423-.024-.604s.18-.351.23-.532c.048-.194.193-.351.241-.532.06-.182.06-.387.12-.568s.146-.351.206-.532c.06-.194-.024-.424.037-.605.072-.181.133-.363.205-.544.073-.17.206-.326.29-.508.073-.169.133-.362.218-.532s.145-.362.242-.531c.096-.158.217-.315.314-.484.097-.157.254-.29.363-.447s.254-.29.374-.448c.11-.145.133-.386.254-.532s.339-.205.472-.35.326-.218.471-.35c.133-.134.145-.4.29-.533.133-.108.351-.145.508-.241.145-.097.327-.145.496-.23.157-.085.29-.242.46-.314.168-.06.362-.037.543-.085.182-.06.35-.097.532-.133s.35-.085.532-.109.363-.072.544-.084c.181 0 .363.036.544.048.193.012.363.06.544.097.181.024.35.084.52.133.181.06.363.06.532.133.169.084.375.096.532.181.157.097.338.181.483.29.157.109.327.206.472.314.145.121.181.363.326.484.133.133.314.205.447.338.121.133.303.23.424.375.12.133.133.375.253.52.11.145.23.278.339.435.109.145.205.302.314.46.097.157.29.254.387.423.085.157.109.362.206.52.084.169.108.362.193.52.085.169.302.277.375.447.084.169.084.374.157.544s.036.387.109.556.133.35.193.52.254.302.314.483c.06.17.146.339.206.52s.109.363.157.532c.06.181.133.363.182.532.048.181.06.375.108.556s-.036.399 0 .58c.049.182.218.327.266.508.037.181.012.387.06.568.037.182.158.339.206.52.036.181.145.35.182.532s-.06.399-.013.568c.037.194.073.363.121.544.012.085-.012.278.012.568.013.17.06.35.085.568.012.182.145.363.17.557.011.18-.049.386-.037.58.012.181-.024.387-.012.58.012.181 0 .375.012.568s.181.375.193.569-.036.386-.024.58 0 .387.012.568c.012.205.11.387.121.568.012.206-.072.411-.072.58.012.218.109.411.12.569.013.35-.06.652-.072.652.181-.012.363-.145.544-.157l.556-.036c.181-.012.375.097.556.085.194-.012.375-.11.556-.121s.363-.097.544-.11c.194-.011.375.073.569.061.18-.012.374.037.556.025.193-.013.374-.17.58-.182.193-.012.387.036.592.024.194-.012.4.06.593.049s.387-.012.58-.024c.205-.013.399-.085.592-.097.121-.012.327-.109.58-.109.194 0 .4.157.605.145.206 0 .399-.157.568-.193.254-.049.544-.037.605-.17m-11.993.544c.012-.193.037-.374.037-.568 0-.181-.073-.374-.073-.556 0-.193-.048-.387-.048-.568 0-.193.048-.387.048-.568-.012-.194.036-.387.024-.568 0-.194-.048-.387-.06-.569-.012-.193-.133-.374-.145-.556-.012-.193.06-.387.036-.568-.012-.17.024-.363 0-.556-.024-.181-.193-.35-.218-.544-.024-.181.145-.387.11-.58-.025-.182-.218-.339-.255-.532-.024-.181.073-.387.049-.58-.037-.182-.157-.351-.194-.532-.024-.182-.06-.375-.096-.556s-.097-.363-.146-.544c-.036-.182-.084-.363-.132-.544s.048-.4 0-.58c-.037-.182-.06-.375-.11-.557s-.193-.338-.241-.52-.218-.326-.266-.507c-.06-.182 0-.4-.06-.58s-.06-.375-.121-.557-.097-.362-.17-.544c-.072-.169-.205-.326-.278-.495-.072-.182-.254-.303-.326-.472-.073-.181-.17-.338-.242-.508-.084-.169-.145-.35-.23-.52-.096-.157-.133-.35-.23-.507-.096-.17-.193-.339-.29-.484-.108-.157-.265-.29-.374-.423-.121-.157-.17-.363-.302-.496a3 3 0 0 0-.4-.398 2.3 2.3 0 0 0-.459-.327c-.157-.109-.35-.157-.507-.217-.182-.073-.363-.085-.544-.121-.182-.025-.363-.049-.544-.037s-.375.012-.544.06c-.182.05-.303.218-.472.291-.17.085-.387.06-.544.157s-.254.266-.399.387c-.145.109-.254.254-.387.387-.133.12-.314.205-.435.338s-.205.303-.326.448c-.11.145-.194.302-.303.459-.108.145-.205.302-.302.447-.096.157-.23.303-.314.448-.085.169-.23.302-.314.471s-.073.387-.145.556c-.085.17-.194.327-.266.496-.085.169-.158.338-.23.508s-.266.302-.339.471c-.06.181 0 .399-.06.58s-.085.363-.145.544-.29.303-.35.472c-.061.181.036.41-.025.592-.048.17-.109.35-.157.532s-.181.339-.23.52-.133.35-.181.532-.121.362-.157.544c-.049.181.084.41.048.592s-.133.35-.17.532c-.035.194-.132.363-.168.544s-.073.375-.097.556c-.036.182-.048.375-.073.556-.036.182-.108.363-.133.544-.024.194-.06.375-.084.568-.024.182-.012.375-.036.557-.013.193.036.386.024.568-.024.193.048.387.024.568-.012.193-.194.363-.206.556-.012.181.049.375.037.568-.012.182.036.375.024.556 0 .194-.182.375-.194.556 0 .194.182.387.17.58 0 .182-.182.363-.182.557-.012.181.157.375.157.568 0 .181.013.375.013.556 0 .194-.158.387-.158.568.012.194.085.375.097.568 0 .182.085.375.097.557 0 .193-.036.386-.024.568.012.193-.133.387-.121.568.012.193.109.375.12.568.013.181.073.375.085.556.012.194-.024.387 0 .568.012.194-.024.387-.012.569.024.193.073.374.097.556.012.193 0 .387.024.568.024.193.06.375.085.556.024.193.181.363.205.544.024.193.109.375.133.556.036.181-.06.399-.036.58.036.182.085.363.12.544.037.194.061.375.097.556.037.194.06.375.097.557.036.193.206.35.242.531s.012.375.048.557c.049.18.073.374.121.556s.012.374.06.556c.049.169.23.326.29.52.05.18 0 .399.073.592.06.181.206.326.266.52.073.181.11.375.182.556s.145.363.23.544c.072.17.096.375.18.556s.182.338.267.52.254.314.35.483c.085.17.133.375.23.532.109.17.145.387.254.544.109.17.35.23.471.375.121.157.266.278.4.411.156.133.253.326.422.423.182.097.387.085.58.121.194.048.375.085.58.073.194 0 .388.012.581-.037s.363-.157.544-.241c.181-.073.387-.121.556-.218.17-.109.35-.193.508-.326.145-.11.23-.303.363-.436.133-.12.326-.205.447-.338.133-.145.254-.29.375-.435.109-.145.181-.327.29-.484.109-.145.266-.278.375-.435.096-.157.157-.339.253-.508.097-.157.146-.338.23-.508.097-.169.35-.253.435-.423s.06-.387.133-.556c.085-.181.121-.362.194-.544.072-.17.157-.338.217-.52.073-.169.11-.362.17-.532.072-.18.133-.362.193-.544.06-.169.145-.338.206-.52.048-.18.193-.338.253-.52.049-.18.049-.374.097-.555s.121-.363.17-.544.132-.35.18-.532c.037-.194.085-.375.134-.556.036-.182-.073-.4-.024-.593.036-.181.036-.374.072-.556s.193-.35.23-.532c.036-.193.072-.374.096-.556.037-.193.097-.375.121-.556.037-.193-.072-.399-.036-.592.024-.182.133-.363.157-.544.024-.194.145-.363.17-.556.024-.182-.073-.387-.049-.58.024-.182-.024-.388 0-.569.024-.193.181-.363.194-.556.024-.193-.121-.399-.097-.58.012-.194.12-.375.133-.568.024-.182.012-.375.024-.569s.073-.374.085-.568c.012-.181-.012-.375 0-.568 0-.193-.073-.387-.073-.568.012-.194.206-.375.218-.568 0-.182-.049-.375-.049-.569m-17.625 4.63c0-.193.012-.374.024-.568 0-.18-.024-.374-.024-.568.012-.181-.06-.375-.06-.556 0-.193-.086-.375-.086-.568 0-.181.158-.375.158-.556 0-.194-.085-.375-.085-.568-.012-.182-.073-.375-.073-.556-.012-.194.146-.387.146-.569-.013-.193-.206-.362-.218-.556s.145-.387.133-.568c-.012-.193-.194-.363-.206-.556-.012-.181-.048-.375-.06-.556-.024-.194.12-.387.097-.58-.012-.182-.11-.363-.133-.544-.025-.194-.121-.363-.145-.556-.025-.182-.013-.375-.037-.557-.024-.193.085-.399.06-.58-.023-.193-.132-.363-.168-.556-.037-.181-.11-.363-.146-.544s-.012-.375-.048-.568c-.048-.181-.024-.375-.06-.556-.049-.194-.121-.363-.158-.544-.048-.194-.048-.387-.096-.568s-.109-.363-.157-.532c-.049-.182-.218-.339-.278-.508-.049-.181-.158-.35-.206-.532-.06-.181.012-.399-.048-.568-.06-.182-.145-.35-.206-.532s-.12-.363-.181-.532c-.073-.181-.133-.35-.206-.532-.06-.17-.254-.29-.326-.46-.085-.169-.085-.374-.17-.543-.072-.17-.144-.35-.229-.508-.085-.17-.097-.375-.193-.532-.085-.17-.29-.278-.375-.435-.097-.145-.097-.363-.206-.52-.109-.145-.29-.242-.399-.399-.12-.133-.217-.29-.338-.435-.121-.133-.254-.266-.387-.4-.12-.132-.23-.29-.363-.41-.145-.121-.314-.218-.459-.327s-.35-.145-.508-.23c-.157-.096-.302-.229-.471-.29-.17-.072-.327-.217-.508-.253s-.375.084-.556.096c-.181 0-.35.037-.532.085-.145.048-.375.06-.568.193-.157.121-.254.315-.411.46s-.315.278-.46.423c-.157.17-.326.302-.435.423-.12.145-.181.327-.29.484s-.266.278-.363.447c-.108.157-.23.302-.314.471-.097.158-.109.363-.193.532-.097.17-.242.303-.327.472-.072.17-.145.35-.23.532-.072.169-.096.362-.169.532-.06.181-.181.338-.241.52-.073.169-.097.362-.158.544-.048.169-.06.362-.12.556-.049.169-.29.302-.339.483s.012.4-.036.58-.06.375-.097.557c-.048.18-.097.362-.133.556-.048.181-.048.374-.085.556s-.084.362-.12.556c-.025.181-.085.363-.121.556-.025.181-.145.35-.182.544-.024.181 0 .387-.024.568-.024.194-.072.375-.097.568-.024.182-.084.363-.096.556l-.073.569c-.012.18.121.386.109.58-.024.181 0 .375-.012.568s-.145.375-.157.556c-.012.194-.024.387-.037.568 0 .194-.036.375-.048.569 0 .193.12.386.12.568-.011.193-.096.387-.096.568 0 .193-.096.387-.096.568 0 .193.12.387.12.58 0 .182.073.375.073.569 0 .18-.133.374-.12.568 0 .193.168.374.168.568.012.181-.072.375-.06.568 0 .194.036.375.048.568s-.024.387-.012.568c.024.194.06.387.085.569.012.193.12.374.133.568.012.181-.157.399-.133.58.024.194.096.375.12.568.013.182.013.375.037.568s.133.363.157.557c.024.18.097.374.121.556.024.193 0 .387.024.568.036.193.012.387.048.58.037.181.097.363.133.556.037.182.182.35.218.532.036.194-.012.387.036.58.037.182.025.387.06.569.05.18.23.338.279.52.048.193-.085.423-.036.604s.253.326.314.508c.048.181-.024.399.024.58.06.193.193.35.254.52.06.193.109.375.17.544.06.181.144.35.217.532.06.181.145.35.205.52.073.18.012.41.085.58.072.181.133.362.205.532.085.181.242.314.327.483s.278.278.363.448c.096.169.084.386.18.544.098.169.134.374.243.52.096.169.193.338.302.483.109.17.29.266.399.411.133.157.338.23.46.363.132.145.265.266.398.399.145.133.254.278.4.386.156.133.277.278.434.375.17.097.339.194.508.254.181.073.375.085.556.109.194.024.387.12.568.097.194-.013.387-.049.568-.121.17-.06.351-.157.52-.266.157-.097.29-.242.436-.363s.253-.278.386-.423c.121-.133.242-.278.363-.423.12-.157.254-.29.363-.447s.096-.375.193-.544c.097-.158.302-.266.387-.436.097-.169.109-.374.181-.544.085-.169.133-.35.206-.532.084-.169.217-.314.29-.495.072-.17.109-.363.17-.544.072-.17.108-.363.168-.544s.121-.363.182-.532c.048-.194.145-.35.193-.532.06-.181.17-.35.218-.532s-.024-.387.024-.568.12-.35.17-.532c.036-.181.084-.363.12-.544s.206-.339.242-.532c.036-.181-.073-.387-.036-.568.036-.194.024-.375.06-.568.024-.182.23-.339.266-.52.024-.182-.097-.387-.072-.58a8 8 0 0 0 .084-.557c.024-.181.133-.35.157-.532.024-.193.097-.362.11-.556.023-.181.072-.362.096-.556.024-.181-.133-.387-.121-.568s.085-.363.097-.556c.024-.181.108-.363.12-.556l.037-.556c.012-.182.012-.375.024-.556 0-.194.06-.375.073-.556M170.737 115.913c.012.206 0 .4-.024.58-.036.194-.06.4-.145.569-.073.169-.29.266-.411.41s-.157.387-.314.496c-.146.121-.363.17-.532.242s-.375.085-.556.12c-.194.05-.375.194-.569.194-.181.012-.387-.084-.568-.12-.193-.025-.363-.121-.544-.194-.17-.06-.41-.036-.568-.145-.157-.097-.266-.29-.399-.435-.133-.133-.326-.242-.435-.411-.085-.157-.194-.339-.254-.532-.06-.17.133-.423.097-.617-.037-.181-.11-.35-.121-.556 0-.181-.012-.35.036-.532s.085-.35.181-.52c.085-.157.194-.302.315-.447.12-.133.29-.23.435-.338s.23-.35.387-.423c.169-.085.399-.049.568-.085.181-.036.363-.085.544-.073.17 0 .375-.036.544.012.17.037.29.266.46.339.156.06.398 0 .543.097.158.096.327.193.46.314s.23.302.338.447c.097.145.073.363.145.52.085.194.145.363.194.544.06.194.181.363.193.544" style="fill:#1e2864"/><path d="M155.227 54.03c0 .18-.06.374-.06.555v.556c0 .182.024.363.024.544v.557c-.012.18 0 .374-.012.556 0 .18-.037.362-.049.544l-.036.58c-.024.181.012.387 0 .568-.024.194-.133.375-.157.568s.036.387.012.58-.036.375-.073.569c-.024.193-.06.374-.084.568-.037.193-.06.387-.097.568-.024.194-.109.375-.157.556-.036.194-.036.387-.073.568-.036.194-.109.375-.157.556a9 9 0 0 1-.133.557c-.036.193-.048.386-.097.568s-.084.375-.133.556c-.048.193-.145.363-.193.544-.06.181-.06.387-.109.568-.06.181-.133.363-.193.544-.049.181-.133.35-.194.544-.048.181-.048.375-.108.556-.049.194-.17.35-.218.532-.06.194-.012.399-.073.58-.048.194-.205.35-.253.532-.037.121 0 .266-.037.387-.06.181-.169.339-.254.484-.096.181-.145.374-.266.495-.133.133-.29.254-.447.339-.17.084-.363.084-.544.12-.17.037-.35.025-.544.013-.181 0-.375.072-.556.036-.17-.024-.338-.145-.508-.205-.181-.06-.35-.121-.507-.206-.17-.072-.339-.145-.496-.242s-.339-.157-.484-.278c-.145-.109-.217-.302-.35-.435s-.339-.193-.448-.326c-.108-.145-.157-.351-.253-.52-.085-.157-.182-.315-.266-.496-.06-.17-.145-.338-.206-.52s-.097-.362-.145-.544-.072-.374-.109-.556-.036-.375-.06-.568c-.036-.181-.073-.363-.097-.544-.024-.193-.085-.375-.109-.556-.024-.194-.024-.375-.036-.568a8 8 0 0 1-.048-.556c-.012-.182-.06-.375-.073-.556-.012-.194-.012-.375-.012-.569-.012-.193.048-.374.048-.568s-.048-.375-.048-.568v-.568c0-.182-.024-.375-.024-.556 0-.194.012-.387.024-.568 0-.194.024-.387.036-.569 0-.193.049-.374.06-.568 0-.181-.072-.375-.072-.556.012-.193.049-.387.049-.568v-.556c.012-.194.06-.387.06-.58s-.012-.387-.012-.58c.012-.182-.012-.376-.012-.569s.024-.387.024-.58-.024-.387-.024-.58.048-.387.048-.58c.012-.194.036-.388.049-.581 0-.194.012-.387.024-.58.012-.182-.049-.387-.037-.58s-.036-.387-.024-.58.097-.376.11-.57.06-.386.072-.58c.024-.18.036-.374.048-.568.024-.193.036-.386.06-.58s.037-.387.06-.568c.037-.193.013-.399.037-.58.036-.194.06-.387.097-.58.036-.182.12-.363.157-.557.036-.157.024-.35.085-.556.036-.169.084-.35.133-.544.048-.169.181-.326.23-.508s.132-.35.193-.531c.048-.17.048-.375.109-.557.06-.169.169-.326.23-.507.072-.17.132-.35.205-.52s.096-.363.181-.532.181-.339.266-.496c.097-.169.206-.314.302-.471.11-.157.23-.302.339-.447.109-.158.23-.29.35-.424.158-.157.254-.35.423-.459.182-.12.4-.145.593-.193s.387-.037.604-.012c.182.036.387.06.58.157.17.084.339.217.508.362l.145.11c.121.132.266.277.375.434.109.145.145.351.242.52.097.157.205.315.29.496.073.17.133.35.206.532.072.169.157.338.217.52s.133.362.194.544c.048.181.06.374.108.556.049.193.182.362.23.532.048.193 0 .41.048.58.049.181.133.35.17.532.048.17.072.35.12.532.037.181.037.375.073.556s.085.35.121.532.145.35.181.532.085.362.11.544c.035.181.023.362.06.544.024.193 0 .374.024.556.024.193.084.362.109.544s.084.362.108.544l.073.556c.012.181-.048.375-.036.556.024.181.12.363.133.544s-.073.375-.06.556.035.363.048.556c0 .182.036.363.048.544m-1.801 1.22v-.568c0-.193-.049-.387-.049-.568 0-.194.012-.387.012-.58-.012-.182-.012-.375-.024-.569 0-.193-.048-.374-.06-.568 0-.193-.012-.387-.012-.568-.012-.193.036-.387.024-.58s-.06-.375-.085-.568c-.012-.194-.036-.387-.048-.569-.012-.193-.06-.374-.085-.568a9 9 0 0 0-.048-.568c-.012-.193-.012-.375-.036-.568s-.013-.387-.037-.568c-.024-.194-.133-.375-.157-.556-.036-.182-.036-.375-.072-.557-.037-.193-.073-.374-.11-.556-.023-.145-.023-.338-.072-.556-.036-.169-.084-.35-.133-.544-.048-.169-.12-.35-.181-.532-.048-.181-.097-.362-.157-.544s-.17-.338-.242-.507c-.085-.182-.133-.363-.218-.52-.108-.17-.205-.35-.314-.472a1.6 1.6 0 0 0-.46-.362c-.169-.073-.374-.037-.567 0-.158.036-.351.084-.52.217-.037.024-.121.278-.303.508-.108.145-.29.266-.398.423-.158.218-.303.399-.339.46-.085.157-.12.35-.193.543a4.5 4.5 0 0 0-.206.532c-.06.17-.109.363-.157.544s-.073.375-.12.569c-.037.18-.158.35-.194.544-.037.18-.037.374-.073.568-.036.181-.085.362-.12.556-.025.193-.025.387-.05.568-.035.193-.035.387-.06.58-.024.182-.096.363-.12.556s.036.387.012.58c-.012.194-.133.375-.145.557-.025.193 0 .387-.025.58a8 8 0 0 1-.06.568c-.012.194-.073.387-.085.58l-.036.569c-.012.194.06.399.048.58-.012.193-.012.387-.024.58 0 .194-.048.387-.06.568-.012.194-.073.387-.085.58s.024.388.012.569c0 .205.036.399.036.58-.012.194 0 .387-.012.58 0 .194-.084.387-.084.569 0 .205.084.399.084.568.012.205-.084.399-.072.58 0 .17.024.35.024.544.012.181.048.363.048.556.012.182-.036.363-.036.556.012.182.012.363.024.556.012.182.06.363.073.544s.036.363.048.556c.024.182.06.363.073.544s.012.375.036.557.036.362.06.556c.025.181.11.35.133.544.025.181-.036.374-.012.556.037.193.158.35.194.532s.084.362.12.544c.049.181.097.362.146.532.048.193.109.362.169.532.06.18.073.374.133.531.085.182.193.327.278.484.097.17.157.339.266.472.12.157.23.29.326.41.133.146.266.242.4.327a.7.7 0 0 0 .459.133c.145 0 .314.036.52-.024.18-.049.326-.157.471-.242.157-.097.302-.181.423-.314.109-.133.242-.278.327-.436.072-.157.096-.338.145-.52.06-.169.169-.314.217-.495.036-.17-.024-.375.012-.544.037-.181.17-.326.206-.496.048-.193.012-.387.06-.58.037-.181.121-.35.157-.544.037-.181 0-.375.037-.568.036-.182.072-.363.108-.556.025-.182.121-.363.146-.544.036-.194.096-.375.12-.556.025-.194-.048-.387-.024-.58.024-.182.121-.363.145-.557l.073-.556c.012-.193.012-.387.036-.568.024-.193 0-.387.012-.58.012-.182.133-.363.145-.556.024-.182-.084-.387-.072-.58.012-.182.084-.375.096-.557.013-.193 0-.387.013-.568.012-.193.012-.387.012-.568.012-.194.036-.387.036-.58.012-.182.036-.375.048-.569 0-.18.049-.374.049-.568M155.106.837c.048.158.097.35.109.544 0 .17-.085.35-.109.532s.012.375-.024.544c-.036.182-.133.35-.17.52-.048.181-.205.327-.241.484-.06.193-.06.387-.085.532-.036.193-.12.374-.157.556-.036.193.06.399.024.592-.036.181-.157.363-.193.544-.037.193-.085.375-.121.568-.036.182-.012.387-.048.58-.037.182-.049.375-.085.569-.036.181-.048.387-.085.568-.036.193-.12.375-.157.556-.036.193-.097.375-.133.568-.036.182 0 .387-.036.58-.036.182-.06.375-.097.569a9 9 0 0 0-.133.556c-.048.193-.217.35-.254.544-.036.181-.06.375-.109.568-.036.181.06.399.013.592-.037.182-.11.363-.158.556-.036.182-.084.375-.12.556-.049.194-.121.375-.17.557-.048.193-.048.386-.096.58-.049.181-.182.35-.23.532s-.073.375-.133.556c-.048.193-.048.399-.097.58-.06.181-.157.35-.205.544-.06.181-.206.339-.266.52-.049.17-.11.363-.254.471-.181.133-.447.23-.64.182-.182-.036-.364-.218-.448-.484-.036-.096.024-.314.036-.592.012-.17-.072-.375-.06-.592.024-.194.072-.387.096-.58.025-.206 0-.424.025-.593.036-.254.205-.435.217-.568.036-.182-.012-.375.024-.556.024-.182.012-.363.037-.544.036-.182.084-.363.108-.544.037-.182.049-.363.085-.544s.036-.363.073-.544c.024-.182.193-.339.217-.52.036-.182.024-.375.06-.556s.134-.351.17-.532c.024-.182.072-.363.097-.544.036-.182-.049-.387-.013-.568s.133-.351.17-.532.048-.363.084-.544.121-.363.157-.544c.025-.182-.048-.387-.012-.569s.097-.35.133-.532.012-.374.049-.556l.109-.544c.036-.181.133-.35.169-.532s.12-.35.157-.531.06-.375.097-.544c.036-.182.108-.363.145-.532.036-.182.084-.363.12-.544.025-.133.037-.339.061-.58.024-.182.073-.375.109-.569s.072-.387.133-.568c.06-.193.145-.35.254-.484.12-.169.23-.253.435-.278s.375-.084.532-.06c.205.024.387.06.508.157.145.109.266.278.326.447" style="fill:#1e2864"/><path d="M152.023 50.245c-.012.182 0 .363-.012.544 0 .182-.012.363-.024.544-.024.182-.06.363-.085.544s-.072.363-.108.532a9 9 0 0 1-.085.544c-.024.182-.024.363-.048.544l-.073.544-.072.556-.037.544c-.012.182-.012.363-.024.557-.012.18-.048.362-.06.544 0 .18-.025.362-.037.544s-.012.374-.012.556c-.012.181-.036.362-.036.544v.556c-.012.181.024.362.024.544v.556c-.012.17.024.375.024.592 0 .182-.06.375-.06.58 0 .194-.012.387-.012.58s.024.4.012.593-.048.387-.073.58c-.036.206-.06.387-.096.58-.049.194-.085.388-.157.569-.073.193-.17.35-.279.508-.108.169-.205.338-.362.459-.17.12-.339.205-.472.242a.56.56 0 0 1-.507-.11 1.03 1.03 0 0 1-.303-.422c-.06-.157-.072-.339-.108-.52-.037-.17-.097-.338-.11-.508-.023-.193 0-.387-.023-.568-.013-.193-.06-.375-.073-.568-.024-.194 0-.387-.012-.568-.012-.194-.048-.387-.048-.568 0-.194.024-.387.024-.58v-.569c0-.181.024-.375.024-.568.012-.194.012-.375.024-.568s0-.375.012-.569.012-.374.024-.568.049-.374.06-.568.025-.387.037-.568l.036-.568c.012-.194.012-.387.025-.568.024-.194.036-.387.048-.58.012-.182.072-.375.085-.557.024-.193.012-.387.024-.568.012-.193.048-.387.06-.568.012-.194-.012-.387 0-.568.024-.194.085-.375.097-.569s-.012-.386 0-.568c.012-.193.048-.387.06-.568.012-.193 0-.387 0-.58 0-.182-.012-.375-.012-.568v-.544c.012-.17.037-.363.049-.544.024-.182.012-.375.048-.556s.109-.351.181-.52.194-.315.327-.436c.12-.133.254-.265.435-.314.23-.072.423-.084.592-.024.157.06.278.218.387.435.097.157.157.327.23.496s.12.338.169.508c.06.169.12.338.157.52s.049.362.073.543.024.351.036.532.036.363.036.544M137.214 63.76c0 .182-.06.376-.06.557s.036.375.036.556c-.012.181-.048.363-.06.556-.013.182-.037.363-.049.556-.024.182-.097.35-.12.532-.025.194.011.387-.025.568l-.109.544c-.048.17-.072.351-.133.532a4 4 0 0 1-.181.508c-.06.17-.181.326-.254.484-.084.169-.097.362-.193.52-.085.157-.266.253-.375.398s-.157.339-.29.472c-.121.133-.254.266-.4.375-.144.12-.301.217-.47.314-.158.097-.351.12-.52.205-.17.073-.339.146-.508.194-.182.048-.363.06-.544.085-.194.024-.363.036-.544.024-.194-.024-.35-.085-.532-.145s-.35-.097-.496-.194c-.157-.097-.278-.23-.399-.35-.12-.133-.254-.254-.35-.4-.097-.156-.11-.35-.182-.507-.072-.17-.145-.326-.205-.508-.048-.157-.121-.326-.181-.495s-.121-.327-.182-.496-.181-.314-.23-.484c-.06-.169-.096-.35-.145-.52-.06-.169-.048-.35-.108-.52-.049-.18-.133-.338-.182-.507-.048-.181-.145-.35-.193-.532s-.06-.363-.097-.544c-.048-.181-.12-.363-.17-.544-.035-.181.013-.387-.035-.568-.037-.182-.097-.363-.133-.544s-.133-.35-.17-.532-.036-.375-.072-.556-.024-.375-.048-.556c-.037-.194-.085-.375-.11-.556s-.048-.375-.072-.557-.12-.362-.145-.544.036-.386.012-.568-.109-.362-.12-.544c-.025-.193 0-.387-.013-.568s-.048-.375-.06-.556.036-.375.024-.568c-.012-.182-.085-.363-.097-.556-.012-.182-.012-.363-.012-.556-.012-.182-.036-.375-.048-.556 0-.194.109-.375.109-.569 0-.181.012-.362.012-.556 0-.181-.037-.375-.024-.556 0-.193.024-.375.024-.556.012-.193-.024-.375-.012-.568.012-.181-.012-.375 0-.556.012-.194.084-.375.108-.556.013-.182.073-.375.085-.556.024-.182-.024-.375 0-.557.024-.193.036-.374.06-.568.025-.181.025-.362.049-.556.024-.181.109-.362.133-.544.036-.181.072-.362.097-.556.036-.181 0-.375.036-.556s.084-.363.12-.556c.037-.181.11-.35.146-.532.048-.181.133-.363.181-.544.036-.157.012-.363.06-.568.049-.17.073-.363.121-.556.049-.17.206-.327.266-.52.049-.181 0-.387.06-.58.05-.182.194-.327.267-.508.06-.181.048-.4.12-.568.073-.182.206-.339.29-.508a4 4 0 0 1 .243-.52c.084-.181.133-.375.241-.532.11-.17.278-.278.4-.423.132-.145.253-.302.398-.411.157-.12.35-.205.52-.242.181-.048.375-.024.556-.024.194-.012.375-.036.556 0s.327.181.484.266.326.145.46.278c.06.06.217.23.386.496.097.157.145.374.254.556s.218.363.314.544c.11.193.206.375.303.544.145.266.35.423.374.508.073.169.085.362.133.544.06.169.085.362.133.544.06.169.085.362.145.532.049.18.157.35.206.52.048.18.072.362.12.543.037.182.073.363.122.544.036.182.108.363.145.544s.06.363.084.544c.037.182.049.375.085.556.024.182.085.363.109.544s.072.363.096.557l.073.544c.024.193 0 .374.024.556.012.193-.06.387-.036.568l.036.556c.012.181.109.363.121.544s-.024.375-.012.556c.012.193.085.375.085.556.012.182-.085.375-.085.556 0 .194.012.375.012.556.012.194.085.375.085.556s.024.375.024.557-.097.374-.097.556.085.374.085.556-.037.375-.037.556-.012.375-.012.556.085.375.085.556-.024.375-.024.556c0 .194-.073.375-.073.556 0 .194.073.375.073.556 0 .194-.06.375-.06.569 0 .18.096.362.096.544.012.18-.097.374-.097.556.012.193.11.374.121.556 0 .181-.109.374-.109.556s.097.375.097.556m-1.257-3.843c.012-.194-.036-.387-.036-.58 0-.182-.06-.375-.06-.569 0-.181.035-.375.023-.568 0-.193-.048-.375-.048-.568-.012-.194.073-.387.06-.568-.012-.194-.036-.387-.048-.569-.012-.193-.085-.374-.097-.568-.012-.181 0-.375-.012-.568-.012-.181.012-.375 0-.568s-.048-.375-.06-.568l-.036-.569c-.012-.18-.11-.374-.121-.556-.012-.193.048-.386.024-.58-.012-.181-.085-.363-.097-.556-.012-.181.012-.375 0-.556s-.048-.363-.048-.556c-.012-.182.036-.375.024-.556s-.097-.363-.109-.544l-.036-.556c-.012-.181-.06-.363-.073-.557-.024-.18.06-.374.037-.556s-.037-.374-.073-.556c-.024-.181-.097-.35-.133-.532s-.072-.374-.12-.544c-.037-.181-.134-.35-.194-.532-.049-.169-.145-.326-.218-.507-.06-.17-.072-.363-.145-.532-.084-.17-.133-.35-.217-.52-.085-.157-.23-.29-.327-.447s-.205-.303-.314-.46c-.121-.157-.206-.302-.327-.399a1.1 1.1 0 0 0-.507-.181c-.182-.024-.375-.048-.544.024a1.8 1.8 0 0 0-.46.315c-.133.12-.266.265-.374.41s-.11.363-.194.52c-.085.17-.205.315-.266.472-.06.181-.17.338-.217.52-.06.181-.133.35-.194.544-.048.169-.036.374-.084.556-.037.181-.097.362-.133.544s-.085.362-.121.544c-.037.193-.025.375-.06.568-.025.181-.073.363-.098.544a4 4 0 0 0-.084.556c-.024.181-.024.375-.036.568-.025.182-.013.375-.037.556l-.036.556c-.012.194-.06.375-.072.569-.013.181-.11.362-.121.556-.012.181-.012.375-.025.568 0 .181.085.375.073.556 0 .193-.048.375-.048.568s.06.375.06.568c0 .182-.097.375-.097.556 0 .194 0 .387.012.569 0 .193.073.374.073.568.012.181.036.375.036.568.012.181-.084.375-.072.568.012.182.096.375.096.556.013.194 0 .375.013.569s.012.374.024.568c.012.181.096.362.12.556.013.193 0 .375.013.568s-.037.387-.025.568c.025.194.11.375.133.556.013.194-.036.387-.012.568.025.194.133.375.145.557.025.18-.06.386-.036.568.012.193.145.362.17.544.012.193-.073.387-.049.58.024.181.145.35.17.532.024.205 0 .423.036.616.036.206.12.4.157.593.048.205.06.41.096.616.049.194.097.4.146.593.036.181.024.375.06.58.036.181.145.35.193.544.049.181.097.363.158.544.072.193.157.363.241.52.097.181.182.338.315.471.145.17.278.339.435.423.193.097.399.073.592.073.206 0 .423.048.617-.036.169-.085.29-.266.46-.411.144-.121.265-.278.386-.436s.218-.314.314-.483.242-.314.315-.484c.084-.181.145-.362.205-.556.073-.181.157-.35.206-.544.048-.181.084-.374.12-.568.049-.193.11-.375.146-.568s.024-.387.048-.58.06-.387.085-.58 0-.388.012-.58c.024-.206.108-.388.12-.581.025-.194.037-.387.049-.568.024-.194.036-.387.048-.569.012-.193.012-.386.024-.58.013-.181-.048-.375-.048-.568.012-.193.036-.387.048-.568 0-.194.06-.387.06-.568M136.864 16.565c.024.206.024.435-.06.617-.085.193-.315.242-.412.326-.157.133-.254.23-.423.206a.96.96 0 0 1-.423-.266c-.109-.11-.254-.23-.339-.387s-.169-.339-.241-.52c-.085-.17-.133-.35-.206-.532-.072-.17-.12-.35-.193-.544-.06-.17-.194-.326-.266-.508-.06-.181.036-.41-.024-.592s-.146-.35-.194-.532c-.06-.181-.193-.338-.254-.532-.048-.181-.072-.375-.12-.556s-.146-.35-.194-.544c-.048-.181-.036-.387-.097-.568-.048-.181-.109-.375-.157-.556s-.17-.35-.218-.532c-.048-.194-.024-.4-.06-.58-.048-.194-.157-.363-.193-.544-.049-.182.012-.4-.037-.58-.048-.194-.157-.363-.205-.533-.049-.193-.06-.386-.109-.568-.048-.169-.242-.314-.302-.483-.049-.182-.085-.363-.145-.544-.049-.17-.097-.35-.157-.532-.06-.17-.133-.35-.194-.52-.06-.181-.133-.35-.193-.532-.049-.17-.012-.387-.06-.556-.061-.181-.206-.327-.255-.508-.06-.181.025-.399-.024-.568-.036-.181-.193-.339-.242-.52-.036-.181.049-.387.025-.568-.025-.17-.073-.363-.085-.568-.012-.194-.109-.4-.097-.593.024-.205.145-.374.218-.556s.145-.362.302-.483c.06-.049.097-.145.181-.182.218-.084.424.049.617.11.193.048.375.108.52.265.145.145.302.29.399.472.109.193.169.41.23.592.048.181.169.35.217.532s.012.387.06.58c.049.182.085.375.133.556.037.194.025.387.073.568.048.194.181.363.218.544.048.182 0 .387.048.58.036.182.133.363.17.545.035.193.12.362.156.556.049.181.073.375.11.568.035.181-.013.387.023.58.037.182.157.35.194.544s.133.363.181.556c.036.182.073.375.121.557.036.193.036.386.073.568.036.193.12.374.157.556.036.193.012.399.048.58.036.193.06.387.097.568.036.194.145.363.181.556.036.182.109.363.145.556.049.182-.048.4-.012.593.048.181.157.35.193.544.049.181.146.362.194.544s.024.387.072.58c.06.181.17.35.218.532.048.17.024.399.12.592.073.17.182.339.255.52.072.194.23.363.242.544" style="fill:#1e2864"/><path d="M134.252 61.125c.012.194-.06.387-.06.569 0 .193.012.374 0 .568 0 .181 0 .375-.012.556 0 .193.036.375.024.568-.012.181-.097.363-.12.556-.013.17-.05.339-.086.52s-.024.363-.084.52a1.03 1.03 0 0 1-.327.41c-.133.098-.29.182-.495.134-.133-.036-.266-.157-.447-.29-.133-.097-.23-.254-.339-.448-.073-.157-.181-.314-.242-.52-.048-.169-.06-.362-.109-.568-.036-.18-.096-.362-.12-.556s-.073-.374-.085-.58c-.024-.181-.012-.375-.024-.58l-.037-.568c-.013-.193-.06-.387-.06-.58-.012-.194-.024-.387-.024-.58s.012-.388 0-.581c0-.194.024-.387.024-.58 0-.206-.012-.4-.012-.58v-.581c0-.206-.024-.399-.024-.58 0-.218 0-.411-.012-.593 0-.217 0-.41-.012-.568-.013-.145-.049-.338-.073-.568-.024-.17-.06-.363-.085-.568-.024-.182-.036-.375-.06-.568-.024-.182-.06-.375-.097-.569-.024-.193-.072-.374-.096-.568s-.037-.387-.049-.568c-.024-.193 0-.387-.024-.58l-.036-.58c-.012-.194-.06-.387-.073-.569 0-.193.024-.387.024-.58-.012-.193 0-.387.012-.58 0-.194-.048-.387-.024-.58s.073-.387.11-.569c.047-.193.096-.387.168-.544.073-.193.145-.387.266-.507.121-.158.303-.218.484-.278.217-.06.387-.073.544-.025.193.049.363.11.496.266.108.133.18.315.253.508.06.17.121.35.17.532.036.193.096.375.12.556.025.206.025.399.049.556.012.194.024.387.048.568.012.194.049.375.06.569s-.011.386 0 .568l.037.568c.012.193 0 .387.012.568 0 .193.036.387.036.568.012.194-.024.387-.024.568 0 .194.036.387.036.569.013.193.025.386.025.568.012.193-.025.387-.025.568.013.193.049.387.049.568.012.194.012.387.024.568.012.194.012.387.024.569.012.193.085.374.097.556l.036.568c.024.181-.012.375 0 .556.012.193.073.375.085.568.012.181-.012.375 0 .556.012.194 0 .387.012.568.012.194.072.375.072.556M123.783 22.066c.049.193.06.326-.036.495-.085.133-.145.339-.35.448-.158.084-.34-.012-.508-.073-.158-.048-.266-.17-.411-.29-.133-.097-.327-.157-.448-.29-.108-.133-.157-.314-.266-.46s-.205-.29-.302-.423c-.12-.169-.326-.241-.41-.35-.098-.145-.17-.327-.267-.484-.109-.157-.12-.362-.217-.52-.11-.145-.303-.241-.4-.399l-.29-.471c-.096-.157-.133-.35-.23-.508s-.18-.326-.265-.483c-.097-.157-.206-.315-.29-.472-.097-.157-.17-.326-.254-.483-.097-.17-.266-.278-.35-.436-.097-.169-.085-.374-.182-.531-.085-.17-.133-.351-.218-.52-.096-.157-.314-.242-.41-.4-.085-.156-.158-.326-.255-.495-.084-.157-.084-.375-.181-.532-.085-.157-.218-.29-.314-.447s-.206-.314-.302-.472c-.097-.145-.206-.29-.29-.435-.097-.157-.158-.326-.255-.483-.096-.145-.23-.278-.326-.423-.109-.146-.145-.339-.254-.484a10 10 0 0 0-.314-.435c-.097-.145-.278-.23-.387-.375s-.193-.302-.302-.435c-.121-.145-.242-.278-.363-.411-.17-.17-.35-.35-.52-.544-.12-.145-.217-.315-.326-.472-.097-.169-.23-.314-.29-.495-.049-.182.036-.375.048-.569.024-.241-.036-.447.024-.592.097-.218.278-.29.448-.35s.362-.158.568-.097c.181.06.362.157.544.266.17.109.302.254.46.387s.265.302.386.435c.145.17.339.29.411.435.097.17.06.399.145.568.097.157.206.315.29.484s.206.314.29.483c.097.17.23.303.315.472.096.169.181.338.266.495.096.17.157.351.241.508.097.17.158.35.254.508.097.17.17.338.266.508.097.157.218.302.315.471.096.157.241.29.338.447.097.17.206.327.302.484.097.17.11.375.206.532.097.17.278.278.375.435s.23.302.326.46c.097.169.133.362.23.52.096.169.193.338.29.495s.242.29.338.447c.097.17.133.363.23.532.097.157.218.302.314.472.097.157.194.326.29.483s.146.35.242.52c.097.157.242.278.339.447.096.158.23.303.326.472.097.157.157.338.242.508.097.157.266.278.363.435.072.133.193.278.314.447.12.145.12.387.218.544.108.17.18.326.23.496M114.45 32.16c.025.133-.024.339-.06.52-.024.193-.085.387-.23.435-.169.06-.362.121-.556.097-.181-.012-.326-.181-.507-.254-.17-.06-.363-.085-.532-.17-.158-.084-.278-.253-.436-.35-.157-.109-.399-.097-.544-.205-.157-.11-.29-.242-.435-.35-.157-.122-.242-.327-.375-.436-.169-.133-.362-.181-.495-.254-.157-.097-.315-.181-.472-.278-.157-.085-.278-.254-.435-.35s-.326-.182-.483-.267c-.158-.096-.315-.205-.472-.302s-.314-.205-.471-.302-.375-.097-.532-.193-.327-.182-.484-.279c-.17-.096-.302-.217-.471-.326-.158-.097-.303-.218-.46-.314s-.302-.218-.46-.315-.362-.133-.519-.23-.302-.205-.46-.301c-.169-.11-.29-.254-.447-.351s-.362-.121-.52-.218c-.157-.108-.241-.338-.41-.435l-.508-.29c-.17-.085-.387-.085-.556-.181-.17-.085-.303-.266-.472-.35-.17-.098-.399-.086-.568-.17-.17-.097-.339-.206-.496-.302-.181-.085-.387-.121-.544-.218-.181-.097-.314-.242-.483-.339-.17-.108-.327-.23-.472-.326-.145-.109-.302-.205-.41-.326-.122-.133-.146-.339-.218-.484-.073-.17-.133-.314-.145-.483s-.121-.363-.049-.532c.06-.158.218-.278.35-.411a.8.8 0 0 1 .496-.254c.182-.037.363.012.557.072.18.049.386.037.568.121.169.085.314.242.471.339.182.108.327.254.472.338.169.097.374.121.532.218.169.096.314.205.483.314l.472.29c.169.109.302.242.459.339.157.109.363.145.52.254s.314.193.471.302.29.254.448.362c.157.097.338.17.495.279s.254.302.411.41.303.23.46.339.29.242.447.363c.145.109.387.109.544.217s.23.327.387.448c.145.108.314.193.471.314.157.109.278.266.436.375.145.108.326.193.483.302.145.109.302.23.447.338.158.11.351.17.508.278s.254.303.4.411c.156.11.325.194.483.303.108.084.253.205.435.314.145.085.326.12.495.218.146.084.29.205.448.29s.314.181.471.266c.157.096.363.096.52.193s.302.194.447.302c.158.11.254.278.387.387.145.121.363.17.46.29.145.17.23.363.253.508M107.983 71.921q.2.18.036.435c-.085.133-.23.242-.363.363s-.253.254-.386.35c-.182.133-.351.23-.424.266-.157.097-.326.158-.495.242-.157.085-.29.218-.46.29-.157.073-.338.11-.507.182s-.327.145-.496.217c-.17.06-.314.17-.484.242-.169.06-.362.06-.531.121s-.327.157-.508.218c-.17.048-.35.06-.52.12-.181.049-.35.085-.532.133-.193.06-.375.11-.568.158-.194.06-.363.205-.556.253-.182.06-.387.085-.58.133s-.375.121-.569.17c-.133.048-.326.024-.507.084-.158.06-.29.194-.46.242s-.35.06-.508.06a.67.67 0 0 1-.483-.157 1.7 1.7 0 0 1-.375-.41 1.17 1.17 0 0 1-.157-.545c0-.193.085-.35.181-.52.097-.157.157-.362.327-.47.145-.098.338-.182.532-.243.217-.048.459-.036.689-.048s.46.012.689 0c.193-.012.375-.097.556-.109.193-.024.399.036.58 0s.363-.12.544-.157c.194-.048.387-.048.568-.097s.363-.109.544-.169c.182-.048.339-.181.52-.242.182-.048.387-.036.568-.096s.363-.11.544-.17.339-.193.52-.254c.097-.024.278-.06.508-.145.157-.048.314-.145.496-.217.169-.049.362-.037.532-.085.18-.06.362-.097.531-.145.194-.048.363-.12.52-.133.242-.024.387.036.484.133M106.955 45.228c.11.17.121.315.06.496-.048.157-.06.399-.253.496-.17.096-.411.145-.629.157-.193.012-.399-.145-.604-.17-.218-.011-.435.037-.605.025-.193-.024-.387-.024-.58-.049s-.375-.133-.568-.157-.4.073-.593.049c-.18-.025-.362-.17-.556-.194s-.386.036-.58.012c-.193-.036-.387-.024-.58-.06s-.363-.157-.556-.194c-.194-.024-.387-.036-.58-.072-.182-.036-.375-.06-.569-.097s-.387-.06-.568-.097c-.193-.036-.399-.024-.58-.06-.194-.036-.387-.06-.58-.097-.182-.036-.375-.084-.569-.12-.181-.037-.35-.182-.544-.218s-.374-.109-.556-.145-.387.048-.58.012c-.181-.036-.35-.133-.532-.17s-.363-.096-.556-.12c-.181-.037-.375.036-.568 0-.182-.037-.363-.085-.544-.11-.182-.035-.363-.156-.544-.18s-.387.06-.568.036a8 8 0 0 0-.557-.085c-.145-.024-.338-.024-.556-.036-.169-.012-.35-.048-.544-.06-.181-.025-.386.036-.568.012a6 6 0 0 1-.556-.121c-.193-.06-.326-.242-.471-.327-.17-.109-.327-.193-.436-.35a1 1 0 0 1-.157-.52c-.012-.194-.06-.387-.012-.544.049-.17.181-.339.302-.447a1.4 1.4 0 0 1 .484-.242c.181-.049.411-.049.64-.036.182.024.363.096.557.108.181.024.375-.036.568-.012.181.024.375.024.556.06.193.025.363.134.544.17.193.024.375.072.556.109.194.024.387.012.568.036.182.036.375.012.569.048.18.037.362.097.544.133s.374.06.556.097c.181.048.362.109.544.157.181.036.362.097.544.133.193.049.35.157.544.194.181.048.362.096.544.133.181.048.374.06.556.108.181.037.362.121.544.158.181.048.375.048.556.096s.35.121.544.17c.181.036.375.024.556.072s.387 0 .568.036c.181.049.339.23.52.266.181.049.387.012.568.049.181.048.35.169.532.205.181.048.375.073.556.109.182.048.35.145.532.193.181.037.387-.012.568.025.182.048.363.133.544.157.194.024.387-.024.568-.012.182.024.363.084.557.108.18.025.338.133.52.182s.41-.037.58.048c.193.097.266.314.35.447M105.142 58.853c.145.205.266.447.145.628 0 0-.048-.024-.073-.024-.108.133-.241.242-.399.254-.193.024-.398.024-.592.036-.205.012-.399.012-.592.025-.206.012-.4.072-.593.084-.205.012-.399 0-.604.012-.193.012-.387.06-.58.073-.206.024-.4.036-.593.06-.181.024-.374-.036-.556-.012s-.375.024-.556.048-.35.17-.532.194c-.181.036-.375-.06-.556-.036-.181.036-.363.036-.556.06-.181.024-.363.073-.544.097s-.35.157-.532.181-.363.048-.556.073c-.181.024-.375-.06-.556-.049a9 9 0 0 1-.556.049c-.182.024-.363.133-.544.157-.182.012-.375 0-.556.012-.182.024-.363.072-.544.085-.194.012-.375-.049-.556-.049-.194.012-.375.073-.557.073-.169 0-.398-.012-.628-.073-.194-.06-.387-.17-.568-.266-.194-.096-.387-.205-.52-.35a.78.78 0 0 1-.218-.569c-.012-.217.073-.374.145-.52a.8.8 0 0 1 .375-.35c.157-.085.314-.12.508-.17.181-.023.35-.108.544-.12.181 0 .375-.036.556-.024.193 0 .375.109.556.133.193.024.399-.037.568-.012.206.036.4.084.544.096.182.025.375.11.568.11.182.011.375-.073.569-.073s.386.072.58.06c.181-.012.375 0 .568-.012.193-.024.375-.133.556-.145.194-.024.387-.012.58-.036.182-.025.375-.06.557-.085.193-.024.374-.109.568-.133.181-.012.374 0 .568-.012.193-.024.375-.073.58-.097.194-.012.4.085.593.06.193-.011.386-.011.58-.024s.387-.133.58-.133c.206-.012.399.06.592.06.206.013.4-.035.593-.023.193.024.387.12.568.157.205.036.387.072.568.12.157.05.363.194.508.4" style="fill:#1e2864"/></svg>