<svg xmlns="http://www.w3.org/2000/svg" viewBox="0 0 75 75"><path d="M50.768 0c-.361 0-.361.027-.722.027-.36 0-.36.157-.72.157s-.36-.015-.72-.015c-.362 0-.362.247-.724.247-.36 0-.36-.27-.721-.27-.36 0-.36-.062-.719-.062-.358 0-.358.021-.716.021s-.358.319-.716.319c-.36 0-.36-.253-.721-.253-.36 0-.36-.086-.72-.086-.361 0-.361.15-.722.15s-.361-.192-.722-.192c-.36 0-.36.18-.722.18-.36 0-.36.071-.72.071s-.36-.088-.72-.088-.36.176-.72.176-.36-.235-.72-.235-.36.05-.72.05c-.361 0-.361.106-.722.106-.36 0-.36-.018-.721-.018-.36 0-.36-.025-.72-.025s-.36.143-.719.143-.359-.178-.718-.178-.359.112-.718.112-.36-.28-.718-.28c-.36 0-.36.296-.719.296-.36 0-.36-.298-.719-.298-.36 0-.36.305-.72.305s-.36-.004-.72-.004-.36.066-.721.066c-.36 0-.36-.191-.72-.191-.358 0-.358-.188-.718-.188-.358 0-.358.164-.717.164-.358 0-.358-.191-.717-.191-.358 0-.358.254-.716.254s-.358-.234-.716-.234-.357.225-.715.225-.358-.166-.716-.166c-.357 0-.357.12-.715.12s-.358-.06-.716-.06-.358.229-.716.229-.358-.01-.716-.01c-.359 0-.359-.303-.718-.303-.358 0-.358.023-.717.023-.36 0-.36-.023-.719-.023-.36 0-.36.007-.72.007s-.36.246-.72.246c-.358 0-.358-.126-.718-.126-.18 0-.362-.01-.542-.01q-.09 0-.178.004l-.098.002c-.152 0-.305-.013-.456-.013q-.086 0-.17.007c-.24.022-.48.067-.716.099a2 2 0 0 1-.201.011c-.095 0-.19-.005-.286-.005q-.123-.002-.242.018c-.237.043-.445.235-.678.289-.235.054-.42.282-.65.346-.232.064-.457.123-.684.198a.4.4 0 0 1-.122.017c-.164 0-.354-.074-.518-.074a.4.4 0 0 0-.134.022c-.224.085-.334.451-.554.546a.7.7 0 0 1-.26.04l-.215-.003a.6.6 0 0 0-.274.047c-.216.105-.352.364-.562.478s-.418.225-.623.349-.486.128-.685.26c-.2.133-.462.184-.655.325-.194.142-.188.544-.375.694s-.507.138-.687.295c-.18.158-.433.244-.607.41-.173.165-.36.327-.526.5-.166.174-.05.604-.208.784s-.492.208-.642.396c-.15.187-.263.403-.404.597s-.422.295-.555.495c-.132.2-.297.39-.42.595-.124.205-.257.416-.37.628-.115.21-.148.472-.252.688s-.251.42-.346.64-.216.439-.301.663.206.581.131.81c-.074.227-.464.359-.528.59s-.116.472-.17.706c-.053.234.152.52.108.757-.042.235-.336.432-.368.67-.032.237-.007.487-.029.726q-.033.359-.05.722c-.01.239-.113.483-.113.724 0 .364-.082.387-.02.763.06.36.379.331.379.696s-.203.364-.203.727-.153.363-.153.727c0 .361.257.361.257.722 0 .362-.157.362-.157.724s-.109.362-.109.724c0 .363.149.363.149.726 0 .362-.182.362-.182.723s.184.362.184.723c0 .363.154.363.154.725 0 .36-.149.36-.149.722 0 .36.004.36.004.72s.02.36.02.721c0 .362-.097.362-.097.724 0 .36.086.36.086.721 0 .36.01.36.01.719 0 .358.211.358.211.717 0 .358-.237.358-.237.716 0 .36-.107.36-.107.72 0 .361.084.361.084.722 0 .36.192.36.192.721s-.069.361-.069.723c0 .36.116.36.116.721 0 .36-.245.36-.245.721 0 .36.064.36.064.72s.204.36.204.72-.41.36-.41.72.048.36.048.721.042.361.042.723c0 .36.229.36.229.72s-.244.36-.244.72.169.36.169.72c0 .359-.022.359-.022.718 0 .36-.171.36-.171.718 0 .36.335.36.335.719 0 .36-.367.36-.367.718 0 .36.363.36.363.72s-.338.36-.338.72-.03.36-.03.72c0 .361.334.361.334.722 0 .36-.062.36-.062.72 0 .359-.16.359-.16.718s.105.359.105.718c0 .358-.137.358-.137.716 0 .359.272.359.272.717s-.124.358-.124.716.095.358.095.716c0 .357.078.357.078.715s-.099.358-.099.716-.153.358-.153.716.119.358.119.716c0 .359-.108.359-.108.717 0 .359.015.359.015.717 0 .36-.144.36-.144.718 0 .36.366.36.366.72 0 .359-.164.359-.164.719s-.186.36-.186.72-.076.36-.076.719c0 .24.095.486.106.725.01.24.37.455.391.693.022.24.009.474.041.71.033.24-.276.531-.233.767s.279.436.332.67c.054.233-.029.505.035.735.064.232.401.38.476.607.074.229-.093.541-.008.765.085.225.151.463.246.683s.337.376.441.591c.105.216.07.507.184.718s.484.276.608.48c.123.207.06.528.193.728s.309.373.45.567.203.454.352.64c.15.188.429.272.587.452s.414.267.58.44.269.403.442.568c.173.166.315.364.496.522.18.158.312.377.5.527.186.15.492.143.686.284.193.142.44.196.64.328.2.133.356.32.562.443.205.124.271.492.482.607s.41.27.625.374c.216.105.456.177.677.272.22.094.442.205.667.29.223.084.447.2.675.275.228.074.487.072.719.136a.5.5 0 0 0 .132.016c.163 0 .34-.058.504-.058q.06 0 .115.012c.233.053.445.21.682.254a.5.5 0 0 0 .083.007c.191 0 .398-.1.59-.1q.034-.001.066.004c.237.032.45.25.69.271l.086.004c.195 0 .395-.052.592-.052h.046c.238.012.475.255.716.255.365 0 .365-.387.73-.387s.364.263.729.263c.364 0 .364.119.727.119s.363.029.726.029c.362 0 .362-.047.723-.047.362 0 .362-.11.723-.11.363 0 .363-.132.725-.132s.362.153.725.153c.361 0 .361-.022.723-.022s.361-.073.723-.073.362.035.724.035c.36 0 .36-.168.721-.168.36 0 .36.11.72.11.361 0 .361-.148.721-.148.362 0 .362.047.724.047.36 0 .36-.065.721-.065.36 0 .36.119.718.119.359 0 .359.026.717.026s.358-.113.716-.113c.36 0 .36.388.72.388.361 0 .361-.412.722-.412.36 0 .36.175.72.175.362 0 .362-.021.723-.021.36 0 .36-.085.722-.085.36 0 .36.068.72.068s.36.269.72.269.36.03.72.03.36-.162.72-.162.36.1.72.1c.361 0 .361-.278.722-.278.36 0 .36.139.721.139.36 0 .36-.208.72-.208s.36.304.718.304c.36 0 .36-.201.719-.201s.359.284.718.284.359-.366.718-.366c.36 0 .36.348.719.348s.359-.257.719-.257.36.175.72.175.36-.14.72-.14.36.04.72.04.36.03.72.03.36.07.719.07c.358 0 .358.055.717.055.358 0 .358-.204.717-.204.358 0 .358.125.716.125s.358.042.716.042.357-.234.715-.234.358.207.716.207c.357 0 .357.119.715.119s.358-.342.716-.342.358-.025.716-.025.358-.03.716-.03c.359 0 .359.338.717.338.36 0 .36.023.718.023.36 0 .36-.265.719-.265.36 0 .36-.045.72-.045s.36.252.719.252c.36 0 .36-.145.719-.145.24 0 .479-.012.717-.023h.024c.218 0 .446.127.662.127q.024 0 .046-.002c.24-.021.445-.34.681-.373q.114-.014.23-.013l.216.003q.137.002.272-.02a.4.4 0 0 1 .08-.007c.186 0 .393.1.579.1a.4.4 0 0 0 .094-.01c.234-.055.375-.47.605-.534a.5.5 0 0 1 .125-.015c.158 0 .333.059.49.059a.4.4 0 0 0 .14-.02c.228-.075.499-.04.723-.124.224-.085.437-.215.657-.31s.311-.468.526-.572c.216-.105.486-.092.697-.206s.357-.33.563-.454c.205-.123.428-.208.627-.34.2-.133.377-.289.57-.43.194-.141.464-.177.65-.327.188-.15.407-.263.587-.42.18-.158.267-.418.44-.583.173-.166.512-.168.678-.342.165-.173.095-.561.253-.742s.605-.12.755-.307.287-.396.428-.59.043-.557.176-.757c.132-.2.389-.32.513-.526.123-.205.004-.546.118-.757s.28-.386.384-.602c.105-.216.243-.41.338-.63s.387-.362.472-.587-.018-.515.057-.743c.074-.228.187-.441.252-.673.064-.23.253-.432.307-.666.053-.233.052-.482.095-.719.043-.235-.075-.495-.043-.734.032-.237-.02-.477.001-.717.021-.238.417-.452.428-.693.01-.239-.37-.487-.37-.728 0-.365.183-.365.183-.73s.014-.365.014-.73c0-.363.006-.363.006-.727 0-.363-.103-.363-.103-.726 0-.362.285-.362.285-.723 0-.362-.197-.362-.197-.724s.111-.362.111-.724c0-.363-.117-.363-.117-.726 0-.361.187-.361.187-.723s-.257-.362-.257-.723c0-.363.13-.363.13-.725 0-.36-.094-.36-.094-.721 0-.36.26-.36.26-.72 0-.361-.241-.361-.241-.722 0-.362-.077-.362-.077-.724 0-.36.27-.36.27-.721 0-.36-.134-.36-.134-.719 0-.358.185-.358.185-.716s-.385-.358-.385-.716c0-.361.25-.361.25-.722 0-.36-.008-.36-.008-.72 0-.361-.288-.361-.288-.722s.05-.361.05-.722l-.002-.722c0-.36.21-.36.21-.72s.13-.36.13-.72-.02-.36-.02-.72-.056-.36-.056-.721c0-.36-.04-.36-.04-.721s-.088-.361-.088-.722c0-.36.018-.36.018-.721 0-.36-.13-.36-.13-.72s.273-.36.273-.72c0-.359-.117-.359-.117-.718s.09-.359.09-.718c0-.36-.19-.36-.19-.718 0-.36-.088-.36-.088-.72 0-.359.256-.359.256-.718 0-.36-.05-.36-.05-.72 0-.361.09-.361.09-.722 0-.36-.133-.36-.133-.72s-.18-.36-.18-.72.251-.36.251-.719c0-.358-.049-.358-.049-.717s-.099-.359-.099-.717.275-.358.275-.717c0-.358-.145-.358-.145-.716 0-.357.093-.357.093-.715s-.191-.358-.191-.716.033-.358.033-.716-.163-.358-.163-.716.142-.358.142-.716.18-.358.18-.717c0-.358-.196-.358-.196-.717 0-.36.053-.36.053-.718 0-.36-.081-.36-.081-.719 0-.36.162-.36.162-.72s-.237-.36-.237-.72c0-.359.044-.359.044-.718 0-.241-.022-.476-.032-.714q-.015-.358-.045-.713c-.022-.24.269-.515.237-.752-.033-.238-.065-.485-.107-.72-.044-.237-.476-.393-.529-.626-.054-.234-.09-.464-.154-.694-.064-.232.055-.515-.02-.742-.074-.229 0-.514-.084-.738-.085-.225-.418-.352-.512-.572s0-.53-.104-.745c-.105-.216-.411-.33-.525-.54s-.154-.463-.277-.668-.14-.484-.272-.684-.453-.27-.594-.464c-.142-.194-.389-.299-.539-.486s-.031-.598-.189-.778-.291-.393-.457-.567-.474-.21-.647-.376-.496-.161-.676-.319-.092-.637-.28-.787c-.186-.15-.585-.025-.779-.166-.193-.142-.376-.29-.575-.423-.2-.132-.33-.371-.536-.495-.205-.123-.35-.36-.562-.473-.21-.115-.403-.282-.619-.387s-.5-.072-.72-.167-.462-.142-.686-.227-.466-.119-.694-.194a.7.7 0 0 0-.232-.03c-.095 0-.193.009-.289.009a.8.8 0 0 1-.211-.024c-.23-.064-.408-.32-.643-.375-.233-.053-.444-.23-.68-.274a.5.5 0 0 0-.093-.008c-.187 0-.388.084-.575.084A1 1 0 0 1 60.89.4a1 1 0 0 0-.094-.006c-.185 0-.376.063-.563.063q-.034 0-.067-.003c-.238-.022-.467-.09-.707-.1s-.472-.22-.713-.22c-.365 0-.365.242-.73.242s-.364-.26-.73-.26c-.363 0-.363.182-.726.182s-.363-.024-.726-.024c-.362 0-.362.095-.723.095-.362 0-.362.056-.723.056l-.725-.001c-.362 0-.362-.021-.725-.021-.361 0-.361-.352-.723-.352s-.361.107-.723.107S51.13 0 50.768 0"/></svg>