<svg xmlns="http://www.w3.org/2000/svg" viewBox="0 0 300 32.304"><path d="M31.73 8.666q-2.166 2.868-4.285 4.731-2.118 1.864-5.05 3.36V29.47h-8.824v-9.94q-4.428.797-11.31 1.275-.254-2.485-.588-4.301-.336-1.816-1.163-3.79 5.033.031 8.887-.32 3.855-.349 6.34-1.274 5.13-1.944 7.965-5.861zm31.873 15.18a84 84 0 0 0-2.15 4.413q-10.036-7.965-14.719-11.341a.57.57 0 0 0-.35-.096q-.383 0-.86.318a58 58 0 0 0-3.839 3.218q-1.96 1.785-5.941 5.67a27 27 0 0 0-1.115-3.997 92 92 0 0 0-1.88-4.7q6.5-5.19 8.41-7.168 1.115-1.146 2.103-1.672.987-.525 1.975-.525 1.082 0 2.278.589t2.979 1.832l1.592 1.146a188 188 0 0 0 6.547 4.476q3.105 2.024 7.216 4.222a32 32 0 0 0-2.246 3.615M55.591 13q-.702-2.707-2.103-5.512l2.93-.923a26.4 26.4 0 0 1 2.135 5.543zm3.854-1.179q-.7-2.707-2.102-5.511l2.93-.924a23.8 23.8 0 0 1 2.167 5.543zm20.899 5.002q-3.951-1.465-6.372-2.167-2.422-.7-6.754-1.56a36 36 0 0 0 3.059-3.362q1.56-1.926 2.293-3.2 4.015 1.114 7.169 2.165c3.154 1.051 4.226 1.498 6.371 2.39zM69.656 25.47q-.685-1.768-2.024-3.616 5.957 0 9.86-.78 3.904-.78 6.706-2.565 2.55-1.624 3.95-4.683 1.403-3.058 1.944-7.741 1.91.669 3.775 1.163 1.864.495 4.572 1.13-.765 5.927-2.883 9.621-2.12 3.697-5.815 6.308-3.314 2.358-7.74 3.632-4.43 1.274-10.96 1.88-.7-2.58-1.385-4.35m59.972-6.085q-.574 1.673-1.275 4.38-6.562-2.356-15.418-4.14v10.13h-8.984q.222-5.352.27-10.704.05-5.352.049-13.38h8.665v6.594q4.204.51 9.19 1.53t9.159 2.198q-1.083 1.72-1.656 3.392m34.756-11.038.032 7.9q0 2.645-.032 3.95-.065 3.25-1.37 5.21c-1.305 1.96-2.198 2.293-3.982 2.962q-2.676 1.004-7.168 1.45-1.976-3.6-3.441-5.416-3.313 3.6-10.99 5.32-1.052-3.886-3.09-7.646 5.574-.604 7.582-2.867 1.241-1.37 1.688-3.76h-7.04V8.349h7.422V5.512h8.315q0 1.912-.031 2.836zm-10.401 13.54q1.29-.32 1.831-1.275.542-.956.542-2.963 0-.956-.095-2.198h-4.365q-.542 4.142-1.88 6.69 2.676.064 3.967-.255m41.446-9.909a25 25 0 0 0 3.488 2.454q-3.377 5.447-9.191 9.636-5.814 4.19-14.51 5.75l-5.926-4.173V6.213h8.57v14.814q4.3-.987 8.075-4.046c3.775-3.059 4.688-4.725 6.515-8.06a23 23 0 0 0 2.979 3.058m18.716 4.843q-3.951-1.465-6.372-2.167-2.422-.7-6.754-1.56a36 36 0 0 0 3.059-3.362q1.56-1.926 2.293-3.2 4.014 1.114 7.168 2.165c3.154 1.051 4.226 1.498 6.372 2.39zm-10.688 8.649q-.685-1.768-2.024-3.616 5.958 0 9.86-.78 3.904-.78 6.706-2.565 2.55-1.624 3.95-4.683 1.402-3.058 1.944-7.741 1.91.669 3.775 1.163 1.864.495 4.572 1.13-.765 5.927-2.883 9.621-2.12 3.697-5.815 6.308-3.314 2.358-7.74 3.632-4.43 1.274-10.96 1.88-.7-2.58-1.385-4.35M262.28 6.5l3.122 6.913q-1.69 3.345-3.059 5.448l2.39.446a17 17 0 0 0-1.656 2.198 83 83 0 0 0-1.721 2.899q-.287.477-.51.876a27 27 0 0 1-.414.717q-2.549-.828-3.76-1.243l-1.05.67q-3.06 1.75-7.359 2.771c-4.299 1.021-6.297 1.2-10.29 1.56q-.892-2.58-1.577-4.172c-.685-1.592-1.142-2.262-2.056-3.6h3.123a34 34 0 0 0-1.784-3.266 14.3 14.3 0 0 0-2.134-2.628q3.44-1.687 5.399-4.428t2.565-6.276h8.06l-.255 1.115zm-14.719 14.655q-2.357-1.116-4.172-2.262l4.555-4.875q2.676 1.467 6.404 2.708a31 31 0 0 0 2.262-3.122h-10.036q-1.465 2.709-3.297 4.81-1.832 2.103-3.838 3.537 5.351-.096 8.122-.796m12.074-14.91q-.573-1.911-1.847-4.173l2.58-.67q1.179 1.849 1.912 4.143zm3.41-.892q-.575-1.911-1.848-4.173l2.58-.67a16.7 16.7 0 0 1 1.88 4.142zm34.47 16.248h-27.62v-7.455h27.62zM23.423 31.953H14.6a1.456 1.456 0 0 1-1.456-1.456v-8.224c-2.702.41-5.973.749-9.752 1.011-.81.042-1.47-.522-1.55-1.304a55 55 0 0 0-.573-4.186c-.204-1.102-.566-2.278-1.074-3.491a1.458 1.458 0 0 1 1.352-2.02c3.29.021 6.24-.084 8.747-.313 2.43-.22 4.437-.62 5.965-1.188 3.123-1.183 5.58-2.985 7.292-5.351a1.455 1.455 0 0 1 1.749-.487l8.027 3.409a1.455 1.455 0 0 1 .594 2.219c-1.497 1.98-3.006 3.645-4.486 4.946-1.3 1.144-2.83 2.2-4.555 3.145v11.834c0 .804-.65 1.456-1.456 1.456m-7.368-2.913h5.912V17.785c0-.547.306-1.048.794-1.297 1.836-.938 3.434-2 4.749-3.157.956-.84 1.934-1.86 2.92-3.044l-5.24-2.224c-1.99 2.38-4.646 4.21-7.909 5.446-1.777.661-4.037 1.119-6.725 1.363-2.053.187-4.381.294-6.94.32.22.706.392 1.4.517 2.074.162.881.312 1.89.448 3.01 3.898-.3 7.177-.688 9.76-1.152a1.456 1.456 0 0 1 1.714 1.434zm46.425 1.703c-.325 0-.645-.11-.905-.316-6.358-5.046-11.153-8.747-14.264-11.01a58 58 0 0 0-3.618 3.045c-1.283 1.169-3.27 3.065-5.904 5.636a1.456 1.456 0 0 1-2.448-.765 25 25 0 0 0-1.054-3.78 91 91 0 0 0-1.849-4.621 1.456 1.456 0 0 1 .43-1.711c4.262-3.405 7.045-5.774 8.272-7.043.86-.884 1.666-1.52 2.465-1.945 1.782-.95 3.644-.913 5.582.043.872.43 1.908 1.066 3.167 1.943l1.61 1.16q.172.12.342.243a30 30 0 0 0-1.093-2.456 1.456 1.456 0 0 1 .865-2.04l2.93-.924a1.5 1.5 0 0 1 .535-.065q.178-.123.39-.19l2.93-.923a1.46 1.46 0 0 1 1.718.694 25.4 25.4 0 0 1 2.299 5.88 1.456 1.456 0 0 1-.997 1.754l-2.995.892c-.143.043-.297.07-.44.06a1.4 1.4 0 0 1-.447.225l-1.028.31q.752.502 1.483.977c2.02 1.316 4.41 2.715 7.108 4.158a1.455 1.455 0 0 1 .498 2.131 31 31 0 0 0-2.145 3.451 84 84 0 0 0-2.112 4.335 1.45 1.45 0 0 1-1.325.852m-15.068-14.35c.583 0 .986.21 1.222.385 2.88 2.077 7.357 5.516 13.305 10.221a74 74 0 0 1 1.405-2.808c.43-.81.906-1.62 1.423-2.42a94 94 0 0 1-5.9-3.514 191 191 0 0 1-6.6-4.51l-1.597-1.15c-1.104-.77-2.043-1.349-2.772-1.709-1.092-.538-1.949-.602-2.924-.083-.521.277-1.108.749-1.743 1.402-1.24 1.282-3.759 3.445-7.683 6.6a87 87 0 0 1 1.478 3.754q.303.84.553 1.68a204 204 0 0 1 4.153-3.933 59 59 0 0 1 3.936-3.298c.638-.428 1.199-.618 1.744-.618m17.219 8.48h.01zM46.91 19.127l.024.018zm9.63-9.722a30 30 0 0 1 1.066 2.804l.174-.053a25 25 0 0 0-1.091-2.798zm3.855-1.179q.618 1.415 1.067 2.808l.21-.062a22 22 0 0 0-1.11-2.799zm11.673 24.079c-.651 0-1.23-.436-1.404-1.075-.453-1.667-.904-3.082-1.339-4.204-.409-1.056-1.03-2.162-1.845-3.288a1.458 1.458 0 0 1 1.18-2.311c3.86 0 7.081-.253 9.574-.752 2.414-.483 4.503-1.278 6.21-2.365 1.47-.937 2.585-2.266 3.408-4.061q.316-.69.586-1.477-.104.208-.274.376l-5.766 5.735c-.401.4-1 .53-1.533.333-2.586-.959-4.695-1.676-6.27-2.133-1.57-.454-3.802-.97-6.633-1.532a1.455 1.455 0 0 1-.723-2.48c.95-.91 1.938-1.995 2.934-3.225.985-1.217 1.713-2.23 2.162-3.012a1.46 1.46 0 0 1 1.653-.677c2.697.75 5.132 1.485 7.239 2.188a96 96 0 0 1 6.47 2.426 1.456 1.456 0 0 1 .876 1.594c.494-1.55.862-3.364 1.1-5.418a1.457 1.457 0 0 1 1.929-1.207c1.228.43 2.461.81 3.666 1.13q1.847.49 4.532 1.12a1.456 1.456 0 0 1 1.11 1.605c-.531 4.121-1.562 7.54-3.063 10.158-1.512 2.638-3.61 4.917-6.237 6.773-2.329 1.657-5.081 2.951-8.18 3.842-3.027.872-6.805 1.521-11.226 1.93a1 1 0 0 1-.136.007m-.799-8.005q.45.845.772 1.673c.362.934.73 2.043 1.1 3.305 3.72-.393 6.906-.967 9.485-1.709 2.78-.8 5.234-1.95 7.298-3.419 2.282-1.612 4.095-3.578 5.396-5.846 1.156-2.016 2-4.631 2.514-7.787q-1.899-.457-3.313-.832a50 50 0 0 1-2.198-.637c-.402 2.497-1.013 4.648-1.823 6.414-1.049 2.29-2.56 4.074-4.491 5.305-2.012 1.28-4.435 2.21-7.203 2.764-2.084.418-4.611.675-7.537.769m-.15-11.068c1.724.375 3.16.727 4.285 1.053 1.46.422 3.34 1.053 5.599 1.878l3.54-3.521a91 91 0 0 0-4.237-1.533 141 141 0 0 0-6.054-1.852c-.477.71-1.077 1.51-1.815 2.422q-.661.815-1.317 1.553m42.843 19.009h-8.984a1.455 1.455 0 0 1-1.455-1.518c.148-3.535.238-7.12.27-10.656q.048-5.346.048-13.367c0-.804.652-1.456 1.456-1.456h8.665c.805 0 1.456.652 1.456 1.456v5.314c2.483.336 5.176.8 8.027 1.383 3.345.684 6.462 1.432 9.263 2.224a1.456 1.456 0 0 1 .836 2.177c-.658 1.046-1.166 2.085-1.51 3.09-.37 1.08-.79 2.517-1.243 4.272a1.46 1.46 0 0 1-1.903 1.006c-3.852-1.384-8.376-2.634-13.47-3.723v8.341c0 .805-.65 1.457-1.456 1.457m-7.47-2.914h6.014v-8.673a1.456 1.456 0 0 1 1.744-1.428c5.29 1.066 10.033 2.301 14.129 3.68.319-1.157.62-2.15.899-2.964q.342-.995.847-2.006a134 134 0 0 0-7.264-1.685c-3.27-.669-6.325-1.177-9.074-1.51a1.457 1.457 0 0 1-1.28-1.446V8.156h-5.753q-.005 7.072-.049 11.936a327 327 0 0 1-.212 9.234m46.4 2.978c-.528 0-1.02-.287-1.277-.756-.867-1.578-1.658-2.893-2.363-3.93-2.433 2.011-5.945 3.54-10.473 4.555a1.46 1.46 0 0 1-1.725-1.04c-.669-2.472-1.666-4.939-2.964-7.333a1.457 1.457 0 0 1 1.123-2.142c3.282-.357 5.58-1.182 6.65-2.386q.499-.55.838-1.336h-5.1a1.456 1.456 0 0 1-1.457-1.457V9.376c0-.805.651-1.457 1.456-1.457h5.967v-1.38c0-.803.65-1.456 1.456-1.456h8.314c.805 0 1.456.653 1.456 1.457q.001.768-.005 1.379h10.623c.802 0 1.453.649 1.456 1.45l.033 7.901q0 2.675-.033 3.991c-.047 2.432-.59 4.447-1.614 5.982-1.04 1.56-2.616 2.743-4.682 3.519-1.894.71-4.43 1.226-7.536 1.534a1 1 0 0 1-.143.008m-2.27-7.74c.907 1.131 1.915 2.685 3.073 4.73 2.417-.286 4.383-.709 5.852-1.26 1.505-.564 2.579-1.352 3.283-2.408.71-1.064 1.089-2.554 1.125-4.428q.032-1.303.032-3.922l-.026-6.444h-10.655a1.46 1.46 0 0 1-1.456-1.504q.018-.512.025-1.331h-5.396v1.379c0 .804-.651 1.456-1.456 1.456h-5.966v4.19h5.583a1.455 1.455 0 0 1 1.432 1.724c-.346 1.855-1.032 3.36-2.04 4.471-1.311 1.477-3.431 2.48-6.443 3.038a37 37 0 0 1 1.878 4.755c4.113-1.071 7.107-2.604 8.912-4.565a1.5 1.5 0 0 1 1.119-.47q.195.007.377.063a1.459 1.459 0 0 1-.12-1.545c.805-1.536 1.387-3.623 1.725-6.203a1.46 1.46 0 0 1 1.444-1.267h4.364c.762 0 1.394.586 1.453 1.345.066.866.099 1.643.099 2.31 0 1.609-.239 2.813-.732 3.68-.387.686-1.18 1.584-2.748 1.97-.998.247-2.42.343-4.351.298a1.5 1.5 0 0 1-.387-.062m3.555-6.628a24 24 0 0 1-.926 3.75c.688-.043 1.131-.117 1.41-.185.61-.15.814-.403.913-.58.133-.231.354-.831.354-2.243q0-.348-.015-.742zm22.066 14.368a1.46 1.46 0 0 1-.84-.266l-5.924-4.174a1.46 1.46 0 0 1-.617-1.19V7.24c0-.804.65-1.457 1.456-1.457h8.57c.804 0 1.455.653 1.455 1.457v12.878c1.991-.698 3.903-1.784 5.703-3.242 2.356-1.908 4.426-4.475 6.155-7.628a1.456 1.456 0 0 1 2.405-.222 22 22 0 0 0 2.791 2.867v.001a24 24 0 0 0 3.288 2.31 1.454 1.454 0 0 1 .498 2.023c-2.343 3.778-5.566 7.16-9.579 10.05-4.035 2.909-9.117 4.928-15.104 6.002a1.4 1.4 0 0 1-.257.024m-4.47-6.386 4.807 3.385c5.295-1.02 9.774-2.831 13.322-5.388 3.263-2.35 5.95-5.04 8.009-8.009a25 25 0 0 1-2.395-1.787 23 23 0 0 1-1.8-1.7c-1.691 2.694-3.648 4.95-5.836 6.722-2.68 2.17-5.596 3.628-8.667 4.333a1.46 1.46 0 0 1-1.782-1.42V8.699h-5.657zm34.096 6.386c-.651 0-1.23-.436-1.404-1.075-.453-1.667-.904-3.082-1.339-4.204-.409-1.056-1.03-2.162-1.845-3.288a1.458 1.458 0 0 1 1.18-2.311c3.86 0 7.081-.253 9.574-.752 2.414-.483 4.503-1.278 6.21-2.365 1.47-.937 2.585-2.266 3.408-4.061q.316-.69.586-1.477-.104.208-.274.376l-5.766 5.735c-.402.4-1 .53-1.534.333-2.585-.959-4.694-1.676-6.27-2.133-1.57-.454-3.801-.97-6.632-1.532a1.455 1.455 0 0 1-.723-2.48c.95-.91 1.938-1.995 2.933-3.225.986-1.217 1.714-2.23 2.163-3.012a1.46 1.46 0 0 1 1.653-.677c2.697.75 5.132 1.485 7.239 2.188a96 96 0 0 1 6.47 2.426 1.456 1.456 0 0 1 .876 1.594c.494-1.55.862-3.364 1.1-5.418a1.457 1.457 0 0 1 1.929-1.207c1.228.43 2.461.81 3.666 1.13q1.847.49 4.532 1.12a1.456 1.456 0 0 1 1.11 1.605c-.531 4.121-1.562 7.54-3.063 10.158-1.513 2.638-3.611 4.917-6.237 6.773-2.329 1.657-5.081 2.951-8.18 3.842-3.027.872-6.805 1.521-11.226 1.93a1 1 0 0 1-.136.007m-.799-8.005q.45.845.772 1.673c.362.934.73 2.043 1.099 3.305 3.72-.393 6.907-.967 9.486-1.709 2.78-.8 5.234-1.95 7.298-3.419 2.282-1.612 4.095-3.578 5.396-5.846 1.156-2.016 1.999-4.631 2.514-7.787q-1.899-.457-3.313-.832a50 50 0 0 1-2.198-.637c-.402 2.497-1.013 4.648-1.823 6.414-1.049 2.29-2.56 4.074-4.491 5.305-2.012 1.28-4.435 2.21-7.203 2.764-2.084.418-4.611.675-7.537.769m-.15-11.068c1.724.375 3.159.727 4.285 1.053 1.46.422 3.34 1.053 5.599 1.878l3.54-3.521a91 91 0 0 0-4.238-1.533 141 141 0 0 0-6.053-1.852c-.477.71-1.077 1.51-1.816 2.422q-.661.815-1.316 1.553M239 32.24c-.615 0-1.171-.39-1.376-.981-.578-1.675-1.096-3.045-1.537-4.073-.418-.97-1.064-2.1-1.921-3.355a1.456 1.456 0 0 1 1.203-2.278h.722a26 26 0 0 0-.617-1.033 13 13 0 0 0-1.917-2.36 1.454 1.454 0 0 1 .375-2.351c2.064-1.014 3.698-2.348 4.855-3.968 1.172-1.637 1.951-3.546 2.314-5.674.12-.7.727-1.211 1.437-1.211h8.06a1.46 1.46 0 0 1 1.415 1.115h6.66a23 23 0 0 0-1.126-2.257 1.458 1.458 0 0 1 .904-2.125l2.58-.669c.14-.036.283-.05.419-.045q.188-.12.41-.178l2.58-.669a1.46 1.46 0 0 1 1.596.63 18.2 18.2 0 0 1 2.044 4.503 1.456 1.456 0 0 1-1.017 1.825l-2.1.564 2.795 6.19c.181.402.17.864-.027 1.257a75 75 0 0 1-2.014 3.747l.311.058a1.455 1.455 0 0 1 .825 2.395 16 16 0 0 0-1.514 2.01 83 83 0 0 0-1.69 2.847c-.198.33-.362.611-.504.865q-.234.42-.436.755a1.46 1.46 0 0 1-1.698.636 364 364 0 0 1-3.116-1.025l-.463.295c-2.207 1.267-4.814 2.25-7.804 2.96-2.919.692-6.45 1.228-10.496 1.594a2 2 0 0 1-.132.006m-1.014-7.773q.456.825.776 1.568c.37.858.783 1.928 1.236 3.19 3.435-.347 6.444-.824 8.957-1.42 2.72-.644 5.063-1.525 6.97-2.618l.995-.634a1.45 1.45 0 0 1 1.253-.149q.918.315 2.615.869.16-.28.347-.59a84 84 0 0 1 1.737-2.926q.135-.214.279-.428l-.046-.009a1.454 1.454 0 0 1-.954-2.226c.795-1.22 1.69-2.797 2.664-4.692l-2.447-5.418h-12.026a1.46 1.46 0 0 1-1.416-1.115h-5.202c-.505 2.087-1.366 3.988-2.567 5.667-1.103 1.544-2.535 2.871-4.271 3.96q.575.71 1.054 1.473a34 34 0 0 1 1.605 2.882q.037-.03.075-.058c1.238-.883 2.444-1.996 3.588-3.308 1.147-1.317 2.195-2.847 3.113-4.546.255-.47.747-.764 1.282-.764h10.035a1.457 1.457 0 0 1 1.23 2.237 32 32 0 0 1-2.369 3.27 1.46 1.46 0 0 1-1.583.454c-2.11-.704-4-1.471-5.635-2.286l-2.562 2.74c.771.429 1.605.855 2.493 1.275a1.457 1.457 0 0 1-.265 2.73c-1.975.498-4.74.773-8.454.84a1.35 1.35 0 0 1-.996-.37 1.46 1.46 0 0 1-1.006.402zm60.558-.382h-27.62a1.456 1.456 0 0 1-1.457-1.457v-7.455c0-.804.652-1.457 1.457-1.457h27.62c.805 0 1.456.653 1.456 1.457v7.455c0 .805-.651 1.457-1.456 1.457M272.38 21.17h24.708V16.63H272.38z" style="fill:#1e2864"/><path d="M31.73 8.666q-2.166 2.868-4.285 4.731-2.118 1.864-5.05 3.36V29.47h-8.824v-9.94q-4.428.797-11.31 1.275-.254-2.485-.588-4.301-.336-1.816-1.163-3.79 5.033.031 8.887-.32 3.855-.349 6.34-1.274 5.13-1.944 7.965-5.861zm31.873 15.18a84 84 0 0 0-2.15 4.413q-10.036-7.965-14.719-11.341a.57.57 0 0 0-.35-.096q-.383 0-.86.318a58 58 0 0 0-3.839 3.218q-1.96 1.785-5.941 5.67a27 27 0 0 0-1.115-3.997 92 92 0 0 0-1.88-4.7q6.5-5.19 8.41-7.168 1.115-1.146 2.103-1.672.987-.525 1.975-.525 1.082 0 2.278.589t2.979 1.832l1.592 1.146a188 188 0 0 0 6.547 4.476q3.105 2.024 7.216 4.222a32 32 0 0 0-2.246 3.615M55.591 13q-.702-2.707-2.103-5.512l2.93-.923a26.4 26.4 0 0 1 2.135 5.543zm3.854-1.179q-.7-2.707-2.102-5.511l2.93-.924a23.8 23.8 0 0 1 2.167 5.543zm20.899 5.002q-3.951-1.465-6.372-2.167-2.422-.7-6.754-1.56a36 36 0 0 0 3.059-3.362q1.56-1.926 2.293-3.2 4.015 1.114 7.169 2.165c3.154 1.051 4.226 1.498 6.371 2.39zM69.656 25.47q-.685-1.768-2.024-3.616 5.957 0 9.86-.78 3.904-.78 6.706-2.565 2.55-1.624 3.95-4.683 1.403-3.058 1.944-7.741 1.91.669 3.775 1.163 1.864.495 4.572 1.13-.765 5.927-2.883 9.621-2.12 3.697-5.815 6.308-3.314 2.358-7.74 3.632-4.43 1.274-10.96 1.88-.7-2.58-1.385-4.35m59.972-6.085q-.574 1.673-1.275 4.38-6.562-2.356-15.418-4.14v10.13h-8.984q.222-5.352.27-10.704.05-5.352.049-13.38h8.665v6.594q4.204.51 9.19 1.53t9.159 2.198q-1.083 1.72-1.656 3.392m34.756-11.038.032 7.9q0 2.645-.032 3.95-.065 3.25-1.37 5.21c-1.305 1.96-2.198 2.293-3.982 2.962q-2.676 1.004-7.168 1.45-1.976-3.6-3.441-5.416-3.313 3.6-10.99 5.32-1.052-3.886-3.09-7.646 5.574-.604 7.582-2.867 1.241-1.37 1.688-3.76h-7.04V8.349h7.422V5.512h8.315q0 1.912-.031 2.836zm-10.401 13.54q1.29-.32 1.831-1.275.542-.956.542-2.963 0-.956-.095-2.198h-4.365q-.542 4.142-1.88 6.69 2.676.064 3.967-.255m41.446-9.909a25 25 0 0 0 3.488 2.454q-3.377 5.447-9.191 9.636-5.814 4.19-14.51 5.75l-5.926-4.173V6.213h8.57v14.814q4.3-.987 8.075-4.046c3.775-3.059 4.688-4.725 6.515-8.06a23 23 0 0 0 2.979 3.058m18.716 4.843q-3.951-1.465-6.372-2.167-2.422-.7-6.754-1.56a36 36 0 0 0 3.059-3.362q1.56-1.926 2.293-3.2 4.014 1.114 7.168 2.165c3.154 1.051 4.226 1.498 6.372 2.39zm-10.688 8.649q-.685-1.768-2.024-3.616 5.958 0 9.86-.78 3.904-.78 6.706-2.565 2.55-1.624 3.95-4.683 1.402-3.058 1.944-7.741 1.91.669 3.775 1.163 1.864.495 4.572 1.13-.765 5.927-2.883 9.621-2.12 3.697-5.815 6.308-3.314 2.358-7.74 3.632-4.43 1.274-10.96 1.88-.7-2.58-1.385-4.35M262.28 6.5l3.122 6.913q-1.69 3.345-3.059 5.448l2.39.446a17 17 0 0 0-1.656 2.198 83 83 0 0 0-1.721 2.899q-.287.477-.51.876a27 27 0 0 1-.414.717q-2.549-.828-3.76-1.243l-1.05.67q-3.06 1.75-7.359 2.771c-4.299 1.021-6.297 1.2-10.29 1.56q-.892-2.58-1.577-4.172c-.685-1.592-1.142-2.262-2.056-3.6h3.123a34 34 0 0 0-1.784-3.266 14.3 14.3 0 0 0-2.134-2.628q3.44-1.687 5.399-4.428t2.565-6.276h8.06l-.255 1.115zm-14.719 14.655q-2.357-1.116-4.172-2.262l4.555-4.875q2.676 1.467 6.404 2.708a31 31 0 0 0 2.262-3.122h-10.036q-1.465 2.709-3.297 4.81-1.832 2.103-3.838 3.537 5.351-.096 8.122-.796m12.074-14.91q-.573-1.911-1.847-4.173l2.58-.67q1.179 1.849 1.912 4.143zm3.41-.892q-.575-1.911-1.848-4.173l2.58-.67a16.7 16.7 0 0 1 1.88 4.142zm34.47 16.248h-27.62v-7.455h27.62z" style="fill:#fff500"/><path d="M22.396 29.979H13.57a.51.51 0 0 1-.51-.51v-9.333c-2.866.483-6.483.879-10.764 1.176a.5.5 0 0 1-.542-.456 56 56 0 0 0-.584-4.26c-.216-1.17-.597-2.41-1.132-3.687-.065-.158-.048-.339.047-.48s.261-.205.427-.227c3.333.025 6.3-.085 8.838-.317 2.514-.228 4.603-.646 6.21-1.243 3.304-1.252 5.905-3.165 7.729-5.684a.506.506 0 0 1 .612-.17l8.027 3.409a.51.51 0 0 1 .207.776c-1.458 1.93-2.923 3.548-4.355 4.807-1.37 1.205-3.009 2.31-4.876 3.288v12.401a.51.51 0 0 1-.51.51m-8.315-1.02h7.805V16.758a.51.51 0 0 1 .278-.454c1.907-.974 3.57-2.08 4.943-3.29 1.252-1.1 2.534-2.49 3.818-4.136l-7.053-2.995c-1.926 2.522-4.6 4.443-7.953 5.713-1.695.63-3.872 1.069-6.476 1.305-2.355.215-5.078.323-8.102.323h-.078c.417 1.096.722 2.164.912 3.186.2 1.09.382 2.384.542 3.85 4.331-.312 7.95-.726 10.764-1.232a.508.508 0 0 1 .6.502zm47.371-.19a.5.5 0 0 1-.317-.11c-6.648-5.278-11.594-9.09-14.699-11.328-.155 0-.34.04-.63.234a58 58 0 0 0-3.778 3.17c-1.291 1.175-3.285 3.079-5.928 5.658a.51.51 0 0 1-.857-.268 26 26 0 0 0-1.094-3.921 91 91 0 0 0-1.868-4.672.51.51 0 0 1 .15-.6c4.294-3.429 7.107-5.826 8.362-7.123.779-.8 1.527-1.394 2.229-1.768 1.518-.807 3.054-.764 4.719.056.817.404 1.841 1.033 3.044 1.871l1.6 1.151c.906.648 1.802 1.275 2.679 1.88-.458-1.724-1.14-3.501-2.031-5.284a.507.507 0 0 1 .302-.714l2.93-.924a.51.51 0 0 1 .57.192.51.51 0 0 1 .354-.447l2.93-.923a.51.51 0 0 1 .603.243 24.5 24.5 0 0 1 2.212 5.661.51.51 0 0 1-.348.614l-2.995.892a.52.52 0 0 1-.53-.154.51.51 0 0 1-.361.44l-2.938.885q1.623 1.108 3.15 2.102c2.04 1.33 4.456 2.743 7.178 4.199a.511.511 0 0 1 .174.746 32 32 0 0 0-2.21 3.558 84 84 0 0 0-2.138 4.385.51.51 0 0 1-.464.298M46.384 16.311q.391 0 .655.197c3.031 2.186 7.816 5.869 14.222 10.947a81 81 0 0 1 1.892-3.849 33 33 0 0 1 1.948-3.2c-2.54-1.373-4.808-2.708-6.746-3.97a189 189 0 0 1-6.565-4.489l-1.595-1.147c-1.154-.805-2.134-1.408-2.906-1.79-1.364-.672-2.556-.725-3.787-.07-.609.324-1.274.854-1.977 1.578-1.255 1.296-3.998 3.64-8.154 6.968a91 91 0 0 1 1.737 4.37c.384 1.06.7 2.12.942 3.162 2.324-2.262 4.103-3.955 5.292-5.038a58 58 0 0 1 3.873-3.246c.435-.291.809-.423 1.169-.423m17.22 7.534h.01zm-9.398-16.05a29 29 0 0 1 1.74 4.564l1.986-.599A26 26 0 0 0 56.16 7.18zm3.854-1.18a29 29 0 0 1 1.74 4.566l2.02-.602a23.5 23.5 0 0 0-1.798-4.582zM71.042 30.33a.51.51 0 0 1-.492-.376c-.462-1.698-.922-3.144-1.37-4.298-.438-1.132-1.098-2.31-1.96-3.501a.51.51 0 0 1 .412-.809c3.922 0 7.206-.259 9.76-.77 2.53-.506 4.727-1.345 6.532-2.495 1.607-1.024 2.873-2.527 3.76-4.465.909-1.982 1.548-4.535 1.902-7.588a.513.513 0 0 1 .675-.422c1.252.438 2.509.826 3.736 1.15q1.86.494 4.558 1.128a.51.51 0 0 1 .39.562c-.516 3.998-1.508 7.298-2.947 9.809-1.444 2.518-3.45 4.694-5.963 6.47-2.243 1.597-4.9 2.844-7.893 3.706-2.971.855-6.69 1.493-11.053 1.897zm-2.443-7.97a16 16 0 0 1 1.532 2.928c.423 1.09.855 2.43 1.289 3.984 4.116-.4 7.626-1.011 10.44-1.82 2.882-.83 5.434-2.027 7.585-3.558 2.393-1.69 4.3-3.758 5.668-6.146 1.319-2.3 2.246-5.318 2.759-8.978a160 160 0 0 1-4.136-1.028 51 51 0 0 1-3.215-.969c-.378 2.885-1.02 5.327-1.909 7.267-.971 2.12-2.364 3.77-4.14 4.901-1.912 1.217-4.227 2.104-6.88 2.634-2.405.482-5.426.746-8.993.785m11.745-5.028q-.09 0-.178-.031c-2.606-.967-4.739-1.692-6.335-2.155s-3.855-.983-6.712-1.551a.509.509 0 0 1-.253-.868 36 36 0 0 0 3.014-3.313c1.017-1.255 1.773-2.31 2.248-3.136a.51.51 0 0 1 .579-.236c2.681.745 5.1 1.476 7.193 2.173a96 96 0 0 1 6.406 2.402.5.5 0 0 1 .304.373.5.5 0 0 1-.14.46l-5.767 5.734a.5.5 0 0 1-.36.148m-12.087-4.547c2.445.5 4.413.964 5.857 1.382 1.558.451 3.61 1.145 6.101 2.064l4.992-4.963a94 94 0 0 0-5.63-2.085c-1.977-.66-4.253-1.35-6.77-2.054-.5.811-1.216 1.794-2.134 2.926a39 39 0 0 1-2.416 2.73m44.678 17.481h-8.984a.51.51 0 0 1-.51-.53c.148-3.546.239-7.142.27-10.688q.05-5.351.049-13.375a.51.51 0 0 1 .51-.51h8.665a.51.51 0 0 1 .51.51v6.144c2.683.339 5.635.837 8.783 1.48 3.322.68 6.415 1.422 9.194 2.207a.51.51 0 0 1 .293.762c-.697 1.108-1.237 2.213-1.604 3.287-.38 1.103-.804 2.564-1.264 4.342a.51.51 0 0 1-.666.352c-4.18-1.5-9.135-2.845-14.737-3.997v9.506a.51.51 0 0 1-.51.51m-8.453-1.02h7.943v-9.62a.51.51 0 0 1 .61-.5c5.667 1.142 10.698 2.478 14.965 3.975.414-1.562.798-2.865 1.145-3.88a16.5 16.5 0 0 1 1.355-2.916 132 132 0 0 0-8.477-2.01c-3.296-.673-6.375-1.185-9.15-1.521a.51.51 0 0 1-.448-.507V6.182h-7.645q-.001 7.692-.049 12.874c-.03 3.38-.114 6.806-.25 10.19m47.382 1.084a.51.51 0 0 1-.447-.264c-1.142-2.08-2.161-3.72-3.037-4.886-2.304 2.251-5.944 3.946-10.836 5.042a.51.51 0 0 1-.603-.364c-.688-2.542-1.713-5.077-3.047-7.536a.511.511 0 0 1 .393-.75c3.57-.387 6.01-1.295 7.256-2.698.658-.725 1.14-1.702 1.438-2.912h-6.408a.51.51 0 0 1-.51-.51V8.349a.51.51 0 0 1 .51-.51h6.912V5.512a.51.51 0 0 1 .51-.51h8.315a.51.51 0 0 1 .51.51q0 1.443-.019 2.326h11.583a.51.51 0 0 1 .51.508l.032 7.9q0 2.654-.033 3.965c-.044 2.253-.533 4.097-1.455 5.479-.928 1.391-2.35 2.453-4.228 3.157-1.816.682-4.271 1.18-7.296 1.48zm-3.441-6.435h.016a.5.5 0 0 1 .38.19c.949 1.173 2.067 2.92 3.328 5.194 2.783-.294 5.038-.76 6.706-1.385 1.673-.628 2.93-1.56 3.736-2.769.813-1.218 1.245-2.878 1.285-4.936q.031-1.304.032-3.94l-.03-7.39h-11.597a.51.51 0 0 1-.51-.527 81 81 0 0 0 .03-2.309h-7.294v2.326a.51.51 0 0 1-.51.51h-6.912v6.084h6.53a.51.51 0 0 1 .5.603c-.313 1.68-.922 3.029-1.81 4.009-1.343 1.511-3.69 2.478-7.162 2.941a36 36 0 0 1 2.652 6.623c4.748-1.121 8.196-2.822 10.255-5.06a.51.51 0 0 1 .375-.164m2.46-1.231q-.418 0-.879-.011a.51.51 0 0 1-.44-.747c.859-1.634 1.473-3.828 1.826-6.52a.51.51 0 0 1 .506-.443h4.365c.267 0 .487.205.508.471.065.841.097 1.594.097 2.237 0 1.441-.199 2.493-.608 3.214-.432.761-1.156 1.272-2.153 1.518-.763.188-1.821.28-3.222.28m-.06-1.02h.047c1.311 0 2.315-.084 2.99-.25.725-.18 1.219-.517 1.51-1.032.317-.556.476-1.468.476-2.711 0-.496-.02-1.062-.06-1.689h-3.445c-.324 2.24-.833 4.145-1.518 5.682m24.392 8.686a.5.5 0 0 1-.294-.093l-5.925-4.173a.51.51 0 0 1-.216-.417V6.213a.51.51 0 0 1 .51-.51h8.57a.51.51 0 0 1 .51.51v14.162c2.55-.686 4.983-1.959 7.244-3.79 2.452-1.986 4.601-4.647 6.39-7.909a.51.51 0 0 1 .84-.078 23 23 0 0 0 2.914 2.992 25 25 0 0 0 3.418 2.403.507.507 0 0 1 .175.708c-2.278 3.673-5.416 6.964-9.327 9.782-3.92 2.825-8.873 4.79-14.719 5.838a.5.5 0 0 1-.09.008m-5.415-4.948 5.535 3.898c5.602-1.03 10.343-2.922 14.093-5.623 3.646-2.628 6.598-5.672 8.78-9.055a25.4 25.4 0 0 1-3.108-2.232c-.878-.742-1.74-1.6-2.566-2.556-1.778 3.086-3.887 5.628-6.278 7.564-2.567 2.079-5.353 3.474-8.282 4.147a.511.511 0 0 1-.624-.497V6.723h-7.55zm35.043 4.948a.51.51 0 0 1-.492-.376c-.462-1.698-.923-3.144-1.37-4.298-.438-1.132-1.098-2.31-1.96-3.501a.51.51 0 0 1 .412-.809c3.922 0 7.206-.259 9.76-.77 2.53-.506 4.727-1.345 6.532-2.495 1.607-1.024 2.873-2.527 3.76-4.465.909-1.982 1.548-4.535 1.901-7.588a.513.513 0 0 1 .676-.422c1.252.438 2.509.826 3.736 1.15q1.859.494 4.558 1.128a.51.51 0 0 1 .39.562c-.516 3.998-1.508 7.298-2.947 9.809-1.444 2.518-3.45 4.694-5.963 6.47-2.243 1.597-4.9 2.844-7.893 3.706-2.972.855-6.69 1.493-11.053 1.897zm-2.443-7.97a16 16 0 0 1 1.532 2.928c.423 1.09.855 2.43 1.289 3.984 4.116-.4 7.626-1.011 10.44-1.82 2.882-.83 5.434-2.027 7.585-3.558 2.392-1.69 4.3-3.758 5.668-6.146 1.319-2.3 2.246-5.318 2.759-8.978a160 160 0 0 1-4.136-1.028 51 51 0 0 1-3.215-.969c-.379 2.885-1.02 5.327-1.909 7.267-.971 2.12-2.364 3.77-4.14 4.901-1.913 1.217-4.227 2.104-6.88 2.634-2.405.482-5.426.746-8.993.785m11.745-5.028q-.09 0-.178-.031c-2.606-.967-4.739-1.692-6.336-2.155-1.596-.462-3.854-.983-6.711-1.551a.509.509 0 0 1-.253-.868 36 36 0 0 0 3.014-3.313c1.017-1.255 1.773-2.31 2.248-3.136a.51.51 0 0 1 .578-.236c2.682.745 5.102 1.476 7.194 2.173a96 96 0 0 1 6.406 2.402.5.5 0 0 1 .304.373.5.5 0 0 1-.14.46l-5.767 5.734a.5.5 0 0 1-.36.148m-12.087-4.547c2.445.5 4.413.964 5.856 1.382 1.559.451 3.61 1.145 6.102 2.064l4.992-4.963a94 94 0 0 0-5.63-2.085c-1.977-.66-4.253-1.35-6.77-2.054-.5.811-1.217 1.794-2.134 2.926a39 39 0 0 1-2.416 2.73m35.915 17.481a.51.51 0 0 1-.481-.343c-.586-1.696-1.112-3.088-1.564-4.138-.44-1.026-1.116-2.208-2.008-3.514a.51.51 0 0 1 .421-.797h2.302a31 31 0 0 0-1.394-2.484 14 14 0 0 0-2.06-2.535.51.51 0 0 1 .132-.823c2.208-1.083 3.96-2.519 5.21-4.267 1.255-1.754 2.088-3.795 2.476-6.065a.51.51 0 0 1 .503-.424h8.06a.508.508 0 0 1 .496.623l-.112.492h9.067c-.375-1.125-.938-2.356-1.677-3.669a.51.51 0 0 1 .317-.743l2.58-.669a.51.51 0 0 1 .471.116l.017-.045a.5.5 0 0 1 .34-.293l2.58-.67a.5.5 0 0 1 .56.221 17.2 17.2 0 0 1 1.937 4.268.507.507 0 0 1-.356.638l-2.612.701a.51.51 0 0 1-.437-.082l-.014.026a.5.5 0 0 1-.269.233.5.5 0 0 1 .287.268l3.123 6.913c.063.14.06.302-.01.44-.965 1.911-1.865 3.54-2.68 4.855l1.649.307a.508.508 0 0 1 .289.839 16.6 16.6 0 0 0-1.607 2.132 82 82 0 0 0-1.71 2.88c-.193.324-.361.612-.508.873q-.225.406-.421.73a.505.505 0 0 1-.594.222 295 295 0 0 1-3.535-1.165l-.845.537c-2.091 1.2-4.612 2.15-7.515 2.838-2.875.682-6.361 1.21-10.361 1.572zm-2.683-7.773c.672 1.05 1.201 2.02 1.575 2.89.427.992.918 2.279 1.459 3.83 3.786-.357 7.089-.865 9.823-1.513 2.806-.666 5.236-1.58 7.221-2.718l1.032-.657a.51.51 0 0 1 .438-.052q1.114.381 3.363 1.113.096-.168.201-.354.226-.405.517-.89a84 84 0 0 1 1.727-2.908c.333-.531.714-1.062 1.134-1.586l-1.53-.285a.51.51 0 0 1-.333-.78c.869-1.333 1.851-3.077 2.92-5.182l-2.885-6.39h-12.637a.508.508 0 0 1-.497-.624l.112-.491h-6.996c-.442 2.254-1.308 4.292-2.575 6.062-1.227 1.718-2.896 3.151-4.965 4.269.649.693 1.225 1.437 1.718 2.22a35 35 0 0 1 1.811 3.315.512.512 0 0 1-.46.731zm23.26-20.091c.609 1.139 1.086 2.22 1.425 3.227l1.65-.437a17 17 0 0 0-1.49-3.2zm3.41-.892c.608 1.139 1.085 2.22 1.424 3.225l1.627-.436a16.2 16.2 0 0 0-1.47-3.2zm-22.52 20.952a.51.51 0 0 1-.296-.925c1.296-.927 2.558-2.09 3.75-3.457 1.193-1.37 2.281-2.958 3.232-4.717a.51.51 0 0 1 .449-.268h10.036a.51.51 0 0 1 .43.784 32 32 0 0 1-2.299 3.173.51.51 0 0 1-.555.159c-2.344-.782-4.407-1.641-6.138-2.557l-3.862 4.132a41 41 0 0 0 3.593 1.909.51.51 0 0 1-.092.955c-1.878.474-4.65.747-8.24.812zm3.697-3.126q-1.051 1.135-2.156 2.063c1.985-.075 3.663-.224 5.017-.445a37 37 0 0 1-2.861-1.618m6.097-5.221c1.443.712 3.098 1.388 4.943 2.017a30 30 0 0 0 1.49-2.017zm-2.357 0q-.218.394-.446.776l.727-.776zm50.64 7.996h-27.621a.51.51 0 0 1-.51-.51v-7.455a.51.51 0 0 1 .51-.51h27.62a.51.51 0 0 1 .51.51V21.6a.51.51 0 0 1-.51.51m-27.111-1.02h26.6v-6.435h-26.6z" style="fill:#1e2864"/></svg>