<svg xmlns="http://www.w3.org/2000/svg" viewBox="0 0 40 30"><path d="M20.4 12.1c-2 0-3.7 1.7-3.7 3.7s1.7 3.7 3.7 3.7 3.7-1.7 3.7-3.7-1.7-3.7-3.7-3.7m-.8 4.4c0 .3-.2.5-.5.5s-.5-.2-.5-.5v-1.8c0-.3.2-.5.5-.5s.5.2.5.5zm2.4 0c0 .3-.2.5-.5.5s-.5-.2-.5-.5v-1.8c0-.3.2-.5.5-.5s.5.2.5.5zm11.4-4.9c-.3-2.1-1-3.8-1.9-5q-.6-.9-1.5-1.5c-1.6-1-3.1-1.1-4.6-.4-.8.4-1.5 1.1-2 1.8-.6.9-.7 2-.4 2.9v.1c-.8-.4-1.7-.6-2.6-.6-1.6 0-3.1.6-4.2 1.8-1.2 1.2-1.9 2.9-1.9 4.7 0 3 1.3 4.6 2.3 5.8.3.4.6.8.8 1.1.3.6 0 1.2-.3 1.6-3.3-1.4-5.6-4.7-5.6-8.4 0-5.6 5-10.1 10.8-9 .2 0 .4 0 .4-.2L24 3.4v-.3c0-.1-.1-.2-.3-.2-1-.2-2.1-.4-3.1-.4-7.1 0-12.9 5.8-12.9 12.9s.8 5.1 2.2 7.3L7 25.6s-.6.5-.6 1.2c0 .4.2.8.5 1.2.5.5.6.7.8.9s.3.4.7.8c.3.3.7.5 1 .5.5 0 .9-.2 1.1-.5l3.2-3.2c2 1.3 4.4 1.9 6.8 1.9 2 0 4-.4 5.7-1.3 1.7-.8 3.3-2 4.4-3.5 1.3-1.6 2.2-3.5 2.5-5.5q.6-3 0-6.3M20.6 24.7c-1 0-1.9-.1-2.8-.4.4-.6.6-1.3.2-2.2-.2-.4-.5-.8-.9-1.3-.9-1.1-2.1-2.6-2.1-5.3 0-1.6.6-3 1.6-4.1 1-1 2.3-1.6 3.6-1.6s2.5.4 3.4 1.3l.2.2c1 1 1.6 2.4 1.6 4.2s-1 3.7-1.8 5c-.5.7-.8 1.3-1 1.9-.2.8 0 1.5.4 1.9-.8.2-1.7.4-2.6.4m9.8-14.3s-.3.9-1.1 1.6c.7 1.6.7 3.5.7 3.5 0 3.9-2.4 7.2-5.8 8.5-.3-.3-.5-.8-.4-1.5.1-.5.5-1 .9-1.7.8-1.3 1.9-3 1.9-5.4s-.3-2.5-.9-3.5c.9.2 1.6.1 2.2 0 1.2-.5 1.7-1.8 1.7-1.8 0-.2.3-.3.5-.2.2 0 .3.3.2.5" style="fill:#fff"/></svg>