<svg xmlns="http://www.w3.org/2000/svg" viewBox="0 0 40 30"><path d="M16.1 6.8c-1.2 0-2.2 1-2.2 2.2s1 2.2 2.2 2.2 2.2-1 2.2-2.2-1-2.2-2.2-2.2m.1-1.8c-3.5 0-6.3 1.7-6.3 3.9s2.8 3.9 6.3 3.9 6.3-1.7 6.3-3.9S19.7 5 16.2 5m-.1 7.1c-1.8 0-3.2-1.4-3.2-3.2s1.4-3.2 3.2-3.2 3.2 1.4 3.2 3.2-1.4 3.2-3.2 3.2m15.3 7 1.9-1.3c.1 0 .2-.2.2-.4q0-.3-.3-.3l-2.2-.7 1.4-1.9c.1-.2 0-.4 0-.6h-2.5l.8-2.2v-.4c-.1-.1-.3-.1-.4 0l-2.2.8V9.8c0-.2-.1-.4-.4-.4h-.3l-1.3 1V2.2c0-.3-.3-.6-.6-.6H7.1c-.3 0-.6.3-.6.6v16.6c0 .2 0 .3.2.4l6.5 5.5h1.9l-.6 1.5v.4c.1.1.3.1.4.1l2.2-.8v2.3c0 .2.1.4.4.4h.3l1.9-1.4.7 2.2c0 .1.2.3.3.3.2 0 .3 0 .4-.2l1.3-1.9 1.3 1.9c.1.2.4.2.6.1l.2-.2.7-2.2 1.9 1.4c.2.1.4 0 .6 0V26l2.2.8h.4c.1-.1.1-.3 0-.4l-.8-2.2h2.3c.2 0 .4-.2.4-.4v-.2l-1.4-1.9L33 21c.1 0 .3-.2.3-.3 0-.2 0-.3-.2-.4L31.2 19zM24.8 2.8v21H14.2v-5c0-.3-.3-.6-.6-.6h-6V2.8zM13 23.1l-4.4-3.7H13zm-2.7-7.7h12.3c.3 0 .6-.3.6-.6s-.3-.6-.6-.6H10.3c-.3 0-.6.3-.6.6s.3.6.6.6M22.6 17h-7.5c-.3 0-.6.3-.6.6s.3.6.6.6h7.5c.3 0 .6-.3.6-.6s-.3-.6-.6-.6" style="fill:#fff"/></svg>