<svg xmlns="http://www.w3.org/2000/svg" viewBox="0 0 40 30"><path d="M31.9 21.5h-5.6V6.7c0-.3-.2-.5-.5-.5H7.1c-.3 0-.5.2-.5.5v18.9s-.2 2.2.9 3.4c.5.6 1.2.8 2 .8h18.3c.7 0 1.7-.2 2.6-.9 1.5-1.3 2.2-3.6 2-7.1 0-.3-.2-.5-.5-.5M9.4 29c-.6 0-1-.2-1.3-.5-.8-.9-.6-2.6-.6-2.7V7.2h17.8v18.9c0 1.3.3 2.2.7 2.8H9.4zm.3-13.1c.3 0 .5-.2.5-.5V13l1.3 2.5c.1.2.4.3.7.2.2 0 .3-.3.3-.4v-4.4c0-.3-.2-.5-.5-.5s-.5.2-.5.5v2.3l-1.3-2.5c-.1-.2-.4-.3-.7-.2-.2 0-.3.3-.3.4v4.5c0 .3.2.5.5.5m3.8 0h1.9c.3 0 .5-.2.5-.5s-.2-.5-.5-.5H14v-1.2h1.4c.3 0 .5-.2.5-.5s-.2-.5-.5-.5H14v-1.2h1.4c.3 0 .5-.2.5-.5s-.2-.5-.5-.5h-1.9c-.3 0-.5.2-.5.5v4.5c0 .3.2.5.5.5m3.8-.1c.2 0 .4-.1.5-.4l.4-1.7.4 1.7c0 .2.3.4.5.4s.4-.2.5-.4l.8-4.6c0-.3-.1-.5-.4-.6-.3 0-.5.1-.6.4L19 13l-.3-1.3c0-.2-.2-.4-.5-.4s-.4.1-.5.4l-.3 1.1-.2-1.9c0-.3-.3-.4-.6-.4-.2 0-.4.3-.4.5l.5 4.5c0 .2.2.4.5.4m4-.9c-.3 0-.5.2-.5.5s.2.5.5.5h2c.3 0 .5-.2.5-.5v-2.3c0-.3-.2-.5-.5-.5h-1.4v-1.4h1.4c.3 0 .5-.2.5-.5s-.2-.5-.5-.5h-1.9c-.3 0-.5.2-.5.5v2.3c0 .3.2.5.5.5h1.4v1.3h-1.5zm2.5 1.9H9.2c-.2 0-.4.2-.4.4s.2.4.4.4h14.5c.2 0 .4-.2.4-.4s-.2-.4-.4-.4m9.8-10.2c0-.3-.3-.6-.6-.6h-5.1c-.3 0-.6.3-.6.6v8.9l2.6 4.6c.2.3.5.4.8.2 0 0 .2-.1.2-.2l2.6-4.6V6.7zm-2.2 10.5h-2l-.6-1.1h3.2zm-3-9.9h4v7.6h-4zm-12 12.2c-3.6 0-6.3 1.7-6.3 3.9s2.8 3.9 6.3 3.9 6.3-1.7 6.3-3.9-2.8-3.9-6.3-3.9m0 7.2c-1.8 0-3.3-1.5-3.3-3.3s1.5-3.3 3.3-3.3 3.3 1.5 3.3 3.3-1.5 3.3-3.3 3.3m0-5.4c-1.1 0-2.1.9-2.1 2.1s.9 2.1 2.1 2.1 2.1-.9 2.1-2.1c0-1.1-.9-2.1-2.1-2.1" style="fill:#fff"/></svg>