<svg xmlns="http://www.w3.org/2000/svg">
  <symbol viewBox="0 0 40 30" id="article">
    <path d="M31.9 21.5h-5.6V6.7c0-.3-.2-.5-.5-.5H7.1c-.3 0-.5.2-.5.5v18.9s-.2 2.2.9 3.4c.5.6 1.2.8 2 .8h18.3c.7 0 1.7-.2 2.6-.9 1.5-1.3 2.2-3.6 2-7.1 0-.3-.2-.5-.5-.5M9.4 29c-.6 0-1-.2-1.3-.5-.8-.9-.6-2.6-.6-2.7V7.2h17.8v18.9c0 1.3.3 2.2.7 2.8H9.4zm.3-13.1c.3 0 .5-.2.5-.5V13l1.3 2.5c.1.2.4.3.7.2.2 0 .3-.3.3-.4v-4.4c0-.3-.2-.5-.5-.5s-.5.2-.5.5v2.3l-1.3-2.5c-.1-.2-.4-.3-.7-.2-.2 0-.3.3-.3.4v4.5c0 .3.2.5.5.5m3.8 0h1.9c.3 0 .5-.2.5-.5s-.2-.5-.5-.5H14v-1.2h1.4c.3 0 .5-.2.5-.5s-.2-.5-.5-.5H14v-1.2h1.4c.3 0 .5-.2.5-.5s-.2-.5-.5-.5h-1.9c-.3 0-.5.2-.5.5v4.5c0 .3.2.5.5.5m3.8-.1c.2 0 .4-.1.5-.4l.4-1.7.4 1.7c0 .2.3.4.5.4s.4-.2.5-.4l.8-4.6c0-.3-.1-.5-.4-.6-.3 0-.5.1-.6.4L19 13l-.3-1.3c0-.2-.2-.4-.5-.4s-.4.1-.5.4l-.3 1.1-.2-1.9c0-.3-.3-.4-.6-.4-.2 0-.4.3-.4.5l.5 4.5c0 .2.2.4.5.4m4-.9c-.3 0-.5.2-.5.5s.2.5.5.5h2c.3 0 .5-.2.5-.5v-2.3c0-.3-.2-.5-.5-.5h-1.4v-1.4h1.4c.3 0 .5-.2.5-.5s-.2-.5-.5-.5h-1.9c-.3 0-.5.2-.5.5v2.3c0 .3.2.5.5.5h1.4v1.3h-1.5zm2.5 1.9H9.2c-.2 0-.4.2-.4.4s.2.4.4.4h14.5c.2 0 .4-.2.4-.4s-.2-.4-.4-.4m9.8-10.2c0-.3-.3-.6-.6-.6h-5.1c-.3 0-.6.3-.6.6v8.9l2.6 4.6c.2.3.5.4.8.2 0 0 .2-.1.2-.2l2.6-4.6V6.7zm-2.2 10.5h-2l-.6-1.1h3.2zm-3-9.9h4v7.6h-4zm-12 12.2c-3.6 0-6.3 1.7-6.3 3.9s2.8 3.9 6.3 3.9 6.3-1.7 6.3-3.9-2.8-3.9-6.3-3.9m0 7.2c-1.8 0-3.3-1.5-3.3-3.3s1.5-3.3 3.3-3.3 3.3 1.5 3.3 3.3-1.5 3.3-3.3 3.3m0-5.4c-1.1 0-2.1.9-2.1 2.1s.9 2.1 2.1 2.1 2.1-.9 2.1-2.1c0-1.1-.9-2.1-2.1-2.1"/>
  </symbol>

  <symbol viewBox="0 0 40 30" id="flyer">
    <path d="M16.1 6.8c-1.2 0-2.2 1-2.2 2.2s1 2.2 2.2 2.2 2.2-1 2.2-2.2-1-2.2-2.2-2.2m.1-1.8c-3.5 0-6.3 1.7-6.3 3.9s2.8 3.9 6.3 3.9 6.3-1.7 6.3-3.9S19.7 5 16.2 5m-.1 7.1c-1.8 0-3.2-1.4-3.2-3.2s1.4-3.2 3.2-3.2 3.2 1.4 3.2 3.2-1.4 3.2-3.2 3.2m15.3 7 1.9-1.3c.1 0 .2-.2.2-.4q0-.3-.3-.3l-2.2-.7 1.4-1.9c.1-.2 0-.4 0-.6h-2.5l.8-2.2v-.4c-.1-.1-.3-.1-.4 0l-2.2.8V9.8c0-.2-.1-.4-.4-.4h-.3l-1.3 1V2.2c0-.3-.3-.6-.6-.6H7.1c-.3 0-.6.3-.6.6v16.6c0 .2 0 .3.2.4l6.5 5.5h1.9l-.6 1.5v.4c.1.1.3.1.4.1l2.2-.8v2.3c0 .2.1.4.4.4h.3l1.9-1.4.7 2.2c0 .1.2.3.3.3.2 0 .3 0 .4-.2l1.3-1.9 1.3 1.9c.1.2.4.2.6.1l.2-.2.7-2.2 1.9 1.4c.2.1.4 0 .6 0V26l2.2.8h.4c.1-.1.1-.3 0-.4l-.8-2.2h2.3c.2 0 .4-.2.4-.4v-.2l-1.4-1.9L33 21c.1 0 .3-.2.3-.3 0-.2 0-.3-.2-.4L31.2 19zM24.8 2.8v21H14.2v-5c0-.3-.3-.6-.6-.6h-6V2.8zM13 23.1l-4.4-3.7H13zm-2.7-7.7h12.3c.3 0 .6-.3.6-.6s-.3-.6-.6-.6H10.3c-.3 0-.6.3-.6.6s.3.6.6.6M22.6 17h-7.5c-.3 0-.6.3-.6.6s.3.6.6.6h7.5c.3 0 .6-.3.6-.6s-.3-.6-.6-.6"/>
  </symbol>

  <symbol viewBox="0 0 40 30" id="recruit">
    <path d="M20.4 12.1c-2 0-3.7 1.7-3.7 3.7s1.7 3.7 3.7 3.7 3.7-1.7 3.7-3.7-1.7-3.7-3.7-3.7m-.8 4.4c0 .3-.2.5-.5.5s-.5-.2-.5-.5v-1.8c0-.3.2-.5.5-.5s.5.2.5.5zm2.4 0c0 .3-.2.5-.5.5s-.5-.2-.5-.5v-1.8c0-.3.2-.5.5-.5s.5.2.5.5zm11.4-4.9c-.3-2.1-1-3.8-1.9-5q-.6-.9-1.5-1.5c-1.6-1-3.1-1.1-4.6-.4-.8.4-1.5 1.1-2 1.8-.6.9-.7 2-.4 2.9v.1c-.8-.4-1.7-.6-2.6-.6-1.6 0-3.1.6-4.2 1.8-1.2 1.2-1.9 2.9-1.9 4.7 0 3 1.3 4.6 2.3 5.8.3.4.6.8.8 1.1.3.6 0 1.2-.3 1.6-3.3-1.4-5.6-4.7-5.6-8.4 0-5.6 5-10.1 10.8-9 .2 0 .4 0 .4-.2L24 3.4v-.3c0-.1-.1-.2-.3-.2-1-.2-2.1-.4-3.1-.4-7.1 0-12.9 5.8-12.9 12.9s.8 5.1 2.2 7.3L7 25.6s-.6.5-.6 1.2c0 .4.2.8.5 1.2.5.5.6.7.8.9s.3.4.7.8c.3.3.7.5 1 .5.5 0 .9-.2 1.1-.5l3.2-3.2c2 1.3 4.4 1.9 6.8 1.9 2 0 4-.4 5.7-1.3 1.7-.8 3.3-2 4.4-3.5 1.3-1.6 2.2-3.5 2.5-5.5q.6-3 0-6.3M20.6 24.7c-1 0-1.9-.1-2.8-.4.4-.6.6-1.3.2-2.2-.2-.4-.5-.8-.9-1.3-.9-1.1-2.1-2.6-2.1-5.3 0-1.6.6-3 1.6-4.1 1-1 2.3-1.6 3.6-1.6s2.5.4 3.4 1.3l.2.2c1 1 1.6 2.4 1.6 4.2s-1 3.7-1.8 5c-.5.7-.8 1.3-1 1.9-.2.8 0 1.5.4 1.9-.8.2-1.7.4-2.6.4m9.8-14.3s-.3.9-1.1 1.6c.7 1.6.7 3.5.7 3.5 0 3.9-2.4 7.2-5.8 8.5-.3-.3-.5-.8-.4-1.5.1-.5.5-1 .9-1.7.8-1.3 1.9-3 1.9-5.4s-.3-2.5-.9-3.5c.9.2 1.6.1 2.2 0 1.2-.5 1.7-1.8 1.7-1.8 0-.2.3-.3.5-.2.2 0 .3.3.2.5"/>
  </symbol>

  <symbol viewBox="0 0 40 30" id="home">
    <path d="M39.725 20.78a.5.5 0 0 1 .096.197.5.5 0 0 1 .014.229.39.39 0 0 1-.311.31c-.074.014-.151 0-.224.014-.07.01-.137.05-.21.06l-.22.028-.22.018c-.073.009-.141.03-.214.04-.074.006-.15-.021-.224-.017s-.142.036-.215.04c-.078.005-.15-.018-.224-.013s-.147.032-.22.037-.146-.02-.22-.014c-.073.005-.146.027-.218.037a3 3 0 0 0-.22.022l-.216.014c-.072.01-.141.04-.21.05q-.11.006-.215.019c-.073.009-.141.013-.215.023-.068.008-.141.008-.21.018-.073.009-.137.055-.21.069-.07.009-.151-.037-.22-.023-.073.009-.141.013-.215.027a3 3 0 0 0-.215.032l-.21.028c-.073.009-.137.072-.21.082-.073.009-.142.009-.215.018-.073.005-.142.006-.215.01s-.146-.015-.215-.01c-.06 0-.142.014-.233.014-.078 0-.165.018-.233 0-.092-.02-.151-.073-.174-.142a.35.35 0 0 1-.005-.206c.023-.068.05-.141.11-.183a.6.6 0 0 1 .206-.077c.068-.014.142-.014.215-.032.068-.014.132-.06.205-.073.074-.014.147.004.22-.01.069-.013.137-.055.21-.068.069-.014.147.009.22 0 .068-.014.137-.051.21-.064l.215-.028c.069-.013.146.028.22.014.073-.01.137-.054.21-.064s.15.023.219.014c.074-.01.136-.074.21-.083s.147.028.22.019.142-.046.21-.056c.074-.008.15.02.22.01.073-.01.142-.064.21-.073.074-.01.147-.013.215-.023.074-.01.15.028.224.018.069-.01.142-.027.216-.036.068-.01.137-.055.21-.065.068-.01.137-.031.21-.04.074-.014.15.03.224.023.069-.014.137-.05.21-.06.069-.014.142-.014.216-.027.073-.01.137-.041.21-.055s.137-.051.21-.064c.055-.014.128-.028.202-.042a1 1 0 0 1 .21-.036.7.7 0 0 1 .215.014c.073.018.114.077.164.136m-1.344 7.015a.6.6 0 0 0-.087-.141.7.7 0 0 0-.133-.097.8.8 0 0 0-.173-.06 1 1 0 0 0-.18-.04c-.067-.014-.136-.032-.21-.046-.068-.014-.141 0-.214-.014-.07-.018-.133-.06-.201-.073a4 4 0 0 0-.206-.05c-.07-.018-.142-.014-.21-.032-.074-.014-.138-.05-.206-.07a3 3 0 0 1-.206-.05c-.103-.028-.142-.022-.21-.035a2 2 0 0 0-.206-.05c-.073-.02-.146-.02-.215-.033-.07-.018-.133-.05-.201-.064-.073-.013-.147-.01-.215-.023-.07-.018-.133-.068-.201-.082s-.142-.005-.215-.018c-.07-.014-.137-.041-.206-.05-.07-.014-.137-.042-.206-.055-.073-.01-.142-.014-.215-.028l-.21-.032c-.064-.01-.137-.014-.21-.023-.07-.01-.147-.036-.21-.032a.32.32 0 0 0-.193.096c-.046.037-.105.092-.11.179-.004.073.06.14.124.196.055.046.133.069.2.1.07.033.147.056.216.079.078.032.142.086.197.105.068.027.132.06.205.082q.096.039.206.073c.069.023.15 0 .224.023l.206.069c.069.018.137.045.21.068.069.019.133.069.202.092.068.023.15.013.219.032.069.023.137.055.206.073.073.023.142.04.215.06.068.022.14.03.21.05.069.022.137.054.206.073.073.018.137.055.206.073.073.018.15 0 .22.018.072.019.136.064.205.078.073.018.15.01.22.027.045.01.11.069.19.083.065.013.134.013.207.023.069.009.142.022.21.022.07.005.138-.036.206-.045.073-.01.156.023.21 0a.37.37 0 0 0 .165-.147c.028-.05 0-.123-.013-.21-.01-.055.004-.12-.023-.174m-4.751-11.03c.068-.027.14-.036.205-.063.069-.028.124-.082.188-.114.064-.028.137-.037.206-.064.064-.028.123-.078.187-.106.069-.027.133-.06.2-.087a4 4 0 0 0 .198-.077c.069-.028.146-.02.215-.046s.137-.046.2-.073c.07-.028.138-.046.202-.073.069-.028.128-.078.192-.105.069-.023.138-.042.206-.07.064-.027.137-.045.2-.072.07-.028.134-.064.198-.092s.119-.068.183-.1c.06-.028.119-.064.183-.092.06-.027.119-.073.178-.1.064-.032.137-.037.197-.07.064-.026.114-.081.174-.11q.095-.047.182-.095c.06-.027.138-.018.202-.05.06-.028.1-.105.16-.137.06-.028.123-.05.183-.087.059-.032.132-.046.182-.082a1 1 0 0 0 .15-.142c.05-.055.033-.128.033-.201a.4.4 0 0 0-.036-.192c-.032-.064-.06-.128-.115-.17-.036-.027-.1-.032-.16-.045a.7.7 0 0 0-.17-.005c-.072.01-.136.037-.204.055-.07.014-.142.018-.206.04a2 2 0 0 0-.197.079c-.07.027-.123.068-.187.1s-.124.074-.183.11c-.064.032-.137.046-.197.083-.064.036-.128.064-.187.105-.06.036-.101.105-.16.146-.06.037-.151.023-.21.06-.065.03-.12.077-.184.11-.06.03-.12.072-.178.104-.064.032-.114.092-.174.124q-.096.046-.192.087c-.064.032-.137.036-.201.068-.064.028-.12.078-.183.106s-.133.045-.197.073-.141.027-.205.055-.128.064-.192.09-.133.047-.197.074c-.064.028-.114.092-.178.12-.064.026-.147.008-.21.036-.07.027-.12.087-.184.114s-.12.073-.183.105c-.063.028-.146.014-.21.04s-.12.074-.183.106-.114.087-.174.12c-.04.022-.123.027-.2.077-.056.032-.11.087-.175.128-.054.04-.11.092-.164.137s-.137.074-.178.124a.4.4 0 0 0-.087.205c0 .065.055.124.132.174a.44.44 0 0 0 .183.083c.064.004.128-.032.197-.042.064-.013.137.005.206-.018.059-.023.128-.036.187-.064.064-.027.119-.078.174-.105.068-.032.119-.078.169-.1.064-.037.142-.037.206-.07.064-.031.119-.086.183-.118M32.198 9.23c.042-.055.06-.128.1-.183.047-.055.106-.1.15-.155.048-.055.116-.087.162-.137.046-.055.073-.13.123-.18.046-.05.11-.086.16-.136.05-.055.106-.096.156-.146s.073-.128.123-.188c.05-.055.087-.12.124-.183.04-.064.087-.123.105-.192a.5.5 0 0 0 .005-.224c-.02-.064-.074-.1-.12-.142a.4.4 0 0 0-.141-.096.5.5 0 0 0-.17-.036c-.063-.005-.118 0-.178.018s-.105.06-.164.1c-.05.042-.105.078-.156.129-.045.05-.082.105-.123.16-.041.05-.105.087-.147.142-.04.059-.06.123-.095.178-.042.06-.11.096-.142.146-.041.055-.092.11-.133.17-.041.059-.055.136-.1.196-.042.06-.092.114-.133.174s-.1.105-.142.164c-.04.06-.064.133-.11.192-.04.055-.06.133-.105.192-.04.055-.1.1-.146.16-.046.055-.073.12-.12.174-.04.055-.104.1-.145.156-.046.055-.083.11-.128.164-.042.055-.1.1-.142.156-.046.055-.078.119-.124.174s-.082.114-.128.169c-.045.05-.091.105-.137.155-.045.055-.077.12-.123.174s-.12.082-.165.137-.082.115-.123.17c-.046.054-.087.114-.133.164-.046.055-.073.124-.12.178-.045.05-.095.1-.14.156-.042.055-.106.096-.151.15-.042.056-.074.12-.12.175-.036.045-.09.105-.146.173-.045.055-.082.124-.132.188-.046.064-.115.11-.156.173a2 2 0 0 0-.105.206.54.54 0 0 0-.036.233c.009.074.054.133.123.193.073.059.187.118.279.082.05-.023.09-.078.132-.12q.075-.072.15-.155c.047-.05.075-.127.12-.178.05-.055.087-.12.137-.174l.142-.16c.046-.054.115-.091.16-.146.05-.05.12-.087.165-.142.05-.055.078-.123.128-.178.046-.05.096-.105.142-.16.05-.055.114-.092.164-.146.046-.05.055-.138.106-.192.045-.055.11-.097.155-.151.05-.05.11-.096.155-.151l.138-.151c.045-.055.082-.115.128-.165.04-.055.105-.091.146-.142.046-.054.069-.123.11-.178.046-.055.077-.114.123-.17.04-.054.069-.113.11-.168.046-.055.09-.105.133-.16.04-.055.09-.106.132-.16s.105-.092.147-.147.068-.12.11-.173c.045-.055.095-.101.136-.156m-7.005-5.47A.4.4 0 0 0 25 3.7c-.06-.007-.124.015-.201.024s-.12.042-.165.106a.5.5 0 0 0-.096.183c-.023.068-.036.14-.05.215-.014.073-.032.146-.041.215-.01.09-.014.169-.023.219-.014.069-.032.137-.046.206-.014.064-.041.132-.055.2-.013.065-.023.138-.036.207-.014.068-.046.132-.06.2-.014.069-.05.134-.064.202l-.041.206c-.014.068-.005.142-.018.21s-.037.133-.05.2.013.148.004.216c-.014.069-.046.137-.06.206s-.018.137-.032.206-.05.132-.063.2c-.014.07.018.147.004.216-.01.069-.027.137-.036.206-.014.068-.05.132-.065.2-.013.069-.01.143-.022.21-.01.07-.074.129-.083.198-.013.068-.013.137-.027.206s-.018.137-.032.205c-.01.069-.028.138-.041.206-.01.069-.005.137-.014.206-.014.069.004.142-.01.21-.004.05-.068.12-.081.215-.01.064 0 .147-.01.224-.01.073-.027.147-.036.22-.005.082.027.16.023.224-.005.105-.028.187-.014.224.032.1.1.17.17.183.072.018.173-.018.242-.07.054-.04.077-.113.095-.177.023-.07.078-.128.1-.197.019-.073.056-.137.079-.205.018-.07.018-.147.036-.22.023-.07.032-.142.05-.21.019-.07.07-.133.088-.202.018-.073.018-.146.036-.22.018-.068.046-.136.064-.21.014-.068.032-.141.046-.21.018-.073.046-.142.06-.21.018-.073-.02-.156-.005-.224.018-.073.027-.146.04-.215.015-.073.079-.133.097-.206.014-.068.032-.141.05-.21.014-.073.023-.146.037-.215.014-.073 0-.15.014-.22.013-.073.036-.141.05-.214.014-.07.046-.138.06-.21.013-.07.018-.147.03-.216.015-.073.02-.146.033-.215.014-.073.005-.15.019-.22.013-.072.032-.141.045-.214.014-.07.06-.137.074-.206.013-.073-.023-.15-.01-.224.014-.068.046-.137.06-.21.009-.055.009-.128.032-.202.013-.06.073-.114.09-.182.015-.064.05-.128.065-.197.014-.064 0-.137.01-.206s.04-.137.04-.2a1 1 0 0 0-.04-.207.4.4 0 0 0-.124-.17m-1.07 18.452c-.01-.07-.014-.137-.027-.206s-.037-.132-.06-.196a2 2 0 0 0-.064-.192c-.027-.064-.05-.128-.087-.188-.04-.082-.087-.142-.146-.164a.35.35 0 0 0-.224.009.36.36 0 0 0-.165.118.5.5 0 0 0-.123.165c-.028.064-.055.128-.07.197s-.008.14-.017.21c-.005.069-.014.142-.018.206v.206q.002.11.004.215c0 .073.005.146 0 .219-.004.069-.018.142-.023.215-.004.069.005.142 0 .215-.004.073-.027.142-.036.215-.005.068.004.142 0 .215-.005.068-.02.14-.023.215-.005.068 0 .14-.01.214-.004.07-.027.142-.031.21a5 5 0 0 1-.02.22c-.003.069-.003.142-.008.215l-.027.43c-.005.073-.018.142-.023.215s-.005.142-.01.215c-.004.073 0 .142-.004.215s-.004.142-.01.215c0 .073-.01.146-.01.215v.215c0 .073-.007.146-.007.22 0 .068.013.14.018.214.005.069-.005.142.005.215.004.073.023.142.027.215.01.068 0 .142.01.215.004.064.027.128.04.192.014.068.019.137.042.196a.4.4 0 0 0 .114.16c.05.042.114.06.192.042a.6.6 0 0 0 .178-.092c.06-.046.096-.11.137-.173a1 1 0 0 0 .106-.193c.027-.068.04-.141.059-.214.014-.074.023-.142.037-.22.009-.073.023-.146.027-.22.005-.073-.004-.15-.004-.224s.004-.146.004-.22c0-.077.023-.15.023-.22 0-.081-.014-.16-.01-.223v-.21c0-.068-.013-.137-.008-.206v-.21c0-.07.009-.137.013-.206q-.001-.107.005-.21c.005-.07.014-.137.014-.206.004-.07.018-.137.023-.206.004-.073.004-.141.009-.21l.013-.206.028-.21.027-.206c.01-.07.01-.137.018-.206q.02-.103.033-.205c.013-.065.032-.133.04-.202.01-.068.024-.137.033-.205q.008-.105.009-.206c.004-.07 0-.137.004-.206 0-.07-.01-.137-.013-.206s-.005-.132-.014-.201m-5.611 5.309c0-.068.04-.142.04-.21-.003-.07-.04-.138-.044-.21 0-.07.04-.143.036-.211 0-.07-.036-.137-.036-.206 0-.073.022-.142.022-.215 0-.068-.027-.137-.027-.21 0-.07.027-.137.027-.21 0-.07.01-.142.01-.21s-.032-.143-.032-.211.004-.142.004-.21.014-.142.014-.21-.032-.143-.032-.211c0-.07.036-.142.036-.21s-.01-.142-.01-.21-.026-.138-.031-.211l-.004-.21c0-.07.036-.142.032-.21 0-.07-.028-.138-.032-.211-.005-.07.009-.142.004-.21-.004-.07-.04-.138-.045-.206l-.014-.21c-.01-.07.018-.143.014-.216-.01-.068 0-.137-.01-.21l-.027-.206c-.01-.073-.027-.141-.036-.21-.01-.07-.032-.137-.042-.206-.013-.068-.018-.142-.032-.21a3 3 0 0 0-.032-.206c-.02-.103-.04-.137-.055-.206a3 3 0 0 1-.045-.205c-.02-.07-.028-.138-.046-.206-.018-.064-.06-.128-.078-.197-.023-.064-.032-.137-.055-.201-.018-.07-.027-.142-.05-.206-.018-.07-.023-.142-.05-.206-.01-.032-.087-.091-.142-.192l-.114-.206a4 4 0 0 0-.12-.205c-.04-.07-.06-.151-.095-.21a1 1 0 0 0-.146-.188c-.05-.05-.115-.073-.174-.105-.06-.032-.115-.087-.183-.1s-.137-.006-.21 0c-.07 0-.142-.01-.21.008a.5.5 0 0 0-.197.092c-.055.04-.101.1-.151.155-.046.055-.11.096-.151.16-.041.06-.06.133-.092.2q-.05.097-.091.198c-.032.064-.082.124-.11.192-.027.064-.023.146-.046.215-.027.069-.082.123-.1.192-.023.073-.005.15-.023.22-.023.073-.083.132-.1.196-.02.073-.028.146-.047.21-.018.078-.01.156-.022.216-.02.068-.05.137-.07.205-.013.069-.04.133-.054.2-.014.075-.032.143-.046.21-.013.07 0 .144-.013.212q-.015.105-.037.21c-.01.07-.041.138-.05.206-.01.073-.01.142-.018.21-.01.074-.014.142-.023.215-.01.07.009.142 0 .21-.005.07-.028.143-.032.21-.01.07-.037.138-.041.21-.005.07.004.143 0 .21-.005.075.009.144.004.217 0 .068-.01.137-.01.21-.004.069.01.142.01.21q-.002.11-.004.21c0 .074-.042.143-.042.216.005.068.014.142.019.21q-.001.108.004.21c.005.074.032.142.037.21.004.074-.014.147-.01.216.005.068.019.14.023.21.005.069-.004.142.005.215.005.069.037.137.046.206s-.014.146-.005.215.046.137.055.205l.028.21c.009.07.027.138.04.21.01.07.005.143.019.21.014.07.014.143.027.21.014.07.05.134.065.203s.036.137.05.206c.018.068 0 .146.014.215.018.068.045.137.063.205.014.069.019.138.037.206s.055.133.073.2c.019.065.05.125.069.194.023.064.018.132.04.196.019.064.033.133.056.197.018.064.064.119.087.183l.068.187c.023.064.05.128.069.188l.019.046h1.018q-.048-.003-.095-.004c-.073 0-.151.009-.224-.028-.06-.032-.11-.096-.165-.16a.7.7 0 0 1-.12-.178 2 2 0 0 1-.09-.197 4 4 0 0 1-.06-.205c-.018-.074-.06-.138-.073-.206-.013-.078-.01-.151-.022-.22l-.055-.224c-.014-.077-.02-.155-.037-.233-.014-.073-.046-.146-.06-.224-.013-.073-.004-.156-.013-.233-.01-.07-.055-.133-.064-.201-.01-.074.023-.147.018-.22-.01-.07-.06-.133-.064-.206-.01-.068.023-.146.014-.215-.005-.068-.046-.137-.055-.21-.01-.07.01-.142.004-.215-.01-.068-.04-.137-.05-.21-.004-.07.014-.142.01-.215-.005-.073 0-.142-.005-.215-.01-.073-.041-.142-.046-.21-.004-.074-.004-.142-.01-.215s0-.142-.004-.215c0-.07-.032-.142-.036-.21-.005-.074.032-.147.027-.216 0-.073-.01-.146-.013-.214 0-.074-.028-.142-.028-.215a3 3 0 0 1-.005-.215c0-.07.037-.142.037-.21 0-.074-.023-.142-.023-.216s.019-.141.019-.214c.004-.07-.028-.142-.028-.21.005-.074.005-.147.01-.216.004-.073.04-.141.045-.21.005-.073.023-.142.027-.215l.014-.21c.01-.07.005-.142.014-.21.004-.074.004-.147.013-.216.005-.068.019-.141.032-.21.01-.068.028-.137.037-.206.014-.073.01-.141.023-.215.014-.068.032-.137.046-.205.013-.07.036-.138.05-.206.018-.07.014-.147.032-.21.023-.074.05-.138.073-.206.019-.07.06-.128.082-.197.023-.06.07-.114.1-.178.033-.06.033-.142.074-.197s.092-.11.142-.155a.7.7 0 0 1 .174-.12.4.4 0 0 1 .206-.008.4.4 0 0 1 .192.068c.045.037.077.092.123.15.04.06.082.115.119.175s.09.11.123.17c.032.063.05.132.083.196.027.064.032.137.055.2.027.07.064.129.082.193.023.069.06.133.073.2.018.065.032.138.046.207s.04.133.05.2c.014.07.018.143.027.21.01.07-.022.143-.013.21.004.075.023.144.027.212l.014.21c.004.07.037.138.04.206.006.069-.013.142-.008.21 0 .074.014.142.018.21.005.07-.004.143 0 .21.005.074.032.143.037.21.009.075-.014.148-.01.22.005.07.042.143.046.21l.014.216c.005.074.018.142.023.215s-.005.147 0 .215c.005.073 0 .147.005.215.004.073.032.142.036.215.005.069.014.142.019.215.004.069-.028.142-.023.215 0 .073.018.142.018.215.005.073-.01.146-.01.215 0 .073.024.146.024.215 0 .073.018.146.013.22 0 .068-.022.14-.022.214q-.01.104-.02.215c0 .073.024.146.02.215-.005.073-.005.146-.01.22q-.006.103-.018.214l-.018.215c-.005.073-.037.142-.046.22-.005.073.005.146-.005.22q-.015.108-.032.219c-.01.073-.004.146-.018.22-.014.072-.036.14-.055.214a4 4 0 0 1-.046.215c-.018.073-.05.137-.077.206a2 2 0 0 1-.078.21c-.027.064-.082.12-.12.183a2 2 0 0 1-.118.183c-.046.06-.091.119-.146.165-.064.054-.11.123-.174.155a.3.3 0 0 1-.109.018h1.103c.01-.011.024-.02.03-.033.037-.06.042-.132.074-.196v-.001c.027-.06.073-.118.096-.182q.04-.096.068-.192c.023-.07.032-.137.05-.201l.042-.206c.013-.07 0-.142.009-.215.009-.07.036-.133.046-.201.004-.073.013-.142.018-.21.004-.074.018-.142.023-.211 0-.07-.014-.142-.014-.21s.023-.142.023-.21-.037-.143-.037-.211M16.982 30h-.03zm1.247-20.523c-.037-.073-.028-.16-.046-.224-.018-.07-.06-.133-.082-.201-.02-.073-.01-.151-.028-.22-.018-.068-.055-.137-.073-.206-.014-.073-.055-.137-.073-.205-.014-.073.023-.156.005-.224-.014-.074-.042-.142-.055-.21-.014-.074-.055-.138-.07-.211-.013-.07-.022-.142-.036-.215-.013-.07-.004-.146-.018-.22-.014-.068-.046-.137-.06-.21-.013-.068-.013-.142-.027-.215a3 3 0 0 1-.045-.21c-.02-.073-.055-.137-.07-.21s-.06-.138-.072-.206c-.014-.073.004-.151-.01-.22-.013-.073-.022-.146-.04-.215-.014-.073-.046-.137-.06-.21-.014-.068-.05-.137-.064-.206-.018-.073 0-.15-.018-.22-.014-.068-.064-.132-.082-.205-.02-.07-.014-.142-.028-.215-.018-.068-.032-.142-.05-.21-.02-.073-.005-.151-.023-.22-.018-.068-.064-.132-.082-.2-.023-.07-.046-.152-.087-.225-.037-.07-.096-.123-.151-.178a.37.37 0 0 0-.197-.1c-.073-.024-.15-.074-.233-.042-.032.014-.046.05-.07.069a.4.4 0 0 0-.113.182c-.027.069-.073.133-.082.21-.005.074.032.152.036.225.005.078.023.15.032.215.01.068-.023.146-.01.215.019.068.079.128.093.196.018.064-.014.147.009.215.018.069.073.124.096.192.018.064.004.147.023.21.023.07.05.133.073.202l.073.196q.033.105.06.202c.022.068.036.137.054.205.023.064.096.12.115.183.018.069.022.142.04.215.02.064.06.128.079.2.018.07-.005.152.013.22.014.069.055.133.073.207.014.068.005.146.023.22.018.068.064.132.083.2.018.069.04.142.059.21.023.07.018.147.037.216.018.073.055.137.073.205.018.07.027.142.046.21.022.074.073.133.095.202.019.069.05.133.074.2.023.07-.014.157.009.225.027.069.078.128.1.192.028.073.046.142.074.206.027.069.045.137.077.2q.043.105.092.198c.049.092.087.105.128.146a.36.36 0 0 0 .16.1c.064.01.1-.027.16-.077.037-.032.123-.05.155-.123a.45.45 0 0 0 .023-.234c-.004-.068-.064-.132-.091-.205-.028-.07-.07-.133-.096-.197m-.823 17.473c0-.07.027-.142.023-.216 0-.068-.023-.137-.028-.21-.005-.07 0-.142-.005-.215-.004-.068.005-.142 0-.21-.004-.073-.027-.142-.032-.215-.004-.07.01-.142 0-.21l-.013-.215c-.005-.07-.032-.138-.037-.21-.004-.07-.004-.142-.01-.216-.003-.068-.003-.141-.01-.215 0-.068-.012-.141-.016-.214 0-.07.013-.142.009-.215q0-.105-.01-.215c0-.07-.013-.142-.013-.215 0-.07.014-.142.009-.215 0-.07-.014-.142-.014-.215-.004-.07 0-.142-.004-.215l-.014-.215c-.004-.068.005-.142 0-.215-.004-.073-.018-.142-.023-.215a4 4 0 0 1-.018-.215c-.01-.06-.01-.132-.018-.21-.01-.07-.032-.137-.046-.21a3 3 0 0 0-.064-.202.7.7 0 0 0-.096-.191.33.33 0 0 0-.188-.101.36.36 0 0 0-.205.009c-.07.023-.138.046-.183.105-.046.046-.073.12-.101.192-.027.06-.046.133-.064.206-.014.068-.032.142-.041.215s.01.146.01.22a2 2 0 0 0-.006.219c0 .073-.01.146-.01.22.006.068.024.14.029.214l.013.22c.01.073 0 .146.01.22q.005.102.018.214c.013.11.027.142.037.215q.021.11.036.215c.01.073.014.146.023.215.009.078.023.15.032.215.01.087.023.16.027.215q.006.09.005.215.006.1.005.224c0 .068.009.142.009.22v.219l.004.22c0 .072-.01.146-.01.219.006.073 0 .146 0 .22q.002.108.01.219c0 .073.019.146.023.22l.014.214c.004.078 0 .15.009.22.005.077.023.146.032.22.01.072.032.14.046.21.018.077.023.15.04.214.024.078.065.138.092.197a.5.5 0 0 0 .128.17c.069.05.12.095.17.109.077.018.137-.014.187-.05a.4.4 0 0 0 .124-.156c.022-.06.018-.128.03-.197s.029-.132.033-.196c.01-.073.042-.142.046-.21.005-.074-.01-.142-.01-.215q.008-.106.006-.21c.004-.074 0-.142 0-.216M13.38 11.773c-.036-.06-.036-.151-.082-.206-.045-.064-.091-.12-.12-.17-.035-.06-.1-.105-.136-.164-.032-.064-.055-.133-.091-.192-.037-.064-.087-.12-.124-.178-.036-.065-.091-.11-.128-.17-.036-.064-.055-.137-.091-.196l-.11-.183c-.036-.064-.082-.12-.12-.18-.035-.063-.05-.136-.086-.2-.036-.06-.091-.11-.128-.17l-.11-.186c-.036-.06-.05-.133-.086-.197-.037-.06-.087-.114-.124-.174-.036-.06-.105-.1-.142-.164-.036-.06-.04-.138-.077-.202l-.115-.182c-.036-.06-.091-.11-.128-.17-.036-.064-.082-.12-.12-.178-.035-.064-.063-.128-.1-.192-.036-.06-.06-.128-.095-.192-.032-.06-.055-.128-.092-.192l-.1-.188c-.032-.064-.082-.114-.12-.178-.031-.064-.077-.12-.11-.183s-.072-.123-.11-.183c-.031-.064-.017-.15-.053-.215-.028-.055-.101-.1-.156-.164-.046-.05-.087-.115-.146-.165s-.11-.105-.174-.146a1 1 0 0 0-.206-.101c-.078-.023-.15.014-.215.037-.064.023-.132.05-.17.132-.022.055 0 .133-.01.224-.003.073-.035.147-.016.215.023.069.073.124.11.188.04.06.077.123.123.178.064.073.133.142.197.206q.067.074.137.155c.04.05.073.11.114.165s.11.087.146.142q.063.083.12.164c.04.055.054.128.095.183.037.055.087.105.124.16.036.06.06.124.096.183.032.055.073.11.11.165.036.06.077.119.114.178.036.06.087.11.119.17.036.059.036.14.068.2.037.065.064.129.096.188.037.06.12.09.156.15.032.065.05.134.082.198.037.059.032.137.069.2.032.06.096.1.132.165.032.06.06.124.096.183.032.06.074.12.11.179.032.059.064.123.1.183.037.059.05.132.088.192l.11.178c.036.06.11.096.15.15.037.06.04.138.082.197.037.06.065.128.1.183.033.04.11.069.157.133l.114.16c.04.055.06.123.1.174.046.05.12.073.17.11.055.045.096.09.155.11.064.022.133.059.192.027.078-.041.1-.12.133-.17.036-.064.032-.114.013-.187a.7.7 0 0 0-.086-.187m-3.713 3.703c-.05-.04-.087-.105-.147-.146a2 2 0 0 0-.17-.114c-.06-.037-.136-.037-.196-.073-.06-.032-.118-.07-.178-.101s-.114-.078-.17-.11c-.063-.036-.132-.05-.186-.082-.07-.041-.124-.087-.165-.12-.06-.04-.124-.072-.183-.113-.055-.041-.091-.115-.151-.156s-.133-.064-.192-.105l-.17-.128c-.06-.041-.127-.073-.182-.114-.06-.041-.105-.1-.165-.142-.06-.046-.123-.078-.178-.12-.06-.045-.087-.127-.146-.168-.06-.041-.151-.041-.206-.082-.06-.046-.11-.097-.17-.138-.06-.04-.114-.086-.173-.128-.06-.04-.096-.114-.156-.155s-.128-.07-.187-.105c-.06-.041-.11-.096-.17-.137s-.118-.074-.178-.115-.137-.055-.196-.096c-.06-.036-.11-.087-.174-.128l-.178-.11c-.064-.04-.12-.082-.183-.12-.06-.035-.137-.044-.201-.081-.055-.032-.11-.087-.18-.128-.06-.036-.113-.096-.177-.128-.07-.032-.146-.027-.215-.046a.4.4 0 0 0-.21-.027.3.3 0 0 0-.188.096c-.05.05-.11.096-.132.156-.028.064.013.137.018.2s.027.12.055.184c.027.055.036.132.082.182.04.046.1.083.155.124.055.037.115.082.179.124.064.036.114.09.183.127.06.037.137.05.206.083.059.036.123.078.187.114.064.032.15.028.215.064.064.032.114.1.178.133.064.036.147.036.21.068l.193.11c.064.037.096.124.155.165.06.036.137.045.197.082s.105.09.169.133c.06.036.114.077.174.114s.137.05.196.087.115.082.174.119c.06.036.114.082.174.119.064.04.114.086.178.123.06.037.124.069.183.105.06.037.142.037.2.073l.18.115c.059.036.119.077.178.114q.09.046.183.1c.06.037.105.1.165.133.059.037.118.069.178.105.05.028.123.046.187.096.05.042.083.12.142.165.055.04.105.092.165.133.055.04.146.036.206.077.059.037.105.1.164.133.064.032.137.04.2.064.07.027.125.092.193.096a.5.5 0 0 0 .21-.036c.056-.02.078-.092.087-.165.014-.07.032-.147.023-.197a.4.4 0 0 0-.096-.192c-.036-.046-.12-.064-.173-.11M6.97 20.552c-.064-.032-.151 0-.22-.018s-.128-.06-.196-.07c-.074-.008-.142-.031-.21-.04-.07-.004-.143.014-.216.005-.068-.01-.137-.041-.205-.06-.07-.014-.147.005-.215-.01-.07-.017-.133-.054-.201-.072-.07-.014-.142-.023-.21-.041-.07-.014-.133-.06-.202-.078-.07-.014-.146 0-.215-.018-.07-.014-.128-.082-.197-.1-.068-.015-.146.004-.215-.015s-.141-.013-.21-.027c-.073-.018-.137-.046-.206-.064s-.141-.018-.21-.037c-.07-.013-.137-.045-.206-.06-.068-.017-.142-.022-.21-.04a3 3 0 0 1-.206-.05c-.073-.014-.133-.055-.206-.074-.068-.013-.137-.036-.205-.05-.07-.018-.138-.041-.206-.06-.07-.013-.142-.022-.21-.036-.07-.014-.138-.037-.206-.05-.074-.014-.147-.005-.215-.02-.07-.008-.142-.003-.215-.012-.07-.014-.137-.032-.21-.042-.07-.013-.133-.054-.206-.064-.07-.013-.142-.013-.21-.022-.074-.01-.147.013-.216.004-.073-.004-.141-.032-.21-.041a.8.8 0 0 0-.242.014.5.5 0 0 0-.183.09.4.4 0 0 0-.115.17c-.018.06 0 .133.005.206a.4.4 0 0 0 .06.197c.04.06.1.09.164.132.055.032.105.1.178.124.064.018.138.032.21.046.07.009.147-.014.216-.005.073.005.142.018.206.023.082.005.155.005.21.014q.108.012.21.032c.069.009.146-.023.215-.014s.137.055.206.069c.068.009.137.027.206.04.073.014.146-.013.215 0 .073.01.14.033.21.046.069.014.133.05.2.064.074.014.152-.018.22-.004s.138.04.21.055.138.068.207.082c.073.014.146.032.215.046l.22.036c.068.014.145.01.219.023.068.014.14.023.215.037.073.014.146.023.215.036.073.014.146.019.219.028.073.014.137.06.21.073s.147.01.22.023c.073.009.146-.014.22-.005.073.01.14.064.21.073.073.01.15-.027.224-.018.073.01.14.05.215.06.073.009.146.009.22.018.063.004.145-.014.228-.01.078.01.155.07.228.065a.6.6 0 0 0 .238-.06c.073-.036.078-.128.096-.187a.2.2 0 0 0-.023-.188c-.032-.05-.06-.132-.132-.17m-.746 5.173a3 3 0 0 0-.215-.046c-.068-.014-.141-.05-.214-.06-.074-.004-.147.014-.224.01-.074 0-.147-.028-.225-.023-.073 0-.146.046-.22.05-.072.005-.145.005-.22.01-.072.009-.15-.028-.223-.024-.077.01-.146.028-.22.037-.072.005-.145 0-.214.005-.073.009-.142.04-.215.05-.068.01-.142.023-.21.032-.073.01-.147.005-.22.014-.068.004-.137.045-.21.055-.073.004-.146 0-.215.004-.073.005-.146-.023-.22-.023-.073 0-.146.032-.214.028-.074 0-.147-.032-.215-.041-.055-.005-.128-.023-.206-.037-.064-.01-.142.014-.215.005-.07-.01-.137-.05-.21-.05-.07-.005-.142.008-.21.008-.074.005-.138.037-.207.046-.073.018-.132.032-.192.064a.3.3 0 0 0-.141.133c-.028.055-.06.114-.055.196 0 .078.023.156.082.215.05.055.124.096.197.133.068.037.14.078.215.1a1 1 0 0 0 .237.028c.069 0 .138-.023.21-.027.07 0 .138.022.21.018.07-.005.138-.023.207-.032.068-.005.142 0 .21-.005.069-.01.137-.05.206-.06a3 3 0 0 0 .21-.017c.069-.005.142.027.21.018l.21-.028c.07-.01.134-.06.202-.068.069-.01.137-.028.206-.037.073-.01.142-.01.21-.023.069-.01.142.028.21.014.07-.01.133-.064.202-.073s.142-.01.21-.018c.069-.01.142.013.21.004.074-.01.147-.013.225-.023.073-.004.146-.023.22-.027.077-.005.15 0 .228-.005.073-.004.146-.027.224-.032.073-.004.146-.004.224-.01.073-.003.15-.003.224-.013.06-.004.11-.045.15-.096.01 0 .028.01.028.01.046-.07 0-.16-.055-.238s-.132-.133-.192-.151m25.923-1.001c0 .073-.01.14-.014.214s.037.147.032.22c-.004.068-.027.142-.036.21-.004.073-.004.147-.014.215-.004.073-.032.142-.036.215-.01.073 0 .146-.01.22-.01.068-.04.137-.05.21-.01.069-.037.137-.05.21-.01.069.04.15.032.225a4 4 0 0 0-.037.21c-.013.073-.036.14-.05.21-.014.073-.032.142-.046.21-.018.073-.055.138-.073.206-.014.073.005.15-.01.22-.017.068-.053.138-.072.206-.02.068-.028.142-.046.21s-.097.124-.115.192.028.155.01.224c-.023.068-.101.118-.124.187q-.033.103-.064.206c-.022.069-.01.146-.031.215-.023.069-.037.142-.06.206-.023.068-.092.119-.12.187-.022.069-.013.147-.036.215-.027.064-.087.119-.113.188l-.02.046h-1.563c.002-.043.003-.085.018-.125.024-.063.037-.136.064-.2.023-.07.115-.11.137-.18.028-.063-.004-.15.023-.22.024-.067.05-.131.074-.2.022-.063.077-.123.1-.187.018-.068.059-.127.082-.197.024-.068.055-.132.074-.2.022-.065-.023-.152-.005-.22.023-.07.059-.133.078-.197.018-.068.064-.132.082-.201q.021-.104.05-.206.02-.103.046-.205c.014-.07.05-.134.064-.202s.033-.141.046-.21c.013-.07.013-.137.027-.206.014-.073 0-.146.014-.215.014-.068-.005-.146.005-.215.013-.068.086-.127.1-.197.009-.068-.005-.14.005-.21.013-.073.004-.146.013-.215.01-.068.087-.128.096-.196.009-.07-.046-.151-.036-.22.009-.073.077-.16.09-.228-.067.004-.163.059-.237.064-.068.004-.137.013-.21.013-.068.005-.142-.05-.215-.05-.068.005-.137.037-.21.042-.07.004-.137.034-.206.04-.07.006-.142-.01-.21-.004-.073 0-.147-.05-.215-.045-.073.004-.142.036-.21.04-.074 0-.147.023-.215.028-.074.004-.142-.014-.216-.01-.068 0-.141-.018-.21-.013-.073.004-.141.018-.21.023-.073.005-.146-.01-.215-.005-.073.005-.146.014-.211.018-.082.005-.15.055-.21.055-.128.009-.114-.064-.178.019-.064.078-.032.059-.027.178.004.059.018.128.018.2.004.065 0 .134 0 .207q0 .1-.01.2c-.004.07.042.143.033.207-.005.068-.046.137-.056.2-.008.07-.027.138-.04.202-.014.073-.055.133-.07.197-.017.073.015.15 0 .21-.022.073-.077.133-.09.188-.028.1-.02.178-.023.205-.01.074-.032.142-.046.215-.01.074-.023.147-.031.215-.015.074-.046.14-.06.215s-.02.147-.032.215c-.014.073.004.15-.01.225-.018.072-.05.136-.068.21-.014.073-.064.137-.078.205-.018.073.018.156 0 .229-.023.069-.078.128-.096.2-.018.07-.004.152-.027.22l-.073.21-.026.084h-1.251c.024-.061.039-.128.06-.188a4 4 0 0 0 .073-.206c.023-.064.055-.128.078-.196.018-.07.073-.13.096-.197.018-.07.019-.141.037-.21.018-.07.044-.137.063-.206.019-.07.05-.132.07-.202q.02-.108.05-.21c.013-.068-.028-.151-.01-.224.014-.068.014-.141.028-.21.014-.07.073-.132.087-.202q.021-.108.036-.21c.014-.073.037-.142.046-.21.014-.074-.027-.151-.014-.224.01-.07.05-.137.06-.206.009-.073.054-.137.064-.21.009-.07-.028-.147-.018-.22.009-.068-.01-.146 0-.215.009-.073.068-.137.073-.21.009-.073-.046-.15-.037-.22.005-.073.046-.141.05-.215.01-.068.005-.141.01-.214.004-.074.027-.142.032-.215.004-.07-.005-.142 0-.215 0-.073-.028-.147-.028-.215.005-.073.078-.142.083-.215 0-.07-.02-.142-.02-.215.005-.073.015-.142.015-.215 0-.07-.028-.142-.028-.21 0-.073-.018-.147-.018-.215 0-.073.018-.146.018-.215-.004-.073.014-.146.01-.215 0-.073-.02-.146-.023-.215-.005-.073-.051-.142-.055-.21-.005-.073.023-.147.014-.215-.005-.064.009-.137 0-.21-.01-.07-.074-.133-.082-.206-.01-.07.054-.147.04-.22-.01-.068-.082-.128-.096-.2-.01-.07.028-.147.019-.22-.014-.07-.06-.133-.074-.202a3 3 0 0 0-.036-.21c-.014-.07-.037-.137-.055-.206q-.023-.101-.051-.205c-.018-.07.02-.151 0-.22-.013-.07-.021-.141-.04-.21-.02-.07-.074-.128-.092-.197-.018-.07-.082-.123-.101-.192-.022-.07 0-.15-.022-.22-.023-.068-.023-.141-.046-.21-.023-.07-.037-.137-.064-.206-.027-.064-.078-.123-.105-.187-.028-.068-.096-.115-.124-.178-.027-.07-.064-.13-.091-.193-.032-.064-.055-.132-.087-.196-.037-.06-.05-.132-.087-.192a3 3 0 0 0-.11-.183c-.041-.06-.101-.11-.141-.16-.046-.06-.065-.138-.115-.188a1.2 1.2 0 0 0-.324-.274c-.06-.042-.133-.06-.192-.082-.07-.028-.138-.032-.206-.046a1 1 0 0 0-.206-.014c-.07.005-.142.005-.206.023-.068.019-.114.082-.178.109-.064.033-.147.023-.206.06-.06.037-.096.1-.151.147-.055.04-.096.096-.146.146-.05.046-.12.078-.165.128s-.077.114-.123.169c-.041.055-.074.114-.114.174-.042.055-.078.114-.115.169-.036.059-.087.114-.118.169-.033.064-.088.115-.12.179s-.027.146-.055.21c-.031.064-.073.123-.1.188q-.047.095-.087.19c-.028.066-.101.116-.128.179-.023.07 0 .15-.023.22-.023.069-.033.138-.055.206s-.11.114-.132.178c-.023.069.013.155-.01.225-.018.064-.041.133-.06.2-.017.069-.068.128-.086.197s-.05.134-.068.202-.046.137-.06.205c-.018.069.032.156.019.224-.015.069-.051.132-.065.202-.014.073-.05.136-.064.206q-.021.104-.036.21c-.014.068-.018.14-.028.21-.013.069-.04.137-.05.206q-.015.107-.032.215c-.01.068-.004.14-.014.21-.004.073.014.146.009.215-.01.073.019.146.01.215-.005.073-.073.137-.078.21-.005.069.018.142.013.216-.004.068.014.14.01.21 0 .073-.07.14-.073.21 0 .073.068.146.064.22 0 .068-.07.137-.07.21-.003.068.06.14.06.215 0 .068.006.14.006.21 0 .073-.06.146-.06.215.004.073.032.142.036.215 0 .068.032.14.037.21 0 .073-.014.147-.01.215.005.073-.05.146-.045.215.005.073.04.142.046.215.004.068.027.142.032.21.004.073-.01.147 0 .215.005.073-.01.147-.005.215.009.073.027.142.036.21.005.074 0 .146.01.216q.015.108.032.21c.009.073.068.137.078.205.009.074.04.142.05.21.014.07-.023.152-.014.22.014.069.032.137.046.206.014.073.023.14.036.21.014.073.023.142.037.21.014.074.078.133.09.202.015.068.006.14.02.21.018.069.026.143.045.21.019.069.005.142.023.21.019.065.087.125.11.198a.3.3 0 0 1 .007.078H20.41a.4.4 0 0 1-.027-.074c-.02-.068-.083-.12-.106-.183-.023-.068.009-.164-.018-.228a.4.4 0 0 0-.142.197c-.017.059-.05.123-.077.2l-.023.088h-1.09c.022-.054.05-.106.065-.161.019-.068-.008-.147.01-.215s.045-.132.064-.201q.021-.103.045-.206c.014-.068.078-.128.092-.201.014-.068-.028-.146-.014-.215.013-.073.009-.141.023-.215.009-.068.087-.128.1-.196.01-.07-.037-.147-.027-.22.014-.068.022-.137.032-.21.009-.07.05-.132.059-.202.01-.072.037-.137.042-.21.009-.068.027-.137.036-.21.009-.07-.05-.147-.045-.215.004-.068.032-.137.036-.211.009-.068.04-.136.046-.21l.013-.21c.005-.07.005-.141.01-.211 0-.072.023-.141.027-.21 0-.073.005-.141.01-.214 0-.07-.01-.142-.01-.216.005-.068-.023-.141-.023-.21 0-.073-.032-.142-.032-.215 0-.068.06-.141.06-.21 0-.073-.032-.142-.032-.215-.005-.068-.028-.142-.028-.21-.005-.074.055-.146.055-.216-.004-.072-.077-.137-.082-.21s.055-.145.05-.215c-.004-.073-.073-.137-.078-.21-.004-.07-.018-.142-.022-.21-.01-.073.046-.147.036-.22-.004-.068-.041-.136-.05-.206-.01-.073-.045-.137-.055-.21-.01-.068-.004-.142-.014-.21-.01-.073.033-.151.023-.22-.01-.073-.05-.137-.064-.21-.014-.07-.042-.138-.055-.206s-.004-.142-.018-.215c-.018-.068-.01-.141-.022-.21-.02-.073-.047-.137-.06-.206-.02-.073-.018-.147-.037-.215l-.06-.201c-.018-.07-.082-.128-.105-.192-.017-.07-.06-.133-.077-.201-.023-.07.004-.151-.02-.215-.021-.07-.053-.132-.076-.202l-.07-.2-.077-.202c-.023-.063-.096-.11-.123-.173-.032-.064-.032-.142-.064-.206-.027-.064-.055-.132-.087-.192-.032-.064-.037-.142-.073-.202-.032-.064-.11-.104-.142-.164-.037-.055-.037-.137-.078-.197-.041-.055-.11-.091-.151-.151-.045-.05-.082-.11-.128-.165q-.07-.075-.146-.15c-.046-.05-.087-.11-.137-.156-.055-.045-.12-.082-.174-.123-.055-.041-.132-.055-.192-.087-.06-.037-.114-.087-.178-.11-.064-.027-.125-.083-.193-.096s-.141.032-.21.037a.8.8 0 0 0-.201.032c-.055.018-.142.023-.215.073-.06.046-.095.119-.155.174s-.12.105-.174.16c-.06.064-.124.114-.164.16-.046.055-.068.122-.11.182s-.101.106-.138.17c-.041.059-.086.114-.118.179-.037.059-.042.137-.074.2-.036.065-.091.115-.123.179l-.087.202c-.027.063-.037.136-.065.2-.022.069-.068.128-.09.197-.028.064-.037.137-.06.206-.018.064-.023.137-.046.21-.018.064-.11.114-.128.183s.006.152-.013.22c-.02.068-.023.14-.037.21q-.03.1-.05.21c-.02.069-.02.14-.032.21-.014.069-.032.138-.046.21-.01.069-.032.138-.046.21-.01.07-.055.134-.068.207-.01.068 0 .146-.01.215-.01.073-.026.142-.036.215-.01.068-.032.137-.037.21l-.027.215c-.005.069.046.146.04.219-.008.069.002.143-.003.216s-.055.14-.06.21l-.014.215c0 .073-.013.14-.018.215 0 .073.046.145.046.215-.005.073-.037.146-.037.214 0 .074-.036.147-.036.215 0 .073.045.147.045.22 0 .068.028.142.028.215 0 .068-.05.142-.046.215 0 .073.064.14.064.215.005.068-.027.14-.023.215 0 .073.014.14.018.214.006.074-.01.147-.004.215q.014.11.032.215c.004.073.046.142.05.215.005.069-.06.15-.05.22.009.073.036.142.046.215.004.068.004.14.013.215.01.073.05.137.06.21.009.068.036.142.045.21.01.073 0 .146.01.215.013.073.004.146.018.22.014.068.037.137.05.21.013.069.069.133.083.2.013.074-.005.147.013.22.014.069.009.146.023.216.018.068.087.128.105.196.019.073-.032.16-.013.229.018.068.096.123.118.192.019.069-.01.15.01.219.023.074.073.133.096.197.023.073.04.142.064.205q.013.036.028.07h-1.225l-.01-.033c-.023-.068-.087-.118-.106-.187-.023-.07-.018-.146-.036-.215-.023-.07-.02-.142-.037-.21-.018-.07-.092-.125-.11-.193s-.004-.141-.022-.214c-.02-.07.009-.147-.01-.215l-.041-.206c-.013-.073-.077-.132-.091-.202-.014-.068-.036-.136-.046-.21-.014-.068-.023-.137-.037-.21-.01-.068-.027-.137-.036-.21-.01-.07-.004-.142-.014-.215-.01-.07.037-.147.028-.215-.01-.073-.064-.137-.074-.206-.005-.073.015-.146.005-.215-.005-.073-.041-.141-.051-.211-.004-.072-.036-.14-.04-.21-.005-.073.032-.155.027-.228-.11-.023-.114.013-.224.023-.11.009-.11-.005-.22.004s-.11.023-.22.032-.104.055-.214.069c-.11.009-.114-.02-.224-.01s-.11-.008-.22 0c-.11.01-.11.005-.22.015s-.104.068-.214.077-.114-.014-.223-.004c-.11.009-.11.004-.22.013s-.11.046-.22.055-.114-.028-.224-.018-.106.004-.206.05c.019.069-.013.115.005.183.014.069.073.128.087.197q.021.108.036.21c.014.073-.018.15-.004.22.013.068.059.132.077.2.014.069.06.133.078.202.014.069-.004.146.014.215.018.068.014.142.032.21s.09.124.11.188c.022.068.018.146.036.21.023.069.014.146.037.216.023.068.04.136.064.2.023.069.068.128.09.197.024.068.084.119.11.187.024.064-.008.15.019.22.028.064.1.11.128.174.027.068.009.15.037.22.008.018.024.034.038.05H9.549c-.03-.057-.076-.105-.1-.165-.023-.07-.068-.128-.091-.192-.028-.07-.041-.142-.07-.206l-.068-.206c-.023-.064-.051-.132-.073-.201-.022-.07-.06-.133-.082-.197-.023-.068.009-.155-.014-.224-.018-.068-.073-.123-.096-.196-.018-.07-.046-.134-.064-.202s-.027-.141-.041-.21c-.018-.07-.041-.137-.055-.21-.018-.07.014-.147 0-.22-.018-.068-.065-.132-.078-.201-.013-.07-.022-.141-.036-.211-.01-.068-.037-.136-.05-.21-.01-.068-.005-.141-.015-.215-.008-.068-.027-.137-.04-.21-.01-.07.009-.142 0-.215-.01-.068-.051-.137-.055-.21-.01-.07-.01-.142-.018-.215-.005-.07 0-.142-.005-.215-.005-.07.005-.142 0-.215-.005-.07-.032-.137-.037-.21-.004-.07.014-.142.01-.215 0-.073-.014-.142-.014-.215s.023-.142.023-.215c-.005-.073-.046-.142-.046-.215s.046-.142.046-.215c.004-.073-.032-.146-.032-.214.004-.074-.014-.147-.014-.22.005-.074 0-.147.005-.215l.014-.215c.004-.073.045-.142.05-.21q.007-.108.022-.215c.005-.073-.014-.147-.004-.215.004-.073 0-.147.009-.215.005-.073-.01-.146-.005-.216.01-.072.055-.136.06-.21.009-.068.05-.137.06-.21.009-.068-.023-.146-.01-.215q.012-.108.032-.215c.009-.068.009-.141.023-.215.014-.068.032-.137.046-.21.013-.068.009-.141.023-.211a18 18 0 0 1 .087-.42c.018-.073.109-.123.128-.192.018-.068.014-.141.032-.21.018-.07.027-.142.05-.206a3.988 3.988 0 0 1 .137-.407c.023-.065.037-.137.06-.205.027-.065.096-.115.123-.18.027-.068.046-.136.073-.2.028-.064-.01-.156.023-.224.027-.064.064-.13.092-.193.03-.064.118-.1.15-.164.032-.06.014-.151.046-.215.032-.06.114-.1.146-.16.037-.064.087-.114.124-.174.036-.064.055-.137.09-.197.038-.06.098-.104.138-.164.037-.06.023-.155.06-.215a3 3 0 0 0 .123-.174c.042-.055.115-.091.156-.151.04-.055.064-.127.105-.187.04-.055.078-.12.124-.174.04-.055.11-.096.15-.151.046-.054.078-.12.124-.174q.067-.084.142-.16c.045-.054.119-.087.164-.137.05-.055.115-.091.16-.141.05-.055.092-.11.142-.16s.082-.12.132-.17.109-.092.16-.142c.05-.05.065-.142.12-.192.05-.045.114-.082.164-.132.05-.045.092-.105.142-.155.055-.046.128-.07.178-.12.055-.045.087-.114.142-.16.05-.045.142-.05.197-.091.055-.046.077-.128.132-.174l.169-.123c.055-.046.124-.074.179-.114.059-.042.123-.07.183-.11.054-.042.104-.092.164-.133.06-.037.128-.06.188-.101.055-.036.105-.091.165-.128.059-.036.132-.054.192-.091.059-.037.1-.11.16-.142.059-.036.14-.036.2-.073.06-.032.092-.128.152-.16q.09-.054.187-.101c.06-.036.132-.05.192-.082q.096-.05.193-.092c.063-.031.146-.018.21-.05.064-.027.123-.068.188-.096.063-.028.132-.041.2-.068.064-.028.115-.092.179-.115.064-.027.14-.018.21-.041q.096-.042.192-.077c.069-.023.128-.07.192-.092.069-.022.128-.06.197-.082.064-.018.127-.06.197-.078.063-.023.13-.037.2-.055.069-.018.134-.055.202-.073s.146.014.215-.005c.068-.013.137-.022.205-.041.069-.014.137-.036.207-.05.068-.014.132-.046.2-.06.074-.013.142-.027.215-.041.073-.01.142-.027.215-.036l.215-.032.215-.023c.073-.005.146.018.219.014.07-.01.142-.051.21-.055.074-.005.147-.02.22-.023.069 0 .147.023.215.018.073 0 .147-.027.22-.027.068 0 .142.05.215.05s.14.014.214.014.147-.005.22 0c.069 0 .142.013.215.018.069 0 .146-.041.219-.037.07.005.138.073.21.083.07.004.147-.028.22-.02.069.01.142.01.215.02.073.009.142.022.216.032.068.009.136.036.21.046.073.013.14.04.21.05.073.013.146.018.215.032.073.013.142.032.21.046.073.018.142.04.21.054.069.019.15 0 .22.019.068.018.146.014.215.032s.133.068.2.086l.21.055c.07.023.138.037.208.06.068.018.142.027.21.05s.123.087.192.11c.064.027.123.068.192.096.064.027.14.036.205.064s.142.037.206.068c.064.028.119.078.188.11.063.028.119.078.183.11s.123.069.188.105c.063.033.136.046.2.083q.096.046.188.1c.064.037.142.04.206.078.059.04.123.078.182.114s.11.096.169.133c.06.04.11.096.17.137.059.04.123.074.182.114q.089.061.17.133c.059.04.1.105.155.15.06.042.133.065.188.11.055.046.128.069.183.115s.068.142.123.187.142.055.197.105c.05.046.087.115.142.165.05.05.096.105.15.155.05.046.129.07.179.12.05.054.078.128.128.178s.133.073.183.123c.05.055.078.128.123.178.05.056.087.115.133.17.05.055.119.09.164.146s.082.119.128.174.07.127.11.187c.045.055.124.087.165.142.045.06.059.137.105.197.042.055.05.137.092.196.04.059.082.115.123.179.037.059.133.082.169.14.04.06.023.157.059.22.037.06.083.115.12.179.036.06.124.092.16.156s.05.137.082.2c.036.065.073.125.105.189.032.063.06.132.092.196.03.065.03.142.063.205.032.07.119.106.147.17.032.069 0 .16.027.224.027.069.124.105.147.174.027.064.045.137.073.206.027.064.032.137.055.205.027.069.013.147.036.215s.1.119.124.188c.023.068.027.142.045.21.023.069.014.146.033.216.018.072.026.14.046.21.013.073.036.14.05.21.018.068.077.128.09.2.02.07.047.138.06.206.014.074-.005.152.005.22.013.073.055.137.063.21.01.07-.05.15-.04.22.004.018.04.037.04.055.01.073.028.142.038.215.004.073.022.142.032.215l.013.214c.009.074-.023.147-.018.22.009.073 0 .146.005.215.004.073.032.146.036.215.005.073.023.146.028.215 0 .073-.01.146-.01.22.005.068.05.14.05.214s-.04.142-.04.215.013.147.013.215c0 .073-.018.147-.018.22-.005.068-.014.14-.018.215 0 .068.059.146.055.214 0 .074-.055.142-.06.216m-1.404-.61c.023-.058-.023-.136-.027-.2-.005-.07 0-.142-.005-.215-.004-.068-.027-.137-.032-.211-.004-.068-.014-.14-.018-.21-.005-.073 0-.141-.005-.214-.004-.07.019-.142.014-.216-.01-.068-.036-.141-.046-.21-.004-.068 0-.142-.004-.215-.01-.068-.045-.137-.055-.205-.005-.074.046-.151.04-.22-.008-.073-.054-.137-.062-.21-.01-.07-.051-.137-.06-.206-.01-.07 0-.142-.01-.215-.01-.07.015-.146.005-.215-.013-.068-.06-.132-.073-.206l-.041-.205c-.014-.07 0-.147-.018-.215-.014-.07-.042-.137-.06-.206-.013-.07-.055-.133-.073-.201-.018-.07.004-.147-.014-.215-.018-.07-.087-.124-.11-.192-.017-.065-.004-.147-.027-.215-.023-.064-.07-.124-.096-.192-.023-.065-.01-.147-.037-.215l-.082-.197a4 4 0 0 1-.091-.192c-.032-.063-.087-.12-.124-.183q-.046-.096-.091-.192c-.032-.064-.115-.1-.146-.164-.037-.065-.023-.151-.06-.215-.037-.06-.078-.12-.114-.18-.037-.058-.064-.126-.106-.186-.037-.065-.1-.11-.137-.165-.04-.06-.068-.132-.11-.187-.041-.06-.118-.092-.164-.147-.042-.06-.05-.141-.092-.201-.041-.055-.096-.105-.141-.16-.046-.055-.073-.123-.12-.178-.045-.055-.1-.105-.145-.16-.046-.051-.092-.11-.138-.165-.045-.051-.101-.101-.151-.151-.05-.055-.128-.078-.178-.128s-.06-.142-.11-.192-.11-.096-.16-.142c-.05-.05-.1-.105-.155-.151-.051-.05-.115-.087-.165-.137-.055-.045-.132-.068-.187-.114s-.114-.078-.174-.123c-.055-.046-.087-.12-.142-.16-.055-.042-.132-.056-.187-.096-.06-.042-.114-.087-.174-.13-.055-.035-.105-.085-.165-.127-.06-.036-.132-.054-.192-.091s-.11-.087-.174-.123c-.06-.033-.114-.078-.178-.11-.06-.037-.137-.035-.201-.068s-.082-.073-.178-.12a4 4 0 0 0-.192-.087c-.065-.027-.138-.037-.202-.064s-.123-.073-.188-.1c-.063-.023-.136-.037-.2-.06-.07-.023-.137-.033-.206-.055-.07-.022-.11-.11-.18-.132-.067-.018-.145 0-.213-.018-.07-.02-.142-.028-.206-.046-.07-.014-.137-.037-.206-.055-.068-.014-.137-.018-.206-.037l-.205-.041c-.074-.013-.138-.036-.206-.05-.073-.01-.133-.06-.206-.068-.07-.01-.141 0-.211-.01-.068-.01-.137-.027-.21-.036-.068-.005-.137-.027-.205-.037-.074-.005-.142-.014-.216-.018-.068-.005-.141.045-.21.045-.073-.005-.141.005-.215.005-.068 0-.137-.05-.205-.05-.074 0-.142-.005-.216-.005-.068 0-.142-.005-.21-.005s-.137.055-.21.06c-.07 0-.142-.027-.21-.023-.07.005-.142-.023-.215-.018-.07.009-.137.059-.206.068-.07.005-.138.037-.206.046s-.146-.036-.215-.023c-.073.01-.132.078-.201.088-.07.013-.146-.01-.215 0-.07.013-.137.036-.206.05-.068.013-.141.009-.21.026-.07.015-.133.042-.201.06-.07.014-.13.065-.197.083s-.155-.032-.224-.014c-.068.018-.127.059-.197.083-.068.018-.137.027-.205.05-.07.022-.124.073-.192.096-.064.023-.124.064-.192.087-.064.022-.137.027-.207.054-.063.028-.136.037-.2.06-.064.027-.128.068-.192.096s-.11.096-.174.123c-.064.032-.142.032-.206.064-.064.028-.137.04-.196.073-.065.032-.101.115-.16.147-.065.036-.16.004-.22.04-.064.033-.092.124-.156.16-.06.038-.145.028-.205.065s-.101.1-.16.142l-.178.11c-.06.04-.11.087-.17.128-.06.04-.11.086-.17.128-.054.04-.145.04-.2.082-.055.046-.12.078-.174.123-.055.04-.087.115-.142.16-.055.046-.082.124-.132.17-.055.045-.138.055-.188.105-.055.046-.123.073-.178.123-.05.046-.11.087-.16.137s-.077.12-.128.17-.068.128-.12.178c-.05.05-.091.106-.141.156-.046.054-.105.095-.151.15-.045.05-.11.087-.155.142-.047.055-.092.105-.137.16s-.078.119-.12.174c-.045.055-.114.09-.16.146-.041.055-.087.11-.127.169a2 2 0 0 0-.12.174c-.041.055-.068.123-.11.183-.04.06-.068.128-.104.192a5 5 0 0 0-.12.183c-.036.064-.086.119-.118.183-.037.064-.032.15-.064.215-.036.064-.114.11-.146.174s-.032.146-.064.21c-.032.069-.051.137-.078.206-.032.064-.087.123-.115.188-.027.068-.041.14-.064.21-.027.068-.041.14-.068.21a4 4 0 0 1-.073.206c-.023.068-.06.132-.083.2-.018.07-.064.134-.082.202-.023.073 0 .155-.018.225-.02.072-.051.136-.07.21l-.054.21c-.013.073-.077.132-.092.2-.017.074.024.157.01.23-.014.068-.014.146-.027.215-.014.073-.092.132-.106.205-.01.074.037.156.023.229-.01.073-.023.146-.031.22-.01.073-.051.14-.06.214s-.036.142-.046.215-.032.147-.036.22c-.01.073.05.155.04.228s-.036.147-.04.219c-.01.074-.042.147-.046.22a3 3 0 0 0-.018.219c-.01.074-.01.147-.014.22-.005.055-.028.138-.032.234a3 3 0 0 0-.01.228c-.004.074.005.15.005.229-.004.083.023.16.019.233 0 .087.032.165.027.233 0 .138-.128.15-.064.243.05.073.092-.014.192-.014.054 0 .11-.023.174-.027.073-.005.15.055.224.045.073-.004.137-.082.21-.091.073-.01.156.046.229.036s.1-.076.21-.091q.11-.015.22-.032c.073-.01.15.046.224.037.073-.01.14-.046.21-.055.073-.01.142-.046.21-.055.073-.01.147 0 .219-.01.074-.004.152.042.22.033.046-.005.11-.046.179-.06.09-.018.104.018.164-.05.064-.07.023-.07.028-.183 0-.055.023-.12.027-.188.005-.06 0-.128.005-.191.004-.065.027-.13.03-.197.006-.064.006-.133.01-.197.005-.068-.036-.137-.031-.201 0-.07-.014-.133-.01-.201.005-.064.056-.128.06-.197.005-.064 0-.132.005-.197.004-.073.013-.141.018-.21.005-.073.014-.141.018-.215.005-.068-.036-.142-.031-.215.008-.068.045-.136.05-.206.004-.073.022-.141.027-.21.009-.073.045-.137.055-.205.005-.074-.032-.147-.023-.22.009-.07.059-.133.069-.201.009-.073-.014-.147 0-.215.009-.073.027-.137.04-.21.015-.07.024-.138.037-.206.01-.073.04-.137.055-.206.014-.07.023-.141.037-.211.014-.068 0-.141.014-.21.018-.068.055-.132.073-.201.018-.07.064-.126.082-.196s-.014-.151.005-.22c.023-.07.077-.124.096-.192.022-.064.009-.146.032-.21.022-.07.045-.133.072-.202.024-.064.037-.137.06-.201.028-.068.087-.12.114-.183.028-.068.033-.141.06-.206.028-.064.1-.11.128-.174.032-.063.04-.136.069-.2.032-.064.082-.12.114-.183.027-.06.069-.11.105-.17.037-.06.036-.137.078-.192s.096-.1.142-.15c.045-.051.1-.092.15-.142.046-.046.078-.11.128-.156.05-.05.124-.073.174-.114.055-.046.087-.114.142-.156s.105-.086.16-.123c.059-.041.119-.073.179-.105.059-.037.113-.078.173-.11.064-.036.128-.078.193-.101q.102-.042.21-.064c.073-.018.15.036.224.032.073-.004.14-.013.21-.013.073.004.142.013.215.023.068.013.155-.037.224-.02.068.02.118.102.188.125.068.027.136.04.206.072.063.028.146.024.21.06.063.032.118.083.183.124.059.04.127.068.187.11q.082.07.165.146c.054.046.073.128.123.183.05.05.11.096.155.15.046.056.124.083.165.138.04.059.046.14.087.2.037.06.05.133.087.193.036.064.096.105.133.169.032.06.05.132.082.192.032.064.05.133.078.197.027.069.096.114.123.179.022.068.014.146.042.21.022.068.068.128.09.192l.07.2c.022.07.077.124.1.193.018.064.014.142.037.21.018.069.045.132.068.202.019.068-.01.145.009.215.024.068.056.137.074.21s.082.132.1.206c.018.072-.032.16-.014.232l.055.22c.014.055.018.119.032.179.014.059.046.119.069.178s.086.082.123.128c.023 0 .037-.05.073-.155.019-.06.073-.12.092-.188.022-.068.018-.146.032-.211.027-.09.027-.17.036-.2l.055-.21c.014-.074.014-.147.032-.22.019-.07.05-.138.069-.206.018-.073.082-.133.1-.201.019-.073-.028-.16-.01-.23.02-.068.07-.131.088-.201.019-.072.073-.132.092-.2.023-.07.022-.148.045-.216s.055-.132.078-.2c.023-.074-.01-.16.014-.23q.038-.102.077-.205c.028-.064.078-.123.11-.192.028-.064.05-.137.083-.202.03-.063.054-.136.09-.2.038-.06.083-.12.12-.183.037-.06.096-.11.137-.17s.096-.11.142-.17c.04-.054.05-.145.096-.2s.128-.078.178-.132.124-.083.178-.133c.05-.051.055-.151.11-.201.05-.042.132-.055.192-.092.055-.037.124-.055.188-.087.059-.032.11-.091.174-.118.064-.023.137-.014.205-.033q.1-.03.202-.05c.068-.013.132-.031.2-.041.069-.01.138-.027.206-.032.069 0 .138.014.206.018.074.005.137.023.206.037.069.009.133.032.197.05.068.023.137.023.2.05.065.033.142.037.202.069.06.037.128.069.183.109.059.042.123.079.178.12.055.046.069.137.123.183.05.05.12.078.17.128.046.05.114.087.16.142.046.05.05.14.096.196.04.055.087.105.128.165q.06.082.119.174c.036.059.11.096.146.16.032.059.04.136.078.196.033.064.04.137.073.196.032.065.115.106.142.17.032.064.032.142.059.206.028.064.014.146.042.21.027.064.05.133.072.197.024.063.097.114.12.183.023.064.043.092.077.197q.033.104.06.2c.023.069.05.138.068.202.019.068.023.142.042.21.018.069-.014.15 0 .219.018.069.082.124.1.192.014.069.005.147.023.215.014.069.06.128.078.198.014.068.054.13.068.2.014.069-.022.15-.004.215q.02.104.046.206c.004.032-.005.105.004.215.005.064.023.133.032.215.004.068.055.137.064.21.005.069-.018.147-.014.219.006.07-.01.147-.004.22.004.069-.001.142.004.215s.069.142.074.215-.014.146-.01.219c.005.074 0 .147.005.215.005.078.04.147.046.215.004.078-.028.156-.028.22.005.082.04.155.046.215a.7.7 0 0 1-.027.247c.068-.005.136-.055.206-.06l.21-.013c.068-.005.142.036.21.032.073-.005.14-.043.21-.047s.138-.036.206-.04c.073-.005.142.027.215.022.069-.004.142.014.21.01.074-.005.142-.064.22-.07.074-.004.146.015.224.01.074-.004.15.023.224.019.073-.005.146-.005.22-.01.077-.004.15-.032.223-.037.046-.004.124-.04.22-.04.073 0 .15.059.229.054.077 0 .15-.06.215-.073.096-.018.205-.014.228-.064m-5.405.358c0 .069.009.137.009.206v.21c-.004.069 0 .142-.004.21 0 .069-.014.137-.018.206l-.014.22c-.01.068.004.146 0 .215-.01.073-.05.14-.06.214s.014.147.005.22-.014.142-.027.215c-.01.073-.023.142-.032.215-.014.073-.023.146-.037.215-.01.073-.041.14-.06.21-.013.073-.013.146-.027.216-.014.072-.041.14-.06.21q-.023.105-.05.21c-.013.073-.018.146-.037.215q-.023.104-.05.21c-.018.073-.054.137-.073.206-.023.068-.023.146-.041.215q-.037.102-.073.205c-.018.069-.05.133-.074.206-.017.069-.017.142-.04.21-.02.074-.064.133-.083.202-.022.073-.004.15-.027.22-.018.072-.078.132-.096.2-.014.047 0 .1-.014.147-.013.038-.033.068-.053.1h-1.777a.4.4 0 0 0-.044-.055c-.05-.05-.13-.073-.17-.123-.041-.055-.06-.133-.096-.197-.032-.06-.068-.12-.1-.187-.023-.064-.055-.128-.078-.197-.023-.068-.036-.136-.056-.206-.017-.068-.026-.141-.04-.21-.013-.07-.013-.142-.023-.215a4 4 0 0 1-.037-.206c-.01-.073-.031-.141-.041-.21-.01-.073-.01-.142-.014-.215a5 5 0 0 1-.018-.211c-.004-.068-.023-.14-.027-.21-.005-.073-.005-.141-.005-.214-.004-.074.018-.142.018-.215s-.017-.142-.017-.215v-.216c0-.068-.01-.141-.01-.21q0-.108.009-.214c0-.074.009-.147.014-.215 0-.074.018-.142.023-.216 0-.068-.028-.141-.028-.21.005-.073.019-.146.019-.214v-.21c.004-.074.022-.146.022-.22s-.004-.147-.004-.22c.005-.068-.005-.14-.005-.214s.01-.147.01-.22-.01-.145-.01-.22.019-.146.019-.22c.004-.072.013-.146.017-.218q.002-.11.01-.22c.005-.07-.018-.147-.014-.22.005-.073-.012-.146-.008-.22s.036-.141.04-.214.023-.146.028-.22q.012-.104.018-.214c.009-.074.013-.147.023-.22.009-.074.013-.146.023-.214.014-.074.004-.152.014-.22.013-.073.022-.147.036-.22.014-.068.046-.137.06-.211.013-.06.009-.132.032-.21q.02-.096.05-.205c.018-.064.068-.124.087-.192.018-.07.05-.133.073-.202.018-.064.018-.141.04-.21.024-.064.065-.123.088-.192.027-.064.05-.133.077-.197.028-.064.039-.137.07-.201.03-.064.068-.127.1-.187.037-.064.078-.12.114-.178.04-.06.088-.115.128-.17.04-.06.087-.11.133-.16.06-.06.096-.132.16-.174.068-.045.15-.055.224-.073a.6.6 0 0 1 .228-.005c.07.014.147.023.22.06a1 1 0 0 1 .192.138l.055.04c.046.05.1.105.142.165.04.055.055.133.09.197.038.059.079.118.11.187.029.064.05.133.079.2.027.065.059.129.082.198q.035.102.074.206c.017.068.022.14.04.21.019.073.069.137.087.2.018.074 0 .157.018.22.019.069.05.133.064.202.019.064.028.133.046.2.014.07.014.143.028.21q.021.103.045.203c.014.068.055.132.069.2.014.069.032.138.04.207.014.068.01.136.024.206.009.073 0 .14.009.21.009.073.032.136.042.206.008.068.03.136.04.206l.028.21c.004.068-.018.14-.014.21.01.069.046.137.05.206s-.027.142-.022.21c.004.069.013.137.018.21 0 .069.014.137.018.207 0 .068-.023.14-.023.21zm-.658-.174c0-.073-.018-.146-.018-.214 0-.074.005-.147.005-.22-.005-.07-.005-.142-.01-.215 0-.073-.018-.142-.023-.215 0-.073-.005-.146-.005-.215-.004-.073.015-.145.01-.22-.005-.073-.023-.141-.032-.214q-.01-.112-.02-.215c-.003-.074-.021-.142-.031-.215a3 3 0 0 0-.018-.215c-.004-.073-.004-.142-.014-.215s-.004-.146-.013-.215c-.01-.073-.05-.141-.06-.211-.014-.068-.014-.141-.028-.21l-.04-.21c-.01-.055-.01-.128-.028-.21l-.05-.207c-.018-.063-.046-.132-.068-.2a4 4 0 0 0-.06-.206c-.023-.07-.064-.128-.092-.192-.031-.07-.05-.137-.081-.197-.042-.064-.08-.132-.12-.178a.6.6 0 0 0-.174-.137c-.064-.028-.141-.014-.214 0a.5.5 0 0 0-.197.082c-.014.009-.045.105-.115.192-.04.055-.11.1-.15.16-.06.083-.115.15-.128.174-.032.059-.046.133-.074.206q-.042.09-.077.2c-.023.065-.042.139-.06.207s-.027.14-.045.214c-.014.069-.06.133-.074.206-.013.069-.013.142-.027.216q-.023.1-.046.21c-.008.073-.008.146-.018.214-.013.074-.013.147-.023.22-.01.068-.036.137-.046.21-.01.074.015.147.005.22-.004.073-.05.142-.054.21-.01.073 0 .147-.01.22a3 3 0 0 1-.023.214c-.004.074-.027.147-.032.22l-.014.214c-.004.074.023.152.019.22-.005.074-.005.147-.01.22 0 .074-.018.146-.022.214-.005.074-.027.147-.032.22s.009.147.004.215c0 .078.014.15.014.219-.005.074 0 .147-.005.22 0 .073-.032.146-.032.215 0 .078.032.15.032.215.005.078-.032.15-.028.22 0 .064.01.132.01.206.005.068.018.137.018.21.005.068-.014.137-.014.21.005.069.005.137.01.21.004.069.023.137.027.207.005.068.014.136.019.21.009.068.023.138.027.206s.004.14.014.21c.009.068.013.137.023.21.009.069.04.133.05.206.009.068-.014.14-.005.21.014.073.05.098.073.2l.046.207.055.202c.018.072.04.136.064.2.023.069.027.142.05.202.032.068.073.123.106.183.036.064.059.128.1.178l.124.155q.066.072.15.124a.27.27 0 0 0 .174.05c.055 0 .119.014.197-.01.068-.017.123-.058.178-.09.06-.037.115-.07.16-.12.04-.05.092-.104.124-.164.027-.06.036-.128.055-.197.022-.064.064-.118.082-.187.014-.064-.01-.142.004-.206.014-.068.064-.123.078-.187.018-.073.005-.147.022-.22.015-.068.047-.132.06-.206.015-.068 0-.141.015-.215l.04-.21c.009-.068.046-.137.055-.206.014-.073.036-.141.046-.21.009-.073-.02-.146-.01-.22.01-.068.046-.137.056-.21l.027-.21c.004-.073.004-.146.014-.215.009-.073 0-.146.004-.22.005-.068.05-.137.055-.21.009-.068-.032-.146-.027-.22.004-.068.032-.141.036-.21.005-.073 0-.146.005-.215q.005-.112.005-.214c.004-.074.013-.147.013-.22l.019-.215c0-.07.018-.142.018-.215z"/>
  </symbol>
</svg>