<svg xmlns="http://www.w3.org/2000/svg" data-name="レイヤー_1" viewBox="0 0 190 48.494"><path d="M21.246 23.595c-.008-.045.026-.179-.036-.302-.037-.075-.05-.182-.1-.274-.043-.08-.28-.058-.33-.144-.046-.08-.084-.168-.133-.25-.05-.084-.112-.158-.161-.238-.053-.085-.114-.158-.163-.234-.057-.089.089-.305.041-.373-.088-.125-.266-.066-.293-.073-.137 0-.134.075-.27.078-.138.004-.144-.23-.28-.227-.138.004-.137.018-.274.021s-.136.037-.272.04c-.137.004-.132.197-.269.2-.137.005-.139-.066-.276-.063s-.137-.007-.275-.003c-.137.004-.14-.136-.277-.132-.137.003-.133.172-.27.175s-.14-.14-.278-.135c-.136.003-.133.092-.27.096-.135.004-.139-.125-.275-.122s-.13.239-.266.242c-.137.004-.144-.25-.281-.246s-.131.248-.268.252c-.137.003-.144-.238-.281-.235s-.134.111-.27.115c-.138.004-.138-.005-.275-.001-.138.004-.138-.003-.275.001-.138.004-.134.157-.27.16-.138.004-.14-.058-.277-.054-.138.004-.142-.136-.28-.132-.137.004-.135.081-.273.085-.137.004-.138-.013-.275-.009s-.137.015-.274.018c-.138.004-.141-.118-.28-.114-.138.004-.134.119-.273.123-.138.003-.14-.057-.278-.053s-.138.108-.277.1c-.136-.008-.12-.141-.255-.16s-.165.191-.3.172-.116-.153-.252-.173-.126-.085-.262-.104c-.137-.02-.156.115-.292.096s-.13-.055-.268-.07c-.103-.004-.205-.018-.306.002-.1.019-.225-.043-.324-.016-.1.027-.181.102-.281.121s-.189-.027-.292-.03c-.094-.002-.19.063-.284.06s-.187-.031-.282-.034-.19.083-.285.08-.186-.077-.28-.08-.19.016-.284.012c-.094-.003-.192.085-.286.081-.095-.004-.183-.17-.278-.173-.094-.004-.196.157-.29.153-.095-.004-.185-.143-.28-.147s-.189-.027-.283-.032c-.096-.004-.195.091-.29.087s-.193.072-.288.068-.187-.067-.282-.071l-.285-.01c-.142-.005-.184-.119-.279-.123s-.186-.054-.28-.058c-.093-.005-.19.054-.283.05-.094-.003-.186-.066-.278-.07-.094-.003-.195.183-.287.18-.094-.005-.19.007-.282.003-.094-.005-.175-.236-.267-.242-.094-.005-.2.175-.291.167-.094-.007-.193.028-.285.018-.093-.01-.173-.13-.264-.144a5 5 0 0 1-.275-.048c-.093-.019-.172-.078-.26-.103-.092-.025-.236.11-.322.078-.089-.033-.133-.18-.216-.221-.084-.041-.156-.1-.234-.15-.078-.051-.193-.056-.264-.117-.07-.06-.104-.162-.166-.233-.06-.068-.11-.146-.163-.225-.05-.076-.023-.191-.065-.277-.04-.08-.174-.12-.208-.21-.031-.085.011-.194-.015-.288-.023-.086.04-.188.02-.283-.017-.088-.215-.148-.228-.244-.011-.09.05-.19.043-.287-.007-.095-.111-.182-.117-.273-.006-.095-.02-.189-.024-.28-.004-.095.1-.192.098-.282-.002-.095-.111-.188-.111-.278 0-.095.2-.184.203-.274.003-.095-.105-.19-.1-.28.006-.096.09-.18.098-.27.009-.095.014-.185.026-.275.012-.094.089-.172.104-.26.017-.094-.092-.207-.072-.296.02-.092.047-.18.071-.268.025-.091.029-.187.057-.273.03-.09-.001-.2.031-.285.033-.088.046-.187.083-.27.037-.086.189-.12.228-.203s.106-.153.149-.235.06-.175.105-.256c.045-.08-.046-.237 0-.318.045-.08.283-.05.33-.13.045-.079-.099-.268-.052-.35.045-.078.149-.124.195-.206.044-.08.248-.073.292-.155.043-.08-.06-.239-.017-.322.042-.08.125-.141.166-.226.04-.08.174-.12.213-.206.038-.082-.124-.255-.087-.342.036-.083.235-.099.27-.187.034-.084-.033-.21 0-.298.033-.085.025-.185.056-.274s.254-.115.28-.201c.028-.091-.119-.229-.097-.316.024-.093.023-.184.04-.273.019-.093.15-.163.162-.253.013-.094.068-.184.075-.274.008-.095-.091-.193-.09-.284 0-.094-.06-.182-.064-.272-.006-.094.152-.201.14-.292-.011-.092-.093-.176-.11-.266-.018-.092.052-.206.03-.295-.023-.09-.155-.151-.182-.24-.027-.088-.16-.138-.191-.225s.158-.256.124-.343c-.034-.085-.225-.108-.26-.194-.036-.084.063-.225.027-.31s-.096-.158-.133-.243c-.035-.084-.147-.136-.182-.222-.035-.084-.113-.152-.147-.239-.034-.085-.12-.153-.152-.241-.03-.086.072-.22.043-.31-.028-.087-.045-.178-.07-.268-.026-.088-.044-.177-.066-.268-.022-.09-.094-.168-.112-.26a5 5 0 0 1-.043-.276c-.007-.046.032-.15.019-.28-.008-.081-.048-.171-.058-.273-.008-.087-.08-.174-.089-.27-.008-.09.149-.197.141-.29s-.265-.167-.272-.258c-.008-.096.112-.2.106-.287-.007-.102.088-.202.084-.283-.009-.15.017-.218.022-.24.022-.102-.178-.269-.14-.344.044-.092.275-.04.337-.099.07-.066.04-.282.125-.316s.213.045.307.035q.135-.014.277-.005c.091.005.169.121.26.135.094.014.192-.021.282-.005.095.018.198-.027.284-.013.101.016.194 0 .275 0 .092.002.184.063.276.064s.185-.032.277-.031c.093 0 .184.07.277.071.092.001.185-.055.277-.054s.186-.11.278-.11c.093.001.185.047.277.048h.277c.092.001.184.053.277.054.092 0 .185-.05.277-.05s.185-.043.277-.042.184.195.276.195.185-.133.277-.133.185-.028.277-.027c.093 0 .185-.012.277-.011.093 0 .184.2.277.201.092 0 .184.007.277.007.092 0 .185-.166.277-.166s.184.105.277.105c.092 0 .184.038.277.038.092 0 .185-.097.277-.097s.184.143.277.143c.092 0 .185-.054.277-.054s.185-.034.277-.034.185-.117.277-.117.185.156.277.156.185-.132.277-.132.185.025.277.025.185.026.277.026.185-.008.277-.008.185.135.278.135c.092 0 .184-.052.277-.052.092 0 .184-.182.276-.182s.185-.039.277-.039.185.122.278.121c.092 0 .185.01.277.01s.184-.107.277-.107c.092 0 .185.13.277.129.093 0 .185-.129.277-.129s.185.112.278.112c.092 0 .184-.046.277-.046.092 0 .185.105.277.104.093 0 .184-.199.277-.2.092 0 .185.168.278.168.092 0 .184-.058.277-.058.092 0 .184-.057.277-.057.092 0 .185.076.277.075.093 0 .185-.13.277-.13s.186.223.278.222c.093 0 .185-.017.278-.017.092 0 .184-.148.277-.148.092 0 .185.114.277.114s.185-.15.277-.15.186.195.278.195.185-.152.277-.152.185.019.277.018c.093 0 .185-.017.278-.018.092 0 .185.195.278.195.092 0 .184-.121.277-.121.092 0 .185.072.277.071.093 0 .185-.084.278-.084.092 0 .184-.052.277-.052.092 0 .185.074.277.074s.185-.152.278-.152c.092 0 .185.01.277.01s.185.095.278.095c.092 0 .185-.118.277-.118s.185.26.278.26c.092 0 .185-.212.277-.212s.185-.004.278-.004h.277c.093 0 .185.179.277.18.093 0 .185-.066.278-.066.092 0 .185-.1.277-.1s.186-.056.278-.056.185.139.277.14c.092 0 .184.12.277.12.092 0 .186-.215.278-.215s.185.01.278.01c.092 0 .184.197.276.198.093 0 .185-.052.278-.052.092.001.185-.094.278-.094.092.001.184.034.277.035.092 0 .185-.004.277-.003.093 0 .186-.066.278-.066.093.001.185.019.277.02.093 0 .184.131.277.132.092.001.185-.064.277-.063s.187-.105.279-.104.184.107.276.108.185-.032.278-.03c.092 0 .186-.075.278-.074s.182.188.275.19c.092 0 .187-.144.28-.143.092.001.183.062.276.064.092 0 .182.147.275.149.092.001.186-.117.279-.116.092.002.185-.038.278-.036.092.001.184.05.276.051.093.002.185.028.277.03s.184.048.276.05c.093.001.19-.213.282-.211s.182.148.274.15.183.098.275.1.187-.08.279-.077c.092.002.186-.05.278-.049s.187-.082.28-.08.179.216.271.219.188-.1.28-.097.186-.056.279-.053.183.03.276.033.187-.084.28-.081.176.256.268.26.186-.052.278-.05c.082.003.175.012.271.009.085-.003.167-.144.26-.15.087-.006.183.088.275.08.087-.006.17-.088.261-.095.088-.007.19.165.28.16s.167-.248.256-.251c.09-.004.185.171.274.17.092 0 .18-.033.268-.03.092.004.191-.107.279-.098.092.01.165.138.25.155.092.019.217-.082.298-.053.088.032.096.222.17.268a.7.7 0 0 1 .181.16c.055.064.084.12.123.212.034.077.025.158.048.252.02.084.113.151.126.246.012.087.09.17.097.264.006.088.093.179.095.273.002.089-.154.182-.155.275-.001.09.167.187.163.28-.004.09-.203.17-.209.262-.006.09-.077.175-.084.266q-.01.135-.023.271c-.008.092.194.203.185.294s.013.187.003.277c-.01.092.002.186-.009.276-.01.092-.07.177-.08.267-.01.092-.081.176-.092.265-.01.094-.012.186-.022.273-.011.095-.009.187-.018.274-.01.097-.189.174-.195.258-.007.1.059.2.057.28-.002.093.121.185.123.276.002.093.062.18.067.271.005.093-.197.2-.189.29.008.093.024.186.035.278s.188.16.202.252c.013.091-.114.204-.1.295.016.09.113.168.13.258.016.09.14.16.157.25.018.09-.072.203-.054.293.02.09-.08.205-.061.295s.205.145.224.235.02.184.04.274q.055.271.106.544c.017.09-.11.205-.095.296.015.09.199.156.211.247.013.091-.098.199-.087.29.01.092-.019.185-.011.277.007.092-.048.184-.043.276.004.092.057.178.058.27 0 .092.062.182.06.275-.003.091-.065.178-.071.27-.007.092.084.191.073.283-.01.091-.132.165-.147.257-.014.09-.01.181-.03.272-.018.09.068.203.045.294-.022.088-.183.137-.21.226-.025.087.104.223.075.31s-.005.195-.037.281c-.031.086-.119.153-.153.239-.034.084-.092.16-.128.245l-.113.251c-.038.083.015.21-.024.293s-.268.075-.308.158c-.04.082-.087.16-.128.243s.111.262.07.344c-.042.082-.268.07-.31.152s.08.247.038.329-.104.153-.146.235-.113.149-.154.23c-.041.083-.012.199-.052.281l-.115.248c-.039.084-.323.054-.36.137-.038.083-.01.198-.046.281-.036.085-.097.162-.13.246-.034.086.008.2-.023.286s-.122.154-.15.24.105.218.082.308c-.023.087-.055.17-.074.26-.018.088-.005.18-.02.27s-.172.157-.183.25c-.012.088-.018.18-.027.273-.009.089.1.189.094.281-.007.09-.084.176-.088.268-.004.09-.072.18-.075.272-.002.09.018.182.018.275q-.003.135-.003.274c0 .09.114.18.116.272.002.09-.191.188-.188.28.003.09.19.175.195.267.004.09-.075.186-.07.278.005.09-.049.187-.042.278.006.09-.005.183.003.274.007.09.226.164.233.255.008.09-.218.202-.21.293s.167.167.176.258c.009.09.05.177.06.268.01.09.03.18.04.271.011.09-.08.193-.069.284s-.02.187-.01.278c.012.09.105.17.117.262.011.09.002.184.014.274s.156.164.169.255c.012.09-.081.195-.069.286.013.09.11.17.123.26.013.091-.167.21-.153.3.013.092.058.178.071.27.013.09.165.16.179.252.013.09-.062.195-.048.286s.162.162.175.253c.014.091.044.18.058.27.014.092-.128.207-.114.298s.158.162.172.253c.014.092-.1.202-.087.293.014.092.141.166.155.256.014.092-.113.205-.099.295l.039.274c.014.092.16.163.174.254s.048.18.062.27-.183.213-.17.304.178.16.191.25c.013.092-.008.188.005.279.012.091.05.179.063.269s.055.179.067.269.04.18.051.27c.012.092-.022.188-.011.278.01.093-.095.198-.085.288.01.093.005.185.014.275.01.092.108.174.117.264.008.092.053.18.06.269.008.093-.134.195-.128.284.006.092.104.176.108.265.005.092-.02.183-.016.271.002.088-.07.175-.072.267 0 .088.16.182.156.274-.004.087-.036.176-.042.266-.007.089-.157.165-.166.255-.008.089.221.203.211.293-.01.088-.17.16-.18.25-.011.089.029.185.017.274-.011.09-.158.162-.17.251-.011.09.115.198.103.288s-.064.175-.075.264c-.012.09.001.183-.01.273s.02.184.011.273q-.013.135-.023.269c-.009.091.012.183.006.272-.007.091-.075.176-.078.264-.004.091.042.18.043.268 0 .085-.005.175 0 .274.004.087-.017.18-.01.277.006.089-.029.184-.02.28.008.09.01.182.02.277.009.09.013.183.023.278.009.09.132.17.142.265.009.09-.05.189-.041.282.01.091.092.176.102.269.009.091-.171.202-.162.295.008.092.243.163.251.256.009.092-.217.205-.21.297.008.093.193.17.2.264.007.092-.18.199-.174.292s.238.173.243.266-.176.196-.173.289c.004.094.157.182.16.275.002.095-.164.19-.163.283 0 .094.102.188.1.28-.001.095.081.192.077.284-.004.095-.033.19-.04.28-.008.095-.108.18-.118.27-.012.094.001.189-.014.278-.015.094-.104.169-.124.257-.022.093-.062.172-.089.258-.029.091.116.244.08.326-.038.088-.16.137-.207.213-.05.082-.059.2-.119.266-.063.07-.112.19-.187.242-.07.048-.217.009-.31.05-.082.037-.195.01-.287.043-.086.032-.155.121-.245.153-.088.032-.194.02-.28.054-.09.034-.116.209-.199.247-.09.041-.236-.063-.31-.015-.092-.003-.176.024-.269.021-.092-.003-.181-.11-.274-.114-.092-.003-.191.164-.284.16l-.278-.005c-.092-.004-.18-.138-.272-.142s-.184-.028-.277-.032c-.092-.004-.187.04-.28.036-.092-.004-.19.109-.283.104-.092-.004-.181-.084-.274-.088-.092-.005-.177-.155-.27-.16s-.194.163-.287.158-.187.04-.28.035-.183-.046-.276-.05c-.092-.006-.176-.163-.269-.169-.092-.005-.182-.047-.275-.052-.092-.005-.2.252-.293.246-.092-.005-.17-.252-.263-.258-.092-.006-.191.09-.284.085-.092-.006-.19.062-.282.056s-.178-.122-.27-.128-.193.107-.285.101l-.278-.016c-.092-.006-.184-.024-.277-.03-.092-.006-.172-.207-.264-.213s-.2.225-.293.219-.18-.08-.273-.086-.175-.174-.268-.18c-.092-.006-.185-.002-.278-.008-.092-.006-.19.083-.283.077s-.183-.047-.276-.053c-.092-.006-.187.024-.28.018-.092-.006-.184-.028-.276-.034s-.181-.077-.274-.083c-.092-.005-.184-.033-.276-.039s-.19.069-.283.063c-.092-.005-.196.169-.288.163-.093-.005-.172-.237-.264-.243-.093-.005-.198.202-.29.196-.093-.005-.175-.201-.267-.206s-.19.074-.283.069-.187.028-.28.023c-.092-.005-.179-.121-.271-.126s-.187.018-.28.013c-.092-.004-.19.098-.283.093-.092-.004-.184-.033-.276-.037s-.187.043-.28.039l-.277-.015c-.093-.003-.184-.049-.276-.052-.093-.004-.18-.141-.274-.144s-.185-.015-.277-.018-.187.024-.28.02-.184-.034-.276-.036-.189.114-.281.111c-.093-.002-.186.037-.278.035s-.185.032-.278.03c-.092 0-.184-.065-.276-.066s-.185-.036-.278-.036c-.092 0-.185.068-.277.068s-.185-.199-.278-.198c-.093 0-.186-.01-.278-.01-.093.001-.185.142-.277.143-.093 0-.187-.123-.28-.122-.092.001-.183.133-.275.134s-.184.052-.277.054c-.092.001-.188-.16-.28-.158s-.181.195-.274.197c-.092.002-.19-.167-.282-.164-.092.002-.181.126-.274.128-.092.003-.182.084-.275.087-.092.002-.186-.02-.278-.016-.093.003-.19-.15-.283-.146-.092.003-.187-.062-.28-.058-.092.003-.178.2-.27.203s-.183.055-.276.059c-.092.003-.19-.115-.282-.111-.092.003-.188-.092-.28-.089s-.183.078-.276.081c-.092.004-.188-.072-.28-.069-.093.004-.18.136-.273.14-.092.003-.185-.01-.278-.006-.092.003-.19-.123-.282-.12-.093.004-.183.067-.275.07s-.18.147-.273.15c-.092.004-.192-.188-.284-.185-.093.004-.178.217-.27.22s-.184.05-.277.053c-.092.003-.186-.029-.279-.026-.092.002-.188-.104-.28-.102s-.185.017-.277.02-.188-.121-.28-.12l-.278.013c-.092.001-.18.263-.273.264-.092.002-.185-.008-.278-.007-.092.002-.187-.133-.279-.132s-.185.065-.277.066c-.093 0-.185.055-.278.055-.092 0-.185-.13-.277-.13s-.186.036-.278.036-.185.038-.278.037c-.092-.001-.185-.038-.277-.039s-.187.085-.28.083-.184-.048-.276-.05-.187.048-.28.045-.18-.16-.272-.164c-.073-.002-.17.168-.276.164-.082-.003-.171-.077-.27-.082-.085-.003-.173-.078-.268-.082-.087-.004-.186.139-.28.134-.088-.005-.173-.121-.266-.126-.088-.005-.185.089-.278.083-.089-.005-.178-.043-.27-.049-.09-.006-.17-.15-.26-.157-.091-.006-.183.012-.274.005l-.272-.024c-.091-.008-.174-.108-.264-.116-.092-.009-.195.113-.285.104-.092-.01-.193.071-.282.061-.093-.01-.156-.236-.244-.247-.093-.012-.213.18-.3.168-.094-.015-.17-.126-.254-.142a6 6 0 0 1-.266-.056c-.1-.023-.175-.082-.25-.108-.113-.04-.25-.03-.29-.075-.025-.088.023-.2.013-.288-.01-.09.034-.175.037-.264.004-.09.074-.16.089-.248.015-.087-.213-.231-.188-.318.024-.085.2-.125.232-.21.032-.083-.055-.219-.017-.301.037-.081.126-.142.167-.222.04-.08.153-.123.196-.202.042-.079.129-.134.172-.212.043-.08-.064-.24-.022-.318.043-.08.228-.084.268-.163.041-.081.068-.171.103-.252.037-.083-.03-.207-.002-.29l.095-.263c.031-.09.005-.198.034-.285.03-.091.256-.116.284-.204.029-.091.047-.185.074-.272.027-.092-.076-.22-.05-.307.026-.092.093-.17.116-.257.024-.093.127-.164.148-.252.022-.094.004-.195.023-.284q.031-.141.056-.275c.017-.095-.116-.21-.103-.3.014-.095.122-.172.132-.262.01-.096.154-.18.16-.27.006-.095-.245-.197-.243-.289 0-.094.035-.182.032-.273-.004-.094.212-.202.204-.294-.009-.093-.055-.186-.067-.278s-.097-.174-.114-.266c-.017-.09.017-.193-.003-.285-.019-.089-.214-.138-.236-.23-.022-.088.081-.21.057-.3-.023-.089-.075-.17-.1-.262-.024-.088.02-.197-.005-.289-.025-.087-.037-.18-.063-.272-.024-.087-.248-.12-.273-.212-.024-.088.083-.214.058-.305-.024-.088.047-.203.022-.295-.023-.087-.07-.17-.095-.262-.022-.088-.187-.143-.21-.235-.022-.088.115-.217.093-.31-.02-.089-.277-.125-.298-.218-.02-.09.123-.218.103-.311-.02-.088-.052-.174-.071-.264-.019-.089.033-.192.014-.283-.018-.088 0-.184-.018-.274s-.183-.15-.2-.241c-.016-.09.109-.204.093-.295-.015-.09-.13-.163-.145-.253s-.09-.173-.102-.263-.095-.175-.105-.266.007-.188-.001-.279.008-.187.002-.278.127-.19.125-.28c-.003-.093-.115-.182-.114-.274 0-.092.056-.183.06-.274s-.041-.187-.033-.278.006-.186.018-.277.164-.158.181-.248-.139-.218-.117-.307c.022-.09.258-.117.286-.204s-.031-.2.002-.284c.033-.086-.052-.225-.012-.307.039-.083.13-.145.175-.225.045-.079.171-.108.223-.184.05-.075.067-.174.125-.247.057-.07.2-.062.263-.13.062-.066.05-.178.118-.241.136-.029.136.078.274.073.139-.004.139.004.277 0 .138-.005.136-.051.274-.056.137-.004.132-.176.27-.18.137-.005.139.056.276.052.138-.004.14.042.277.038.138-.005.135-.129.273-.133s.145.22.283.215.132-.198.27-.203c.14-.004.145.171.283.167.139-.004.139-.001.278-.006.138-.004.133-.165.271-.17.139-.004.142.118.28.114s.139 0 .277-.004.14.062.278.057.137-.046.275-.05.134-.113.272-.117.139.031.277.027.14.067.278.063.136-.056.274-.06c.138-.005.14.092.278.087.138-.004.138-.013.276-.018s.13-.235.269-.24c.138-.003.145.218.283.214.139-.005.138-.034.276-.039.139-.004.14.05.279.045.139-.004.138-.03.277-.034s.134-.144.273-.148.136-.079.275-.083c.138-.005.145.216.284.211.138-.004.138.002.277-.002.138-.005.132-.193.27-.197.139-.005.138-.022.277-.026.138-.005.143.14.28.136.14-.005.133-.197.272-.201.138-.005.146.245.285.24.139-.004.133-.195.272-.2.139-.004.145.196.284.192s.136-.099.275-.103c.138-.004.139 0 .277-.004.139-.004.134-.165.272-.17.14-.004.141.069.28.065s.14.05.28.045c.138-.004.134-.124.273-.129.14-.004.146.208.285.204.14-.005.14.014.279.01.138-.004.136-.086.275-.09s.142.091.28.087.131-.238.269-.243c.138-.004.138-.012.276-.016s.144.171.282.167c.139-.005.14.04.28.036.139-.005.132-.205.272-.21.138-.004.143.129.282.125s.136-.08.275-.085c.138-.004.137-.037.276-.042.14-.004.139-.034.279-.039.139-.004.14.014.279.01.139-.005.142.095.281.091s.141.029.28.025c.14-.005.136-.152.275-.156.14-.004.145.17.284.166.14-.004.138-.044.277-.048.14-.005.142.04.281.035s.137-.125.277-.13c.14-.004.138-.066.279-.07s.183.225.315.176c-.012-.09-.049-.268-.055-.363a7 7 0 0 1-.013-.282c-.003-.092.116-.186.117-.281 0-.092-.015-.184-.012-.278.003-.093.015-.185.019-.28.004-.092.02-.184.025-.278.005-.093-.098-.193-.092-.288s-.013-.19-.007-.284c.005-.095.15-.181.156-.275.005-.095-.115-.197-.11-.291.005-.095-.07-.193-.066-.286.003-.096.055-.188.056-.281.001-.095.127-.19.126-.283-.002-.096-.165-.185-.17-.277-.006-.096.063-.194.053-.286-.01-.095-.035-.187-.05-.277m37.4 4.052c.099.032.273-.042.352-.03.107.018.201.14.278.131a.8.8 0 0 0 .303-.09c.08-.055.092-.2.146-.268.061-.076.13-.111.204-.152.08-.045.132-.14.21-.183.08-.045.187-.039.265-.082.08-.046.154-.098.231-.142.08-.046.144-.114.22-.159.08-.046.216.003.291-.043.078-.048.144-.117.219-.165.077-.05.134-.132.207-.183.075-.051.048-.245.12-.298.073-.053.212-.017.282-.072.07-.056.051-.217.12-.276.067-.058.143-.1.21-.162.064-.061.12-.126.182-.191.062-.064.1-.144.16-.212.058-.066.282.008.34-.063.056-.068-.008-.232.047-.305.053-.07.124-.128.176-.203.05-.072.251-.046.302-.123.048-.074.086-.16.134-.24.046-.075.02-.198.067-.277.045-.078-.005-.204.034-.284.04-.08.209-.101.243-.183.035-.083.073-.167.104-.25.031-.084-.06-.213-.03-.296.029-.086.02-.183.048-.266.03-.086.268-.096.298-.178.03-.085-.039-.204-.005-.284.034-.084 0-.198.038-.276.04-.081.064-.178.11-.252.049-.075.216-.062.273-.129s.03-.223.099-.28c.067-.053.118-.169.198-.212.075-.04.246.125.335.096.08-.026.15-.07.242-.086.085-.015.162-.11.259-.124.087-.011.166-.14.261-.15.089-.009.193.1.288.092.089-.008.184.027.278.02.09-.005.173-.158.267-.163.09-.004.187.089.28.085.09-.004.185.068.278.065.09-.003.179-.16.272-.163.09-.002.185.091.278.09.09-.002.184.12.277.119.09-.001.181-.183.274-.183.091 0 .183.17.276.17.09 0 .183-.194.275-.194.09.001.18.186.272.187.09.001.182.028.274.03.09 0 .185-.16.277-.16.091.003.184-.015.276-.013.091.002.183.02.275.022.091.003.185-.05.277-.047.091.003.18.123.271.127.092.003.18.09.273.093.091.003.182.045.274.049.092.003.193-.21.285-.206.093.004.185.018.277.023.092.004.186-.007.278-.003s.186-.003.278.001c.093.005.173.251.265.256s.196-.187.288-.182c.093.005.19-.06.282-.055.093.005.172.245.264.25s.186-.002.278.004.188-.021.28-.015.198-.181.29-.175c.093.006.18.084.272.09s.184.024.276.03c.093.007.174.154.265.16.093.007.198-.154.288-.147.093.007.174.158.264.165.093.007.191-.074.28-.067.094.008.175.145.264.152.094.008.206-.218.295-.21.094.009.162.27.25.279.095.008.21-.226.298-.218.095.01.161.26.248.269.095.01.197-.087.283-.077.08.009.18.029.292.043.09.01.188.03.29.043.096.013.217-.124.315-.109.1.016.19.094.284.111.104.02.173.176.261.197.115.028.23-.018.298.012.045.02.107.093.195.178.056.055.125.112.19.183.057.063.023.21.082.279.058.067.203.062.258.13.058.073.064.18.115.248.058.078.186.098.229.163.073.11-.002.205-.004.243-.001.054.136.196.073.277-.046.059-.206.043-.248.114-.041.07-.142.146-.15.225-.01.09.127.192.137.293.009.092-.008.189.011.287.018.092.013.192.035.288.022.092-.046.207-.023.303.021.093.092.174.11.27.02.094-.02.195-.006.291s.091.179.098.275c.006.097-.018.188-.022.285s.074.199.057.294c-.017.092-.105.167-.124.256-.02.09-.019.184-.042.272-.023.09.04.203.015.29-.027.089-.21.126-.239.212-.03.087.093.229.06.313-.033.086-.193.12-.23.202-.036.085-.09.157-.13.239s.008.207-.035.288-.018.202-.064.28c-.046.08-.145.129-.193.205a7 7 0 0 1-.15.232c-.051.075-.194.084-.249.157s-.144.115-.2.186c-.058.072-.065.18-.124.25-.06.069-.163.096-.224.164-.061.067.015.262-.048.328s-.118.143-.183.207-.288-.036-.354.026c-.066.063-.006.261-.074.322s-.107.156-.176.216-.21.036-.28.095l-.21.174c-.07.058-.166.083-.238.14-.071.056-.037.248-.11.304-.072.055-.217.016-.29.071s-.155.097-.228.151c-.073.055-.107.161-.181.215-.073.054-.175.07-.249.123-.073.054-.151.101-.225.155s-.195.041-.269.095-.085.194-.158.248c-.074.053-.191.048-.265.102s-.198.04-.271.095c-.073.054-.035.258-.108.313s-.19.052-.262.108c-.073.055-.085.189-.157.245s-.137.12-.208.177-.21.031-.28.09-.07.2-.14.259c-.069.06-.268-.03-.336.03s-.062.206-.129.268-.186.07-.252.133-.128.132-.192.197-.176.088-.238.155c-.063.066-.03.222-.091.29s-.125.134-.184.204c-.06.072-.1.158-.159.228-.06.072-.066.185-.123.256-.058.073-.095.16-.151.231-.058.074-.212.07-.267.142-.057.074-.134.131-.189.204-.056.074-.087.166-.141.239-.055.075.018.24-.035.314s-.287.022-.339.097.075.276.024.35c-.052.077-.16.114-.21.189-.052.078-.255.054-.305.13-.052.078.036.246-.014.323-.051.078-.141.129-.19.205-.052.078-.189.099-.238.175-.05.078.084.275.034.35-.05.078-.25.058-.3.134-.05.078-.01.213-.06.29s-.067.176-.118.251-.272.036-.323.111c-.053.075.041.252-.012.326s-.09.162-.144.235c-.055.074-.204.076-.26.148-.055.072-.146.115-.204.186s-.036.206-.095.276c-.06.069-.076.177-.138.245-.06.067-.245.021-.308.088-.062.065-.077.177-.142.242-.064.063-.193.058-.26.122-.065.061-.057.203-.126.264-.067.06-.065.204-.135.264-.068.058-.29-.068-.36-.01-.07.056-.037.244-.11.3-.072.054-.231-.01-.306.045-.073.053-.13.126-.206.179-.074.051-.103.17-.18.221-.075.05-.127.14-.205.19-.076.047-.125.144-.204.192-.077.047-.229-.028-.309.02-.077.045-.16.08-.241.125-.079.045-.16.084-.242.128-.08.043-.135.133-.217.177l-.245.121c-.08.041-.185.037-.269.078-.081.04-.15.109-.234.15-.083.04-.139.137-.223.176s-.235-.074-.32-.037c-.084.037-.068.304-.154.34-.084.037-.22-.045-.305-.01s-.209-.026-.295.008-.18.037-.267.07c-.086.033-.085.296-.172.328-.086.031-.248-.145-.335-.114-.086.03-.106.254-.193.284s-.208-.041-.296-.012l-.263.087c-.087.028-.207-.046-.295-.019-.088.028-.16.104-.249.131-.088.027-.158.114-.247.14-.088.026-.169.08-.258.105-.088.025-.194-.008-.283.017s-.169.083-.258.107-.196-.019-.285.005c-.09.024-.165.102-.254.125-.09.023-.151.155-.24.178-.09.023-.191.001-.281.023l-.27.068c-.089.022-.191-.007-.281.015s-.168.092-.259.113c-.09.02-.17.085-.26.106s-.224-.15-.314-.13c-.09.021-.152.172-.243.192-.09.02-.175.068-.265.088s-.18.05-.27.07-.223-.158-.313-.139c-.091.019-.183.032-.274.051s-.149.201-.24.22c-.09.018-.203-.065-.294-.047s-.19 0-.28.018c-.092.018-.164.132-.255.15-.091.019-.21-.103-.301-.085s-.172.089-.263.107c-.091.017-.176.07-.267.087-.091.018-.16.15-.251.168s-.212-.118-.303-.1c-.092.017-.157.165-.248.183s-.187.01-.278.027-.187.01-.278.028c-.09.018-.18.043-.27.061s-.208-.098-.299-.08-.172.087-.263.105-.146.215-.237.233c-.09.018-.173.074-.263.092s-.205-.083-.294-.065c-.091.019-.183.028-.273.047s-.157.14-.245.16c-.09.019-.206-.09-.296-.073s-.156.161-.246.178-.2-.08-.29-.064c-.09.015-.173.074-.263.087-.09.014-.195-.078-.286-.066s-.157.221-.247.232c-.09.01-.2-.147-.29-.139-.091.01-.177.075-.267.082s-.18.07-.27.076-.187-.067-.277-.063c-.092.004-.18.137-.27.139-.092.002-.186-.22-.277-.22-.09 0-.18.015-.271.014-.091-.002-.186.143-.277.139-.09-.004-.176-.123-.267-.128s-.193.136-.284.129-.163-.211-.253-.22-.198.13-.288.119-.179-.043-.269-.057c-.09-.013-.183-.01-.273-.026-.09-.015-.143-.224-.233-.241-.089-.018-.2.083-.29.064-.088-.02-.16-.11-.249-.132-.088-.021-.195.039-.283.016s-.19.002-.277-.023-.154-.123-.24-.15c-.088-.026-.222.09-.308.061s-.171-.068-.257-.099c-.086-.03-.14-.15-.226-.183-.085-.032-.214.044-.3.01-.087-.035-.021-.299-.082-.36-.062-.062-.28-.01-.318-.095a1.3 1.3 0 0 1-.09-.27 2 2 0 0 1-.036-.277c-.005-.085.174-.177.176-.27.003-.085-.057-.175-.05-.265.008-.087-.082-.188-.07-.278.01-.088-.033-.187-.019-.275s.165-.156.18-.244c.015-.089.149-.156.164-.243.015-.09-.182-.214-.167-.3.015-.09.037-.176.05-.26.013-.093.22-.158.228-.24.009-.096-.038-.196-.039-.276 0-.089-.1-.175-.106-.266-.005-.088.019-.18.01-.27-.01-.088-.026-.177-.038-.266-.012-.088-.092-.166-.105-.255-.013-.088-.01-.18-.022-.268-.013-.088.103-.195.091-.285-.012-.088-.088-.169-.098-.258s-.125-.17-.132-.26c-.007-.089.093-.187.09-.277s-.039-.18-.037-.27c0-.09-.073-.187-.07-.28.005-.091.196-.173.203-.266.006-.09-.133-.194-.125-.287.008-.09.076-.176.086-.267.01-.09.164-.165.174-.257.01-.09-.098-.196-.087-.287s-.018-.187-.006-.279c.012-.09.07-.176.083-.268s.049-.18.061-.272c.013-.092.07-.178.082-.27s-.19-.213-.178-.305.167-.166.178-.257c.012-.093.117-.175.127-.266.011-.093-.061-.195-.052-.287s-.036-.19-.028-.281c.008-.093-.071-.19-.065-.28.007-.094.223-.173.227-.263.004-.093-.096-.19-.095-.28.001-.093-.06-.183-.062-.273-.002-.093.019-.183.012-.272-.006-.088-.103-.171-.112-.27-.009-.088.232-.206.221-.303-.01-.09-.077-.177-.089-.272-.01-.09-.013-.184-.025-.279-.011-.09-.158-.165-.171-.26-.012-.09.074-.196.061-.29-.013-.091-.101-.173-.115-.266-.014-.091.15-.21.136-.302-.014-.091-.263-.147-.278-.24-.014-.09.147-.21.132-.303-.015-.092-.064-.18-.079-.272s-.146-.166-.162-.259c-.015-.092.083-.204.067-.296-.016-.093-.16-.163-.176-.255-.016-.093.135-.215.119-.307-.017-.093-.029-.186-.045-.278l-.048-.277c-.017-.093-.003-.191-.02-.282-.018-.094-.114-.173-.131-.263-.018-.094-.106-.173-.123-.262-.02-.095-.12-.17-.138-.259-.019-.094.116-.217.097-.305-.02-.096-.206-.15-.225-.236-.02-.09.15-.223.128-.312-.022-.09.017-.197-.007-.285a7 7 0 0 0-.077-.267c-.025-.088-.256-.114-.283-.201-.028-.088-.087-.164-.115-.251-.029-.088-.079-.166-.108-.253-.03-.087-.014-.189-.044-.276-.03-.086-.003-.192-.033-.278s-.07-.17-.1-.257c-.03-.086-.07-.169-.1-.255-.03-.087.105-.227.076-.314s-.124-.15-.152-.238c-.027-.087-.171-.139-.197-.226-.026-.088-.106-.162-.13-.25s.156-.23.135-.319c-.022-.088-.048-.173-.067-.263-.019-.089-.2-.147-.217-.237s.111-.203.098-.294-.106-.17-.116-.26-.126-.175-.132-.267c-.007-.09.1-.19.097-.282-.003-.09.117-.182.118-.275 0-.09-.168-.186-.164-.278.004-.09.028-.183.035-.276a5 5 0 0 1 .079-.557c.017-.09.178-.15.2-.24s-.119-.224-.093-.313c.027-.088.173-.14.203-.228s.096-.16.13-.247c.032-.086.122-.146.158-.232.036-.085.025-.187.063-.272.038-.084.02-.193.06-.277.04-.083.132-.14.174-.223s-.005-.21.038-.292.185-.111.23-.193c.043-.081.07-.17.115-.252.044-.08-.006-.215.04-.295.045-.08.215-.091.26-.172s-.052-.242-.006-.323c.046-.08.04-.19.086-.27.045-.082.14-.134.185-.215.045-.082.11-.151.155-.233l.134-.244c.043-.082-.004-.21.038-.292.042-.083.271-.072.312-.155.04-.084.088-.166.127-.25.039-.085-.122-.258-.085-.343s.263-.09.298-.176-.104-.238-.072-.325.083-.164.112-.253c.029-.088.088-.164.113-.253.026-.09-.026-.195-.004-.286s.037-.175.055-.267c.018-.09.3-.135.315-.227.014-.092-.045-.197-.035-.29s.043-.19.047-.283c.004-.094-.074-.192-.075-.286s.06-.192.053-.285c-.006-.094-.177-.173-.187-.266s-.008-.184-.022-.278c-.014-.092-.058-.177-.075-.27-.017-.091.109-.21.09-.303l-.067-.274c-.021-.09-.157-.153-.18-.244-.024-.09.021-.199-.003-.29-.025-.09.012-.197-.014-.288s-.073-.174-.1-.264l-.077-.271c-.027-.09-.161-.149-.188-.239s.135-.235.109-.325-.23-.13-.255-.22c-.025-.091.031-.204.007-.295-.024-.09.01-.196-.013-.286-.023-.092-.027-.185-.048-.276-.02-.091-.249-.138-.267-.23s.197-.227.181-.319c-.015-.092-.177-.16-.19-.253-.011-.093-.054-.184-.061-.277-.008-.093-.026-.188-.03-.28-.005-.094.094-.19.093-.283-.001-.094.042-.186.043-.278.002-.094-.078-.189-.074-.282s.031-.185.038-.277c.006-.094-.12-.197-.113-.29.008-.093.123-.177.133-.27.009-.092-.066-.194-.056-.286s.213-.164.224-.256c.01-.092-.012-.188-.002-.28s-.12-.2-.11-.292.107-.176.115-.268-.12-.195-.113-.288-.005-.183 0-.277c.004-.095.16-.183.152-.273-.007-.094-.15-.167-.165-.256-.015-.094.095-.207.078-.296-.018-.093-.148-.167-.161-.256-.014-.095.119-.2.119-.29 0-.094.01-.172.036-.26.024-.086-.057-.23-.001-.311.047-.07.11-.17.186-.236.064-.054.223.078.31.025.137-.02.124-.152.261-.151.138 0 .137.035.275.036.137 0 .137-.026.275-.025.137.001.137-.03.274-.029.138.001.138-.016.275-.015s.137.046.274.047c.138.001.137.119.274.12.138 0 .137.015.275.016.137.001.138-.09.276-.089.137.001.137-.036.275-.035s.137.15.275.151.138-.092.276-.091c.139 0 .139.029.277.03s.138.075.276.076c.138 0 .14-.164.277-.163.138 0 .138.027.276.028.138 0 .137.144.275.145s.14-.24.277-.238c.138 0 .137.152.275.153.137 0 .138-.051.276-.05.137 0 .137.137.274.138.139 0 .14-.139.278-.138s.138.042.276.043.139-.023.277-.022c.138 0 .139-.041.277-.04l.276-.002c.138.001.139-.026.277-.025s.137.064.276.065c.138.001.138-.047.276-.046.139.001.139.009.277.01.139 0 .139.028.277.029.138 0 .138.043.277.044.138 0 .138.007.276.008.138 0 .138.005.277.006.137.001.138-.113.275-.112.138 0 .137.07.275.072.138 0 .138-.074.276-.073s.137.192.275.193c.14.001.14-.226.28-.225.138.001.136.236.275.237.138.001.14-.177.277-.176.14.001.137.196.276.197.14 0 .14-.227.28-.226.138.001.137.188.275.189.14 0 .14-.15.28-.15.138.002.137.169.276.17.14 0 .14-.103.28-.102.137.001.138-.084.277-.083.138 0 .138.023.277.024.14.001.14.093.278.094.14 0 .14-.026.28-.025s.14.074.28.075.136.015.276.02c.097.012.218-.154.3-.129.092.029.152.15.228.193.08.048.198.06.262.125.064.064.18.12.227.198.046.076 0 .217.032.305.03.082-.01.188.01.28.018.086.093.166.103.259.01.088-.03.182-.028.275.003.09.155.184.152.277-.003.09-.17.173-.178.266-.007.09.014.182.003.274-.01.09-.128.164-.142.255-.014.089.14.207.123.296-.017.09-.03.182-.048.271s-.165.151-.185.24c-.02.09-.06.173-.082.261-.022.09.004.19-.018.277-.023.09.068.207.045.294-.023.09-.12.16-.143.245-.024.09-.189.14-.212.227-.025.09.118.224.096.309-.025.092.001.193-.02.277-.024.094-.08.172-.1.254-.021.098-.19.16-.202.238-.015.093-.066.18-.08.27-.014.093.234.224.22.315-.013.093-.266.151-.278.242-.012.093.077.198.066.29s.051.193.04.284c-.01.093-.13.173-.14.264-.009.093.101.196.093.287l-.02.276c-.008.093-.027.183-.033.274-.006.093-.207.175-.21.266-.006.093.228.195.225.287-.004.094-.075.184-.077.276s-.165.185-.166.277c0 .093.01.188.011.28s.098.185.101.277-.03.187-.026.279.045.184.05.275c.006.093-.004.187.004.278.007.092-.05.191-.042.283s-.004.187.007.279c.01.091.1.174.112.266.012.09.203.157.216.248s-.198.216-.183.307c.014.09.24.146.255.236s-.157.215-.14.305.118.164.136.254.074.171.093.261-.07.203-.05.293.066.172.087.262c.021.089.146.153.168.243.022.088.02.183.043.272s.094.165.117.254l.067.267c.024.088.007.188.031.277.024.088-.08.212-.057.302.024.087.041.178.066.267.024.087.077.167.103.256.024.088.021.184.046.274.025.088.165.144.19.233.026.088.09.166.116.255.025.088.084.166.11.256.025.088-.01.194.015.284.025.088.018.186.044.275s.117.162.143.253c.026.09-.143.228-.122.318s.03.177.047.268.17.157.184.248c.013.092-.099.198-.089.29s.148.17.155.263c.007.092.06.182.065.275.004.092-.158.189-.157.281s.193.186.191.278c0 .093-.176.18-.18.273-.003.093.113.19.107.283s.066.193.058.285-.04.184-.05.277c-.01.092-.174.167-.184.26-.01.091-.09.173-.102.265s.168.21.155.302c-.013.091.022.19.008.282s-.148.165-.163.257-.128.167-.143.258c-.015.092.04.195.024.286-.015.092-.11.17-.125.261-.016.092.095.205.08.297-.017.091-.048.18-.064.271-.015.092-.159.162-.174.253-.015.092.03.194.014.285-.015.092.11.206.095.297-.014.092-.22.156-.234.247-.013.092.183.213.17.304-.01.092.022.188.011.28s-.226.226-.235.316m98.18-12.325c.045.046.019.173.065.28.032.074.21.109.24.206.027.081-.06.205-.034.3.023.084-.025.19-.002.283.02.086.057.17.077.262.02.088.044.176.062.268.018.088.021.18.038.27s.136.162.151.253c.016.09.008.186.023.277s.088.174.102.264c.014.092-.12.205-.108.295.013.093.061.179.073.269.012.094.136.172.146.26.011.096-.067.198-.058.286.01.097.121.18.128.266.008.101-.034.199-.03.281.005.11.053.208.05.278-.004.093-.125.178-.135.27s.114.203.1.294c-.015.092-.222.148-.24.239-.02.09-.048.175-.07.265s.148.23.123.32c-.025.088-.157.147-.184.235s-.147.146-.176.234.044.21.014.297c-.03.088-.108.159-.139.246-.03.088-.08.169-.111.256-.03.088.09.227.06.315s-.083.167-.111.254c-.029.088-.218.126-.245.214-.027.09.024.202 0 .29-.025.09-.076.174-.097.263s-.03.185-.047.276c-.017.09-.003.188-.015.279-.012.085-.005.18-.01.279-.004.088-.027.181-.028.278-.001.09.102.184.103.279.001.092-.186.188-.184.282.001.093.112.185.113.279s-.01.188-.011.28c0 .095-.094.186-.097.278-.002.096.12.195.113.285-.008.097.024.199.01.286-.015.1-.008.21-.034.292-.03.098-.206.099-.254.167-.15.121-.145.095-.318.18-.088-.024-.151.147-.24.125-.088-.022-.167-.075-.256-.095s-.155-.145-.245-.163c-.09-.017-.185-.005-.275-.02-.09-.016-.175-.063-.265-.077s-.177-.06-.267-.073c-.09-.011-.189.033-.28.023-.09-.01-.176-.069-.267-.077-.09-.009-.19.09-.282.084-.091-.007-.175-.11-.266-.116s-.182-.027-.273-.031c-.091-.005-.186.06-.277.057s-.18-.037-.272-.04-.184.04-.275.038-.18-.05-.272-.052-.183.004-.274.003c-.09 0-.183.02-.274.019-.091 0-.182-.091-.273-.092-.09 0-.183.018-.274.018s-.182.029-.274.028c-.09 0-.183.138-.274.137-.091 0-.182-.091-.273-.092-.09 0-.184.106-.275.105s-.183-.019-.274-.02-.183.001-.274-.001-.184.016-.275.013-.175-.181-.266-.185-.188.11-.28.106-.15-.044-.24-.05c.024.092-.08.195-.05.285s.073.181.107.27.133.154.17.242c.037.087.15.141.19.228.039.086-.026.22.015.307l.12.259c.042.085.176.126.217.212s.111.159.152.245-.082.245-.044.332.152.14.188.228c.035.088.127.156.158.245.032.09.082.176.11.267.026.091-.06.212-.037.305.02.09.143.156.163.245.02.09.091.17.11.26.018.09-.137.213-.12.304.017.09.052.176.068.267.015.09.094.17.108.26.014.091.12.17.133.26.012.092-.069.196-.058.287s-.01.186-.001.278c.01.09.135.171.143.263.009.091-.061.19-.054.282s-.047.187-.042.279c.006.091.134.177.138.27.004.09-.068.186-.066.278s-.093.185-.093.277c.001.091.145.183.145.275-.001.092-.138.181-.14.273s.15.19.146.28c-.004.093-.155.177-.16.269s-.032.18-.04.272c-.007.092.115.194.106.286s-.003.185-.014.276-.034.182-.047.274c-.012.09.018.19.003.28s-.121.167-.137.257c-.016.091-.098.168-.116.258s-.067.172-.086.262c-.02.09.128.218.106.307-.022.09-.053.178-.077.267s-.037.182-.063.27-.043.18-.071.268-.24.114-.27.201.088.226.056.312-.013.194-.047.279c-.035.085-.243.099-.279.183s-.063.17-.101.254-.055.176-.095.259c-.041.082.053.235.01.316-.043.08-.138.136-.183.216s-.1.156-.147.235c-.048.078-.19.097-.24.174s.01.228-.042.303c-.052.076-.198.085-.252.16-.055.073-.053.189-.11.261-.056.072-.193.079-.252.15s.023.261-.038.33c-.06.069-.272 0-.335.067s.012.268-.053.333-.265-.01-.332.053-.077.187-.146.248c-.07.061-.145.117-.214.178l-.215.178c-.07.06-.063.214-.133.273s-.175.082-.246.141c-.072.06-.214.033-.285.092-.072.059-.105.165-.177.222-.073.059-.154.106-.226.163s-.14.122-.213.179c-.074.057-.206.036-.28.091-.074.057-.092.185-.166.24-.074.056-.177.072-.252.126s-.106.17-.181.223c-.076.054-.208.026-.283.079-.077.053-.056.246-.133.297-.076.052-.214.015-.29.065-.078.051-.183.057-.26.107-.079.05-.099.191-.177.24s-.17.076-.25.123c-.079.048-.169.077-.248.124-.08.047-.196.029-.276.074s-.14.125-.222.169c-.08.044-.183.047-.264.09s-.139.132-.22.173c-.083.042-.174.064-.257.104s-.136.143-.22.182-.19.025-.275.062c-.084.037-.161.09-.246.125s-.144.138-.229.172-.218-.053-.304-.02c-.087.032-.129.186-.215.217-.087.03-.21-.042-.297-.013s-.179.042-.267.07c-.088.027-.153.128-.241.154-.089.025-.16.112-.25.136-.089.024-.19.002-.28.024l-.269.066c-.09.02-.197-.047-.288-.028-.09.018-.185 0-.276.017-.09.016-.171.082-.262.097-.09.014-.188-.019-.279-.005-.09.013-.162.174-.253.185s-.183.035-.274.044c-.092.01-.2-.16-.292-.153s-.171.164-.263.17-.183.048-.275.053c-.091.004-.187-.078-.28-.074l-.274.008c-.091.002-.183-.029-.275-.029s-.184.137-.277.136c-.091 0-.182-.097-.274-.1-.092-.002-.183-.018-.276-.022-.091-.004-.186.044-.278.039s-.181-.05-.274-.056c-.091-.006-.183-.019-.275-.026-.091-.008-.176-.08-.268-.089-.09-.009-.19.067-.282.057s-.176-.078-.268-.09c-.09-.01-.173-.088-.265-.1-.091-.012-.203.122-.295.11-.09-.014-.173-.084-.264-.098-.09-.014-.194.048-.286.033s-.185-.022-.277-.038c-.09-.016-.167-.117-.259-.133s-.2.05-.293.033c-.084-.017-.12-.192-.199-.223-.08-.03-.189.017-.264-.02-.078-.04-.125-.135-.198-.174a3 3 0 0 0-.233-.11c-.083-.037-.17-.118-.247-.13-.086-.013-.192.083-.283.084q-.131 0-.268.01c-.088.01-.174.04-.263.053-.089.014-.169.08-.257.095-.09.015-.177.05-.264.063-.091.013-.194-.073-.28-.066-.093.008-.18-.01-.264-.015-.095-.006-.18.003-.26-.025-.085-.03-.245.01-.307-.057-.054-.06.046-.23.015-.325-.024-.074-.212-.132-.22-.232-.006-.08.046-.18.051-.277.005-.082.157-.155.17-.25.01-.083-.105-.191-.087-.285.016-.084.072-.165.093-.257.021-.089.123-.154.148-.24.025-.088-.115-.226-.087-.312s.192-.125.224-.21-.015-.2.02-.284c.034-.084.04-.182.077-.264.036-.083.222-.097.261-.178.04-.082-.048-.225-.008-.306.041-.081.068-.17.11-.25s.167-.116.21-.196.118-.141.162-.22c.043-.08.015-.198.06-.278.043-.079.047-.18.09-.26.045-.078.205-.093.249-.172.043-.08.04-.185.083-.265s.151-.125.194-.205c.042-.08.006-.201.046-.282.041-.08.002-.2.041-.282.04-.081.249-.084.286-.166.037-.083-.05-.22-.015-.304s.177-.125.21-.21c.032-.084.043-.179.073-.265.029-.085-.005-.192.02-.28.027-.086.014-.182.037-.27.022-.087-.001-.183.017-.272.019-.088.146-.155.16-.245.015-.089.036-.179.047-.27q.017-.135.029-.271c.006-.09-.033-.183-.03-.275 0-.09.004-.18.002-.272-.003-.085.022-.186 0-.283-.02-.085-.07-.17-.1-.261-.03-.086-.11-.155-.143-.244-.032-.085.057-.22.023-.306-.033-.087-.254-.103-.285-.189-.033-.089.032-.212.005-.297-.028-.093.027-.199.011-.284-.018-.098 0-.17.004-.254.006-.1-.148-.246-.098-.319.047-.069.233 0 .327-.048.074-.037.103-.22.202-.246.082-.023.194.039.291.022q.13-.023.274-.039c.088-.01.187.066.283.058.09-.007.178-.055.273-.06.09-.006.18-.061.274-.066.09-.004.183-.031.277-.035.09-.004.185.04.278.036.092-.004.183-.035.276-.04.092-.004.188.047.28.042s.184-.055.277-.061c.092-.006.178-.101.271-.108s.187.021.28.012a9 9 0 0 0 .276-.03c.093-.01.19.019.282.006s.177-.068.268-.083c.093-.016.175-.068.265-.087.092-.02.218.11.306.087.092-.024.152-.152.24-.18.09-.029.167-.08.252-.114.088-.035.165-.08.247-.12.084-.042.244.052.322.003.08-.05.167-.106.239-.164s.053-.221.116-.289.185-.09.237-.167c.051-.076.127-.15.166-.236.038-.083-.001-.201.025-.293.024-.087.155-.162.168-.257.012-.088-.023-.194-.021-.29.002-.09-.029-.187-.036-.284-.008-.09-.111-.17-.126-.266-.01-.055.083-.176.04-.29-.028-.074-.16-.12-.2-.212-.032-.077-.05-.167-.09-.255-.035-.079-.054-.17-.094-.255-.036-.079-.08-.158-.121-.242-.038-.08.019-.209-.022-.291-.038-.08-.115-.142-.156-.223-.04-.08-.21-.095-.251-.175s-.11-.146-.151-.227c-.043-.08.001-.206-.041-.286s-.08-.164-.122-.243c-.044-.081-.162-.12-.205-.198-.045-.08 0-.21-.043-.287-.047-.08-.18-.107-.225-.182-.048-.082-.018-.206-.063-.28-.052-.082-.13-.138-.177-.207-.056-.085-.041-.208-.09-.27-.078-.101-.194-.03-.24-.05-.138-.013-.127-.139-.266-.144-.138-.006-.14.04-.28.034s-.14.039-.28.033c-.137-.005-.134-.066-.273-.072-.14-.005-.143.098-.282.092-.14-.006-.132-.183-.271-.189-.14-.006-.14.007-.28.002-.14-.006-.144.111-.283.105-.14-.005-.135-.096-.274-.102-.14-.006-.144.112-.283.107s-.133-.161-.272-.167c-.14-.005-.143.115-.283.11s-.138-.022-.278-.027-.14.008-.28.002-.132-.16-.271-.167c-.14-.005-.143.09-.282.085-.14-.005-.137-.063-.276-.069-.14-.005-.141.062-.28.056-.138-.005-.14.035-.278.03-.14-.006-.136-.065-.275-.07-.14-.006-.144.114-.283.109-.14-.006-.14-.014-.28-.02s-.135-.08-.275-.086-.142.087-.282.082c-.14-.006-.13-.213-.27-.219-.14-.005-.146.164-.286.158s-.14-.002-.28-.007l-.28-.011c-.14-.006-.133-.149-.273-.154s-.142.046-.282.04-.143.075-.282.07c-.14-.006-.142.039-.281.033s-.136-.115-.276-.12c-.14-.007-.137-.102-.277-.107s-.148.165-.29.16-.14-.011-.281-.018c-.095-.007-.167-.172-.251-.186-.094-.016-.184.007-.265-.018-.092-.027-.202.012-.28-.025-.084-.04-.15-.111-.22-.163a1.3 1.3 0 0 1-.201-.181c-.06-.068-.158-.116-.203-.194-.045-.077-.075-.172-.108-.257-.032-.082.04-.2.017-.288-.023-.085-.092-.16-.108-.25-.016-.087-.113-.165-.125-.255-.011-.088.062-.188.053-.278s-.045-.176-.053-.266-.078-.173-.087-.262c-.01-.09.127-.196.115-.284-.012-.09-.141-.16-.158-.247-.017-.09.012-.188-.005-.278-.018-.089.078-.201.06-.29-.018-.09-.13-.16-.148-.25s-.07-.172-.087-.262 0-.186-.018-.276-.017-.183-.035-.272 0-.186-.018-.276-.204-.147-.22-.236c-.018-.09.078-.2.062-.29s.043-.193.027-.283-.095-.168-.11-.258-.07-.174-.083-.264-.094-.173-.105-.263c-.012-.09.144-.201.134-.292s-.1-.172-.11-.263-.062-.179-.07-.27c-.005-.09.01-.184.007-.275s-.078-.182-.08-.273c-.001-.091.198-.183.2-.274 0-.091-.043-.182-.04-.273.005-.09.018-.18.024-.27s-.092-.192-.082-.283.1-.171.114-.261-.031-.19-.015-.28.174-.149.194-.238-.142-.222-.118-.31.185-.136.212-.224c.027-.086.029-.18.06-.266.03-.085-.024-.204.01-.289s.154-.132.192-.216c.037-.082-.017-.21.025-.292.04-.08.198-.09.242-.171a.43.43 0 0 1 .19-.118.5.5 0 0 1 .233-.025c.086.006.155.048.242.07.085.02.187-.016.27.003.089.02.182-.023.267-.026.09-.004.178-.075.269-.08.09-.005.189.114.28.107.09-.006.17-.149.26-.156s.196.138.286.13c.09-.01.187.032.277.022l.272-.032c.09-.012.16-.191.25-.203s.176-.051.266-.064.177-.044.266-.058.185.01.275-.005.187.018.276.003c.09-.016.178-.038.267-.054s.177-.041.266-.057c.09-.017.204.102.293.085s.168-.09.257-.106c.089-.017.16-.13.249-.146.089-.017.17-.078.258-.095.09-.017.209.13.298.113s.177-.038.266-.055.153-.164.242-.18c.09-.016.199.08.288.064s.167-.096.256-.111c.089-.016.164-.116.254-.13.089-.016.192.057.282.043s.193.067.282.054c.09-.014.16-.161.25-.174s.18-.01.27-.022q.273-.035.544-.065c.09-.01.194.096.286.088s.172-.153.264-.16.19.085.283.08c.092-.007.185.019.277.014s.185.04.276.038c.093-.003.182-.046.274-.048s.183-.053.275-.053c.092-.001.184.045.276.045s.184-.078.276-.076c.092.001.182.092.274.094s.184-.01.276-.006.187-.079.28-.074c.09.004.176.123.268.128s.192-.119.284-.112.188-.034.28-.026c.09.007.18.06.27.069.093.008.183.035.275.044l.274.03c.092.009.192-.062.284-.051.09.01.164.186.255.197.09.01.182.027.273.039.09.011.204-.149.295-.137.092.012.16.187.253.2.09.011.202-.12.293-.108.09.013.18.044.27.057.092.013.18.052.27.066.09.013.19-.035.282-.021l.274.038c.09.014.15.24.24.254s.19-.028.282-.014c.09.014.178.05.269.063.09.014.19-.034.282-.02s.174.08.265.093c.09.014.2-.1.292-.086s.18.038.27.052.186.004.277.017.165.143.256.156l.274.036c.09.013.195-.066.286-.053.09.012.174.082.265.094s.176.075.267.087.185.006.276.017q.136.02.274.036c.09.01.192-.068.284-.058s.166.176.257.185c.092.01.198-.126.29-.118.09.01.176.085.268.093.09.008.18.063.27.07.092.008.184.029.275.035s.195-.156.287-.15c.09.005.173.198.264.202s.19-.11.282-.106c.09.003.184-.019.276-.016.09.002.183-.004.275-.003.092.002.183.084.275.084.09 0 .184.035.276.034.092 0 .183-.068.275-.07.092-.001.184.013.276.01s.18-.113.27-.117.189.075.28.07.179-.08.27-.087c.09-.007.196.139.287.13s.18-.046.27-.057.166-.134.257-.147c.09-.013.19.044.28.03.09-.015.162-.137.253-.153.09-.015.176-.044.267-.061.09-.017.203.09.293.071.089-.018.157-.139.247-.158.089-.018.2.064.289.045.09-.02.159-.128.248-.148.09-.02.204.071.294.05l.269-.058c.09-.021.155-.146.244-.167.09-.021.176-.058.266-.08.09-.02.219.124.308.103.09-.021.153-.161.243-.182s.186-.015.275-.035.175-.061.265-.08.175-.065.264-.084.178-.051.267-.07.19-.002.28-.02.199.056.29.04c.09-.017.182-.022.272-.037.092-.016.17-.102.26-.116s.178-.056.268-.069c.09-.012.196.095.285.084.092-.01.175-.093.265-.1.092-.009.183.007.273.002.092-.006.183.05.272.047.063-.001.154-.129.258-.12.08.005.166.035.256.046.085.01.153.136.236.151.09.017.22-.15.295-.13.109.031.194.13.233.169m-40.748 32.964c-.067.043-.181-.06-.296-.064a1.4 1.4 0 0 1-.266-.037c-.085-.018-.186.013-.282-.016-.087-.026-.16-.097-.253-.13-.087-.031-.22.055-.311.02-.086-.034-.17-.084-.258-.122-.086-.036-.19-.04-.277-.079-.086-.038-.112-.214-.199-.253s-.226.033-.311-.007c-.087-.04-.185-.057-.27-.097-.088-.042-.137-.162-.221-.202-.089-.043-.207-.017-.29-.056-.09-.042-.109-.228-.19-.265-.094-.043-.226.014-.306-.02-.1-.043-.199-.045-.273-.071-.085-.03-.146-.136-.234-.165-.086-.028-.163-.092-.252-.119-.086-.027-.19-.005-.278-.031-.087-.026-.201.047-.29.023l-.264-.068c-.088-.023-.154-.13-.244-.153-.088-.022-.184-.015-.273-.036s-.187-.003-.277-.023-.177-.044-.267-.063-.166-.103-.256-.12q-.136-.029-.271-.055c-.091-.017-.197.054-.288.039s-.177-.054-.268-.068-.17-.11-.26-.123c-.092-.013-.177-.072-.268-.083s-.201.118-.292.108c-.092-.01-.174-.11-.265-.118-.091-.009-.192.111-.282.104-.092-.007-.177-.076-.267-.081-.092-.005-.179-.095-.27-.1-.093-.005-.193.138-.285.133s-.178-.125-.27-.13c-.091-.006-.18-.08-.27-.086-.093-.006-.186.005-.277-.001s-.185-.005-.276-.011-.183-.026-.275-.032-.19.089-.282.083-.182-.035-.274-.041-.187.045-.28.039c-.091-.007-.173-.156-.265-.163-.091-.006-.186.023-.277.016s-.192.096-.283.09c-.092-.007-.178-.1-.27-.106-.091-.007-.19.085-.283.078-.091-.007-.18-.06-.271-.068-.092-.007-.188.031-.28.024-.091-.007-.174-.124-.266-.132-.092-.007-.194.118-.286.11s-.168-.202-.26-.21c-.09-.007-.182-.023-.273-.031s-.2.177-.292.169-.174-.122-.265-.13-.175-.109-.266-.117-.193.086-.284.078c-.092-.009-.178-.066-.27-.074-.091-.01-.18-.038-.272-.047s-.198.135-.29.126c-.09-.009-.18-.042-.271-.051-.092-.01-.166-.18-.258-.19-.091-.01-.19.058-.281.048s-.18-.047-.271-.057-.184-.008-.275-.018-.186.008-.277-.002-.184-.007-.275-.017-.18-.041-.271-.052-.194.078-.285.067-.16-.202-.252-.213c-.09-.011-.194.082-.285.07-.092-.01-.181-.034-.272-.045-.091-.012-.17-.111-.262-.123-.09-.011-.197.098-.288.087s-.188.017-.279.005c-.09-.012-.185.005-.276-.007s-.16-.185-.251-.198c-.091-.012-.177-.062-.268-.074-.09-.013-.21.174-.3.162-.09-.013-.177-.058-.268-.071-.09-.013-.166-.131-.257-.145-.09-.013-.185.002-.276-.012-.09-.013-.176-.058-.267-.072-.09-.014-.176-.061-.267-.075-.09-.014-.189.025-.28.011-.09-.014-.173-.076-.263-.09-.09-.015-.198.074-.288.06-.09-.015-.166-.122-.257-.137-.09-.015-.178-.044-.269-.06-.09-.015-.192.037-.282.022-.09-.016-.176-.06-.267-.076-.09-.015-.188.013-.278-.003s-.173-.076-.264-.091c-.09-.016-.181-.026-.272-.042-.09-.016-.183-.013-.274-.03-.09-.016-.165-.117-.255-.134-.09-.016-.183-.015-.274-.032-.09-.017-.185-.006-.276-.023-.09-.017-.205.096-.295.079s-.164-.12-.254-.138-.201.067-.292.05-.178-.052-.268-.07-.183-.031-.273-.05c-.076-.015-.17-.012-.276-.032-.083-.016-.143-.198-.242-.217-.086-.016-.198.08-.294.063-.088-.016-.176-.051-.27-.069-.089-.016-.154-.17-.247-.187-.09-.017-.182-.024-.274-.042-.09-.017-.193.03-.285.012-.09-.018-.198.04-.29.022s-.16-.146-.251-.165l-.273-.06c-.092-.02-.204.056-.293.036-.094-.02-.193-.012-.28-.033-.095-.023-.145-.21-.231-.233-.096-.024-.205.03-.289.006-.098-.028-.206 0-.283-.027-.11-.039-.213-.062-.271-.097-.084-.05-.068-.171-.11-.216s-.156-.04-.201-.128c-.029-.056-.112-.14-.141-.25-.02-.076.125-.203.105-.3-.016-.082-.05-.165-.066-.26-.014-.084-.09-.162-.104-.255-.013-.086-.114-.163-.127-.255-.011-.086.067-.188.056-.279-.011-.087.01-.18 0-.27-.01-.089-.132-.166-.141-.256-.01-.089.056-.187.047-.276s.04-.185.032-.275-.135-.17-.143-.258c-.007-.091.058-.187.051-.276s.08-.187.074-.275c-.007-.092-.151-.173-.157-.26-.005-.094.12-.191.115-.277-.005-.095-.158-.179-.161-.263-.004-.099.134-.193.133-.274-.001-.108.019-.192.022-.26.004-.075-.113-.174-.1-.278.01-.081.007-.175.022-.272.012-.084.039-.172.055-.266.014-.085-.011-.183.006-.275.016-.086.122-.158.14-.249.017-.086.098-.161.116-.251.019-.087.066-.169.086-.258.02-.088-.124-.212-.103-.301.02-.087.048-.174.07-.262.02-.087.03-.179.052-.266s.036-.18.058-.267.226-.129.25-.216c.023-.089-.099-.216-.074-.303.025-.089-.002-.192.024-.279s.225-.123.251-.208c.028-.089.045-.177.073-.262.03-.087.034-.18.064-.263.03-.088-.077-.226-.045-.307.034-.089.12-.156.154-.235.037-.088.084-.17.121-.245.045-.09.182-.115.225-.183.058-.09.017-.244.072-.29.075-.065.215-.027.296-.068.085-.043.147-.137.238-.158.09-.021.19.068.285.066.092-.001.198-.174.293-.16.091.012.147.222.24.244.09.022.23-.133.321-.104.089.027.12.233.21.264.088.031.204-.015.293.017.089.031.176.069.264.098.09.03.179.063.267.088.092.026.207-.066.297-.049s.172.081.262.099c.09.017.161.14.252.156.09.017.192-.024.283-.008.09.017.179.046.27.063.09.016.182.025.273.04.09.017.165.126.256.142.09.016.197-.055.287-.039.091.016.174.078.265.093.09.016.194-.038.285-.023.09.016.166.125.256.14.091.016.21-.13.3-.116.091.016.165.133.256.148.091.016.174.08.265.096.091.015.199-.074.29-.059s.178.054.27.069c.09.014.178.049.27.063.09.015.17.099.262.113.09.015.188-.01.28.005.09.014.175.072.266.086s.19-.023.281-.01c.092.015.18.048.271.062s.193-.04.284-.026.174.081.266.095c.09.013.185.01.276.023s.192-.043.284-.03c.091.014.164.15.255.164.092.013.201-.098.292-.085.092.013.168.13.26.142.09.014.18.041.271.054s.194-.049.285-.036c.092.013.192-.036.283-.023s.176.07.268.083l.274.035c.092.013.171.11.263.123.091.013.178.06.27.072.09.013.189-.023.28-.01s.177.07.269.082c.091.013.202-.118.294-.106.091.013.184.014.276.026.091.013.16.198.25.21.092.012.203-.117.294-.105.092.012.188-.01.28.003.091.013.171.107.263.12l.275.036c.091.012.179.055.27.067s.201-.106.293-.094.17.115.262.127.182.037.273.049.19-.025.282-.013.178.06.27.073c.091.012.182.03.274.042.091.013.175.087.266.099s.194-.057.286-.045.176.081.267.093c.092.013.175.09.266.101.092.013.203-.117.294-.104.092.012.176.08.268.092.091.013.193-.05.285-.037s.184.018.275.03.172.107.264.12.194-.058.286-.045.162.176.254.189c.091.012.195-.06.286-.048.092.013.175.084.267.097.091.013.183.021.275.034.091.013.176.074.267.087s.197-.072.289-.059l.274.043c.091.013.185.009.277.022.091.013.19-.024.281-.01.092.013.186.007.277.02s.17.122.26.135c.092.014.18.048.272.062.09.014.185.006.277.02.091.013.2-.091.292-.077.09.014.157.195.248.21.091.013.208-.139.3-.125.09.014.174.08.265.094s.161.166.253.18c.09.015.202-.096.293-.081s.177.065.268.08.17.107.26.122c.092.015.21-.136.3-.121.092.015.16.165.252.18.09.015.195-.052.286-.036.091.015.188 0 .279.015s.155.185.246.2.205-.103.296-.087.184.016.275.032.165.12.256.137.174.066.265.083c.082.015.186-.049.282-.034.086.013.182-.019.276-.006.088.011.162.15.255.162.089.011.186-.029.278-.018.09.011.172.094.264.105.09.011.192-.061.283-.05.092.012.195-.06.286-.048.092.013.158.205.248.218.092.014.202-.101.29-.087.094.015.165.141.252.157.095.017.187.014.272.033.095.02.198-.02.28.004.097.027.198.022.273.052.02.008.138.028.263.104.068.042.089.183.172.235.074.046.148.102.225.152.079.05.155.103.229.15.083.054.183.071.25.116.124.081.207.144.22.16.056.065.076.16.126.243.045.074.109.141.15.227.038.08.12.145.155.233.033.083-.055.211-.025.3.028.085.24.116.265.206.025.087-.045.202-.023.292s-.034.195-.014.285.013.183.03.273c.016.09.218.15.232.24.014.092-.14.207-.129.298.012.093.178.167.187.258.01.094-.064.193-.058.283q.01.142.014.276c.003.096-.078.186-.08.273 0 .098.035.187.028.271-.005.061.03.16.011.281-.012.08-.006.176-.024.278-.014.085-.076.168-.094.266-.016.086-.007.182-.025.278-.017.088-.086.17-.104.264-.018.088.007.188-.011.282-.018.089.048.197.03.29-.019.09-.071.174-.09.266l-.055.273c-.019.09-.076.174-.095.266-.02.09 0 .189-.02.28-.019.09-.005.189-.025.28s-.185.151-.205.243.06.205.04.297-.02.189-.04.28c-.021.093-.033.187-.054.278s-.192.148-.213.238c-.021.092-.047.182-.069.272-.022.092.081.213.06.302-.023.093-.123.165-.145.253-.024.093-.075.177-.097.264-.024.094.025.203.001.289-.025.095-.155.156-.18.241-.027.098-.014.197-.039.279-.032.102-.035.196-.062.27-.051.137-.034.272-.066.292m.889-30.623c-.044.097-.04.196-.088.263-.062.087-.156.097-.225.141-.084.054-.128.173-.218.18a1 1 0 0 1-.283-.034c-.088-.02-.193-.012-.282-.042-.09-.03-.156-.125-.243-.151-.093-.028-.18-.132-.268-.137l-.276-.014c-.093-.006-.192.094-.284.088s-.186.004-.278-.002c-.092-.007-.188.027-.28.02s-.175-.121-.267-.13c-.093-.007-.192.068-.284.06s-.17-.161-.262-.17-.186 0-.278-.009-.201.152-.293.142-.179-.073-.27-.083c-.093-.01-.168-.164-.26-.174s-.185-.01-.277-.021l-.275-.03c-.092-.012-.186-.002-.277-.014s-.189.02-.28.008-.18-.052-.271-.064-.183-.03-.274-.043-.186-.007-.277-.02-.182-.032-.273-.046-.189.013-.28 0c-.092-.014-.193.04-.285.026-.09-.014-.177-.064-.268-.078s-.17-.112-.26-.127c-.092-.014-.195.049-.287.034-.09-.015-.168-.111-.26-.126-.09-.015-.198.068-.29.052-.09-.015-.16-.153-.251-.168l-.273-.05c-.09-.015-.191.023-.282.007s-.174-.075-.265-.091c-.09-.016-.204.09-.295.074-.09-.016-.179-.047-.27-.063-.09-.016-.188.003-.279-.014-.09-.016-.155-.176-.246-.192-.09-.017-.203.085-.294.069-.09-.017-.186-.008-.277-.026-.09-.017-.166-.117-.256-.134s-.195.036-.286.019-.152-.187-.242-.204-.2.067-.291.05-.188-.002-.278-.02c-.091-.017-.167-.112-.257-.13-.09-.017-.174-.07-.265-.088-.09-.017-.19.013-.28-.005s-.2.062-.29.044l-.273-.05c-.09-.018-.164-.12-.255-.137-.09-.017-.186-.008-.276-.026s-.189.002-.28-.015c-.09-.018-.179-.041-.27-.059-.09-.017-.168-.099-.259-.116q-.135-.03-.27-.056c-.091-.018-.198.049-.288.032s-.177-.058-.267-.075-.166-.115-.257-.132c-.09-.017-.173-.079-.263-.096s-.207.102-.298.085c-.09-.017-.165-.12-.256-.137-.09-.017-.204.088-.294.071-.091-.016-.17-.094-.261-.11-.091-.017-.167-.114-.258-.13-.09-.017-.207.11-.298.093-.09-.016-.162-.141-.253-.157-.09-.017-.17-.099-.261-.115s-.185-.016-.276-.032c-.09-.015-.183-.025-.273-.04-.091-.016-.18-.045-.271-.06s-.198.066-.29.051c-.09-.014-.178-.051-.27-.066-.09-.015-.19.026-.282.012-.09-.015-.16-.167-.252-.181s-.188.006-.279-.008-.199.077-.29.063-.171-.109-.263-.122-.197.069-.289.056c-.089-.013-.174-.07-.269-.082-.09-.011-.186.022-.28.011-.09-.01-.172-.126-.266-.136-.09-.009-.195.11-.289.101-.09-.008-.167-.197-.26-.206-.091-.008-.184-.024-.277-.032-.092-.008-.2.172-.293.165-.092-.008-.176-.117-.27-.125-.09-.007-.175-.104-.267-.111-.091-.007-.191.086-.284.08-.091-.008-.18-.062-.272-.069s-.182-.033-.275-.04c-.092-.007-.195.135-.288.127-.092-.007-.183-.037-.275-.045-.092-.007-.171-.172-.264-.18-.092-.007-.19.06-.282.052-.093-.007-.182-.043-.275-.05-.092-.009-.186-.006-.278-.015s-.188.01-.28.001-.187-.004-.28-.014-.183-.038-.276-.048-.197.076-.29.065-.164-.197-.257-.208-.198.078-.29.066c-.093-.012-.184-.036-.276-.049-.093-.012-.173-.111-.265-.125s-.202.09-.294.076c-.093-.015-.192.009-.283-.007-.093-.015-.19-.004-.282-.02-.092-.018-.154-.19-.244-.208-.092-.018-.175-.072-.264-.092-.092-.02-.226.15-.315.13-.092-.022-.175-.076-.264-.099s-.153-.147-.24-.172c-.091-.026-.187-.026-.274-.054-.09-.029-.167-.087-.252-.118-.09-.031-.162-.094-.246-.127-.088-.036-.191-.023-.274-.06-.086-.04-.145-.121-.225-.163-.084-.044-.213 0-.29-.048-.079-.05-.096-.174-.162-.229-.072-.06-.117-.125-.174-.191-.06-.07-.16-.099-.204-.174-.046-.078-.056-.168-.087-.251-.032-.084-.096-.155-.115-.243-.018-.087.012-.18.005-.27-.008-.087-.017-.173-.016-.263.001-.089-.013-.178-.005-.268.008-.088.101-.164.114-.253s.01-.176.027-.264.008-.18.027-.267c.02-.089-.083-.209-.059-.296s.134-.15.163-.235c.03-.086-.032-.208.002-.292s.086-.165.124-.247.074-.17.115-.25.068-.172.112-.252c.044-.079.231-.076.278-.154.046-.078-.002-.214.046-.29.048-.077.112-.145.162-.22s.212-.077.263-.152c.05-.075.093-.155.144-.23.052-.075.051-.185.103-.26.052-.074.041-.192.093-.266s.193-.088.245-.162l.156-.224c.051-.075.021-.205.07-.28.05-.076.074-.168.122-.245s.237-.069.282-.147c.046-.078.023-.198.066-.277s.035-.186.074-.267c.04-.082.06-.17.097-.252.036-.084.169-.127.2-.212.033-.085-.031-.202-.005-.288.027-.087 0-.183.02-.27.021-.089.2-.145.213-.235.014-.088.007-.185.014-.276.007-.089-.05-.183-.05-.275 0-.075-.097-.145-.115-.242-.016-.08.05-.182.028-.272-.021-.083-.015-.176-.038-.263-.024-.084-.153-.141-.176-.227s.025-.191.006-.276c-.02-.09.016-.187.003-.271-.015-.093-.14-.175-.142-.257-.001-.097.078-.19.102-.266.028-.088.129-.087.204-.135.064-.04.106-.185.211-.187.091.014.168.153.258.167s.204-.116.294-.101c.091.014.16.163.251.177.091.015.179.047.27.061.09.015.2-.091.29-.077s.184.014.275.029c.09.014.179.04.27.054.09.015.187-.011.278.004.09.014.167.115.258.13.09.015.17.09.261.105.09.015.177.058.267.073s.208-.13.298-.115.18.038.27.053.183.02.274.034c.09.015.182.021.273.037.09.015.15.208.241.223.09.015.206-.114.296-.099.09.016.19-.02.28-.005s.152.203.242.219.183.02.273.036.185.008.275.023c.09.016.206-.11.296-.094.09.015.172.084.262.1.09.015.18.04.27.055.09.016.163.135.253.15.09.017.203-.091.293-.075s.162.137.252.154.192-.034.283-.017c.09.016.163.127.254.143.09.016.211-.14.301-.123.09.016.147.219.238.235.09.016.213-.147.303-.13s.148.21.238.227c.09.016.195-.046.285-.03.09.017.18.04.27.057.09.016.18.037.27.054.09.016.201-.08.291-.062s.172.079.262.095.162.136.252.153.19-.023.281-.007c.09.017.178.046.268.063s.182.026.272.043.164.123.254.14.196-.05.286-.034c.09.017.172.079.262.096s.194-.034.284-.017.163.124.253.141.21-.122.3-.105.161.133.252.15c.09.018.17.083.26.1s.2-.065.29-.048.176.058.266.076.176.053.266.07.168.103.258.12.187-.003.277.015.172.076.262.094c.09.017.19-.015.28.002s.176.054.267.071c.09.017.192-.03.282-.013s.17.087.26.104.184.018.274.036.193-.032.283-.015.157.153.247.17.204-.084.294-.067.16.134.25.152.178.049.268.066.194-.037.284-.02.192-.024.282-.007.172.078.262.095.18.032.27.05c.09.017.165.116.255.133s.173.068.263.086.19-.012.28.006c.09.017.171.078.261.096.09.017.207-.103.297-.086s.183.024.273.041.148.201.238.219.206-.102.296-.085c.09.018.187.002.277.02.09.017.164.114.255.132l.27.051c.09.018.174.064.264.081s.205-.091.295-.074.163.122.253.14c.09.017.178.046.268.063s.19-.013.28.004.173.07.263.087.18.04.27.057.169.094.259.11c.09.018.195-.043.285-.026s.17.088.26.105.169.096.259.113.206-.102.296-.085.17.088.26.105.194-.038.284-.02c.09.016.182.026.272.043s.166.113.256.13c.09.016.195-.046.285-.03.09.018.153.18.244.196s.195-.048.286-.031.17.09.26.106l.271.046c.091.016.172.08.262.097s.198-.061.288-.044l.27.053c.09.017.184.016.274.032s.19-.015.28.001.184.015.274.031.164.124.254.14.173.052.263.069c.082.039.153.069.214.135.057.064.208.084.25.168.037.076-.083.222-.057.311.023.082.202.135.218.226.015.085-.023.186-.014.277.008.087-.121.184-.117.275.003.088.128.174.129.264 0 .09-.036.18-.038.27-.002.089-.082.176-.085.265s.155.188.15.278c-.004.09-.142.174-.147.262-.004.092.071.185.067.272-.004.093.023.183.02.269-.002.093-.156.182-.155.265 0 .097.137.18.145.26.008.09.033.177.044.268.01.09-.065.19-.052.281.012.09-.007.185.007.276.014.09.104.167.119.257s.073.17.089.26c.015.09-.091.2-.075.29s.082.17.098.26c.017.089-.035.191-.019.28s.113.165.13.255c.016.09.112.166.128.256.015.09-.144.21-.129.3s.154.16.167.25-.081.197-.069.287.043.178.054.268c.01.091.081.175.09.266s.051.18.057.271.054.182.057.273-.1.186-.099.277-.008.182-.01.273q-.007.136-.019.271c-.006.092.024.185.014.276q-.018.135-.043.27c-.016.09-.07.171-.091.26s-.02.181-.047.269c-.026.087-.008.19-.04.275-.031.085-.161.13-.198.213m68.962 14.665c-.093-.009-.219 0-.312-.008s-.184-.037-.277-.046c-.093-.008-.185-.033-.278-.04-.093-.008-.185-.026-.279-.034-.093-.007-.18-.088-.274-.095-.093-.007-.19.025-.282.018-.094-.007-.193.076-.286.07-.094-.007-.177-.167-.27-.173s-.19.017-.283.012-.19.07-.284.065-.186-.031-.28-.035c-.093-.005-.184-.054-.278-.058-.093-.003-.186-.025-.28-.028-.093-.003-.188.027-.282.024s-.186-.053-.28-.054c-.093-.002-.188.099-.282.098s-.186-.06-.28-.06c-.093 0-.187.104-.28.105s-.187-.01-.28-.01-.187-.011-.28-.01a5 5 0 0 0-.28.017c-.092.008-.2-.106-.297-.094-.092.011-.183.055-.28.069-.092.013-.193-.02-.289-.006-.093.014-.18.082-.275.095-.094.014-.197-.036-.291-.024-.096.012-.18.107-.274.117-.097.01-.189.067-.283.074-.097.006-.197-.063-.29-.061-.098.002-.191-.023-.284-.028-.099-.005-.201.065-.293.05-.098-.015-.166-.128-.253-.156-.094-.03-.193-.02-.272-.066-.014-.009-.05-.119-.149-.215-.057-.055-.19-.048-.254-.111-.064-.064-.121-.135-.177-.191-.096-.099-.206-.163-.213-.178-.036-.072-.007-.184-.031-.28-.02-.08.04-.179.028-.275a4 4 0 0 1-.028-.263c-.005-.086-.109-.17-.11-.264-.001-.087-.018-.178-.016-.271.001-.088-.035-.18-.03-.273.003-.088.108-.173.114-.265.006-.088-.065-.185-.057-.276.008-.088.151-.164.16-.254.009-.089.001-.18.011-.27.01-.088-.138-.197-.127-.287.01-.09.072-.173.084-.263s.16-.16.172-.25c.013-.09.016-.18.029-.269l.038-.268c.014-.09.009-.182.023-.27.015-.09-.01-.186.004-.274.015-.09.056-.176.07-.263.016-.091.036-.18.05-.266.017-.093.015-.185.03-.27.016-.094.037-.182.051-.265.017-.096-.005-.19.008-.271.015-.09-.034-.19-.019-.28.016-.088.065-.172.08-.262.016-.088.11-.163.127-.252.016-.09-.04-.192-.023-.28.016-.09.11-.165.126-.254.017-.09-.057-.196-.04-.285.018-.09.15-.156.167-.246l.056-.267c.018-.09-.014-.19.004-.279s.077-.171.095-.26c.018-.09-.079-.203-.06-.293.018-.09.049-.177.067-.266s.003-.186.021-.275.17-.153.189-.243-.076-.201-.058-.29.011-.183.029-.271c.017-.088.114-.162.135-.251.02-.088-.025-.193-.003-.282s.186-.14.21-.228c.022-.088-.047-.2-.023-.29.025-.086.018-.182.044-.27.024-.086.121-.153.147-.24s.084-.165.11-.252.008-.188.034-.276c.025-.087-.038-.2-.012-.289l.074-.263c.025-.089.126-.155.15-.243.025-.089.024-.184.047-.272.023-.09.012-.186.034-.275s.048-.176.068-.266.1-.165.119-.255q.03-.135.055-.27c.017-.09-.047-.193-.033-.283s.047-.177.058-.267c.01-.092.097-.175.104-.266.008-.091.056-.182.06-.273s-.124-.187-.125-.278c0-.092.08-.185.074-.276s-.13-.17-.14-.261.034-.187.017-.276c-.016-.09.04-.197.017-.285-.024-.09-.182-.136-.218-.228-.034-.086.023-.213-.02-.3-.043-.085-.034-.201-.083-.286-.047-.082-.11-.159-.163-.241-.05-.08-.108-.16-.162-.24-.053-.079-.097-.166-.152-.245-.054-.08-.185-.106-.24-.185-.054-.08-.091-.17-.144-.249-.055-.08-.153-.132-.203-.211-.053-.083.01-.232-.037-.313-.05-.086-.12-.15-.16-.234s-.17-.127-.207-.21c-.039-.086-.004-.203-.039-.287-.035-.087-.154-.141-.187-.228s-.024-.19-.054-.278-.098-.166-.125-.254c-.026-.09.045-.207.022-.296-.023-.09-.163-.153-.182-.243-.02-.091.13-.215.114-.305-.016-.092-.022-.181-.034-.272s-.197-.166-.205-.257c-.008-.093.083-.193.079-.285-.004-.093.08-.184.08-.277 0-.092-.091-.185-.087-.278.005-.092.056-.18.065-.272.008-.092.037-.18.05-.271.012-.091-.111-.205-.095-.297.017-.09.057-.179.077-.27.02-.09.186-.144.21-.234.023-.088-.021-.194.006-.283.026-.088.078-.167.107-.256.03-.087.05-.177.082-.265.031-.085.04-.18.075-.266s.058-.176.095-.263c.036-.084.09-.162.129-.247.027-.06-.011-.186.043-.29.037-.073.228-.078.276-.168.04-.076.001-.203.048-.29.043-.077.097-.154.144-.238.044-.079.16-.12.207-.204.044-.08-.007-.215.04-.297.044-.08.057-.178.103-.26.046-.08.07-.173.116-.254.046-.08.22-.087.267-.168.047-.08.124-.144.17-.224.048-.08-.063-.255-.015-.334.048-.082.122-.147.169-.226.049-.081.18-.111.227-.189.05-.082.077-.174.124-.25.052-.084.126-.147.174-.222.053-.084.13-.144.176-.215.058-.087.07-.19.116-.255.075-.104.16-.141.2-.178.06-.053.081-.18.176-.23.076-.039.196.001.29-.036.082-.033.171-.05.265-.08.086-.028.157-.114.25-.14.089-.024.186-.022.279-.044.09-.023.172-.083.265-.103.092-.02.192 0 .285-.018.093-.019.185-.042.278-.059s.184-.05.275-.065c.096-.016.2.048.29.035.098-.015.188-.043.277-.055.1-.013.19-.05.276-.059.106-.011.19-.14.269-.146.087-.007.185.067.284.061.089-.004.178-.104.275-.107.09-.004.185.007.28.004.09-.002.185-.01.28-.011.09-.002.185-.022.28-.023.09-.001.186.151.28.15.092 0 .186-.105.28-.105.092 0 .184.017.278.018.092 0 .183.128.277.13.093 0 .186-.008.279-.006s.188-.055.282-.053.19-.066.283-.063.183.108.276.112l.28.014c.094.005.192-.08.284-.076.095.006.19-.017.282-.011.095.006.177.167.269.174.095.007.193-.06.284-.052.096.009.194-.036.285-.027.096.01.192.002.28.013.098.011.177.123.265.135.097.015.204-.061.29-.045.073.013.204.015.303.07.08.044.084.229.162.289.08.061.16.108.22.175.08.088.179.145.185.219.004.059.046.19-.01.3-.036.07-.156.112-.211.199-.045.07-.12.13-.176.211-.05.071-.02.206-.076.283-.051.071-.16.105-.217.18-.053.071-.15.113-.206.188-.053.071-.021.21-.077.284-.055.071-.162.104-.218.178-.054.071-.177.092-.231.165-.054.072-.007.22-.062.294-.054.073-.204.076-.258.15s.003.228-.05.302c-.053.075-.211.075-.264.15s-.12.141-.17.217c-.053.076-.01.216-.06.292-.05.077-.087.161-.135.238-.05.078-.106.15-.152.227-.047.08-.06.177-.103.256-.045.082-.16.123-.2.203-.043.084-.135.143-.171.224-.04.087-.1.166-.13.25-.034.088.083.222.06.306-.023.093-.046.173-.056.258-.011.093-.006.179-.008.267-.002.093.01.176.017.265.008.092-.146.206-.13.294.018.09.175.148.2.234s.103.148.139.232c.035.083-.074.235-.031.315s.1.157.15.234c.049.075.12.14.176.212.054.073.215.058.274.128.058.07.078.168.14.235.06.066.117.136.18.201s.06.198.125.261c.066.063.213.04.279.102.066.063.064.198.13.26.067.061.177.077.243.14.067.061.07.19.136.252.066.063.246.009.31.072.065.065 0 .254.063.32s.25.019.309.087c.06.07-.015.246.04.318s.167.1.215.176c.05.077.09.157.132.237s.075.163.108.247.163.141.186.23c.02.086-.003.192.007.283.01.088-.082.183-.083.276-.002.088.042.182.023.28-.018.086-.053.174-.082.267-.027.086-.052.176-.088.266-.034.084-.15.133-.19.22-.038.083-.006.201-.05.286-.042.082-.123.144-.17.227-.044.08-.033.194-.08.275-.046.08-.168.117-.216.198-.048.08.03.238-.018.318s-.18.11-.228.19c-.05.081-.14.137-.19.217s-.018.211-.067.291c-.05.081-.118.15-.167.23s-.113.153-.16.233c-.048.082-.151.132-.196.211-.047.084-.06.185-.102.266-.045.085-.123.154-.16.235-.042.089-.036.196-.066.279-.033.086-.08.168-.11.254-.028.087.003.194-.023.28-.026.089-.1.164-.122.252-.023.09-.03.183-.05.271-.02.09.023.192.005.282s-.145.16-.16.25.084.199.07.29c-.012.09-.118.169-.128.26-.01.09-.034.182-.042.273-.01.09.052.188.046.28-.007.09.044.185.039.276s-.05.18-.054.272q-.004.136-.006.273c-.003.092-.082.182-.084.273-.001.092-.034.183-.034.275 0 .09.043.183.043.274s-.041.183-.04.275c0 .091.132.182.133.273 0 .092.01.183.012.275 0 .09-.158.183-.158.274s.13.183.13.274.03.184.03.275c-.001.091-.078.182-.08.273l-.007.274c-.002.092-.034.182-.038.273s.11.19.106.28c-.006.092-.095.178-.103.27-.007.09-.026.18-.035.272-.01.09.026.187.014.278-.01.09-.056.177-.07.268-.013.09-.033.18-.048.27-.016.087-.088.163-.107.25s.033.19.01.278c-.02.085-.093.158-.117.244s-.105.154-.13.24c-.025.084.074.206.048.291s-.1.155-.127.24.013.19-.013.276c-.026.085-.046.172-.071.258-.026.085-.123.15-.147.236s.026.192.003.279c-.022.086-.178.14-.2.228-.02.087.038.192.02.28s-.086.167-.1.256a6 6 0 0 0-.034.269c-.01.089-.064.177-.07.267-.006.089.08.185.078.275q-.004.138.008.272c.01.09.039.178.055.267s.08.168.099.256c.02.089.058.173.078.26.02.09-.046.197-.03.285.018.09.012.18.022.27s.034.176.032.267c-.002.09.098.196.08.287-.014.086-.187.136-.22.224-.03.081.07.23.025.313-.042.075-.148.161-.206.238m-14.194-.326c-.091.004-.15.086-.242.09-.09.003-.182-.002-.273 0-.092.003-.184-.06-.275-.058s-.18.14-.271.141c-.091.002-.183-.013-.274-.011-.091 0-.183-.07-.275-.069-.09 0-.182.024-.273.024s-.182.036-.273.037c-.092 0-.183-.052-.274-.052s-.182-.09-.273-.09-.183.18-.274.18-.182-.146-.273-.146h-.274c-.09 0-.182.037-.274.036-.09 0-.182-.012-.273-.012-.091-.001-.183.033-.274.032-.091 0-.182-.065-.273-.066-.091 0-.183.022-.274.021s-.183.11-.274.11-.182-.098-.273-.098-.183-.061-.274-.06-.182.158-.273.158c-.084 0-.176-.132-.258-.119s-.135.172-.215.192c-.082.02-.193-.078-.273-.057-.082.021-.144.122-.224.137-.082.015-.172-.074-.253-.074-.076 0-.148-.042-.247-.062-.08-.016-.19.064-.281.038-.082-.024-.179-.022-.265-.053-.083-.03-.158-.088-.242-.122-.082-.034-.135-.134-.216-.172-.082-.039-.213.022-.29-.02-.082-.044-.17-.08-.242-.126-.081-.05-.15-.123-.214-.174-.08-.063-.14-.144-.187-.203-.039-.05-.082-.137-.139-.235-.04-.069-.02-.182-.067-.27-.039-.074-.114-.136-.157-.22-.038-.077-.157-.12-.197-.204-.039-.078.058-.225.019-.308-.038-.08-.102-.149-.14-.232-.037-.08-.147-.129-.184-.212-.037-.081-.055-.172-.091-.255-.037-.083-.033-.183-.07-.265-.035-.084-.055-.174-.09-.256-.036-.084-.1-.155-.134-.236-.035-.086-.026-.187-.059-.269-.035-.087-.161-.134-.193-.215-.034-.09-.013-.193-.042-.272-.034-.095-.16-.15-.185-.226-.034-.106-.05-.206-.062-.27-.017-.094-.018-.19-.033-.28l-.04-.278c-.013-.094.097-.2.087-.291-.01-.095-.049-.183-.056-.273-.007-.095.033-.188.03-.279-.005-.095-.06-.184-.061-.275 0-.095.062-.185.066-.276.003-.095-.074-.19-.067-.28.008-.095-.03-.193-.019-.283.012-.095.097-.177.113-.267.016-.093.056-.178.076-.267.02-.092-.033-.2-.009-.288.025-.09.14-.152.169-.239.028-.089.013-.19.044-.277.032-.087.116-.153.15-.238.036-.086-.017-.208.02-.293s.084-.165.123-.249.044-.183.084-.267c.04-.083.135-.14.175-.223s.148-.134.188-.219q.058-.124.115-.253c.038-.084-.013-.208.025-.294.036-.083.057-.174.093-.261.034-.084.032-.182.065-.27.033-.084.156-.137.187-.226.03-.086-.013-.197.016-.287.028-.087.182-.137.208-.228.025-.088.033-.184.057-.275.022-.089-.109-.215-.088-.308.02-.09.085-.166.1-.255.015-.091.158-.165.168-.255.01-.092.007-.188.012-.278a6 6 0 0 0 .005-.278c0-.091-.02-.185-.024-.276-.004-.09-.049-.181-.056-.272-.006-.09.01-.185.001-.275s-.015-.183-.027-.273c-.011-.09-.04-.179-.053-.27-.012-.09-.02-.18-.033-.27s-.062-.175-.074-.266c-.013-.09-.088-.172-.1-.262s.01-.185 0-.276c-.01-.09.058-.188.05-.28-.008-.09-.086-.175-.091-.267-.005-.09.067-.183.066-.275-.002-.09-.092-.182-.09-.274.003-.09.121-.175.128-.266q.01-.138.024-.274c.008-.092-.032-.188-.023-.279s.058-.178.068-.268c.01-.092-.093-.196-.082-.286.011-.092.035-.181.047-.271s-.009-.187.004-.277.158-.162.171-.252-.083-.197-.069-.287c.015-.09.005-.185.02-.275s.107-.168.122-.258-.035-.191-.02-.28.171-.156.187-.246-.062-.195-.047-.284c.016-.09 0-.185.016-.274s.103-.167.118-.256c.015-.09.063-.174.078-.263s-.014-.186.001-.276-.06-.193-.046-.283l.04-.268c.013-.09.103-.168.116-.258.012-.09 0-.182.012-.273.011-.09-.012-.183 0-.274.01-.09.026-.178.036-.269.01-.09.079-.174.088-.265q.016-.135.028-.271c.008-.09-.063-.185-.056-.276.006-.09.034-.178.04-.269.005-.09.084-.176.089-.267.004-.09.05-.18.052-.272.003-.09-.12-.185-.119-.277.002-.09.084-.18.085-.27 0-.091-.113-.182-.114-.274 0-.09.055-.181.053-.273s.071-.187.068-.28c-.002-.077-.142-.159-.152-.264-.009-.083.081-.184.07-.282-.012-.086.037-.185.024-.28-.012-.087-.038-.176-.051-.27l-.043-.271c-.013-.09-.013-.182-.025-.273-.012-.09-.112-.17-.124-.262-.011-.091-.002-.185-.012-.276s-.07-.18-.08-.27c-.008-.093.111-.195.105-.285-.007-.095-.044-.183-.047-.273-.004-.095-.104-.186-.103-.274 0-.098.08-.188.086-.273.008-.101-.065-.21-.047-.29.024-.104.104-.192.148-.254.078-.078.057-.104.14-.177s.127-.015.222-.07c.093 0 .167-.116.26-.117.092-.002.19.162.281.16s.186.002.28-.001c.091-.003.178-.179.27-.182s.188.087.28.083.19.074.282.07c.092-.005.18-.102.272-.106s.187.033.28.028c.092-.005.186.008.28.003.091-.005.176-.147.27-.153.091-.005.184.01.277.005.092-.005.193.134.286.129s.18-.08.273-.086.187.014.28.008.185-.021.277-.027.185-.036.277-.041.185-.023.278-.029c.093-.005.187.008.28.003s.18-.099.274-.103c.093-.005.194.152.286.148.093-.005.182-.102.275-.106s.186.002.28-.001c.092-.004.188.072.281.068s.183-.115.276-.118.185-.041.278-.043c.094-.003.187-.03.28-.032s.188.141.28.14c.094 0 .186.032.28.032.092 0 .186-.18.28-.179s.185.031.278.033c.093.001.184.097.276.1.093.002.187-.02.28-.016.093.003.184.036.277.04.092.005.183.04.275.046s.188-.036.28-.03.18.058.272.066.197-.078.294-.068c.095.01.176.104.27.123s.171.054.258.09c.09.038.192.028.266.09.07.06.101.127.153.216-.034.087-.03.171-.064.257-.035.087-.108.158-.145.243-.037.086-.069.173-.107.258-.039.085-.06.177-.1.261s-.15.135-.19.218c-.042.084-.069.174-.11.257s-.06.178-.104.261.02.221-.023.304-.154.13-.197.213-.004.208-.047.29c-.043.084-.098.16-.14.243s-.08.167-.122.25c-.042.084-.067.174-.108.258-.04.083-.216.102-.255.186s.014.212-.024.297-.09.162-.126.248-.187.125-.22.21c-.035.087-.06.18-.092.267s-.008.195-.038.283.01.198-.016.287-.147.152-.17.242q-.036.134-.068.272c-.02.09.05.2.033.291-.016.09-.003.185-.015.277-.013.091-.174.167-.182.26-.009.092.057.192.052.286-.005.092.045.186.044.28 0 .092.018.183.021.277.003.092-.09.19-.082.284.006.094.104.18.114.271.01.094.066.18.078.271.012.094-.123.207-.108.298.015.093.048.183.066.273.017.092.091.173.11.262.021.092.12.163.142.252.023.09-.032.2-.007.288.024.09.023.188.05.277s.15.148.18.236c.027.089-.007.197.023.285s.013.192.044.28c.031.087.163.137.195.224s.004.196.037.282c.033.087-.012.203.021.29.033.085.182.127.215.214.033.086-.042.214-.009.3.033.087.19.126.223.213.033.086-.053.217-.02.304.03.086.046.178.077.266.03.087.166.137.196.226.03.088.072.172.1.262.028.088.046.18.073.27s.09.169.112.255c.025.09-.029.2-.007.286.022.09-.012.191.007.278.02.091.012.184.03.271.016.092.178.156.191.244.015.093.02.186.03.275.01.093.03.186.036.275.007.093.02.187.022.277.002.093-.163.183-.165.272-.002.093.128.189.122.278-.007.092.032.19.021.28s-.183.158-.198.247c-.015.09-.022.178-.04.267s-.018.18-.04.269c-.02.087.083.209.06.297-.025.087-.097.162-.122.25-.026.086-.059.171-.086.26-.026.085-.144.144-.17.232-.027.085.057.206.03.294-.026.085-.146.144-.172.232-.026.085.008.19-.017.278-.025.085-.134.15-.158.239-.023.086.11.214.086.305-.02.086-.212.133-.233.224-.02.087.123.212.103.303-.019.088-.2.144-.217.235-.018.09.036.193.02.284l-.059.269-.055.27c-.017.09.07.199.052.29-.016.089-.075.17-.09.26-.017.09-.127.164-.143.254s.02.19.004.28-.042.179-.058.27c-.015.09-.023.181-.039.272-.015.09-.112.168-.127.259-.015.09.048.194.034.285-.015.09-.07.175-.084.267-.014.09.034.191.02.282-.013.092-.11.17-.124.262-.013.091.118.203.105.295s-.117.17-.13.261c-.013.092-.07.177-.082.269-.013.092.068.196.056.287-.012.092-.045.18-.056.272s-.04.182-.05.273-.085.177-.096.269.015.188.005.28c-.01.091-.059.18-.068.27-.009.093.028.19.02.282s-.035.183-.042.275c-.008.092.045.189.038.28-.008.092-.063.18-.069.27-.006.093.003.186-.003.277s.052.185.047.275c-.004.092-.112.185-.104.274s.132.166.146.254c.015.09-.059.194-.043.283.017.088.018.176.03.265.01.089.084.17.084.261 0 .088.046.189.03.28-.017.084-.08.167-.116.255-.03.079-.07.164-.12.246-.044.071-.148.072-.21.147M86.708 27.05c-.067-.06-.247-.028-.292-.108a1.3 1.3 0 0 1-.123-.264c-.023-.083.084-.2.072-.294-.01-.086.004-.173.001-.267-.002-.087-.122-.179-.119-.272.004-.088.065-.176.072-.268.007-.088-.044-.185-.034-.276.01-.09.03-.18.04-.27s.052-.176.063-.266.125-.168.137-.259c.01-.09-.01-.185 0-.276.01-.09-.011-.185-.004-.275.008-.092-.082-.188-.077-.277.005-.093.185-.179.185-.268 0-.093-.184-.177-.19-.265a3 3 0 0 0-.03-.26c-.016-.09.063-.2.039-.29-.024-.088-.02-.188-.051-.276-.03-.087-.092-.165-.127-.251s-.094-.16-.134-.245c-.04-.083-.014-.2-.057-.282-.042-.082-.171-.119-.216-.2s-.131-.138-.177-.219-.075-.168-.122-.248.015-.224-.032-.304-.167-.116-.214-.196-.152-.127-.198-.208l-.134-.245c-.045-.082.036-.23-.007-.313s-.133-.14-.173-.223c-.04-.084-.021-.193-.058-.278s-.153-.137-.186-.223c-.033-.087-.056-.178-.084-.266s.011-.195-.011-.285-.176-.154-.191-.245-.013-.191-.02-.284c-.009-.091.06-.19.06-.283s-.019-.186-.01-.279c.008-.091-.003-.214.014-.307.091-.041.228-.048.326-.084.097-.034.215.024.315.003.102-.021.187-.214.29-.213.087.001.177.15.275.154l.278.012c.09.006.185-.026.28-.02.09.008.182.026.277.034.09.008.186-.017.28-.008.092.009.178.082.272.092.091.01.186-.003.28.008.092.01.197-.09.291-.079.091.011.172.12.264.13.092.012.176.085.27.097.091.011.204-.135.297-.123.092.012.166.166.259.179s.205-.119.298-.106.169.15.261.163c.093.013.198-.058.29-.044.094.013.172.125.265.138s.18.06.273.074.2-.077.293-.063.19-.004.282.01c.094.013.184.054.276.068.094.014.177.098.268.111.094.014.203-.085.294-.071.094.014.188.015.278.028.095.014.184.048.274.06.095.015.185.045.273.057.091.013.181.036.272.05.092.013.172.098.263.111.091.014.188-.01.28.004.09.014.195-.06.286-.045s.158.18.25.194c.09.015.186.001.277.016.09.015.195-.048.285-.033.091.015.178.052.27.068.09.015.173.075.264.09.09.017.178.05.268.067.091.016.187 0 .278.017.09.017.172.08.263.097.09.017.2-.065.29-.048s.17.09.26.107.2-.066.291-.048.179.047.269.065.177.051.267.07l.271.055c.09.019.155.158.245.177s.186.007.276.026c.09.02.17.083.26.102.09.02.191-.013.28.006.09.02.167.1.257.12s.197-.04.287-.02.19-.007.28.013.163.113.252.133c.09.02.174.064.264.085.09.02.197-.035.286-.014.09.02.158.133.247.154.09.021.19-.005.28.017.089.02.165.095.255.117.089.021.201-.052.29-.03.09.021.177.052.266.074s.187.007.276.03c.09.021.164.103.253.126.09.022.16.118.249.14l.268.064c.089.022.202-.051.29-.029.09.022.183.029.272.051.089.023.187.007.276.03.089.022.154.14.242.163.09.023.197-.03.286-.007s.145.176.233.199c.09.022.182.029.271.052s.217-.108.306-.086.165.094.254.117.144.176.233.199.18.036.269.06l.267.066c.088.023.182.027.27.05.09.023.188.007.277.03.089.024.171.072.26.095l.265.074c.089.023.182.029.27.052.09.023.177.052.266.075.088.023.186.01.275.033s.194-.016.282.007c.089.023.17.079.258.101.089.023.158.122.247.145.088.023.195-.025.284-.002s.159.12.248.142c.089.023.2-.043.29-.02.088.022.149.156.238.179l.267.07c.089.022.19-.004.28.018.088.023.168.084.257.107s.206-.068.295-.046.175.057.265.08.186.01.276.033.147.174.237.196.206-.065.295-.044.186.02.276.042.164.117.257.134c.091.016.193-.035.287-.022.092.013.167.168.26.18.093.01.198-.073.291-.062.094.011.192-.009.285.004s.175.099.268.114c.093.016.177.066.268.085.093.02.192 0 .281.026.091.027.213-.028.299.007.088.035.181.077.263.123.082.045.122.165.196.222s.162.101.227.17c.063.067.152.123.207.204q.076.117.147.233c.05.078.046.188.091.266q.07.12.132.24c.044.08.157.126.197.207.04.083.06.177.097.259.038.084.003.198.036.282.034.086.025.184.054.27.03.087.18.135.204.221.026.089-.03.199-.008.286.02.09.153.157.17.246.016.09-.026.192-.013.282s-.053.19-.045.28.148.174.151.264c.004.092-.096.186-.096.277s-.065.18-.068.27.005.18-.002.272a7 7 0 0 1-.019.27c-.01.09-.033.177-.045.268-.013.09.064.192.05.282-.015.09-.05.176-.067.266-.016.09.018.189 0 .279-.018.088-.163.15-.182.24-.018.087-.006.182-.026.271-.02.088.057.198.037.288-.02.088-.116.16-.136.249-.02.088.046.197.025.287-.02.087-.082.166-.102.256-.02.088 0 .186-.02.276-.02.088-.137.155-.156.245s.077.205.058.296c-.018.087-.195.154-.203.248-.007.09-.018.186-.021.278s.17.19.166.28c-.003.094-.104.182-.114.27-.01.096-.106.16-.131.245-.027.09.026.2-.026.273-.051.071-.139.095-.223.143-.071.04-.146.048-.246.067-.08.016-.16.162-.262.162s-.212-.04-.3-.066c-.095-.028-.126-.202-.209-.244-.088-.045-.204-.032-.286-.073-.089-.044-.18-.107-.27-.121s-.183-.018-.274-.032c-.09-.014-.184-.003-.275-.017-.09-.013-.183-.014-.273-.028-.09-.013-.179-.045-.27-.058-.09-.013-.193.062-.284.05-.09-.014-.158-.189-.249-.202-.09-.013-.195.068-.285.055-.091-.012-.18-.036-.271-.048-.09-.013-.17-.105-.262-.117-.09-.012-.196.085-.287.073s-.187.012-.278 0c-.09-.012-.185.002-.276-.01-.09-.011-.163-.168-.254-.18-.09-.011-.178-.056-.269-.068-.09-.012-.205.157-.296.145-.09-.011-.178-.052-.269-.063-.09-.012-.17-.118-.26-.129-.091-.011-.185.003-.276-.009-.091-.01-.179-.05-.27-.062-.09-.011-.178-.053-.27-.064-.09-.01-.187.026-.278.015s-.177-.065-.268-.076c-.091-.012-.194.07-.285.06-.091-.012-.172-.106-.263-.117s-.181-.035-.272-.046-.19.038-.281.027-.18-.048-.27-.06c-.092-.01-.188.018-.28.007-.09-.01-.177-.061-.268-.072s-.183-.017-.275-.028c-.091-.01-.185-.004-.276-.015s-.173-.1-.264-.11c-.092-.011-.185-.006-.276-.017s-.186.003-.277-.008c-.092-.012-.198.096-.289.085-.091-.012-.173-.1-.265-.112-.09-.01-.194.07-.285.06-.092-.012-.181-.037-.273-.049-.09-.011-.183-.018-.274-.03-.092-.011-.185-.005-.277-.016-.091-.012-.163-.174-.254-.185-.092-.012-.197.08-.288.067s-.18-.04-.272-.052c-.091-.012-.166-.148-.257-.16s-.184-.015-.275-.027-.19.034-.282.021c-.09-.012-.192.045-.283.033-.091-.013-.169-.125-.26-.138l-.273-.042c-.091-.013-.195.062-.286.05-.091-.014-.186 0-.277-.013-.092-.014-.16-.179-.251-.193-.091-.013-.193.045-.284.032-.092-.014-.191.024-.282.01s-.185-.01-.276-.025c-.091-.014-.167-.126-.258-.141-.09-.015-.196.06-.287.046-.091-.015-.19.016-.28 0-.092-.014-.158-.18-.248-.195-.091-.015-.185-.014-.275-.03-.091-.015-.191.025-.282.009s-.196.047-.286.03c-.09-.016-.167-.112-.257-.129s-.176-.061-.266-.078-.2.065-.29.048c-.091-.018-.169-.102-.26-.12-.09-.017-.17-.086-.26-.104s-.202.069-.292.05c-.09-.018-.167-.1-.256-.12-.09-.018-.162-.12-.252-.139s-.206.083-.296.064-.154-.155-.243-.175-.208.092-.297.071-.15-.165-.238-.185c-.076-.018-.16-.057-.262-.085-.081-.022-.2.062-.295.034-.084-.024-.176-.037-.27-.064-.084-.026-.17-.063-.26-.09-.086-.027-.186-.019-.276-.047-.086-.027-.149-.132-.238-.161-.086-.028-.156-.11-.245-.14-.086-.028-.165-.082-.253-.112-.087-.029-.222.084-.31.054-.087-.03-.172-.066-.259-.096s-.178-.05-.265-.081-.178-.054-.265-.085-.118-.22-.205-.251c-.088-.032-.222.064-.309.032-.087-.033-.192-.02-.279-.052-.088-.034-.117-.218-.203-.251-.088-.034-.177-.059-.263-.093s-.182-.048-.266-.082c-.088-.036-.225.052-.308.017-.088-.037-.154-.119-.237-.155-.087-.038-.17-.083-.25-.12-.089-.04-.131-.167-.21-.206-.088-.043-.224.02-.3-.021-.089-.048-.12-.18-.19-.224-.093-.057-.13-.141-.186-.19m37.167-14.623c-.076-.071-.075-.2-.122-.265-.062-.086-.03-.18-.054-.258a.5.5 0 0 1-.023-.233c.011-.091-.02-.178.013-.263.035-.086.078-.168.113-.25.037-.088-.057-.2-.044-.288.012-.09.17-.157.186-.245.015-.09-.09-.2-.073-.289s.193-.145.212-.233c.02-.088.032-.176.053-.264s-.055-.198-.034-.285c.022-.089.135-.153.157-.24.023-.089.061-.172.084-.259s-.024-.194-.001-.28c.023-.088-.053-.201-.03-.288.022-.087.107-.158.129-.244.022-.088.02-.18.04-.266.021-.089.03-.178.048-.265.02-.088.177-.149.193-.235.016-.09-.064-.194-.052-.282.012-.083-.018-.178-.012-.28.006-.086-.01-.178-.008-.276.002-.09-.022-.18-.022-.277v-.279c-.002-.09.075-.186.072-.28l-.01-.279c-.004-.092.013-.187.01-.28-.005-.093.056-.19.052-.283-.004-.094-.118-.183-.122-.276s-.069-.186-.072-.279c-.004-.095-.014-.189-.017-.28-.002-.097.185-.194.184-.285-.001-.098-.172-.191-.172-.28.001-.1-.012-.197-.007-.284.004-.102.144-.187.154-.27.013-.109.05-.186.073-.258.044-.131.012-.283.091-.33.08-.049.214-.02.34-.041.091.006.19-.05.282-.043s.184.025.277.034c.091.008.181.048.274.058.092.01.172.126.264.137.092.01.187-.012.28-.001.091.01.187-.01.28 0 .091.012.196-.077.288-.066.093.011.162.207.255.218.092.011.207-.166.3-.155l.277.033c.093.01.174.125.266.134s.183.053.275.062c.093.008.189-.014.281-.007.093.008.188-.01.281-.004s.183.089.275.093.19-.093.281-.09c.094.002.185-.047.277-.048.092 0 .184.02.276.019s.186.13.278.129.183-.091.275-.094c.092-.002.183-.074.275-.077q.138 0 .276-.004c.093-.003.19.14.283.137s.182-.065.274-.069.188.058.28.053c.093-.004.18-.1.273-.105.092-.005.185-.002.277-.007s.188.059.28.053.176-.154.268-.16.185.004.277-.002.19.063.281.056.183-.036.275-.043.182-.051.274-.058.188.04.28.033.192.08.285.072c.092-.007.168-.205.26-.213.093-.008.197.137.29.13l.276-.027c.092-.007.181-.055.273-.063s.186-.005.278-.013.182-.052.274-.06.19.05.283.042.183-.04.275-.047c.093-.008.175-.132.268-.14.092-.009.194.085.286.077.093-.008.19.048.283.04s.171-.182.263-.19c.093-.007.198.133.29.126.093-.008.173-.166.266-.174.092-.008.196.115.288.107.093-.007.178-.102.27-.11.094-.007.194.09.287.082s.187.022.28.015.177-.123.27-.13c.092-.006.183-.046.275-.052.093-.007.187.016.28.01.092-.006.19.061.282.056.093-.006.179-.13.27-.136s.186-.024.279-.029.187.012.28.007c.092-.005.185.008.278.004.092-.004.185.002.277-.002.093-.003.189.069.28.065s.184-.047.276-.05.182-.097.273-.099c.08-.002.177.155.28.152.086-.002.178-.034.277-.036.087-.002.178-.088.276-.09.088-.001.182.019.278.017.09-.002.183.043.278.041.09-.002.183.015.278.013.09-.001.182-.037.276-.038.09-.002.184.047.278.045.09-.001.182-.108.276-.11.09 0 .184.057.278.056.09-.001.183-.11.276-.11.092-.002.184.01.278.008.092 0 .184.014.278.013l.276-.002c.09 0 .184.127.276.127s.184-.034.277-.034c.092 0 .184.047.277.047.092 0 .184-.056.277-.056.092 0 .185.065.277.065s.186-.086.279-.085c.092 0 .186-.05.279-.049.093 0 .185.078.278.079.094 0 .187.026.28.027s.187-.08.28-.078c.093.001.184.1.277.102s.187-.047.28-.046.185.061.277.063c.094.003.189-.097.28-.094.095.002.188.015.28.018s.188-.034.28-.03c.093.003.184.071.276.075.093.003.183.087.274.091l.277.01c.094.005.192-.093.283-.088.095.006.189-.006.28 0 .094.007.19-.028.28-.02.096.006.18.117.27.125.095.008.196-.063.285-.054.096.01.172.16.26.17.098.012.19.007.277.02.098.016.218-.132.302-.115.1.02.184.094.262.116.11.032.132.19.192.227.084.053.15.09.212.144a1 1 0 0 1 .17.183c.056.08.103.133.13.213.03.088.085.158.094.246.008.091-.018.18-.02.269 0 .091-.008.184-.004.271.003.091.032.187.056.272s.044.175.07.261c.027.085.09.159.12.244s.12.148.15.233c.028.085.025.18.055.265s-.018.197.012.282.13.145.16.23-.017.196.012.282c.028.086.147.142.174.228s-.062.207-.037.293q.035.13.067.26c.023.087.094.161.113.249.019.089-.006.183.009.272s.147.16.157.25.005.183.01.273.043.183.04.273c0 .09-.145.173-.153.263s.097.193.082.283c-.016.09-.01.189-.028.28-.02.09-.12.165-.142.256-.023.09.02.199-.005.289s-.196.134-.225.222c-.03.089.035.208.002.296-.032.087-.036.187-.072.273-.037.086-.145.14-.185.224s-.113.15-.157.23c-.044.083-.05.185-.098.264-.05.08-.022.212-.076.288q-.08.117-.17.228c-.06.073-.184.09-.248.158s-.112.153-.182.215-.12.152-.195.208-.16.106-.24.154c-.08.049-.192.038-.277.079-.083.04-.17.071-.258.103-.086.03-.155.137-.247.16-.09.02-.19.017-.284.03-.092.013-.194-.053-.286-.042s-.188-.021-.28-.01c-.091.01-.17.152-.261.16-.092.01-.192-.066-.285-.059s-.175.135-.267.142-.19-.047-.281-.04c-.093.005-.19-.07-.282-.064-.092.004-.178.148-.27.152s-.19-.1-.282-.097-.186-.06-.28-.058c-.091.002-.183.018-.275.02-.093 0-.184.006-.277.007-.092 0-.184-.013-.277-.014-.092 0-.185.093-.278.092-.092-.001-.184-.024-.277-.026-.092-.002-.186.05-.278.047s-.18-.14-.273-.144c-.092-.003-.185.027-.278.023-.092-.004-.19.094-.281.09s-.181-.09-.273-.094-.19.083-.283.077c-.092-.005-.182-.055-.274-.06-.092-.006-.188.03-.28.024s-.177-.116-.27-.123c-.092-.006-.193.11-.286.104s-.17-.19-.262-.197c-.093-.007-.184-.023-.276-.03-.092-.008-.2.165-.292.157-.092-.007-.176-.115-.268-.123s-.176-.103-.268-.112c-.093-.008-.194.08-.286.072s-.18-.062-.272-.071-.183-.036-.275-.045-.2.126-.29.117c-.093-.009-.183-.04-.276-.05-.092-.008-.17-.17-.262-.179s-.191.055-.284.046-.182-.044-.274-.053-.185-.008-.278-.016c-.092-.01-.187.008-.28 0-.091-.01-.185-.005-.277-.014-.092-.008-.183-.036-.275-.044s-.193.076-.285.067c-.093-.008-.17-.186-.262-.195-.092-.008-.193.083-.286.075s-.183-.027-.276-.035c-.092-.007-.178-.098-.27-.105s-.194.1-.286.093c-.093-.006-.187.025-.28.019-.092-.006-.186.015-.278.009s-.176-.164-.268-.17c-.093-.005-.184-.045-.276-.05s-.195.179-.288.174c-.093-.004-.183-.039-.276-.043s-.181-.107-.274-.11c-.092-.004-.186.02-.278.017s-.185-.035-.277-.037-.185-.036-.277-.037-.186.048-.28.048c-.091 0-.184-.046-.276-.046s-.185.099-.277.1-.187-.085-.28-.083-.184-.01-.276-.006c-.093.003-.183.07-.275.073s-.186-.019-.277-.014c-.082.005-.172.053-.273.062-.085.007-.18-.025-.278-.014-.087.009-.18.025-.275.037-.087.01-.177.04-.271.052-.09.012-.19-.057-.284-.045-.09.012-.178.041-.272.054-.09.012-.176.05-.27.064-.09.012-.163.148-.255.161-.09.013-.192-.055-.285-.042-.09.012-.167.122-.26.135-.09.012-.183.01-.275.023l-.272.044c-.09.012-.178.044-.27.056-.09.013-.201-.131-.292-.119s-.167.133-.258.145c-.09.012-.184.008-.275.02-.09.012-.2-.105-.29-.093s-.18.033-.272.045c-.09.012-.174.084-.266.096-.091.011-.174.096-.266.107-.091.011-.196-.082-.288-.071l-.276.029c-.092.01-.174.113-.266.123s-.181.05-.273.059c-.092.01-.2-.14-.292-.131s-.177.094-.268.102c-.093.009-.18.073-.272.08s-.183.035-.275.042-.192-.089-.284-.082c-.093.006-.18.107-.27.113-.093.006-.183.06-.274.065-.093.004-.193-.15-.284-.146-.093.003-.184.024-.275.027-.094.002-.185.063-.275.064-.094 0-.188.085-.278.085-.095-.001-.186-.088-.277-.09-.094-.004-.185-.038-.275-.043-.095-.006-.196.093-.285.085-.095-.01-.181-.09-.27-.103-.095-.013-.176-.082-.262-.1-.096-.02-.215.066-.297.04-.095-.029-.162-.128-.238-.165-.09-.044-.205-.057-.266-.113m48.455 23.873c.037.02.14.082.237.193.067.076.142.16.204.24.083.108.177.198.198.25.026.066.013.176.051.287.027.082.085.164.116.263.028.086.036.184.066.28.027.088.091.169.12.263.026.09.037.188.064.28q.04.14.077.279c.027.093.066.183.092.274.026.095.061.185.085.275.026.097.02.199.042.286.026.102.08.19.1.274.025.115-.02.223-.01.29.011.083.072.17.078.27.006.086-.023.18-.021.278.001.088-.026.18-.027.276q-.002.135-.007.277c-.004.09.013.183.006.278q-.01.136-.023.277c-.008.09.031.187.02.28-.009.09-.075.176-.086.269-.012.09.021.189.008.282-.014.09-.088.173-.103.265l-.045.274c-.017.091.003.19-.016.281-.018.091-.072.175-.092.265s-.047.18-.07.27c-.022.09-.018.187-.042.277s-.012.19-.038.28c-.027.09-.077.172-.106.26-.028.09-.05.18-.08.268-.032.088-.06.178-.094.264s-.12.153-.156.237c-.038.087-.043.186-.083.269-.042.085-.072.175-.116.255-.045.084-.087.169-.136.245-.05.081-.097.165-.152.238q-.087.116-.18.217c-.064.071-.153.116-.22.175a1.364 1.364 0 0 1-.477.282c-.087.033-.178.032-.27.044-.085.012-.166.047-.249.033-.082-.015-.171-.016-.251-.041a4 4 0 0 0-.24-.068c-.085-.02-.161-.103-.242-.097-.095.008-.185.08-.281.091-.095.01-.19.028-.285.04s-.196-.025-.292-.012-.19.019-.286.032-.184.074-.28.087c-.095.012-.193.003-.289.015s-.189.046-.285.056q-.145.013-.289.022c-.096.007-.193.002-.29.005-.096.004-.192-.035-.288-.035-.08 0-.173.011-.278.01-.085-.001-.178.01-.278.007-.087-.002-.181.033-.278.03-.09-.003-.18-.076-.275-.08-.09-.004-.186.063-.281.057l-.278-.017c-.09-.006-.18-.052-.274-.06-.091-.006-.183-.027-.276-.036-.092-.008-.185-.006-.278-.016-.092-.01-.186-.012-.278-.023-.092-.012-.18-.053-.273-.066-.092-.013-.19.01-.281-.005-.093-.016-.189-.014-.28-.031s-.183-.044-.273-.063c-.092-.02-.171-.09-.26-.113-.092-.023-.19-.016-.278-.042-.09-.027-.189-.03-.275-.06a5 5 0 0 1-.261-.102c-.089-.037-.15-.127-.23-.168-.086-.044-.176-.072-.251-.122-.08-.053-.137-.128-.203-.188-.072-.065-.158-.11-.21-.183a1 1 0 0 1-.125-.248c-.03-.086-.02-.178-.023-.273.01-.093-.031-.19-.018-.284.013-.092.033-.184.048-.277.015-.092.059-.18.075-.272.017-.091.026-.185.044-.277.018-.091.023-.186.043-.277s.06-.179.08-.27.075-.174.097-.266c.02-.09-.028-.198-.006-.289s.1-.168.122-.26l.067-.272c.022-.091.03-.186.053-.277.022-.091.049-.181.071-.272s.031-.186.053-.277c.022-.09.069-.176.09-.267.022-.092.034-.185.055-.276s-.002-.193.017-.284c.02-.092.076-.175.095-.267.018-.092.06-.18.076-.272.017-.092-.028-.195-.013-.287s.084-.175.097-.267-.031-.192-.02-.284c.01-.085.064-.175.067-.276.002-.088-.03-.183-.031-.28 0-.092.036-.187.033-.283-.002-.092.008-.187.005-.282s-.047-.187-.05-.281c-.002-.095-.016-.19-.017-.285 0-.095.01-.19.012-.282.002-.097.034-.19.04-.28.007-.099-.028-.198-.015-.286.016-.1.031-.197.057-.28a1 1 0 0 1 .128-.256.6.6 0 0 1 .222-.17c.074-.036.164-.064.261-.088.082-.021.177-.01.272-.024.086-.013.175-.038.269-.045.088-.007.178-.047.272-.05.089-.003.181.055.274.054.09 0 .18-.01.273-.009.091.002.183-.027.275-.024s.184.015.276.02c.092.003.183.025.273.03.093.005.184.016.274.021.094.005.186-.003.275.002.095.005.186.028.274.031.097.004.19-.033.274-.032.102.001.193.022.272.018.087-.005.178-.052.276-.061.09-.008.182-.013.279-.023.09-.01.183-.015.278-.026l.278-.034c.091-.01.19.025.284.014.091-.012.183-.036.277-.047.09-.012.185-.005.278-.016.092-.012.182-.043.275-.054.093-.01.188.003.282-.007s.183-.051.276-.06.185-.036.278-.044c.094-.007.19.014.283.008.095-.006.188-.002.281-.006.095-.004.187-.038.28-.04.095-.001.188.035.28.037.096.001.19-.015.281-.01.096.006.187.035.277.045.097.01.195-.013.283.004q.144.03.271.071c.094.03.165.097.242.137m14.539-.236c.097.03.19.068.271.102.095.04.178.091.253.138.087.054.155.12.218.183q.105.105.17.225c.047.083.102.164.123.258.02.09.02.187.021.285.002.091-.04.182-.05.28-.01.092-.01.186-.029.282-.016.091-.042.182-.063.277-.02.091.017.197-.004.292-.021.091-.085.175-.106.27a7 7 0 0 1-.06.265c-.02.08-.03.171-.056.265-.023.082-.032.174-.059.266-.024.083-.099.156-.126.246-.025.084-.021.18-.049.27-.025.084-.047.173-.075.262-.026.085-.027.18-.055.268-.027.085-.1.157-.13.246-.026.084-.027.179-.055.266-.028.085-.076.164-.104.25s-.021.184-.05.27c-.028.086-.074.166-.103.253l-.09.258c-.03.085-.045.175-.075.261s-.05.175-.08.261-.089.162-.12.248c-.03.086-.03.183-.06.27-.03.085-.123.15-.154.236-.03.087-.014.19-.045.277-.031.086-.093.162-.124.248-.032.086-.089.163-.12.249l-.095.259c-.033.087-.045.18-.077.266l-.1.256c-.034.087-.023.19-.056.274-.034.087-.118.152-.151.235-.035.087-.027.188-.06.271-.036.086-.126.148-.16.23l-.104.25c-.037.087-.04.185-.075.265-.039.087-.108.155-.145.233-.04.087-.085.165-.123.241-.044.089-.062.18-.101.253-.05.09-.066.189-.109.25-.054.079-.128.138-.182.205-.06.075-.114.15-.174.212a3 3 0 0 1-.196.19c-.073.06-.176.07-.25.115-.079.05-.14.122-.22.157-.085.036-.167.08-.253.101a2 2 0 0 1-.268.054c-.089.009-.182.02-.273.019a3 3 0 0 1-.272-.021c-.088-.01-.174-.053-.265-.07a7 7 0 0 1-.265-.053c-.086-.02-.17-.048-.259-.07-.086-.02-.167-.066-.255-.088-.087-.022-.184-.005-.273-.026-.087-.021-.18-.02-.269-.04a8 8 0 0 0-.263-.052c-.088-.017-.166-.102-.256-.116-.089-.014-.187.037-.278.028-.087-.01-.175-.01-.266-.013-.088-.003-.176-.054-.267-.053-.088 0-.178-.005-.269-.002-.088.002-.175.053-.265.057-.09.003-.18-.014-.27-.01-.089.003-.178.029-.268.031h-.27c-.091-.001-.181-.015-.27-.019s-.177-.05-.265-.06c-.09-.01-.18-.01-.267-.025-.089-.017-.177-.025-.263-.05a.37.37 0 0 1-.165-.224c-.016-.077.046-.174.05-.278.002-.084-.06-.181-.048-.28q.018-.129.046-.274c.016-.086.074-.168.096-.261.02-.087.054-.173.078-.265.023-.086.036-.178.062-.268.025-.087.042-.178.069-.268.026-.086.08-.165.107-.253.028-.087.02-.185.048-.273.028-.087.04-.18.068-.268s.065-.173.094-.26c.03-.088.106-.16.135-.247.03-.088.028-.186.057-.272.03-.089.035-.184.064-.27l.088-.261c.03-.09.11-.161.138-.246.029-.091.036-.186.062-.27.028-.093.078-.174.101-.258.027-.096.017-.194.036-.275q.038-.154.051-.268c.01-.09.043-.185.049-.285.005-.094-.045-.192-.043-.291.002-.095.008-.191.008-.289-.001-.096.025-.194.022-.29-.003-.098-.016-.195-.02-.29-.006-.1-.026-.195-.033-.289-.007-.1.005-.2-.005-.29-.008-.087.013-.184-.004-.276-.017-.088-.105-.162-.127-.253-.02-.087.012-.189-.012-.278l-.072-.262c-.025-.087-.064-.17-.088-.259l-.067-.266c-.023-.089-.057-.174-.077-.262-.02-.09-.013-.185-.028-.273-.015-.092-.036-.18-.043-.268-.008-.094-.054-.185-.05-.273.003-.094.052-.182.072-.268.02-.09.07-.164.112-.244.04-.08.043-.189.108-.256.06-.062.166-.076.248-.126.073-.043.13-.133.223-.166.08-.03.182-.008.277-.029.083-.018.168-.065.264-.076.092-.01.188.018.28.009.093-.01.186-.005.279-.012.092-.008.181-.055.274-.062.092-.006.184-.024.277-.03.093-.004.186.002.28-.002.091-.005.185.02.277.016.093-.003.184-.05.277-.053s.185-.01.278-.011c.093-.002.186.004.28.003.092-.001.184.004.277.003l.279.002c.093 0 .186.027.279.027s.186-.016.279-.016.186-.035.28-.035c.092 0 .186.059.279.058s.187-.011.28-.012c.093 0 .186-.032.28-.033.093 0 .186.007.28.005.093 0 .186.015.28.013.093-.001.186.003.28.001.093-.002.186-.017.279-.02s.187.012.28.008.184-.048.277-.053.188.012.28.006c.094-.006.184-.052.276-.06q.14-.007.278-.018c.093-.009.186-.012.278-.022s.187-.013.279-.025" style="fill:#fff"/></svg>