<?xml version="1.0" encoding="UTF-8"?><svg id="b" xmlns="http://www.w3.org/2000/svg" viewBox="0 0 190 34"><g id="c"><rect width="190" height="34" style="fill:none;"/><path d="M47.139466,12.3343443v4.8769531h-1.5595703v6.3701172c0,1.1132812-.2275391,1.9296875-.6811523,2.4501953-.4541016.5195312-1.2817383.875-2.4824219,1.0654297-1.2011719.1904297-3.0683594.2851562-5.6015625.2851562-.1464844-.8056641-.293457-1.5009766-.4394531-2.0869141-.1464844-.5859375-.3662109-1.1640625-.6591797-1.7353516-1.9331055,1.40625-4.1591797,2.6943359-6.6777344,3.8662109-.3227539-1.1425781-.6704102-2.1054688-1.043457-2.8886719-.3735352-.7832031-.8974609-1.6875-1.5708008-2.7128906,2.0942383-.4101562,3.8110352-.9814453,5.1513672-1.7138672,1.3398438-.7314453,2.6103516-1.6982422,3.8110352-2.8994141h-8.0839844v-4.8769531h12.6533203v-1.2958984h5.6240234v1.2958984h1.5595703ZM36.814759,17.2112974l3.1411133,2.1962891v-2.1962891h-3.1411133ZM38.3963019,22.7689146c.4536133,0,.7910156-.0585938,1.0107422-.1757812.2192383-.1171875.3657227-.3076172.4389648-.5712891s.1098633-.6513672.1098633-1.1640625v-1.2304688c-.7763672.9960938-1.8012695,2.0068359-3.0751953,3.0322266.6879883.0732422,1.1933594.109375,1.515625.109375Z"/><path d="M67.7883918,27.6458677c-1.9038086-.8789062-4.1005859-1.9990234-6.590332-3.3613281-2.3286133,1.4208984-4.8916016,2.5195312-7.6884766,3.2949219-.5566406-.8925781-1.1206055-1.7275391-1.6914062-2.5039062-.5712891-.7763672-1.2963867-1.6542969-2.1748047-2.6357422,3.0898438-.3662109,5.722168-1.0439453,7.8969727-2.0322266s3.9873047-2.3095703,5.4370117-3.9648438h-12.0161133v-4.7451172l16.6953125-.0878906,2.0869141,4.6132812c-1.2739258,1.8310547-2.7241211,3.4785156-4.3496094,4.9423828,1.6987305.6445312,3.3681641,1.0615234,5.0087891,1.2519531-1.171875,2.0068359-2.0429688,3.7490234-2.6142578,5.2285156Z"/><path d="M90.8543097,27.6458677c-1.9038086-.8789062-4.1005859-1.9990234-6.590332-3.3613281-2.3286133,1.4208984-4.8916016,2.5195312-7.6884766,3.2949219-.5566406-.8925781-1.1206055-1.7275391-1.6914062-2.5039062-.5712891-.7763672-1.2963867-1.6542969-2.1748047-2.6357422,3.0898438-.3662109,5.722168-1.0439453,7.8969727-2.0322266s3.9873047-2.3095703,5.4370117-3.9648438h-12.0161133v-4.7451172l16.6953125-.0878906,2.0869141,4.6132812c-1.2739258,1.8310547-2.7241211,3.4785156-4.3496094,4.9423828,1.6987305.6445312,3.3681641,1.0615234,5.0087891,1.2519531-1.171875,2.0068359-2.0429688,3.7490234-2.6142578,5.2285156Z"/><path d="M114.5896613,24.9876646c-.6225586.4541016-1.3730469,1.0400391-2.2514648,1.7578125l-.8349609.6806641c-1.0102539-1.3759766-2.0356445-2.5996094-3.0751953-3.6689453-1.2890625.7910156-2.75,1.4941406-4.3828125,2.109375s-3.3647461,1.1054688-5.1953125,1.4716797c-.4541016-1.0400391-.9335938-1.9912109-1.4389648-2.8554688-.5048828-.8642578-1.1967773-1.7724609-2.0756836-2.7246094,3.5292969-.3359375,6.3999023-.9150391,8.6113281-1.7353516-1.7431641-1.15625-3.6245117-2.1162109-5.6455078-2.8779297l3.5805664-4.1289062c2.2548828,1.0244141,4.4375,2.2402344,6.5463867,3.6464844.5561523-.9814453.8344727-2.1015625.8344727-3.3613281,0-.7617188-.0952148-1.5742188-.2856445-2.4384766h5.8432617c.1464844.8203125.2197266,1.6328125.2197266,2.4384766,0,2.4902344-.7612305,4.7226562-2.284668,6.7001953,1.3623047,1.171875,2.6362305,2.453125,3.8227539,3.84375-.703125.3076172-1.3657227.6884766-1.9882812,1.1425781Z"/><path d="M124.6179816,21.9339536l1.2519531-.0878906c-.1611328,1.0546875-.2416992,2.0576172-.2416992,3.0097656,0,.3808594.0073242.6669922.0219727.8564453l-.5268555.0878906c-2.6362305.4394531-4.6572266.7177734-6.0629883.8349609-.0878906-1.7714844-.2416992-3.2431641-.4614258-4.4150391l1.4936523-.0224609v-1.9765625h-1.0322266v-3.6904297h1.0322266v-1.6035156h-1.0322266v-3.6914062h6.3706055v3.6914062h-.8129883v1.6035156h.8129883v3.6904297h-.8129883v1.7128906ZM134.854798,23.6478208v.3955078h4.8110352v3.2294922h-13.5761719v-3.2294922h4.4594727v-.3955078h-4.4155273v-2.7900391h4.4155273v-.3955078h-4.503418v-9.5771484h13.3344727v9.5771484h-4.5253906v.3955078h4.4375v2.7900391h-4.4375ZM131.2083136,13.674188h-1.40625v.7470703h1.40625v-.7470703ZM131.2083136,17.0355161h-1.40625v.7470703h1.40625v-.7470703ZM134.217591,14.4212583h1.40625v-.7470703h-1.40625v.7470703ZM134.217591,17.7825864h1.40625v-.7470703h-1.40625v.7470703Z"/><path d="M154.8005988,10.533563v1.4277344h7.6450195v15.5742188h-5.2724609v-.3291016h-9.621582v.3291016h-5.2719727v-15.5742188h7.6445312v-1.4277344h4.8764648ZM149.924134,15.892938h-2.3725586v1.6699219h2.3725586v-1.6699219ZM149.924134,21.3411802h-2.3725586v1.6914062h2.3725586v-1.6914062ZM154.8005988,15.892938v1.6699219h2.3725586v-1.6699219h-2.3725586ZM154.8005988,23.0325864h2.3725586v-1.6914062h-2.3725586v1.6914062Z"/><path d="M48.1379861,13.3328644v4.8769531h-1.5595703v6.3701172c0,1.1132812-.2275391,1.9296875-.6811523,2.4501953-.4541016.5195312-1.2817383.875-2.4824219,1.0654297-1.2011719.1904297-3.0683594.2851562-5.6015625.2851562-.1464844-.8056641-.293457-1.5009766-.4394531-2.0869141-.1464844-.5859375-.3662109-1.1640625-.6591797-1.7353516-1.9331055,1.40625-4.1591797,2.6943359-6.6777344,3.8662109-.3227539-1.1425781-.6704102-2.1054688-1.043457-2.8886719-.3735352-.7832031-.8974609-1.6875-1.5708008-2.7128906,2.0942383-.4101562,3.8110352-.9814453,5.1513672-1.7138672,1.3398438-.7314453,2.6103516-1.6982422,3.8110352-2.8994141h-8.0839844v-4.8769531h12.6533203v-1.2958984h5.6240234v1.2958984h1.5595703ZM37.8132791,18.2098175l3.1411133,2.1962891v-2.1962891h-3.1411133ZM39.394822,23.7674347c.4536133,0,.7910156-.0585938,1.0107422-.1757812.2192383-.1171875.3657227-.3076172.4389648-.5712891s.1098633-.6513672.1098633-1.1640625v-1.2304688c-.7763672.9960938-1.8012695,2.0068359-3.0751953,3.0322266.6879883.0732422,1.1933594.109375,1.515625.109375Z" style="fill:none; stroke:#231815; stroke-linecap:round; stroke-linejoin:round; stroke-width:2.8304508px;"/><path d="M68.7869119,28.6443878c-1.9038086-.8789062-4.1005859-1.9990234-6.590332-3.3613281-2.3286133,1.4208984-4.8916016,2.5195312-7.6884766,3.2949219-.5566406-.8925781-1.1206055-1.7275391-1.6914062-2.5039062-.5712891-.7763672-1.2963867-1.6542969-2.1748047-2.6357422,3.0898438-.3662109,5.722168-1.0439453,7.8969727-2.0322266s3.9873047-2.3095703,5.4370117-3.9648438h-12.0161133v-4.7451172l16.6953125-.0878906,2.0869141,4.6132812c-1.2739258,1.8310547-2.7241211,3.4785156-4.3496094,4.9423828,1.6987305.6445312,3.3681641,1.0615234,5.0087891,1.2519531-1.171875,2.0068359-2.0429688,3.7490234-2.6142578,5.2285156Z" style="fill:none; stroke:#231815; stroke-linecap:round; stroke-linejoin:round; stroke-width:2.8304508px;"/><path d="M91.8528298,28.6443878c-1.9038086-.8789062-4.1005859-1.9990234-6.590332-3.3613281-2.3286133,1.4208984-4.8916016,2.5195312-7.6884766,3.2949219-.5566406-.8925781-1.1206055-1.7275391-1.6914062-2.5039062-.5712891-.7763672-1.2963867-1.6542969-2.1748047-2.6357422,3.0898438-.3662109,5.722168-1.0439453,7.8969727-2.0322266s3.9873047-2.3095703,5.4370117-3.9648438h-12.0161133v-4.7451172l16.6953125-.0878906,2.0869141,4.6132812c-1.2739258,1.8310547-2.7241211,3.4785156-4.3496094,4.9423828,1.6987305.6445312,3.3681641,1.0615234,5.0087891,1.2519531-1.171875,2.0068359-2.0429688,3.7490234-2.6142578,5.2285156Z" style="fill:none; stroke:#231815; stroke-linecap:round; stroke-linejoin:round; stroke-width:2.8304508px;"/><path d="M115.5881814,25.9861847c-.6225586.4541016-1.3730469,1.0400391-2.2514648,1.7578125l-.8349609.6806641c-1.0102539-1.3759766-2.0356445-2.5996094-3.0751953-3.6689453-1.2890625.7910156-2.75,1.4941406-4.3828125,2.109375s-3.3647461,1.1054688-5.1953125,1.4716797c-.4541016-1.0400391-.9335938-1.9912109-1.4389648-2.8554688-.5048828-.8642578-1.1967773-1.7724609-2.0756836-2.7246094,3.5292969-.3359375,6.3999023-.9150391,8.6113281-1.7353516-1.7431641-1.15625-3.6245117-2.1162109-5.6455078-2.8779297l3.5805664-4.1289062c2.2548828,1.0244141,4.4375,2.2402344,6.5463867,3.6464844.5561523-.9814453.8344727-2.1015625.8344727-3.3613281,0-.7617188-.0952148-1.5742188-.2856445-2.4384766h5.8432617c.1464844.8203125.2197266,1.6328125.2197266,2.4384766,0,2.4902344-.7612305,4.7226562-2.284668,6.7001953,1.3623047,1.171875,2.6362305,2.453125,3.8227539,3.84375-.703125.3076172-1.3657227.6884766-1.9882812,1.1425781Z" style="fill:none; stroke:#231815; stroke-linecap:round; stroke-linejoin:round; stroke-width:2.8304508px;"/><path d="M125.6165017,22.9324737l1.2519531-.0878906c-.1611328,1.0546875-.2416992,2.0576172-.2416992,3.0097656,0,.3808594.0073242.6669922.0219727.8564453l-.5268555.0878906c-2.6362305.4394531-4.6572266.7177734-6.0629883.8349609-.0878906-1.7714844-.2416992-3.2431641-.4614258-4.4150391l1.4936523-.0224609v-1.9765625h-1.0322266v-3.6904297h1.0322266v-1.6035156h-1.0322266v-3.6914062h6.3706055v3.6914062h-.8129883v1.6035156h.8129883v3.6904297h-.8129883v1.7128906ZM135.8533181,24.6463409v.3955078h4.8110352v3.2294922h-13.5761719v-3.2294922h4.4594727v-.3955078h-4.4155273v-2.7900391h4.4155273v-.3955078h-4.503418v-9.5771484h13.3344727v9.5771484h-4.5253906v.3955078h4.4375v2.7900391h-4.4375ZM132.2068337,14.6727081h-1.40625v.7470703h1.40625v-.7470703ZM132.2068337,18.0340362h-1.40625v.7470703h1.40625v-.7470703ZM135.2161111,15.4197784h1.40625v-.7470703h-1.40625v.7470703ZM135.2161111,18.7811065h1.40625v-.7470703h-1.40625v.7470703Z" style="fill:none; stroke:#231815; stroke-linecap:round; stroke-linejoin:round; stroke-width:2.8304508px;"/><path d="M155.7991189,11.5320831v1.4277344h7.6450195v15.5742188h-5.2724609v-.3291016h-9.621582v.3291016h-5.2719727v-15.5742188h7.6445312v-1.4277344h4.8764648ZM150.9226541,16.8914581h-2.3725586v1.6699219h2.3725586v-1.6699219ZM150.9226541,22.3397003h-2.3725586v1.6914062h2.3725586v-1.6914062ZM155.7991189,16.8914581v1.6699219h2.3725586v-1.6699219h-2.3725586ZM155.7991189,24.0311065h2.3725586v-1.6914062h-2.3725586v1.6914062Z" style="fill:none; stroke:#231815; stroke-linecap:round; stroke-linejoin:round; stroke-width:2.8304508px;"/><path d="M47.139466,12.3343443v4.8769531h-1.5595703v6.3701172c0,1.1132812-.2275391,1.9296875-.6811523,2.4501953-.4541016.5195312-1.2817383.875-2.4824219,1.0654297-1.2011719.1904297-3.0683594.2851562-5.6015625.2851562-.1464844-.8056641-.293457-1.5009766-.4394531-2.0869141-.1464844-.5859375-.3662109-1.1640625-.6591797-1.7353516-1.9331055,1.40625-4.1591797,2.6943359-6.6777344,3.8662109-.3227539-1.1425781-.6704102-2.1054688-1.043457-2.8886719-.3735352-.7832031-.8974609-1.6875-1.5708008-2.7128906,2.0942383-.4101562,3.8110352-.9814453,5.1513672-1.7138672,1.3398438-.7314453,2.6103516-1.6982422,3.8110352-2.8994141h-8.0839844v-4.8769531h12.6533203v-1.2958984h5.6240234v1.2958984h1.5595703ZM36.814759,17.2112974l3.1411133,2.1962891v-2.1962891h-3.1411133ZM38.3963019,22.7689146c.4536133,0,.7910156-.0585938,1.0107422-.1757812.2192383-.1171875.3657227-.3076172.4389648-.5712891s.1098633-.6513672.1098633-1.1640625v-1.2304688c-.7763672.9960938-1.8012695,2.0068359-3.0751953,3.0322266.6879883.0732422,1.1933594.109375,1.515625.109375Z" style="fill:#fff;"/><path d="M67.7883918,27.6458677c-1.9038086-.8789062-4.1005859-1.9990234-6.590332-3.3613281-2.3286133,1.4208984-4.8916016,2.5195312-7.6884766,3.2949219-.5566406-.8925781-1.1206055-1.7275391-1.6914062-2.5039062-.5712891-.7763672-1.2963867-1.6542969-2.1748047-2.6357422,3.0898438-.3662109,5.722168-1.0439453,7.8969727-2.0322266s3.9873047-2.3095703,5.4370117-3.9648438h-12.0161133v-4.7451172l16.6953125-.0878906,2.0869141,4.6132812c-1.2739258,1.8310547-2.7241211,3.4785156-4.3496094,4.9423828,1.6987305.6445312,3.3681641,1.0615234,5.0087891,1.2519531-1.171875,2.0068359-2.0429688,3.7490234-2.6142578,5.2285156Z" style="fill:#fff;"/><path d="M90.8543097,27.6458677c-1.9038086-.8789062-4.1005859-1.9990234-6.590332-3.3613281-2.3286133,1.4208984-4.8916016,2.5195312-7.6884766,3.2949219-.5566406-.8925781-1.1206055-1.7275391-1.6914062-2.5039062-.5712891-.7763672-1.2963867-1.6542969-2.1748047-2.6357422,3.0898438-.3662109,5.722168-1.0439453,7.8969727-2.0322266s3.9873047-2.3095703,5.4370117-3.9648438h-12.0161133v-4.7451172l16.6953125-.0878906,2.0869141,4.6132812c-1.2739258,1.8310547-2.7241211,3.4785156-4.3496094,4.9423828,1.6987305.6445312,3.3681641,1.0615234,5.0087891,1.2519531-1.171875,2.0068359-2.0429688,3.7490234-2.6142578,5.2285156Z" style="fill:#fff;"/><path d="M114.5896613,24.9876646c-.6225586.4541016-1.3730469,1.0400391-2.2514648,1.7578125l-.8349609.6806641c-1.0102539-1.3759766-2.0356445-2.5996094-3.0751953-3.6689453-1.2890625.7910156-2.75,1.4941406-4.3828125,2.109375s-3.3647461,1.1054688-5.1953125,1.4716797c-.4541016-1.0400391-.9335938-1.9912109-1.4389648-2.8554688-.5048828-.8642578-1.1967773-1.7724609-2.0756836-2.7246094,3.5292969-.3359375,6.3999023-.9150391,8.6113281-1.7353516-1.7431641-1.15625-3.6245117-2.1162109-5.6455078-2.8779297l3.5805664-4.1289062c2.2548828,1.0244141,4.4375,2.2402344,6.5463867,3.6464844.5561523-.9814453.8344727-2.1015625.8344727-3.3613281,0-.7617188-.0952148-1.5742188-.2856445-2.4384766h5.8432617c.1464844.8203125.2197266,1.6328125.2197266,2.4384766,0,2.4902344-.7612305,4.7226562-2.284668,6.7001953,1.3623047,1.171875,2.6362305,2.453125,3.8227539,3.84375-.703125.3076172-1.3657227.6884766-1.9882812,1.1425781Z" style="fill:#fff;"/><path d="M124.6179816,21.9339536l1.2519531-.0878906c-.1611328,1.0546875-.2416992,2.0576172-.2416992,3.0097656,0,.3808594.0073242.6669922.0219727.8564453l-.5268555.0878906c-2.6362305.4394531-4.6572266.7177734-6.0629883.8349609-.0878906-1.7714844-.2416992-3.2431641-.4614258-4.4150391l1.4936523-.0224609v-1.9765625h-1.0322266v-3.6904297h1.0322266v-1.6035156h-1.0322266v-3.6914062h6.3706055v3.6914062h-.8129883v1.6035156h.8129883v3.6904297h-.8129883v1.7128906ZM134.854798,23.6478208v.3955078h4.8110352v3.2294922h-13.5761719v-3.2294922h4.4594727v-.3955078h-4.4155273v-2.7900391h4.4155273v-.3955078h-4.503418v-9.5771484h13.3344727v9.5771484h-4.5253906v.3955078h4.4375v2.7900391h-4.4375ZM131.2083136,13.674188h-1.40625v.7470703h1.40625v-.7470703ZM131.2083136,17.0355161h-1.40625v.7470703h1.40625v-.7470703ZM134.217591,14.4212583h1.40625v-.7470703h-1.40625v.7470703ZM134.217591,17.7825864h1.40625v-.7470703h-1.40625v.7470703Z" style="fill:#fff;"/><path d="M154.8005988,10.533563v1.4277344h7.6450195v15.5742188h-5.2724609v-.3291016h-9.621582v.3291016h-5.2719727v-15.5742188h7.6445312v-1.4277344h4.8764648ZM149.924134,15.892938h-2.3725586v1.6699219h2.3725586v-1.6699219ZM149.924134,21.3411802h-2.3725586v1.6914062h2.3725586v-1.6914062ZM154.8005988,15.892938v1.6699219h2.3725586v-1.6699219h-2.3725586ZM154.8005988,23.0325864h2.3725586v-1.6914062h-2.3725586v1.6914062Z" style="fill:#fff;"/><path d="M47.139466,12.3343443v4.8769531h-1.5595703v6.3701172c0,1.1132812-.2275391,1.9296875-.6811523,2.4501953-.4541016.5195312-1.2817383.875-2.4824219,1.0654297-1.2011719.1904297-3.0683594.2851562-5.6015625.2851562-.1464844-.8056641-.293457-1.5009766-.4394531-2.0869141-.1464844-.5859375-.3662109-1.1640625-.6591797-1.7353516-1.9331055,1.40625-4.1591797,2.6943359-6.6777344,3.8662109-.3227539-1.1425781-.6704102-2.1054688-1.043457-2.8886719-.3735352-.7832031-.8974609-1.6875-1.5708008-2.7128906,2.0942383-.4101562,3.8110352-.9814453,5.1513672-1.7138672,1.3398438-.7314453,2.6103516-1.6982422,3.8110352-2.8994141h-8.0839844v-4.8769531h12.6533203v-1.2958984h5.6240234v1.2958984h1.5595703ZM36.814759,17.2112974l3.1411133,2.1962891v-2.1962891h-3.1411133ZM38.3963019,22.7689146c.4536133,0,.7910156-.0585938,1.0107422-.1757812.2192383-.1171875.3657227-.3076172.4389648-.5712891s.1098633-.6513672.1098633-1.1640625v-1.2304688c-.7763672.9960938-1.8012695,2.0068359-3.0751953,3.0322266.6879883.0732422,1.1933594.109375,1.515625.109375Z" style="fill:none; stroke:#231815; stroke-linecap:round; stroke-linejoin:round; stroke-width:.9906577px;"/><path d="M67.7883918,27.6458677c-1.9038086-.8789062-4.1005859-1.9990234-6.590332-3.3613281-2.3286133,1.4208984-4.8916016,2.5195312-7.6884766,3.2949219-.5566406-.8925781-1.1206055-1.7275391-1.6914062-2.5039062-.5712891-.7763672-1.2963867-1.6542969-2.1748047-2.6357422,3.0898438-.3662109,5.722168-1.0439453,7.8969727-2.0322266s3.9873047-2.3095703,5.4370117-3.9648438h-12.0161133v-4.7451172l16.6953125-.0878906,2.0869141,4.6132812c-1.2739258,1.8310547-2.7241211,3.4785156-4.3496094,4.9423828,1.6987305.6445312,3.3681641,1.0615234,5.0087891,1.2519531-1.171875,2.0068359-2.0429688,3.7490234-2.6142578,5.2285156Z" style="fill:none; stroke:#231815; stroke-linecap:round; stroke-linejoin:round; stroke-width:.9906577px;"/><path d="M90.8543097,27.6458677c-1.9038086-.8789062-4.1005859-1.9990234-6.590332-3.3613281-2.3286133,1.4208984-4.8916016,2.5195312-7.6884766,3.2949219-.5566406-.8925781-1.1206055-1.7275391-1.6914062-2.5039062-.5712891-.7763672-1.2963867-1.6542969-2.1748047-2.6357422,3.0898438-.3662109,5.722168-1.0439453,7.8969727-2.0322266s3.9873047-2.3095703,5.4370117-3.9648438h-12.0161133v-4.7451172l16.6953125-.0878906,2.0869141,4.6132812c-1.2739258,1.8310547-2.7241211,3.4785156-4.3496094,4.9423828,1.6987305.6445312,3.3681641,1.0615234,5.0087891,1.2519531-1.171875,2.0068359-2.0429688,3.7490234-2.6142578,5.2285156Z" style="fill:none; stroke:#231815; stroke-linecap:round; stroke-linejoin:round; stroke-width:.9906577px;"/><path d="M114.5896613,24.9876646c-.6225586.4541016-1.3730469,1.0400391-2.2514648,1.7578125l-.8349609.6806641c-1.0102539-1.3759766-2.0356445-2.5996094-3.0751953-3.6689453-1.2890625.7910156-2.75,1.4941406-4.3828125,2.109375s-3.3647461,1.1054688-5.1953125,1.4716797c-.4541016-1.0400391-.9335938-1.9912109-1.4389648-2.8554688-.5048828-.8642578-1.1967773-1.7724609-2.0756836-2.7246094,3.5292969-.3359375,6.3999023-.9150391,8.6113281-1.7353516-1.7431641-1.15625-3.6245117-2.1162109-5.6455078-2.8779297l3.5805664-4.1289062c2.2548828,1.0244141,4.4375,2.2402344,6.5463867,3.6464844.5561523-.9814453.8344727-2.1015625.8344727-3.3613281,0-.7617188-.0952148-1.5742188-.2856445-2.4384766h5.8432617c.1464844.8203125.2197266,1.6328125.2197266,2.4384766,0,2.4902344-.7612305,4.7226562-2.284668,6.7001953,1.3623047,1.171875,2.6362305,2.453125,3.8227539,3.84375-.703125.3076172-1.3657227.6884766-1.9882812,1.1425781Z" style="fill:none; stroke:#231815; stroke-linecap:round; stroke-linejoin:round; stroke-width:.9906577px;"/><path d="M124.6179816,21.9339536l1.2519531-.0878906c-.1611328,1.0546875-.2416992,2.0576172-.2416992,3.0097656,0,.3808594.0073242.6669922.0219727.8564453l-.5268555.0878906c-2.6362305.4394531-4.6572266.7177734-6.0629883.8349609-.0878906-1.7714844-.2416992-3.2431641-.4614258-4.4150391l1.4936523-.0224609v-1.9765625h-1.0322266v-3.6904297h1.0322266v-1.6035156h-1.0322266v-3.6914062h6.3706055v3.6914062h-.8129883v1.6035156h.8129883v3.6904297h-.8129883v1.7128906ZM134.854798,23.6478208v.3955078h4.8110352v3.2294922h-13.5761719v-3.2294922h4.4594727v-.3955078h-4.4155273v-2.7900391h4.4155273v-.3955078h-4.503418v-9.5771484h13.3344727v9.5771484h-4.5253906v.3955078h4.4375v2.7900391h-4.4375ZM131.2083136,13.674188h-1.40625v.7470703h1.40625v-.7470703ZM131.2083136,17.0355161h-1.40625v.7470703h1.40625v-.7470703ZM134.217591,14.4212583h1.40625v-.7470703h-1.40625v.7470703ZM134.217591,17.7825864h1.40625v-.7470703h-1.40625v.7470703Z" style="fill:none; stroke:#231815; stroke-linecap:round; stroke-linejoin:round; stroke-width:.9906577px;"/><path d="M154.8005988,10.533563v1.4277344h7.6450195v15.5742188h-5.2724609v-.3291016h-9.621582v.3291016h-5.2719727v-15.5742188h7.6445312v-1.4277344h4.8764648ZM149.924134,15.892938h-2.3725586v1.6699219h2.3725586v-1.6699219ZM149.924134,21.3411802h-2.3725586v1.6914062h2.3725586v-1.6914062ZM154.8005988,15.892938v1.6699219h2.3725586v-1.6699219h-2.3725586ZM154.8005988,23.0325864h2.3725586v-1.6914062h-2.3725586v1.6914062Z" style="fill:none; stroke:#231815; stroke-linecap:round; stroke-linejoin:round; stroke-width:.9906577px;"/><path d="M172.5171345.273338c.2605892.1792514.0566535,2.4420485.4403157,3.0876512.3956952.6658511,3.0190015.5963283,2.9250754,1.620515-.0606906.6617801-1.9602539.7030348-2.6278052,1.4587911-.7806106.8837543-.3744008,2.7093797-.793842,3.1326053-.9555342.9641555-1.0396356-1.4757439-1.1649771-1.895924-.5371246-1.8005934-2.8184138-1.3308456-2.9261743-2.1014573-.1363371-.9749674.8206732-.9062182,1.3824685-1.1828948.8799219-.4333495,1.2851497-1.3172845,1.5749995-2.2068663.2803353-.8603809.048078-2.1367348,1.1899395-1.9124203Z" style="fill:#ec8c38;"/><path d="M183.9631373,3.9093922l.5056983.050639c.2237508.1581809.1538725,2.5835051.1333297,3.0634014-.0451672,1.0551429-.3448179,1.4125527-.0795033,2.7002884.4158567,2.0184095,1.9900837,3.1122885,3.9469877,3.4714417.4983437.0914617,1.6096462-.2243436,1.5258638.6620164-.0625481.6617159-1.1034913.4327684-1.4988978.5509721-.6002283.1794336-1.8748067.75442-2.362122,1.1289171-2.4802585,1.9060551-2.4398523,5.9964538-2.9983606,8.7878326-.2264478.3445096-.8587177.2177491-.9738125-.1662532-.290375-.9688068-.0923444-2.5784739-.3616329-3.7133959-.3328149-1.4026551-1.6396033-4.8444276-3.0227688-5.4136385-.6853865-.2820555-1.9260176.044684-1.8484011-1.1486346.5590778-.8272079,1.3170232-.129959,1.9293464-.0844855,1.8906046.1404038,2.8017011-1.6101805,3.494502-3.0603206.9569982-2.0031464.8121674-2.901314,1.128824-4.98019.0499646-.3280216.2580298-1.7738411.4809469-1.8485905Z" style="fill:#ec8c38;"/><path d="M177.7459555,30.7843443c-.2373239.043994-.5201721.1035722-.7208342-.0726081-.4551237-.3995966-.8340202-3.0732978-1.1882598-3.3577864-1.0821937-.3670217-2.0504761.0798405-3.0234536-.6969926-.2309668-.8430767,1.3649981-.9359307,1.8986061-1.1600653.871541-.3660786,1.3730511-1.2473001,1.6688075-2.1130609.1775848-.5198398.2193984-2.3894887,1.1808557-1.6094827.5578996.4526098-.4770615,1.8086461.4971259,2.8482068.6694042.7143248,2.1012331.2098601,2.1867151,1.0264404.0634301.6059257-.8914006.5772831-1.3667076.959822-1.5768046,1.2690519-.5692908,2.5156448-1.1328551,4.1755269Z" style="fill:#ec8c38;"/><path d="M18.672805,2.1857583c.2898498.8895818.6950776,1.7735168,1.5749995,2.2068663.5617953.2766765,1.5188056.2079273,1.3824685,1.1828948-.1077605.7706117-2.3890497.3008639-2.9261743,2.1014573-.1253415.4201801-.2094429,2.8600795-1.1649771,1.895924-.4194412-.4232256-.0132314-2.2488509-.793842-3.1326053-.6675513-.7557563-2.5671146-.797011-2.6278052-1.4587911-.0939262-1.0241868,2.5293802-.954664,2.9250754-1.620515.3836622-.6456027.1797265-2.9083998.4403157-3.0876512,1.1418615-.2243145.9096042,1.0520394,1.1899395,1.9124203Z" style="fill:#ec8c38;"/><path d="M6.5178096,5.7579827c.3166566,2.078876.1718257,2.9770436,1.128824,4.98019.6928009,1.4501401,1.6038974,3.2007245,3.494502,3.0603207.6123232-.0454736,1.3702686-.7427224,1.9293464.0844855.0776165,1.1933186-1.1630146.866579-1.8484011,1.1486346-1.3831656.5692109-2.689954,4.0109834-3.0227688,5.4136385-.2692885,1.1349219-.0712578,2.7445891-.3616329,3.7133959-.1150948.3840023-.7473647.5107628-.9738125.1662532-.5585083-2.7913788-.518102-6.8817775-2.9983606-8.7878326-.4873152-.3744971-1.7618936-.9494835-2.362122-1.1289171-.3954065-.1182037-1.4363497.1107438-1.4988978-.5509721-.0837824-.88636,1.0275201-.5705547,1.5258638-.6620164,1.9569041-.3591532,3.5311311-1.4530322,3.9469877-3.4714417.2653146-1.2877357-.0343361-1.6451455-.0795033-2.7002884-.0205428-.4798964-.0904211-2.9052206.1333297-3.0634014l.5056983-.050639c.2229171.0747494.4309823,1.5205689.4809469,1.8485905Z" style="fill:#ec8c38;"/><path d="M11.1211894,26.6088174c-.4753069-.3825389-1.4301376-.3538963-1.3667076-.959822.085482-.8165803,1.5173109-.3121155,2.1867151-1.0264404.9741875-1.0395607-.0607737-2.395597.4971259-2.8482068.9614573-.7800059,1.0032708,1.0896429,1.1808557,1.6094827.2957565.8657608.7972666,1.7469823,1.6688075,2.1130609.533608.2241346,2.1295729.3169886,1.8986061,1.1600653-.9729775.7768331-1.9412599.3299709-3.0234536.6969926-.3542396.2844886-.7331361,2.9581898-1.1882598,3.3577864-.200662.1761804-.4835102.1166022-.7208342.0726081-.5635644-1.6598821.4439495-2.906475-1.1328551-4.1755269Z" style="fill:#ec8c38;"/></g></svg>