<svg xmlns="http://www.w3.org/2000/svg" viewBox="0 0 75 75"><path d="M73 27.719c0 3.043-2.476 5.52-5.453 5.522-3.797-.278-6.037-2.513-7.327-4.08-.724-.88-.496-1.854-.031-2.387 1.626-1.862 4.36-4.575 7.291-4.575a5.526 5.526 0 0 1 5.52 5.52m-29.472 0c0 3.043 2.476 5.52 5.453 5.522 3.797-.278 6.037-2.513 7.327-4.08.724-.88.497-1.854.031-2.387-1.625-1.862-4.36-4.575-7.29-4.575a5.526 5.526 0 0 0-5.52 5.52" style="fill:#ce9e23"/><path d="M50.044 2.3c-1.027-.396-2.316-.68-3.941-.759a15 15 0 0 0-.811-.022h-.03c-.033 0-.062-.003-.096-.003H27.694q-.052 0-.103.003h-.214c-8.211 0-14.892 6.68-14.892 14.891v17.787c0 .022.005.051.006.075.118 8.11 6.748 14.673 14.886 14.673h18.059c8.132 0 14.747-6.616 14.747-14.748v-.564h-.002a1.85 1.85 0 0 0-1.859-1.818 1.85 1.85 0 0 0-1.86 1.824h-.001v.414c0 2.155-.625 4.163-1.687 5.872-1.054 1.417-2.047 1.95-3.164 1.959-1.22.01-2.666-1.268-2.666-1.268l-.006.008-10.85-8.981c-.961-.881-1.19-1.424-1.262-2.394-.091-1.217.951-2.259.951-2.259L50.52 14.249c1.742-1.743 3.121-2.34 3.956-2.34.188 0 .348.031.48.085.4.166.839.689 1.146 1.653.226.886.36 1.808.36 2.763v5.77h.007a1.85 1.85 0 0 0 1.854 1.776 1.85 1.85 0 0 0 1.854-1.776h.007v-5.77c0-6.55-4.252-12.12-10.139-14.11m-6.068 40.2c.348.322.819.857.86 1.43.068.931-1.016 1.209-1.627 1.292H27.377c-.33 0-.654-.022-.976-.05-1.958-.229-2.93-.882-3.168-1.457-.295-.711.119-2.3 2.254-4.435l4.469-4.469c.842-.794 1.365-1.026 2.28-1.076.894-.05 1.701.476 2.069.76zm3.34-31.184-25.03 25.031c-1.84 1.838-3.33 2.406-3.934 2.154-.44-.182-.9-1.007-1.122-2.435-.216-1.442.237-2.357.622-2.847L35.521 15.79c.664-.655.868-1.647.515-2.51s-1.167-1.513-2.124-1.435-.331.051-.902.11c-1.418.143-4.319.327-7.288-.142-1.97-.31-3.18 1.019-3.06 2.296.119 1.267 1.474 2.313 3.618 2.313l.579.003v.002l.016-.002.228.001c.385.036.95.289-.526 1.713l-6.71 6.618c-2.659 2.126-2.77-.173-2.773-.468v-7.564c0-5.845 4.755-10.6 10.6-10.6h17.472c2.6 0 4.054.652 4.305 1.258.251.605-.316 2.094-2.154 3.933M6 63.188c.02-1.057.03-2.372.03-3.618 0-1.117-.01-2.174-.03-2.93-.01-.32.22-.54.569-.54.288 0 .578.18.578.519v.02c-.01.399-.02.787-.02 1.136 0 .539.01.977.02 1.226 0 .09.02.2.26.2.209 0 .358-.09.538-.29.717-.777 1.873-2.053 2.282-2.59.11-.15.26-.21.408-.21.32 0 .65.289.65.608 0 .1-.031.209-.11.309-.44.538-1.656 1.754-2.354 2.492-.06.06-.089.11-.089.16q0 .06.09.149c.847.867 2.671 2.602 2.84 2.791.12.13.17.279.17.409 0 .348-.329.658-.668.658a.62.62 0 0 1-.448-.2c-.339-.349-2.024-2.153-2.752-3-.15-.17-.269-.2-.419-.2-.07 0-.129.01-.21.01-.078 0-.188.01-.188.16-.01.259-.02.787-.02 1.435 0 .399 0 .838.02 1.296v.02c0 .32-.279.468-.568.468-.29 0-.579-.16-.579-.478zm5.88-3.28c0-2.242 1.645-3.867 3.838-3.867s3.847 1.625 3.847 3.868c0 2.322-1.655 3.867-3.847 3.867s-3.838-1.545-3.838-3.867m6.509 0c0-1.724-1.196-2.84-2.671-2.84s-2.672 1.116-2.672 2.84c0 1.715 1.196 2.822 2.672 2.822s2.67-1.107 2.67-2.821m4.004 3.25c.02-.777.03-2.223.03-3.538 0-.878 0-1.705-.02-2.233 0-.2-.03-.2-.619-.2-.379 0-.846.02-1.315.02-.379 0-.568-.269-.568-.538s.179-.528.548-.528h.02c.598.01 1.655.02 2.69.02.848 0 1.696-.01 2.264-.02.389-.01.519.319.519.538 0 .269-.16.528-.479.528h-.04c-.338-.02-.628-.02-.867-.02q-.987 0-.987.2a99 99 0 0 0-.03 2.621c0 1.196.02 2.412.05 3.15.02.349-.29.518-.598.518-.299 0-.598-.169-.598-.508zm4.134-3.25c0-2.242 1.645-3.867 3.837-3.867 2.194 0 3.849 1.625 3.849 3.868 0 2.322-1.655 3.867-3.849 3.867-2.192 0-3.837-1.545-3.837-3.867m6.51 0c0-1.724-1.197-2.84-2.673-2.84-1.474 0-2.67 1.116-2.67 2.84 0 1.715 1.196 2.822 2.67 2.822 1.476 0 2.673-1.107 2.673-2.821m17.315 3.858c-1.624 0-2.462-.927-2.462-1.416 0-.328.29-.568.578-.568.16 0 .32.08.439.25.259.368.747.668 1.456.668 1.096 0 1.335-.748 1.335-1.067 0-.399-.24-.828-.757-1.116a19 19 0 0 0-1.506-.788c-.877-.399-1.276-1.107-1.276-1.794 0-.967.778-1.894 2.154-1.894s2.162.658 2.162 1.126c0 .3-.248.578-.558.578-.15 0-.319-.07-.468-.239-.19-.21-.529-.458-1.146-.458-.638 0-1.027.398-1.027.847 0 .309.19.648.628.877.409.22 1.097.538 1.555.788.997.548 1.415 1.306 1.415 2.043 0 1.066-.907 2.163-2.522 2.163m3.716-3.12v-.05c.01-.698.01-1.435.01-2.163 0-.608 0-1.206-.02-1.784-.01-.29.18-.529.579-.529.279 0 .567.17.567.509v.02c-.01.389-.02.777-.02 1.166 0 .818.02 1.635.02 2.442v.409c0 1.336.897 1.984 1.804 1.984.938 0 1.905-.708 1.905-2.064 0-.867.02-1.754.02-2.631 0-.439-.01-.878-.02-1.306-.01-.449.378-.529.578-.529.289 0 .578.17.578.509v.02c-.02.827-.03 1.505-.03 2.153 0 .568.01 1.126.02 1.754.05 2.174-1.546 3.21-3.01 3.21-1.496 0-2.98-1.036-2.98-3.12m7.663 2.542c.02-1.057.029-2.372.029-3.618 0-1.117-.01-2.174-.03-2.93-.01-.32.22-.54.568-.54.29 0 .578.18.578.519v.02c-.01.399-.02.787-.02 1.136 0 .539.01.977.02 1.226 0 .09.021.2.26.2.21 0 .359-.09.538-.29.718-.777 1.875-2.053 2.283-2.59.11-.15.259-.21.409-.21.319 0 .647.289.647.608 0 .1-.029.209-.11.309-.437.538-1.654 1.754-2.351 2.492-.06.06-.09.11-.09.16q0 .06.09.149c.847.867 2.67 2.602 2.84 2.791.12.13.17.279.17.409 0 .348-.33.658-.668.658-.16 0-.31-.06-.449-.2-.339-.349-2.024-2.153-2.75-3-.15-.17-.27-.2-.42-.2-.07 0-.13.01-.209.01-.08 0-.19.01-.19.16-.01.259-.02.787-.02 1.435 0 .399 0 .838.02 1.296v.02c0 .32-.278.468-.567.468-.29 0-.578-.16-.578-.478zm8.23-.05c0 .349-.299.529-.597.529-.3 0-.6-.18-.6-.529v-.01c.021-1.196.05-2.532.05-3.818 0-.947-.019-1.854-.05-2.661-.019-.419.43-.529.61-.529.288 0 .588.16.588.489v.02c-.02.827-.03 1.764-.03 2.731 0 1.246.01 2.542.03 3.768zM24.57 73.484c-.549 0-1.525-.007-1.593-.968-.02-.336-.034-.892-.034-1.469 0-.755.02-1.552.04-1.922.056-.94.736-.968 1.587-.968.212 0 .419.007.521.013 1.587.104 2.458 1.209 2.458 2.636 0 2.671-2.266 2.678-2.98 2.678m-.096-4.586c-.33 0-.7.007-.721.35-.02.289-.041 1.078-.041 1.82 0 .542.013 1.05.04 1.31.035.316.247.371.818.371.72 0 2.17 0 2.17-1.943 0-1.105-.667-1.9-1.717-1.9 0 0-.296-.008-.549-.008m6.19 0c-.687 0-.83.014-.851.31-.014.164-.007.5-.014.898 0 .138.007.138.851.138.316 0 .645 0 .77-.007.383-.02.383.343.383.364 0 .199-.123.39-.363.39h-.034a10 10 0 0 0-.694-.02c-.851 0-.92.007-.92.152 0 1.022.007 1.18.02 1.297.035.316.144.33 1.112.33.405 0 .845-.008.976-.014h.034c.24 0 .37.171.37.35 0 .185-.137.37-.432.384-.09.007-.488.014-.885.014-.392 0-.79-.007-.879-.014-.632-.048-1.023-.275-1.05-.878-.014-.289-.014-.797-.014-1.353 0-.837.006-1.771.02-2.204.014-.548.37-.837.927-.865.124-.006.514-.013.899-.013.391 0 .769.007.872.013.261.014.384.186.384.364 0 .186-.144.371-.405.371 0 0-.61-.007-1.077-.007m4.314 4.58c-1.118 0-1.696-.64-1.696-.976 0-.226.2-.391.399-.391.11 0 .22.055.302.172.178.253.515.46 1.002.46.755 0 .92-.515.92-.735 0-.274-.165-.57-.522-.769a13 13 0 0 0-1.036-.542c-.605-.275-.879-.762-.879-1.236 0-.666.535-1.304 1.483-1.304s1.489.453 1.489.776c0 .206-.171.398-.384.398a.44.44 0 0 1-.323-.165c-.13-.144-.364-.315-.79-.315-.439 0-.707.274-.707.583 0 .213.131.446.433.604.282.151.755.37 1.071.542.686.378.975.9.975 1.408 0 .734-.624 1.49-1.737 1.49m3.959-.433c0 .24-.207.363-.412.363-.206 0-.412-.123-.412-.363v-.007c.014-.824.034-1.744.034-2.63 0-.651-.013-1.276-.034-1.832-.014-.289.295-.364.419-.364.198 0 .405.11.405.336v.014a80 80 0 0 0-.02 1.881c0 .858.006 1.75.02 2.595zm5.267-1.627c-.07 0-.412.006-.79.02h-.013c-.22 0-.344-.199-.344-.398 0-.364.296-.364.522-.364.336 0 .721.014.947.014.591 0 .81.302.81.728 0 .782-.7 2.066-2.333 2.066-1.38 0-2.568-1.03-2.568-2.615 0-1.394.981-2.72 2.657-2.72 1.092 0 1.832.633 1.832 1.003a.43.43 0 0 1-.419.426.44.44 0 0 1-.349-.185c-.268-.33-.7-.488-1.133-.488-1.202 0-1.785 1.05-1.785 1.93 0 .912.59 1.853 1.765 1.853 1.132 0 1.44-.88 1.44-1.078 0-.13-.102-.192-.225-.192zm2.496 1.661a125 125 0 0 0 .007-4.18v-.028c0-.48.268-.673.57-.673.254 0 .529.144.673.37.432.687 1.579 2.829 2.1 3.612.042.061.076.096.096.096s.048-.02.048-.288c0-.646-.02-2.788-.04-3.42-.008-.226.177-.37.397-.37.2 0 .399.124.399.357v.014c-.014.48-.02 1.146-.02 1.833 0 .872.006 1.77.02 2.368v.014c0 .411-.303.652-.626.652a.7.7 0 0 1-.59-.343c-.48-.763-1.764-3.11-2.135-3.735-.027-.04-.075-.13-.11-.13-.04 0-.04.069-.04.384 0 .714.02 2.739.04 3.467v.014c0 .22-.192.322-.39.322s-.399-.11-.399-.33zM43.34 62.737h-.285a2.09 2.09 0 0 1-1.852-1.131 2.1 2.1 0 0 1-1.853 1.13h-.284c-1.278 0-2.104-.947-2.104-2.414v-.72c0-1.467.826-2.414 2.104-2.414h.284c.785 0 1.473.425 1.848 1.14a2.1 2.1 0 0 1 1.857-1.14h.285c1.272 0 2.094.951 2.094 2.423v.702c0 1.472-.822 2.424-2.094 2.424m-2.14-1.976c.099 0 .188.056.231.144l.197.402c.273.565.82.916 1.427.916h.285c.99 0 1.58-.714 1.58-1.91v-.702c0-1.196-.59-1.91-1.58-1.91h-.285a1.59 1.59 0 0 0-1.42.9l-.206.419a.257.257 0 0 1-.46 0l-.209-.421c-.28-.562-.808-.898-1.41-.898h-.284c-.996 0-1.59.711-1.59 1.901v.72c0 1.19.594 1.9 1.59 1.9h.284c.607 0 1.167-.358 1.427-.913l.192-.402a.26.26 0 0 1 .23-.146zm-1.85.885h-.222c-.69 0-1.12-.524-1.12-1.369v-.63c0-.85.43-1.377 1.12-1.377h.222c.466 0 .863.369 1.051.735l.426.836a.26.26 0 0 1 0 .233l-.425.835v.001c-.189.367-.586.736-1.052.736m-.222-2.863c-.5 0-.606.47-.606.864v.63c0 .39.106.855.606.855h.222c.234 0 .48-.235.594-.456l.366-.718-.367-.72c-.112-.22-.359-.455-.593-.455zm1.045 2.01h.004zm3.104.844h-.222c-.49 0-.872-.395-1.05-.734v-.002l-.425-.826a.26.26 0 0 1 0-.235l.424-.826c.19-.37.589-.744 1.051-.744h.222c.685 0 1.111.53 1.111 1.386v.612c0 .858-.415 1.37-1.11 1.37m-.816-.972c.12.228.362.458.594.458h.222c.148 0 .597 0 .597-.855v-.612c0-.398-.103-.873-.597-.873h-.222c-.23 0-.478.24-.593.466l-.365.709z" style="fill:#231815"/><path d="M0 0h75v75H0z" style="fill:none"/></svg>