<svg xmlns="http://www.w3.org/2000/svg" viewBox="0 0 75 75"><path d="M45.29 14.406a3.06 3.06 0 0 0 1.746 1.512 2.99 2.99 0 0 0 2.32-.104 2.77 2.77 0 0 0 1.486-1.669 2.88 2.88 0 0 0-.13-2.241q-.21-.364-.783-1.512a62 62 0 0 0-.886-1.72q-.574-1.095-1.772-1.46-1.2-.365-2.294.208h-.105q-1.095.521-1.433 1.694-.34 1.173.234 2.216a289 289 0 0 1 1.616 3.076m6.985 6.204q-.365-1.147-1.46-1.694a2.73 2.73 0 0 0-2.241-.13q-9.489 3.233-20.75 5.421-.417.105-.417-.365V13.468q0-1.199-.886-2.086-.887-.886-2.085-.886h-4.223q-1.2 0-2.086.886-.886.887-.886 2.086v24.138q0 7.403 2.79 10.218 2.788 2.815 9.723 2.815 9.852 0 20.28-.625 1.199-.053 2.033-.99.833-.94.782-2.138l-.052-2.66q-.053-1.198-.965-2.032t-2.111-.73q-8.76.574-18.664.573-2.243 0-2.946-.73-.705-.729-.704-3.18v-4.483q0-.47.417-.574 12.408-2.293 23.409-5.995 1.147-.365 1.694-1.46t.183-2.294zm5.37-13.294a2.77 2.77 0 0 0-1.772-1.434 3.01 3.01 0 0 0-2.294.235l-.157.052q-1.095.522-1.433 1.72-.34 1.2.234 2.242.313.521.887 1.616.572 1.096.834 1.616.573 1.095 1.746 1.486t2.268-.13l.156-.105a2.77 2.77 0 0 0 1.486-1.668q.39-1.147-.182-2.241-.053-.105-1.773-3.39M16.45 63.294h3.09V64.7h-3.09zM4.5 59.271h2.332c1.6 0 2.29.744 2.29 2.261v.394c0 1.01-.31 1.643-.998 1.924v.028c.829.28 1.152 1.011 1.152 2.05v.843c0 1.517-.8 2.332-2.346 2.332H4.5zm2.15 4.003c.575 0 .926-.253.926-1.04v-.547c0-.703-.239-1.012-.786-1.012h-.745v2.599zm.28 4.425c.52 0 .8-.24.8-.97v-.856c0-.913-.294-1.194-.997-1.194h-.688v3.02zm3.735-8.428h4.214v1.404h-2.67v2.599h2.122v1.405H12.21v3.02h2.669v1.404h-4.214zm10.826 7.557v-5.282c0-1.517.787-2.416 2.276-2.416s2.275.9 2.275 2.416v1.04h-1.46v-1.138c0-.646-.31-.913-.773-.913-.464 0-.773.267-.773.913v5.492c0 .646.31.899.773.899.464 0 .773-.253.773-.899v-1.503h1.46v1.39c0 1.518-.786 2.417-2.275 2.417s-2.276-.9-2.276-2.416m7.224-7.557h2.093l1.601 9.832h-1.545l-.28-1.952v.028h-1.756l-.281 1.924h-1.433zm1.686 6.573-.688-4.86h-.029l-.674 4.86zm3.156.927v-7.5h1.545v7.613c0 .702.295.955.786.955s.787-.253.787-.955V59.27h1.489v7.5c0 1.574-.787 2.473-2.304 2.473s-2.303-.9-2.303-2.473m5.964 0v-.561h1.46v.674c0 .702.31.955.801.955s.8-.253.8-.983c0-.815-.308-1.335-1.32-2.22-1.292-1.137-1.713-1.938-1.713-3.062 0-1.545.8-2.444 2.303-2.444s2.248.9 2.248 2.472v.408h-1.461v-.506c0-.702-.281-.969-.773-.969s-.772.267-.772.941c0 .716.323 1.236 1.334 2.121 1.292 1.138 1.7 1.924 1.7 3.146 0 1.602-.815 2.5-2.332 2.5s-2.275-.898-2.275-2.472m5.989-7.5h4.214v1.404h-2.67v2.599h2.122v1.405h-2.121v3.02h2.669v1.404H45.51zm10.155 0h1.545v9.832h-1.545zm3.084 0h1.938l1.503 5.885h.029v-5.885h1.376v9.832h-1.587l-1.854-7.177h-.028v7.177h-1.377zm6.333 7.557v-5.282c0-1.517.787-2.416 2.276-2.416s2.275.9 2.275 2.416v1.04h-1.46v-1.138c0-.646-.31-.913-.773-.913s-.773.267-.773.913v5.492c0 .646.31.899.773.899s.772-.253.772-.899v-1.503h1.461v1.39c0 1.518-.786 2.417-2.275 2.417-1.49 0-2.276-.9-2.276-2.416m5.93.786H72.5v1.49h-1.489z" style="fill:#151515"/><path d="M0 0h75v75H0z" style="fill:none"/></svg>