<svg xmlns="http://www.w3.org/2000/svg" viewBox="0 0 65 65"><path d="M0 0h65v65H0z" style="fill:none"/><path d="m49.962 31.922 3.044 4.783 3.478-5.218.653-21.524H49.31l-.653 20.872z" style="fill:#fff500"/><path d="m55.832 31.27-1.087 3.043h-3.696l-1.683-2.888z" style="fill:#ff9333"/><path d="M50.991 34.53h3.823l-1.808 2.175z" style="fill:#1e2864"/><path d="M45.614 40.4h11.523s-.87 6.74-1.088 8.697c-.217 1.957-1.097 3.99-4.027 4.93s-4.716.664-5.562-.393-1.716-10.842-.846-13.233" style="fill:#0049b9"/><path d="M8.002 9.746h37.177v38.047l.435 4.783 1.739 2.174H11.045s-3.478-2.174-3.478-5.653.435-39.351.435-39.351" style="fill:#80a4dc"/><path d="M31.482 39.749s4.783.217 5.87.652 4.13 2.391 3.261 4.566c-.87 2.174-3.478 5-6.74 4.783-3.26-.218-8.044.87-9.566-1.522-1.521-2.392-2.609-3.914-1.304-5.653 1.304-1.74 5.87-3.261 8.479-2.826" style="fill:#ff9333"/><path d="M32.569 40.836s1.74.435 2.392 1.739 1.521 1.74.434 3.479-.217 2.609-2.609 2.609-3.696 1.087-4.565-1.088-1.087-3.043-.652-4.13 2.174-3.044 2.826-3.044 2.174.435 2.174.435" style="fill:#fff500"/><path d="M58.552 40.237a1.23 1.23 0 0 0-1.231-1.172H46.46V9.745c0-.68-.552-1.232-1.233-1.232H7.674c-.68 0-1.232.552-1.232 1.233V47.66c-.06.622-.34 4.576 1.777 6.949 1.048 1.176 2.47 1.771 4.225 1.771h35.425c.23.041.69.106 1.302.106 1.346 0 3.413-.315 5.295-1.892 3.055-2.56 4.43-7.39 4.086-14.358m-46.108 13.68c-1.034 0-1.813-.31-2.382-.944-1.261-1.407-1.267-4.168-1.163-5.11q.008-.07.008-.14V10.978h35.088v37.594c0 2.154.386 3.947 1.15 5.344zm40.469-1.237c-1.862 1.582-3.99 1.374-4.532 1.289-.378-.225-1.921-1.39-1.921-5.397V41.53h9.67c.108 5.423-.997 9.265-3.217 11.15" style="fill:#1e2864"/><path d="M13.903 27.067v-5.078l2.708 5.287a.925.925 0 0 0 1.747-.421v-8.699a.924.924 0 1 0-1.849 0v4.866l-2.708-5.287a.925.925 0 0 0-1.747.421v8.91a.924.924 0 1 0 1.849 0M24.435 19.08a.924.924 0 1 0 0-1.848h-3.819a.924.924 0 0 0-.924.924v8.91c0 .511.414.925.924.925h3.82a.924.924 0 1 0 0-1.849H21.54v-2.606h2.894a.924.924 0 1 0 0-1.849h-2.894V19.08zM28.19 27.989l.065.002c.416 0 .785-.28.893-.688l.963-3.638.85 3.614a.925.925 0 0 0 1.809-.043l1.697-9.123a.925.925 0 0 0-1.818-.338l-.894 4.806-.692-2.94a.924.924 0 0 0-.887-.712h-.013a.924.924 0 0 0-.893.688l-.67 2.532-.489-4.102a.923.923 0 1 0-1.835.218l1.06 8.911c.053.44.41.782.853.813M35.892 25.718a.924.924 0 1 0 0 1.849h4.031c.51 0 .925-.414.925-.925v-4.455a.924.924 0 0 0-.925-.924H37.03v-2.395h2.894a.924.924 0 1 0 0-1.849h-3.819a.924.924 0 0 0-.924.925v4.243c0 .51.414.924.924.924H39v2.607z" style="fill:#fff500"/><path d="M40.984 29.325H11.918a.924.924 0 1 0 0 1.849h29.066a.924.924 0 1 0 0-1.85M40.984 13.89H11.918a.924.924 0 1 0 0 1.85h29.066a.924.924 0 1 0 0-1.85M31.492 38.3c-5.776 0-10.3 2.759-10.3 6.281s4.524 6.282 10.3 6.282 10.3-2.76 10.3-6.282-4.525-6.282-10.3-6.282m0 9.82c-1.903 0-3.45-1.547-3.45-3.45s1.547-3.45 3.45-3.45 3.45 1.548 3.45 3.45-1.548 3.45-3.45 3.45m-8.45-3.539c0-1.798 2.166-3.387 5.175-4.073a5.292 5.292 0 0 0-.296 8.074c-2.854-.72-4.88-2.263-4.88-4.001m12.02 4.001a5.292 5.292 0 0 0-.297-8.074c3.01.686 5.177 2.275 5.177 4.073 0 1.738-2.025 3.28-4.88 4.001M11.995 35.431H27.84a.924.924 0 1 0 0-1.849H11.995a.924.924 0 1 0 0 1.85M20.432 37.904h-8.437a.924.924 0 1 0 0 1.849h8.437a.924.924 0 1 0 0-1.849M48.128 31.165q.008.045.02.087.012.043.027.086a1 1 0 0 0 .043.091q.01.026.024.051l3.91 6.586a.925.925 0 0 0 1.59 0l3.91-6.586c.01-.016.014-.034.023-.05q.024-.045.043-.092.014-.043.026-.086.013-.042.021-.087a1 1 0 0 0 .01-.1c.001-.02.006-.037.006-.057V9.812a.924.924 0 0 0-.925-.924h-7.82a.924.924 0 0 0-.924.924v21.196q.002.03.006.056a1 1 0 0 0 .01.101m7.104.768s-.704 1.728-.713 2.163H51.2l-.539-2.163zm-2.286 3.85-.65-1.095h1.3zm2.986-5.699h-2.061V10.737h2.061zm-5.971-19.347h2.061v19.347h-2.061z" style="fill:#1e2864"/></svg>