<svg xmlns="http://www.w3.org/2000/svg" viewBox="0 0 65 65"><path d="M0 0h65v65H0z" style="fill:none"/><path d="M23.795 56.352S-.423 51.178 9.72 29.237c0 0 3.519-4.968 7.244-5.796 3.726-.828 10.557 2.898 10.557 2.898l2.69 1.863 7.452-2.691 4.554-1.45s10.557 1.243 12.213 9.315c1.656 8.073.207 15.732-6.831 19.458S32.903 57.8 23.795 56.352" style="fill:#fff"/><path d="M43.873 27.167s-3.519-6.624 0-11.385 6.624-10.97 13.661-5.795c0 0 2.898 3.104 2.484 5.795s-1.863 8.487-2.484 9.108c-.62.62-4.553 3.933-4.553 3.933l-3.726.828-7.038 12.419-6.21-2.484zM27.107 37.93 20.69 27.167s1.863-4.347.621-8.9c-1.242-4.555-4.14-7.66-4.14-7.66s-3.104-2.07-6.416.829-6.624 4.76-7.038 6.83c-.62 3.105 2.484 6.624 3.519 8.073s3.933 3.933 7.245 4.14l6.623 10.763 6.791-1.11z" style="fill:#80a4dc"/><path d="M12.41 49.729s4.968-10.35 19.665-9.522S50.083 50.35 50.083 50.35s-8.278 8.216-18.939 6.592-15.629-1.625-18.733-7.213" style="fill:#ff9333"/><path d="M14.164 19.373c.109.18.2.363.371.46.177.099.382.184.585.184.205 0 .345-.212.534-.325.278-.167.506-.323.578-.614.073-.292.05-.6-.117-.877-.194-.323-.164-.34-.359-.664-.194-.323-.243-.293-.437-.615-.194-.323-.164-.34-.358-.663-.195-.324-.08-.392-.275-.716-.194-.323-.305-.256-.5-.58-.194-.322-.048-.41-.242-.732s-.45-.169-.643-.491c-.195-.324-.248-.292-.443-.616s.052-.473-.143-.797c-.195-.326-.32-.251-.515-.577s-.015-.434-.21-.759c-.167-.278-.59-.308-.882-.38-.292-.074-.66-.212-.938-.045s-.29.567-.362.858-.276.666-.11.944c.195.323.296.262.49.585s.067.4.261.722.316.249.51.571c.194.324.273.277.467.6.195.323.19.326.385.649.194.322.184.328.378.651.194.322.288.266.481.589.195.323.236.299.43.623.196.324.19.328.384.653.196.325.027.427.24.741.213.316.245.296.44.621M9.596 22.341c.11.173.385.196.553.288.173.094.343.084.54.084.216 0 .393-.02.588-.144.273-.174.403-.397.468-.69.065-.294.02-.537-.154-.81-.194-.305-.034-.407-.228-.712-.194-.304-.376-.188-.57-.492s-.013-.42-.207-.724c-.194-.305-.392-.179-.587-.484-.193-.303-.103-.36-.296-.664-.194-.305-.275-.253-.47-.558-.193-.304-.065-.386-.258-.69-.195-.306-.332-.22-.527-.525s-.04-.405-.235-.711c-.196-.307-.294-.245-.49-.552s-.182-.315-.378-.622c-.174-.273-.415-.372-.708-.437s-.673-.266-.946-.091c-.273.174-.52.543-.585.836-.065.294.234.586.408.859.194.305.094.369.289.673s.34.211.534.516c.194.304.154.329.348.633.194.305-.008.434.186.74.194.303.23.279.424.582.194.305.168.321.363.626.193.304.364.195.558.5s.013.421.208.727.314.23.509.537c.196.307.209.3.37.628.163.333.097.37.293.677" style="fill:#1e2864"/><path d="M59.609 23.717c.096-.231-.018-.545.07-.772.092-.233.26-.434.343-.663.086-.236.212-.455.29-.686.08-.238-.011-.526.06-.76.073-.24.197-.459.261-.694.066-.242.137-.478.193-.715.059-.246.17-.475.217-.714.05-.247.073-.495.111-.736.04-.248.148-.484.176-.726.028-.25-.133-.511-.117-.753.017-.251.146-.49.15-.732.003-.252.07-.502.059-.745-.012-.251-.235-.48-.262-.721-.028-.25-.035-.49-.08-.729-.046-.246-.056-.49-.12-.725-.065-.241.04-.537-.043-.766-.086-.234-.246-.444-.351-.664-.108-.224-.282-.414-.409-.624-.128-.211-.2-.465-.349-.662-.148-.196-.383-.325-.552-.506-.166-.18-.28-.42-.465-.585-.183-.162-.398-.299-.6-.445-.196-.143-.43-.242-.645-.37-.213-.129-.476-.153-.691-.262-.222-.111-.442-.197-.666-.288-.23-.094-.367-.444-.598-.515-.236-.073-.515-.014-.752-.065a8 8 0 0 0-.728-.122c-.243-.028-.491-.068-.736-.073-.244-.005-.48.197-.725.215-.242.018-.506-.147-.75-.106-.238.04-.481.101-.72.163-.245.063-.467.202-.703.284-.238.083-.535.026-.764.126-.23.1-.333.47-.553.585-.224.117-.539.065-.751.195-.216.131-.375.349-.579.49-.208.145-.343.378-.539.53-.2.156-.497.186-.685.347-.194.166-.335.384-.514.553-.187.177-.271.444-.442.62-.18.185-.412.305-.573.485-.176.196-.294.422-.446.606-.173.208-.5.269-.64.452-.173.226-.319.437-.44.61-.262.373-.488.563-.495.574-.13.224-.143.511-.261.73-.123.228-.192.478-.302.7-.115.233-.309.423-.41.65-.106.237-.145.498-.238.729a18 18 0 0 0-.27.712c-.086.245-.085.511-.156.748-.074.249-.155.486-.214.726-.062.253-.162.489-.208.732-.05.255-.112.502-.145.747-.034.258-.034.513-.052.76-.02.259-.058.511-.06.758-.003.26.023.512.036.756.015.26.057.527.087.769-.254.023-.53.017-.78.058-.253.042-.48.195-.729.252-.25.057-.48.164-.723.235-.247.071-.565-.087-.804-.004-.244.084-.43.326-.664.42-.24.095-.503.131-.732.234-.238.106-.508.136-.732.247-.235.116-.422.318-.64.436-.234.125-.508.165-.72.287-.232.135-.44.292-.643.417-.237.147-.374.41-.567.537-.251.165-.574.143-.739.255-.104.071-.134.203-.195.243-.278.18-.507.424-.763.445-.292.024-.599-.108-.866-.222a4 4 0 0 1-.76-.426c-.206-.147-.373-.356-.586-.503-.21-.144-.403-.321-.62-.463-.214-.14-.403-.33-.625-.465-.22-.135-.529-.12-.756-.248-.223-.126-.346-.449-.578-.566-.23-.116-.602.063-.84-.043-.234-.105-.39-.396-.634-.49-.233-.088-.508-.036-.733-.114-.228-.079-.437-.202-.674-.267-.226-.062-.575-.058-.824-.105.031-.235.107-.58.123-.832.015-.237.179-.477.179-.728 0-.238-.195-.476-.21-.728-.015-.238-.089-.469-.119-.719-.028-.237.24-.524.196-.771-.042-.236-.253-.446-.31-.691-.054-.233-.196-.447-.265-.689-.065-.23-.113-.467-.193-.705-.076-.228-.038-.502-.128-.736-.086-.225-.086-.495-.185-.726-.095-.22-.298-.402-.406-.628-.103-.217-.114-.49-.23-.712-.11-.214-.375-.352-.498-.57-.118-.21-.345-.36-.475-.574-.125-.207-.033-.554-.169-.764-.13-.204-.358-.35-.5-.557-.136-.2-.3-.387-.447-.59-.142-.197-.276-.405-.428-.605-.195-.259-.464-.53-.762-.57-.298-.042-.542.263-.8.458-.259.196-.384.381-.425.679-.041.297-.074.588.122.847.155.205.228.463.372.663.15.21.365.367.503.572.145.214.166.499.297.708.137.218.375.366.498.578.13.223.165.489.28.705q.182.339.342.669c.112.232.23.45.328.676.102.238.41.387.495.616.092.243.045.53.119.763.078.247.121.496.182.732.064.252.016.516.062.755.048.255.368.46.397.7.032.26-.015.526-.003.768.012.262-.199.514-.206.756-.009.263.202.53.174.769-.03.261-.261.478-.31.711-.054.261.05.548-.02.772-.08.262-.242.478-.333.69-.113.263-.348.42-.454.604-.212.368-.298.616-.33.653-.173.194-.283.45-.305.696s.017.533.154.754c.19.307.255.267.445.574.19.309.232.283.422.592.191.31.249.274.44.583.191.311.178.32.37.63.19.31.016.417.207.727.191.309.314.233.505.542s.228.287.42.596c.191.311.135.346.327.657.192.31.088.374.28.685.191.31.304.24.496.55.192.312.263.268.455.58.191.309.207.299.398.608.192.311.12.356.312.666l.386.62c.192.312.01.425.202.737.193.312.175.323.368.635.194.313.433.166.627.479s.067.356.143.717c-.246.04-.343.04-.581.087-.244.047-.516-.045-.752.007-.241.054-.481.118-.714.177-.24.06-.431.297-.663.363-.237.067-.443.222-.672.294-.235.075-.608.149-.835.228-.26-.251-.06-.433-.235-.75-.177-.318-.073-.375-.25-.693-.175-.317-.292-.252-.468-.57-.175-.316-.095-.36-.27-.677s-.164-.324-.34-.64c-.176-.32-.312-.244-.489-.563-.176-.318-.254-.274-.43-.592s-.036-.396-.212-.714c-.177-.319-.114-.353-.291-.672-.176-.319-.347-.224-.523-.543-.177-.318-.228-.29-.404-.608-.176-.317-.122-.347-.298-.665-.177-.319-.148-.335-.325-.654-.177-.32-.175-.321-.352-.641-.178-.32-.115-.355-.293-.676s-.193-.312-.371-.633c-.108-.195-.242-.374-.43-.479-.186-.104-.406-.063-.63-.054-.107.005-.215-.073-.32-.073-.25 0-.5.016-.74-.01-.248-.027-.523.066-.76.013-.242-.053-.42-.349-.65-.426-.236-.079-.428-.232-.65-.332-.225-.101-.546-.006-.758-.126-.215-.122-.378-.331-.58-.469-.203-.14-.503-.159-.693-.311-.193-.156-.28-.441-.458-.606-.183-.17-.379-.323-.545-.498-.173-.181-.188-.494-.343-.677-.164-.192-.377-.328-.521-.517-.157-.204-.23-.45-.363-.643-.15-.217-.484-.29-.604-.484-.146-.236-.2-.493-.302-.675-.214-.387-.24-.669-.246-.681a1.38 1.38 0 0 0-.706-.674c-.28-.108-.608.054-.905.184-.296.13-.469.33-.578.61s-.249.601-.118.898c.012.029.22.251.444.667.107.199.338.37.494.63.126.209.095.542.253.78.14.209.418.337.582.561.152.207.344.39.517.605.164.202.239.485.421.689.155.173.184.466.343.627.162.165.499.148.665.3.171.157.42.343.595.487-.122.218-.306.486-.42.705a22 22 0 0 0-.33.664c-.106.225-.395.368-.493.594-.099.229-.169.473-.258.702-.091.232-.167.473-.248.706-.082.235-.155.476-.227.712-.073.237-.134.481-.197.72-.064.24-.186.47-.24.712-.054.243-.107.49-.15.734-.045.244-.02.504-.055.75-.034.245.163.517.138.763-.024.247-.17.48-.185.728-.014.247.007.494.003.742-.005.247-.014.493-.01.741.006.247-.172.505-.157.753.015.246.194.483.219.73.024.246.202.47.236.717.034.245.035.49.078.735.045.251.137.485.19.731.055.249.054.504.117.747.065.246.055.51.128.75.074.243.286.436.37.674.084.24.108.495.202.729.094.236.072.518.176.748.104.232.24.449.353.674.115.226.13.508.253.729.124.22.395.357.528.572.134.215.374.355.517.564s.277.415.43.617c.15.202.135.534.296.73s.456.273.625.462c.168.188.364.343.541.525.176.18.19.525.375.7.184.172.514.183.706.349.19.165.31.413.509.571.197.157.474.207.678.357s.3.449.51.591.507.145.723.28c.214.133.394.318.615.444.218.125.385.347.61.465.221.117.532.06.76.17s.448.224.68.326c.23.102.45.225.686.32.233.094.432.278.671.366.237.087.49.13.731.21.24.08.492.117.736.19.24.072.439.3.684.366.242.065.488.14.735.2.245.058.526-.034.776.019.247.052.481.175.732.221.248.046.509.021.76.06.25.04.488.17.742.202.25.033.503.08.757.107.256.027.517-.017.77.007.255.025.516-.037.767-.016.255.022.51-.007.762.012.254.02.49.258.741.274.254.017.516-.137.766-.124.255.014.51-.044.762-.034.253.01.5.148.75.155.254.007.508-.088.758-.084s.498.27.745.27c.253 0 .505-.056.754-.06.253-.004.506.029.755.021.252-.007.496-.215.744-.227.252-.011.505.032.753.016.251-.016.505.02.753 0 .25-.021.494-.11.74-.135.251-.025.509.03.755.001.25-.03.5-.05.745-.084.25-.035.489-.128.733-.167.248-.04.497-.065.74-.11.249-.046.503-.063.746-.115.247-.052.476-.178.718-.236.245-.058.468-.195.707-.258.244-.065.466-.184.704-.255.24-.07.52-.005.755-.082.239-.078.51-.059.743-.143.236-.084.387-.389.616-.48.233-.091.57.07.797-.028.23-.1.357-.426.581-.533.226-.107.499-.115.718-.229.222-.114.416-.277.632-.399.218-.122.442-.23.653-.36.213-.13.336-.393.542-.53s.444-.223.645-.368c.208-.15.44-.265.641-.423.202-.158.364-.362.559-.528s.47-.241.658-.415c.188-.175.307-.42.488-.601.18-.182.339-.382.511-.571.174-.19.35-.373.514-.569s.34-.381.497-.584c.156-.204.291-.42.439-.629s.476-.3.614-.516c.139-.216.238-.462.367-.683.13-.222.08-.543.2-.77s.215-.46.325-.692.341-.407.441-.643.048-.53.138-.77.413-.398.493-.642c.08-.243.116-.505.185-.752.07-.246-.026-.536.033-.786.059-.249.241-.471.29-.723.048-.25-.06-.523-.023-.774.038-.25.255-.477.283-.728.027-.252-.113-.519-.095-.771.017-.253.111-.5.118-.753.008-.253.105-.507.102-.76-.003-.254.03-.513.017-.765-.013-.253-.044-.51-.067-.762s-.204-.488-.237-.74c-.033-.25-.121-.49-.164-.74-.042-.25-.151-.482-.204-.73s.197-.566.135-.812c-.062-.245-.159-.487-.23-.73s-.315-.434-.396-.674c-.08-.24-.172-.474-.262-.711s-.014-.542-.113-.775-.305-.422-.413-.652c-.107-.229-.304-.465-.42-.691.221-.133.523-.228.734-.378s.334-.41.534-.577c.198-.164.42-.297.607-.478.185-.178.333-.388.508-.582.172-.19.537-.223.7-.429.158-.2.142-.54.292-.755.146-.21.333-.396.47-.62.133-.218.222-.465.346-.695.122-.226.203-.472.316-.71.11-.231.424-.378.525-.62M21.85 27.049c.135-.216.074-.464.223-.77.122-.248.316-.483.43-.788.22.036.398.128.596.18.202.055.453-.049.657.023.189.066.366.194.577.274.25.096.497.21.74.323.244.113.459.286.695.412.237.126.48.24.71.376.232.138.42.343.645.488.226.146.552.142.771.292.223.153.375.405.59.559.201.142.385.344.618.473.22.12.535.044.78.137.236.09.456.186.712.237.248.049.483.119.745.119.248 0 .529.163.787.109.24-.05.48-.194.726-.3.223-.095.424-.273.65-.42.071-.046.216-.044.338-.127.158-.108.31-.33.556-.491.186-.122.446-.177.675-.318.198-.122.396-.272.622-.401.206-.118.4-.279.625-.398.213-.112.388-.32.616-.429.219-.105.443-.221.674-.32.225-.096.559.075.792-.012.231-.085.42-.284.658-.358q.353-.108.715-.192c.241-.058.484-.083.729-.122.245-.04.472-.262.718-.28.058-.003.06.147.115.135.117.316.247.594.37.85.154.317.369.563.507.784-.106.358-.335.235-.53.553-.197.318.048.47-.149.788-.197.32-.368.214-.566.534s-.116.37-.314.691-.106.376-.304.696c-.197.319-.338.232-.535.551s-.14.355-.338.674c-.199.322-.087.39-.285.712-.198.32-.273.274-.47.594-.198.32-.149.352-.347.672-.198.322-.384.207-.583.528s-.193.324-.391.645-.279.271-.477.592-.088.388-.286.708c-.199.322-.153.35-.352.672s-.279.273-.478.595c-.2.324-.143.359-.343.682s-.125.378-.398.643c-.237-.029-.473.024-.717.001-.24-.022-.478-.057-.723-.073-.238-.017-.476-.078-.72-.089-.24-.01-.483-.042-.73-.047-.24-.006-.484.018-.73.018-.226 0-.45-.027-.671-.022-.228.004-.452.03-.674.04-.225.008-.446.045-.666.058-.225.013-.433-.012-.652.005-.261-.262-.282-.255-.476-.57-.195-.315-.234-.291-.428-.607-.196-.317.014-.447-.181-.763-.197-.318-.334-.233-.53-.551-.196-.317-.137-.353-.333-.67-.195-.316-.12-.362-.316-.678-.195-.317-.276-.267-.471-.584-.197-.318-.113-.37-.31-.689-.195-.317-.219-.303-.415-.62-.196-.318-.321-.24-.517-.558-.197-.319-.027-.424-.224-.742-.196-.318-.274-.27-.47-.588-.197-.318-.336-.232-.533-.55-.195-.317-.14-.35-.336-.668-.197-.32-.212-.31-.409-.63-.197-.319-.133-.358-.33-.678-.198-.32-.179-.33-.362-.659-.176-.319-.182-.301-.292-.661m-11.274 3.476c.21.11.401.002.615.096.217.095.403.26.624.339.223.079.436.194.663.255.227.062.494-.056.725-.012.23.045.448.136.682.162s.498.068.733.076c.254.283.14.37.323.702.184.331.202.321.386.653.183.332.118.368.302.7.185.334.347.244.531.578s.08.39.265.724c.184.333.122.367.306.7.185.334.364.235.55.569.184.334.159.347.343.68s.146.356.33.689.018.425.202.757c.186.335.243.303.428.638s.24.304.426.639c.186.336.114.376.3.712s.39.251.458.629c-.23.109-.505.152-.723.265-.225.116-.434.26-.647.38-.222.125-.414.293-.623.421-.217.134-.37.356-.573.492-.212.142-.406.293-.603.436-.207.15-.578.076-.77.226-.2.159-.315.418-.498.575q-.294.25-.56.495c-.19.177-.39.34-.565.517-.183.186-.215.505-.382.689-.176.194-.49.258-.648.448-.168.202-.32.41-.468.606-.16.211-.254.46-.393.66-.151.22-.427.347-.553.55-.143.23-.137.663-.25.868-.152-.196-.248-.568-.388-.77s-.356-.356-.486-.566-.35-.372-.47-.588-.087-.514-.196-.736c-.108-.222-.271-.418-.369-.646-.097-.226-.312-.41-.399-.643-.085-.23-.085-.498-.16-.735-.075-.234-.202-.459-.266-.699-.064-.237.089-.53.035-.773-.053-.24-.107-.478-.15-.723-.046-.255.01-.518-.023-.772-.034-.257-.19-.494-.211-.75-.022-.257-.091-.51-.101-.767-.01-.258.08-.515.082-.772.002-.258-.055-.515-.04-.772q.022-.385.063-.769c.027-.256-.022-.523.017-.778.04-.254.1-.507.15-.76.052-.252.155-.493.218-.744.062-.248.153-.49.227-.737.074-.246.129-.498.214-.742.085-.242.201-.473.297-.713.095-.238.177-.482.283-.719.105-.233.191-.478.307-.71.114-.23.306-.302.43-.53m37.168 20.943c-.2.144-.276.468-.484.605-.206.135-.462.195-.675.322-.211.127-.448.209-.666.328-.216.117-.357.387-.58.498-.22.109-.472.163-.7.265-.223.101-.457.19-.688.284-.228.092-.48.127-.715.213-.23.084-.458.185-.695.264-.234.076-.492.079-.731.15-.236.07-.426.314-.668.378-.238.062-.51.006-.753.063-.24.056-.497.039-.742.09-.241.049-.447.297-.694.34-.242.044-.495.057-.742.095-.241.037-.494.028-.74.06-.242.032-.51-.127-.757-.1-.243.026-.48.115-.73.138-.243.021-.484.104-.733.121-.245.017-.497-.05-.747-.037-.245.012-.488.12-.738.13-.247.008-.497-.08-.747-.075-.247.004-.494.034-.745.034-.245.001-.491.047-.74.044-.245-.003-.496.098-.745.091-.246-.006-.496-.001-.746-.011-.247-.01-.483-.304-.733-.317-.248-.013-.503.1-.754.084-.246-.016-.493-.037-.742-.055-.248-.019-.494-.062-.745-.084-.247-.021-.513.15-.763.126s-.482-.245-.736-.272c-.249-.027-.496-.046-.741-.08-.249-.033-.504 0-.749-.04-.247-.04-.462-.242-.706-.289-.247-.047-.55.185-.792.132-.246-.054-.443-.307-.684-.368-.244-.061-.509-.033-.747-.101-.242-.069-.514-.038-.75-.114-.239-.076-.423-.313-.657-.396s-.492-.108-.722-.199c-.233-.091-.516-.066-.743-.165-.23-.1-.425-.285-.649-.392-.226-.108-.478-.169-.697-.284-.222-.116-.335-.428-.55-.55-.217-.126-.43-.247-.64-.38-.211-.132-.362-.345-.565-.486-.205-.141-.478-.18-.675-.328-.225-.17-.476-.303-.688-.481-.215-.182-.338-.4-.542-.589.092-.195.146-.402.296-.67q.173-.312.403-.674c.133-.208.212-.474.375-.702.146-.203.32-.407.491-.622.158-.198.365-.37.546-.573.17-.191.367-.369.559-.563.18-.183.352-.386.553-.57.183-.167.387-.309.577-.468s.37-.328.568-.479c.196-.15.381-.318.585-.46.203-.14.435-.238.645-.371.208-.132.366-.352.582-.476.213-.123.413-.284.633-.399.219-.114.55-.003.775-.109.223-.105.38-.352.61-.45.226-.095.481-.123.714-.212.23-.087.49-.087.725-.167.233-.08.438-.244.677-.316.236-.07.499-.042.74-.105.238-.063.469-.148.712-.204.239-.055.449-.25.693-.298.24-.047.518.105.764.064.243-.04.471-.168.719-.203.244-.033.47-.227.72-.254.244-.027.498.012.747-.009.246-.02.494-.056.745-.071.246-.015.49.041.74.032.12.349-.04.366-.04.735 0 .37-.057.37-.057.74s.17.37.17.742c0 .37-.227.37-.227.74s.322.371.322.742c0 .372-.208.372-.208.743 0 .372.145.372.145.743 0 .37-.055.37-.055.742 0 .37.118.37.118.74 0 .372-.085.372-.085.744 0 .373-.155.373-.155.746 0 .374.188.374.188.748s.053.373.053.747c0 .324-.133.722.08.935s.61.222.934.222.546-.187.758-.399.338-.434.338-.758c0-.37.127-.37.127-.739 0-.37.102-.37.102-.74s-.11-.37-.11-.742c0-.371.112-.371.112-.742s-.167-.37-.167-.741c0-.372-.122-.372-.122-.744s.26-.372.26-.743-.108-.371-.108-.742c0-.37-.027-.37-.027-.741 0-.373.016-.373.016-.745 0-.373.115-.373.115-.746 0-.374-.26-.374-.26-.748s-.092-.433.031-.786c.258.009.623.048.876.063.258.015.505.128.758.15.256.023.518-.038.77-.009.256.03.49.2.74.236.255.037.525-.047.774-.002.253.045.483.191.73.244.252.054.497.11.743.171.25.063.499.112.743.183.248.07.56-.072.802.007.244.08.442.296.68.385.24.09.467.208.701.307.237.099.424.296.654.403.232.11.587-.032.812.085.227.119.422.305.642.432.221.128.327.442.541.58s.555.088.763.235.298.454.5.61c.2.157.509.182.702.348.194.165.336.392.522.567.182.17.257.437.423.607.174.18.406.29.563.467q.248.282.467.557c.159.197.286.404.423.593.152.206.353.362.48.555.142.215.312.398.426.59.137.234.316.42.415.612.137.264.227.592.298.755-.225.204-.62.29-.858.483-.236.192-.512.321-.761.5m6.308-9.82c-.05.253.115.55.055.8-.062.251-.212.48-.285.726-.073.247-.195.476-.28.719s-.014.547-.11.785c-.098.239-.255.456-.363.69-.11.233-.233.462-.353.69s-.297.425-.428.646c-.13.222-.249.452-.39.667s-.348.383-.5.591-.251.57-.413.771c-.1-.189-.218-.513-.345-.73-.112-.191-.174-.43-.308-.638-.122-.188-.422-.268-.563-.469-.13-.185-.244-.389-.392-.582-.14-.182-.25-.392-.405-.578-.146-.177-.157-.48-.318-.66-.155-.172-.367-.304-.535-.477-.162-.166-.376-.29-.55-.456-.182-.172-.318-.409-.52-.584-.19-.166-.452-.258-.66-.425-.197-.158-.347-.392-.561-.55-.204-.149-.434-.278-.654-.426-.211-.142-.456-.245-.682-.384-.217-.134-.543-.276-.774-.407.052-.36.17-.36.342-.682s.423-.19.595-.513c.171-.322.06-.382.23-.704.172-.321.175-.32.347-.641.171-.322.192-.311.363-.633.173-.324 0-.416.173-.74.172-.322.345-.23.517-.553.173-.322.164-.327.336-.65.173-.324.112-.356.285-.68.172-.323.315-.247.487-.57.172-.324-.082-.46.09-.782.172-.323.35-.228.522-.55.172-.325.088-.37.261-.694.173-.325.078-.376.252-.7.173-.326.32-.248.493-.574s.041-.422.295-.69c.27-.004.551-.159.815-.18.27-.022.538.035.8-.006.267-.04.51-.147.769-.206.262-.06.522.078.776-.001.119.226.195.412.303.642.11.232.124.499.222.733.1.236.31.422.399.661s.222.463.3.706.06.513.127.759.192.476.248.724q.085.375.15.75c.046.251.167.492.2.744.035.253.048.511.07.765s-.008.513.002.768-.007.51-.008.765c0 .255.018.51.005.765s-.06.507-.084.76c-.025.254-.035.51-.072.762s-.228.475-.276.726m-5.357-13.121c-.227-.01-.417.26-.606.367-.19.108-.396.2-.502.399-.172.322-.213.3-.385.623-.172.324-.018.406-.19.73-.174.325-.225.298-.398.623-.173.323-.181.319-.354.643-.172.323-.224.295-.397.618-.172.324-.154.334-.326.658-.174.325-.24.29-.413.616-.173.324-.01.411-.183.736-.173.324-.279.268-.452.593s-.236.292-.41.617c-.173.326.008.422-.166.747-.173.325-.198.312-.371.636-.173.325-.212.304-.385.628-.174.326-.342.237-.516.563s-.117.357-.29.683c-.175.328-.12.357-.294.685s-.144.334-.408.596c-.217-.092-.385-.109-.612-.196-.221-.085-.416-.257-.646-.337-.225-.078-.464-.128-.698-.201-.225-.07-.47-.094-.703-.16-.23-.064-.49-.023-.728-.082-.232-.057-.554-.233-.794-.285.078-.36.449-.2.642-.513.194-.314.086-.38.28-.695s.198-.314.392-.629c.196-.316.215-.304.41-.62s.03-.418.224-.734c.195-.315.361-.212.556-.527s.186-.32.38-.636c.196-.317.138-.353.334-.67.195-.316.332-.231.527-.547.196-.316-.05-.468.146-.784.196-.317.367-.211.563-.529.195-.316.114-.367.31-.683.195-.317.103-.373.299-.69.195-.316.336-.228.531-.544.196-.318.14-.353.336-.67.196-.319.084-.387.28-.706.198-.319.272-.272.47-.591s.147-.35.344-.669c.136-.22.391-.405.371-.649a1.3 1.3 0 0 0-.315-.718c-.031-.036-.115-.28-.331-.658-.106-.184-.33-.34-.444-.605-.09-.21-.228-.427-.309-.688-.07-.225-.042-.489-.097-.75-.048-.234-.154-.467-.184-.73a9 9 0 0 1-.053-.752c-.007-.241-.089-.495-.076-.757.012-.241.048-.494.08-.752.029-.24.114-.483.163-.738.045-.239.122-.478.186-.73.06-.235.104-.484.182-.73.074-.234.183-.462.274-.705.086-.23.162-.47.264-.708.097-.225.178-.465.29-.698.108-.222.265-.425.387-.654.117-.218.148-.492.278-.716.083-.142.183-.38.362-.629.124-.173.467-.218.633-.427.14-.176.168-.464.336-.657.15-.174.364-.308.536-.49.16-.169.39-.277.568-.448.17-.164.28-.395.464-.556.179-.157.425-.233.616-.383.188-.148.36-.31.56-.447.198-.136.32-.39.528-.513s.511-.06.728-.166.394-.282.619-.367c.226-.085.41-.315.642-.375.261-.067.543-.055.8-.087.265-.032.536-.063.797-.057.264.006.523.107.784.151.256.044.498.144.753.225.246.08.462.226.707.34.233.108.544.08.777.22.225.136.298.462.49.617.203.163.607.1.775.283.174.189.173.524.313.731.143.211.395.362.505.59s.156.492.236.734c.078.238.26.464.31.714.051.246.007.52.034.774.026.25-.114.512-.109.768.005.25.19.508.177.763-.012.251.019.516-.009.77-.027.25-.366.461-.407.712s.076.527.024.775c-.052.25-.028.518-.09.763-.062.248-.152.49-.222.733-.072.246-.269.452-.346.69-.08.246-.257.45-.341.685-.087.244-.072.518-.16.747-.095.244-.293.435-.387.659s-.042.517-.152.746c-.107.22-.116.502-.239.723-.12.215-.472.295-.609.506-.134.208-.184.47-.335.672-.149.198-.284.409-.45.598-.164.185-.348.355-.53.53-.178.171-.437.246-.634.403-.192.154-.241.513-.452.651-.206.135-.444.246-.668.364-.217.114-.492.127-.727.222-.227.092-.49.084-.734.156-.235.07-.452.213-.703.262-.239.047-.5-.051-.754-.024-.242.026-.478.169-.735.176-.244.007-.487-.14-.744-.152" style="fill:#1e2864"/><path d="M55.624 15.135c-.324-.015-.645.072-.867.273s-.134.523-.15.846c-.003.048-.308.29-.376.7-.034.206-.133.43-.198.698-.053.219-.189.422-.268.671-.07.221.233.589.139.826-.087.218-.399.355-.51.582-.103.213-.127.48-.255.695-.12.205-.358.343-.501.546-.138.195-.262.403-.423.593-.154.182-.168.511-.345.686-.17.168-.4.3-.592.458-.185.152-.524.109-.73.25-.198.133-.283.46-.501.582-.209.116-.554-.029-.783.075-.218.098-.33.47-.568.555-.305.109-.61.184-.738.456-.128.27.062.534.171.84.085.236.157.34.348.475.196.137.322.352.565.352.131 0 .3.095.43.048.246-.088.435-.312.665-.41.24-.104.582.006.805-.109.232-.12.356-.436.57-.566.223-.136.323-.435.527-.582.212-.151.448-.244.641-.405.2-.167.384-.33.565-.505.186-.18.473-.255.64-.443.172-.194.43-.32.583-.52.158-.206.123-.548.26-.758.144-.218.192-.479.315-.697.128-.228.376-.38.484-.605.114-.236.34-.42.433-.65.099-.244.171-.496.25-.728.086-.255-.013-.555.051-.79.073-.265.316-.47.364-.7.06-.284.008-.557.039-.771.062-.424-.063-.703-.06-.757.014-.323.198-.765-.004-.986s-.653-.209-.976-.225" style="fill:#1e2864"/></svg>