<svg xmlns="http://www.w3.org/2000/svg" viewBox="0 0 65 65"><path d="M0 0h65v65H0z" style="fill:none"/><path d="m30.548 10.59 4.14 5.589 2.276-5.59z" style="fill:#fff"/><path d="m23.924 10.176 2.07 6.003 4.554-5.59z" style="fill:#80a4dc"/><path d="M12.746 51.574c-3.104-6.21 3.52-17.387 3.52-17.387s-4.969-14.697-4.762-19.25.621-7.866 2.277-8.28 5.382 1.863 5.382 1.863L27.03 26.32s2.484-2.07 4.76-1.242c2.277.828 4.761 1.656 4.761 1.656l3.105-.828s.207-8.486.828-10.142 2.886-7.957 5.175-5.382c4.968 5.589 2.898 19.87 2.898 19.87s6.416 7.66 4.76 14.283C51.66 51.16 46.113 55.85 41.518 57.163c-13.04 3.725-25.667.62-28.772-5.59" style="fill:#ff51ce"/><path d="m38 11.418 6.002 4.76v-6.83zM15.857 7.186l1.443 6.509 5.589-3.933z" style="fill:#fff500"/><path d="M50.372 29.884c.011-.19-.249-.396-.236-.683.01-.216.15-.452.159-.716.008-.225.06-.466.068-.723.006-.23.037-.47.041-.722.004-.233-.02-.475-.019-.725.002-.235-.12-.477-.12-.725-.001-.236.151-.479.148-.726-.002-.238.067-.483.061-.73-.005-.237-.082-.478-.09-.722-.007-.241-.15-.48-.16-.726-.01-.24.123-.491.11-.737-.013-.248-.172-.484-.188-.725-.016-.247-.003-.493-.022-.734-.02-.247.014-.495-.009-.734-.023-.247-.191-.474-.218-.713-.027-.246.022-.496-.008-.733-.031-.246-.028-.49-.063-.728-.036-.244-.102-.48-.142-.715-.04-.244.092-.516.047-.75-.047-.244-.236-.456-.287-.689-.053-.243.04-.516-.018-.748-.06-.241-.27-.44-.334-.67-.069-.239.017-.522-.056-.747-.078-.237-.438-.369-.521-.59-.089-.234.06-.557-.034-.774-.1-.229-.197-.46-.304-.67a10 10 0 0 0-.368-.64c-.13-.213-.374-.347-.513-.535-.15-.2-.242-.443-.402-.614-.187-.203-.482-.282-.684-.447-.212-.172-.364-.421-.59-.552-.235-.135-.458-.33-.707-.42-.25-.09-.559-.01-.824-.055-.259-.043-.522-.19-.795-.19-.244 0-.404.282-.591.41-.192.13-.324.322-.412.54-.247.062-.612-.127-.857-.072-.248.057-.478.178-.724.229-.249.051-.49.13-.736.175-.25.047-.51.018-.758.06-.25.04-.493.11-.741.147-.252.036-.471.299-.72.33-.252.031-.508.042-.757.068-.253.026-.518-.095-.768-.074-.253.021-.501.08-.75.095-.254.016-.507.002-.757.013-.254.01-.504.086-.754.092-.253.005-.506.079-.756.08-.256 0-.508-.235-.76-.24-.255-.004-.508.022-.759.012-.255-.01-.503-.08-.754-.094-.255-.015-.507-.01-.756-.03-.255-.02-.513.043-.762.018-.254-.025-.521.08-.77.05-.252-.031-.493-.15-.74-.185-.252-.036-.523.055-.768.015-.252-.04-.46-.326-.703-.37-.251-.046-.544.142-.787.092-.25-.05-.5-.1-.74-.154-.25-.056-.483-.171-.723-.23-.249-.062-.432-.354-.67-.418-.249-.067-.552.087-.789.018-.247-.071-.456-.251-.69-.324-.247-.078-.448-.269-.68-.347-.245-.082-.57.088-.798.006-.245-.089-.451-.262-.677-.349-.245-.094-.522-.083-.744-.174-.245-.1-.451-.262-.667-.357-.247-.11-.395-.39-.603-.488a23 23 0 0 1-.635-.307c-.095-.202-.348-.27-.552-.393-.258-.156-.451-.397-.686-.484-.284-.106-.597.025-.843-.005-.307-.036-.595-.28-.832-.244-.35.055-.539.44-.7.522-.246.093-.5.136-.72.266-.222.131-.557.119-.753.287-.194.165-.358.393-.526.594-.162.194-.354.396-.491.623-.13.214-.227.473-.336.717-.097.217.05.535-.03.777-.073.226-.294.415-.352.663-.054.232.038.497-.002.748a13 13 0 0 0-.089.726c-.024.239-.122.474-.135.727-.013.24-.154.482-.157.735-.003.24.108.488.115.74.005.241-.124.495-.11.746.014.242.054.49.075.74.02.24.002.491.028.74.026.24.263.461.295.71.031.24-.168.519-.132.767.036.24.388.436.429.684q.059.359.125.73c.044.24-.049.508 0 .755.047.237.04.49.091.734.05.238-.01.505.046.749.053.239.35.425.409.67.056.235-.053.515.007.756.06.238.286.437.35.68.06.237-.001.51.064.75s.14.484.209.73c.066.238.153.467.22.7.069.237.273.432.342.664.07.237.176.458.247.69.072.236-.018.52.054.75.073.236.26.433.333.663.076.238.127.48.203.71.077.238-.008.525.068.753q.12.356.234.695c.081.237.09.493.167.716.084.24.357.403.436.625.085.24.25.44.33.66.087.242.04.519.119.733.092.248.058.523.136.73.1.261.365.444.439.631-.124.165-.299.369-.463.598-.13.181-.333.34-.483.558-.13.19-.15.471-.292.687-.13.196-.375.33-.511.545-.127.201-.193.45-.323.666-.123.204-.138.478-.263.695-.12.208-.362.352-.481.57-.115.212-.37.355-.483.575-.11.215.01.55-.099.773-.106.22-.425.341-.527.567-.101.222-.093.495-.189.722-.095.226-.058.505-.147.735-.088.23-.435.364-.516.597-.08.232-.032.51-.098.743-.066.236-.083.484-.134.722-.052.24-.28.45-.316.691-.037.242.2.519.177.762-.022.243-.2.476-.207.72s-.083.494-.075.738c.009.245.149.485.172.728s.184.465.223.706c.038.241.065.478.118.716.054.238.04.49.107.725.068.234.041.5.124.731s.36.382.456.607.174.45.284.668.092.503.215.716c.122.21.197.457.332.662.141.212.333.395.486.6s.424.313.588.51c.164.194.351.361.526.548.174.185.323.39.508.566.184.176.378.336.572.503.192.166.298.438.5.596.2.156.51.164.72.312.207.145.319.434.535.572.214.135.544.077.767.205.22.126.302.506.53.624.224.116.582-.036.814.073.229.107.35.458.586.557.233.098.487.158.728.249.236.09.523.044.767.127.24.081.422.354.668.428.243.073.528.01.777.075.244.065.48.168.73.226.246.057.512.035.764.085.248.05.482.19.736.234.25.043.535-.134.79-.097.251.036.48.233.736.263.253.03.522-.103.78-.079.253.023.5.121.758.138.026.002.047.203.074.203.307 0 .541-.293.752-.49s.366-.42.387-.73c.021-.323-.048-.632-.246-.858s-.483-.513-.807-.535c-.249-.016-.5.075-.74.053-.248-.022-.499.018-.738-.01-.248-.03-.504.02-.743-.015-.247-.036-.469-.21-.707-.252-.246-.043-.498-.033-.734-.081-.245-.051-.495-.067-.73-.123-.243-.059-.48-.132-.712-.196a21 21 0 0 1-.711-.209c-.24-.075-.446-.233-.672-.314-.236-.085-.522-.03-.744-.12-.233-.093-.403-.325-.62-.424-.23-.104-.462-.186-.676-.295-.224-.115-.395-.31-.603-.43-.218-.125-.389-.307-.59-.436-.212-.135-.416-.258-.61-.397-.205-.146-.548-.097-.734-.246-.198-.158-.327-.392-.503-.55-.19-.17-.396-.312-.561-.48-.18-.182-.195-.5-.349-.676-.17-.193-.5-.236-.64-.418-.158-.208-.224-.463-.347-.65-.137-.207-.187-.46-.307-.672a10 10 0 0 1-.337-.648c-.105-.224-.248-.425-.335-.653-.088-.23-.322-.414-.391-.648-.07-.237-.101-.49-.152-.73s.028-.505-.003-.749c-.032-.243-.156-.48-.168-.725s-.075-.498-.067-.744c.007-.245.201-.48.229-.726.027-.242.14-.467.186-.71.046-.239.049-.483.113-.722.063-.235-.047-.528.035-.762.08-.228.174-.456.262-.682s.39-.365.484-.586c.096-.224-.039-.55.063-.769.102-.22.381-.357.488-.572.11-.22.073-.512.186-.724.115-.218.316-.387.433-.595.121-.216.287-.4.408-.605.126-.215.228-.437.352-.637.132-.213.3-.392.427-.587.14-.215.338-.373.467-.564.147-.217.222-.459.35-.64.16-.226.278-.44.4-.605.265-.357.416-.567.423-.575.135-.167.28-.358.31-.563s-.186-.375-.267-.574c-.088-.216-.084-.49-.182-.739-.087-.223-.17-.461-.263-.708-.087-.227-.01-.526-.1-.772-.085-.23-.165-.47-.254-.714-.084-.232-.473-.362-.559-.606-.083-.234.084-.562 0-.806-.082-.236-.214-.45-.296-.695.038-.023.104.054.14.025.319-.266.314-.272.633-.538.32-.266.198-.412.518-.678s.462-.098.782-.365.141-.482.462-.749c.187-.156.216-.284.236-.508s.057-.392-.098-.578a.74.74 0 0 0-.542-.294c-.225-.02-.478-.058-.665.098-.265.22-.338.133-.604.354s-.208.29-.474.512c-.267.222-.153.359-.42.58s-.233.365-.56.481c-.073-.23-.111-.606-.183-.84-.072-.231-.256-.43-.327-.665-.07-.232-.193-.451-.262-.687-.069-.233-.196-.452-.262-.687-.067-.235.042-.52-.023-.757s-.124-.475-.187-.713c-.063-.237-.058-.491-.119-.73s-.298-.446-.356-.685c.042-.022.147-.076.186-.106.32-.239.253-.328.572-.567.32-.24.432-.09.751-.33.32-.24.312-.252.632-.493s.216-.38.537-.62c.194-.145.437-.237.469-.46s-.06-.464-.207-.659c-.146-.194-.352-.348-.575-.38s-.422.115-.616.26c-.342.257-.373.216-.715.472-.342.257-.395.187-.738.444s-.236.437-.638.584c-.053-.245-.014-.52-.062-.763-.05-.246-.155-.478-.2-.72-.045-.247-.15-.481-.19-.724-.042-.248.056-.514.02-.757-.037-.248-.251-.469-.282-.712-.031-.249.058-.508.033-.751-.025-.25-.17-.485-.189-.728-.018-.25.2-.508.19-.749-.011-.251-.095-.492-.096-.733q-.001-.378.013-.736c.011-.254-.004-.499.02-.737.026-.253.07-.492.112-.726.045-.251.138-.474.203-.7.071-.246.053-.507.149-.72.1-.226.33-.346.456-.521.14-.197.13-.517.305-.653.181-.142.452-.148.671-.227.133-.047.15-.02.23-.09.051-.011.088.086.245.121.003.023.09-.102.096-.08.078.359-.105.4-.027.758.078.359.09.356.168.715.079.36.22.329.3.688.078.36.13.348.209.708.079.359.115.35.194.71.078.358.04.366.12.725.078.36.148.344.227.705.078.36.051.367.13.727.08.362.016.376.096.738s-.002.38.077.741c.064.296.373.381.659.484.284.102.619.286.857.099.278-.218.198-.32.475-.539.279-.218.219-.294.497-.513.28-.219.295-.198.574-.417s.25-.338.588-.446c.113.225.385.464.497.695.11.228.205.467.314.699.107.23-.02.569.087.802.105.231.251.444.355.677s.323.416.425.65c.101.236.187.478.287.714.1.237.06.532.157.769.099.238.181.481.278.718.097.24.246.457.34.694.097.241.161.492.254.73.095.242.34.422.432.66.093.242.157.493.246.73.092.244.101.514.189.75.09.244.12.506.205.74.09.245.415.398.499.63.09.248.073.525.155.756.09.252.072.529.151.757.09.256.289.455.365.678.092.266.106.53.177.742.101.3.172.539.23.714-.027.04-.133-.006-.16.034-.158.24-.166.568-.3.797q-.227.381-.407.722c-.146.275-.14.585-.24.798-.207.44-.365.693-.375.718-.116.302-.143.561-.022.835.122.274.326.444.628.56s.55.09.825-.031c.274-.122.59-.238.708-.54.071-.183.067-.456.19-.716.097-.203.327-.364.452-.597.112-.206.13-.48.262-.698.123-.205.234-.431.375-.64.137-.2.455-.272.607-.468.15-.195.267-.409.43-.592.166-.185.3-.39.479-.556.183-.171.261-.471.457-.615.202-.148.463-.223.677-.334.222-.115.478-.147.711-.213.245-.07.485-.208.735-.216.246-.008.506.058.758.11.235.05.418.28.66.381.22.093.415.218.641.354.204.124.448.193.658.353.195.148.45.213.625.368.183.162.211.472.373.64.169.177.543.164.69.345.152.19.065.55.195.743.136.203.474.274.587.48.116.213.06.507.154.723.096.222.109.462.183.684.077.23.255.419.311.647.057.235.062.473.1.704.038.239.17.515.19.748-.227-.09-.513-.135-.758-.183-.236-.046-.466-.18-.718-.183-.021 0-.043.062-.064.062-.247 0-.494.023-.75.063-.242.038-.501.034-.75.104-.237.067-.458.202-.699.295-.23.088-.485.135-.717.245-.224.106-.51.115-.735.24-.218.12-.326.441-.545.576-.212.13-.43.254-.642.397-.208.14-.501.164-.708.314-.203.148-.372.395-.574.551-.275-.268-.215-.332-.387-.675s-.204-.328-.376-.672-.027-.417-.2-.761a1.28 1.28 0 0 0-.707-.621c-.285-.095-.63-.033-.92.112s-.432.42-.527.706c-.095.285-.103.57.042.86.16.32.27.264.43.584.161.32-.068.435.092.755.16.322.156.324.316.646s.356.243.418.597c-.18.163-.262.44-.437.604-.178.166-.55.128-.722.294-.175.17-.32.37-.49.54-.173.173-.275.413-.44.583-.172.176-.274.411-.436.582-.169.18-.306.378-.463.55-.169.182-.308.378-.462.549-.168.188-.41.293-.56.465-.17.192-.442.274-.585.441-.174.205-.234.469-.365.627-.213.256-.43.395-.516.5-.201.254-.278.611-.244.91.033.298.177.643.43.845.254.202.631.351.93.317.298-.033.465-.398.667-.65.148-.186.475-.238.638-.434.153-.184.221-.447.386-.639q.236-.274.487-.557c.16-.182.366-.33.535-.514.163-.18.24-.442.41-.623.167-.178.472-.229.644-.407.17-.177.209-.486.384-.662.174-.175.409-.29.586-.463s.252-.455.432-.625.585-.097.767-.263c.184-.167.297-.4.482-.562.156-.083.36-.139.46-.272.184-.156.201-.484.385-.632.187-.152.443-.213.63-.355.192-.146.366-.31.555-.445.198-.14.341-.356.535-.482.205-.134.417-.253.616-.37.212-.123.485-.121.689-.223.222-.11.427-.225.637-.306.234-.09.483-.046.7-.096.246-.057.448-.145.668-.145.012 0 .026-.222.037-.222.281.004.563.121.778.235.21.11.366.347.537.575.153.204.409.37.51.6.1.228.109.516.162.766.052.241-.132.515-.12.773.011.245.223.498.202.757-.02.245-.067.5-.113.755-.044.243-.07.502-.136.751-.063.24-.273.442-.354.686-.078.236-.146.477-.24.716-.09.232-.029.533-.131.766-.101.23-.335.402-.446.63s-.295.414-.413.638c-.117.223-.247.438-.37.658-.124.22-.058.552-.187.768-.13.219-.305.411-.439.624-.135.215-.213.47-.35.678-.142.214-.389.354-.53.56-.147.212-.302.413-.447.613-.152.212-.274.438-.421.634-.158.21-.242.468-.392.659-.163.208-.387.356-.537.539-.173.21-.34.4-.49.572-.135.154-.414.26-.463.45-.05.194.147.412.21.61.06.192.194.284.328.417.136.133.241.223.438.273.064.026.196.309.465.583.137.14.425.214.561.452.104.182.08.452.164.702.068.203.055.434.1.688.038.216.196.428.212.683.019.31.253.477.463.674s.393.298.701.298c.025 0 .043.03.068.03.324-.021.594-.09.793-.316.199-.225.409-.513.389-.837-.018-.274-.136-.528-.174-.774-.041-.275-.043-.545-.106-.786-.07-.27-.173-.515-.264-.746-.102-.259-.151-.534-.272-.749-.137-.243-.259-.497-.41-.69-.173-.22-.402-.333-.578-.495.142-.18.227-.386.393-.605.144-.188.42-.299.576-.513.144-.196.245-.437.396-.651.142-.201.291-.408.437-.624.14-.205.34-.38.481-.597.136-.21.218-.46.354-.68.133-.213.218-.46.349-.681.128-.218.269-.431.393-.655.118-.211.1-.491.208-.698.112-.214.364-.352.466-.561.107-.217.166-.444.262-.656.21-.026.463.003.734-.052.224-.044.431-.24.683-.31.226-.064.423-.227.664-.317.223-.083.488-.069.718-.178.218-.103.398-.276.615-.406.208-.125.383-.285.585-.436.194-.146.402-.261.586-.433.177-.166.404-.283.569-.476.157-.185.366-.34.508-.551.137-.205.25-.43.365-.65.113-.218.315-.408.405-.64.089-.227.184-.47.251-.712.065-.234.05-.501.095-.748.043-.239.01-.496.033-.747.023-.241-.132-.492-.127-.744.005-.242.223-.489.212-.74-.011-.242-.019-.494-.045-.745-.025-.24-.098-.483-.137-.732-.037-.239.04-.508-.01-.755-.047-.237-.144-.474-.204-.72-.058-.234-.343-.414-.412-.656-.066-.234-.176-.455-.253-.696-.074-.231.069-.539-.015-.776-.08-.23-.224-.443-.314-.68-.087-.227-.235-.436-.33-.669-.097-.234-.281-.415-.39-.632a8 8 0 0 0-.36-.638c-.133-.215-.19-.465-.338-.66-.152-.2-.242-.446-.41-.624-.171-.183-.37-.339-.557-.497-.19-.161-.352-.366-.558-.502s-.531-.133-.753-.245c-.014-.154.052-.473.026-.817-.016-.22-.22-.462-.237-.745-.015-.233-.013-.488-.027-.758-.013-.242.173-.507.162-.773-.01-.247-.086-.522-.094-.786.377-.255.425-.183.853-.338s.467-.048.894-.204c.229-.083.51-.249.606-.453s.042-.527-.041-.755c-.083-.229-.3-.4-.505-.496-.204-.095-.486-.18-.715-.098-.285.104-.275.131-.56.235s-.237.185-.539.162c0-.249-.063-.396-.06-.65.004-.25-.094-.506-.086-.76.007-.251.201-.498.213-.751s.02-.506.037-.757c.017-.254.072-.637.095-.887.329.138.227.35.491.59.265.241.163.354.428.594.265.241.373.122.638.363s.255.253.52.494c.258.234.562.182.88.04.319-.14.583-.33.583-.678 0-.38.156-.38.156-.761 0-.38-.087-.38-.087-.76s-.18-.38-.18-.759c0-.378.18-.378.18-.757 0-.381.007-.381.007-.762s.045-.381.045-.763-.107-.382-.107-.765-.203-.403-.154-.782c.088.077.275.214.362.307.163.176.428.29.575.509.135.2.216.452.337.684.113.215.257.43.358.67.095.224.116.488.202.733.081.232.285.434.358.68.07.238.116.492.179.74.06.24.161.48.215.73.053.242-.018.516.03.767.045.245.076.496.116.747.04.247.177.483.212.735.034.249-.11.523-.08.775.03.249-.03.507-.004.759q.036.374.066.752c.022.252.353.48.371.732.019.253-.262.526-.247.778.015.254.04.505.05.757.012.255.093.505.101.756.01.256-.06.51-.054.761.005.256.242.505.245.755.004.256-.138.51-.138.758 0 .258.089.511.087.759-.003.259-.188.509-.193.755-.005.26.252.52.245.764-.008.263-.131.513-.141.755-.012.266-.18.509-.194.746-.015.27-.02.52-.036.748-.024.323.237.642.456.88.01.01.127.262.412.624.13.165.443.244.609.474.132.183.175.458.323.678.13.194.384.329.52.55.126.202.056.534.184.757.119.209.388.345.506.571.113.215.078.51.187.74.105.219.313.396.413.628.097.225.185.46.275.695.088.23.196.458.275.697.078.233.182.465.25.708.068.237-.097.535-.041.78.056.24.348.434.392.68.043.244.019.503.05.752.03.245.112.492.129.743.016.246.053.501.054.752.001.247.009.506-.005.757-.014.246-.067.5-.097.75-.03.249-.18.483-.226.729-.045.245-.203.463-.264.706-.06.242.009.52-.067.758-.076.237-.076.507-.167.741-.09.232-.414.367-.518.595-.104.226-.18.46-.298.682-.116.22-.158.48-.287.696-.128.212-.394.334-.535.544-.138.205-.11.527-.261.729-.148.198-.253.438-.412.634-.157.191-.427.293-.595.481-.165.185-.397.307-.573.489-.171.178-.316.382-.499.557-.178.171-.21.506-.398.675-.183.165-.483.205-.677.368-.189.16-.389.31-.587.467-.193.153-.461.21-.663.361-.199.15-.27.478-.477.624-.203.144-.428.264-.64.405-.268.18-.337.432-.395.727-.058.294-.035.516.146.785.111.166.136.399.301.486.17.09.38.019.572.019.225 0 .41-.043.61-.178.209-.14.43-.255.63-.396.205-.144.507-.153.704-.299.201-.149.235-.513.429-.664.197-.154.436-.248.625-.404.193-.158.438-.25.623-.411.188-.164.408-.291.588-.457.183-.17.266-.44.44-.611.178-.175.507-.2.676-.377.171-.18.33-.376.492-.56.165-.186.226-.461.38-.65q.237-.29.46-.582c.15-.199.164-.489.304-.69.142-.204.339-.364.47-.571.133-.21.233-.433.355-.646.123-.215.433-.327.545-.546s.221-.447.322-.671c.102-.226.088-.502.178-.73.09-.23.18-.46.259-.693.078-.234.253-.44.319-.678.066-.237-.014-.513.04-.753.053-.24.161-.47.203-.713.041-.242.104-.484.133-.729q.043-.376.067-.745c.016-.25-.13-.504-.126-.75.003-.251.112-.498.103-.745-.009-.25-.16-.487-.18-.733-.02-.25.204-.524.171-.768-.033-.249-.027-.508-.07-.751-.044-.247-.27-.458-.325-.699-.055-.245-.074-.496-.138-.734-.066-.242-.094-.495-.168-.729-.075-.24-.107-.495-.19-.726-.085-.237-.335-.41-.427-.638-.094-.234-.153-.478-.252-.701-.103-.232-.326-.4-.433-.62-.112-.228-.172-.473-.287-.688-.119-.225-.137-.497-.257-.706-.128-.223-.393-.354-.519-.559-.137-.22-.23-.453-.36-.65-.146-.22-.356-.372-.49-.56-.158-.222-.071-.596-.207-.774-.177-.23-.305-.389-.431-.54M35.678 11.408c-.007.38.142.408.013.764-.13.358-.252.313-.382.671s-.173.344-.303.702c-.13.36-.155.35-.285.71s.16.63-.213.71c-.342.073-.265-.21-.459-.5-.193-.29-.065-.375-.258-.665-.194-.292-.133-.332-.328-.624-.194-.292-.253-.253-.447-.545-.195-.292-.306-.218-.501-.511s-.17-.303-.26-.644c.24.006.41-.041.654-.04.238.001.477.031.72.028.24-.004.483.045.727.038.24-.008.473-.162.717-.175s.358.098.605.081m-6.785-.144c-.086.362.04.419-.172.725-.211.305-.318.232-.529.537-.212.307-.25.282-.462.589s-.234.293-.446.6c-.213.309-.19.324-.404.633s-.044.781-.415.726c-.373-.056-.048-.47-.168-.827-.119-.358-.05-.38-.169-.738-.12-.36-.187-.337-.306-.696-.12-.36-.247-.318-.367-.677-.12-.361.018-.407-.102-.768s-.39-.319-.38-.7c.256.055.595.072.864.123.26.049.514.15.785.195.26.044.547-.057.817-.018.263.039.518.152.79.186.263.033.392.081.664.11M17.039 7.947c.208.101.359.066.606.178.216.099.394.318.64.422.223.095.44.234.687.332.227.09.455.206.701.298.23.085.48.146.726.232.234.082.514.046.763.127.237.077.4.212.649.288-.178.3-.305.141-.58.357-.276.217-.232.273-.508.49s-.193.32-.469.537c-.277.218-.367.104-.644.322s-.188.33-.466.549c-.278.218-.297.194-.575.412s-.243.518-.574.392c-.339-.128-.208-.31-.285-.664-.078-.353-.002-.37-.08-.723-.076-.353-.04-.36-.118-.714s-.106-.348-.184-.702c-.078-.355.097-.394.02-.749-.079-.356-.226-.324-.296-.681-.068-.346-.043-.34-.013-.703M42.4 29.883c.095.23.445.356.53.581.09.234.052.51.13.737.083.236.116.483.187.712.074.24.117.48.18.712.065.243.15.473.202.706.055.246.224.464.265.699.042.248-.075.513-.048.75.028.25-.026.493-.016.73.011.254.082.49.073.727-.01.253.1.509.066.743-.036.25-.227.46-.29.688-.065.242-.01.52-.107.736-.1.227-.248.434-.38.634-.13.194-.316.339-.467.5-.158.17-.236.433-.41.57-.183.142-.426.211-.619.322-.2.116-.424.185-.626.271-.216.092-.471.18-.677.243.073-.265.304-.521.357-.777.056-.27-.04-.563-.006-.822.036-.274.211-.534.222-.795.012-.274-.14-.548-.156-.808-.016-.274.115-.568.069-.827-.048-.267-.399-.457-.478-.708-.08-.257.066-.592-.048-.832.006-.032.036-.005.04-.038.025-.258.037-.52.048-.774.011-.258-.113-.52-.116-.773-.004-.258.067-.52.048-.773-.02-.257-.191-.496-.227-.747-.036-.255.036-.527-.016-.776-.053-.251-.035-.526-.105-.77-.07-.248-.3-.447-.386-.686-.088-.241-.07-.528-.173-.76-.105-.234-.422-.362-.543-.587s-.26-.429-.397-.644-.05-.586-.204-.792c-.152-.204-.357-.285-.525-.479.25-.018.438-.003.71.012.255.014.493.117.755.173.252.054.494.094.742.197.235.098.572.018.783.16.208.14.412.33.596.513.176.173.237.465.391.676.146.199.315.392.44.624.118.217.086.507.186.752m-3.43-16.027c-.036.245.208.532.178.784-.029.247-.184.48-.207.731-.023.249-.089.496-.107.748-.018.25-.059.5-.072.753-.013.252.003.506-.005.757-.01.253.107.508.102.76-.005.253-.161.504-.163.753-.001.255-.074.509-.072.757.002.256.076.509.081.756.005.258.145.507.153.753.008.26-.128.517-.118.76.011.263.167.51.18.75.014.266-.003.52.012.753.017.275-.014.516.002.737-.237-.023-.46.106-.688.104-.24-.002-.469-.07-.693-.054-.242.017-.475.008-.694.04-.246.037-.468.11-.678.156-.255.057-.461-.057-.65 0-.216-.144-.464-.134-.68-.251-.229-.124-.398-.373-.626-.467-.239-.098-.534-.042-.773-.109-.247-.069-.47-.284-.715-.319-.252-.036-.526.24-.777.24s-.52-.24-.77-.205c-.247.035-.513.08-.759.149-.264.075-.54.183-.798.297-.249.11-.443.356-.685.503-.232.14-.513.232-.739.406-.215.166-.38.473-.588.669-.073-.215-.094-.525-.18-.772-.075-.218-.077-.477-.162-.718-.078-.222-.308-.4-.394-.638-.08-.223-.045-.496-.131-.732-.082-.224-.38-.376-.467-.61-.083-.225-.182-.448-.27-.682-.084-.223.095-.55.007-.78-.085-.225-.238-.428-.327-.658-.087-.226-.204-.443-.294-.672-.09-.226-.112-.481-.203-.71-.09-.225-.211-.44-.304-.666-.092-.225-.398-.364-.493-.59-.093-.226-.17-.459-.267-.685-.096-.226-.059-.509-.157-.735-.097-.226-.232-.435-.332-.66s-.176-.463-.278-.687-.267-.421-.37-.644c-.105-.224-.273-.415-.379-.636-.107-.222-.005-.544-.112-.762-.11-.221-.255-.352-.366-.568.222-.312.322-.177.623-.414s.126-.568.496-.472c.352.092.125.25.24.594.115.347.242.304.357.65.116.347.034.374.149.72.115.345.239.304.354.65.115.344-.118.422-.003.767.116.346.344.27.46.617.115.347.12.346.235.693.116.348.061.367.177.715s-.11.423.007.771c.105.317.524.41.854.458.041.006.07.12.11.12.287 0 .673-.08.838-.32.226-.327.006-.48.231-.806.226-.326.3-.275.525-.6.225-.327.132-.391.357-.717s.28-.287.505-.612c.226-.327.385-.218.611-.545s.229-.325.455-.653c.227-.328.105-.413.332-.741s.086-.536.486-.539c.391-.002.301.173.518.499.217.325 0 .47.217.794s.457.165.674.49c.216.325.156.365.373.69s.045.44.263.766c.217.327.253.303.47.63.219.327.186.349.404.677s.247.308.466.636c.184.276.582.224.91.184.33-.04.646-.113.759-.425.13-.361-.002-.41.129-.77.13-.36.125-.363.255-.723.131-.36.206-.333.337-.693.131-.361.257-.316.388-.678s.029-.4.16-.762c.132-.363.263-.315.395-.679s-.199-.583.176-.676c.377-.092.174.27.46.53.289.262.43.107.717.368s.137.415.41.69c-.013.047-.044-.04-.051.01m4.05.97c-.304.183-.289-.014-.551-.252-.264-.24-.177-.336-.442-.576-.265-.241-.235-.275-.5-.516-.266-.24-.248-.26-.514-.5-.266-.243-.285-.222-.551-.464s-.35-.152-.617-.394c-.268-.243-.164-.357-.432-.6s-.28-.194-.46-.508c.236-.035.368.056.607.017.236-.04.45-.213.689-.257.234-.043.497.054.734.006.235-.048.441-.24.678-.292.235-.052.477-.076.715-.134.234-.056.462-.073.698-.135.122.373.143.387.143.78 0 .392-.077.392-.077.784 0 .394-.037.394-.037.787 0 .395.03.395.03.79s-.258.432-.176.819c.079.369.402.442.062.646" style="fill:#1e2864"/></svg>