<svg xmlns="http://www.w3.org/2000/svg" viewBox="0 0 65 65"><path d="M0 0h65v65H0z" style="fill:none"/><path d="m42.893 24.057 3.105-2.484 1.034 4.346 3.726-1.241-.828 4.76 5.382.621-3.105 3.726 4.14 1.449-3.519 2.898 3.519 3.726-3.519 1.242 1.656 4.346-4.14.621.828 4.14-4.967-.62-.207 4.139-4.14-2.07-1.863 4.347-2.484-3.312-2.69 2.898-2.278-3.933-3.726 1.863-.414-3.726-4.346.621 1.449-8.072z" style="fill:#fff500"/><path d="M7.911 41.03V7.29h34.775v40.984l-24.84.414z" style="fill:#ff51ce"/><path d="m16.588 47.411-.811-6.174-5.589.62z" style="fill:#80a4dc"/><path d="M31.094 25.505s-6.416.207-9.521-.414-6.624-1.862-7.038-3.932 1.242-6.831 7.038-7.452 15.73 1.035 14.282 6.003-4.76 5.795-4.76 5.795" style="fill:#fff"/><path d="M26.954 25.091s3.105-.413 3.312-4.14c.207-3.725 1.642-5.856-1.456-6.964s-7.237-.487-8.065 1.583-.828 8.694 1.656 9.108 4.553.413 4.553.413" style="fill:#80a4dc"/><path d="m57.783 41.059-3.475-2.43 3.475-2.429a.88.88 0 0 0-.248-1.563l-4.055-1.236 2.554-3.384a.88.88 0 0 0-.718-1.41l-4.24.077 1.384-4.008a.88.88 0 0 0-1.12-1.119l-4.007 1.383.077-4.239a.88.88 0 0 0-1.427-.704l-2.227 1.771V6.773c0-.648-.526-1.174-1.174-1.174H8.015c-.648 0-1.174.526-1.174 1.174V41.58c0 .373.178.724.478.945l8.729 6.433q.157.174.373.275l.401.295c.202.15.446.23.696.23h5.857l-1.052 2.802a.88.88 0 0 0 1.111 1.14l4.008-1.382-.077 4.238a.88.88 0 0 0 1.41.719l3.384-2.554 1.236 4.055a.88.88 0 0 0 1.563.248l2.43-3.475 2.429 3.475a.88.88 0 0 0 1.563-.248l1.236-4.055L46 57.276a.88.88 0 0 0 1.41-.719l-.077-4.238 4.008 1.383a.881.881 0 0 0 1.119-1.12l-1.383-4.007 4.239.077a.88.88 0 0 0 .718-1.41l-2.554-3.384 4.055-1.236a.88.88 0 0 0 .248-1.563M41.409 7.946v39.465h-23.32v-5.864c0-.648-.526-1.173-1.174-1.173H9.188V7.946zM15.742 45.818l-4.203-3.097h4.203zm36.02-3.276a.88.88 0 0 0-.445 1.372l2.223 2.945-3.69-.067a.88.88 0 0 0-.848 1.167l1.204 3.489-3.488-1.204a.88.88 0 0 0-1.167.848l.066 3.69-2.945-2.223a.88.88 0 0 0-1.372.445l-1.077 3.53-2.114-3.024a.88.88 0 0 0-1.443 0l-2.114 3.025-1.077-3.53a.88.88 0 0 0-1.372-.446l-2.945 2.223.066-3.69a.88.88 0 0 0-1.166-.848l-3.43 1.183.563-1.498a1 1 0 0 0 .045-.17h17.346c.648 0 1.174-.526 1.174-1.174V24.017l1.86-1.48-.065 3.63a.88.88 0 0 0 1.167.848l3.488-1.204-1.204 3.488a.88.88 0 0 0 .832 1.168h.016l3.69-.068-2.223 2.946a.88.88 0 0 0 .446 1.372l3.53 1.077-3.025 2.114a.88.88 0 0 0 0 1.443l3.024 2.114z" style="fill:#1e2864"/><path d="M25.299 27.196c6.867 0 12.247-3.424 12.247-7.797s-5.38-7.797-12.247-7.797S13.05 15.027 13.05 19.4s5.38 7.797 12.248 7.797m-.104-12.212c2.435 0 4.415 1.98 4.415 4.415s-1.98 4.416-4.415 4.416-4.415-1.981-4.415-4.416 1.98-4.415 4.415-4.415m10.004 4.415c0 2.031-2.143 3.846-5.227 4.782 1.226-1.225 1.985-2.916 1.985-4.782s-.76-3.556-1.985-4.781c3.084.936 5.227 2.75 5.227 4.781m-14.873-4.685c-1.17 1.216-1.893 2.867-1.893 4.685s.722 3.47 1.893 4.686c-2.922-.96-4.928-2.721-4.928-4.686s2.006-3.725 4.928-4.685M12.569 30.922h24.838a1.173 1.173 0 0 0 0-2.347H12.57a1.173 1.173 0 0 0 0 2.347M37.407 34.164H18.985a1.173 1.173 0 0 0 0 2.347h18.422a1.173 1.173 0 0 0 0-2.347M37.407 39.132H21.262a1.173 1.173 0 0 0 0 2.347h16.145a1.173 1.173 0 0 0 0-2.347" style="fill:#1e2864"/></svg>