<svg xmlns="http://www.w3.org/2000/svg" viewBox="0 0 65 65"><path d="M0 0h65v65H0z" style="fill:none"/><path d="M30.435 55.88s-9.35-.869-15.871-4.13c-6.523-3.261-8.914-7.61-9.132-8.696s-3.696-15.22 25.22-13.48 27.611 4.566 28.698 8.262S60.437 55.88 30.435 55.88" style="fill:#80a4dc"/><path d="M44.132 41.314s3.478-1.74 2.826-3.044-4.566-5.435-4.566-6.957.652-8.261 3.696-9.566c3.044-1.304 7.175-1.74 9.131 0s3.914 5.436 2.61 8.044c-1.305 2.61-2.827 6.523-3.262 7.392s-.435 2.61 0 3.044 1.305 1.087 1.305 1.087-5.653 2.61-11.74 0" style="fill:#1e2864"/><path d="M52.176 34.14s-2.827-.218-3.696-.653-2.174-1.521-2.827-2.609c-.652-1.087-1.304-6.74 2.827-7.391 4.13-.653 6.305 1.521 6.522 3.043s.217 3.261 0 4.566-1.957 3.044-2.826 3.044" style="fill:#fff"/><path d="M8.91 41.966s6.74 3.044 12.61-.87c0 0-2.608-1.956-2.39-2.826s2.39-4.13 2.826-6.087 1.739-9.784-5.218-11.305c-6.957-1.522-9.132 6.957-9.132 6.957l.644 5.083 2.4 2.961 1.087 1.74-.87 2.39-1.956 1.305zM24.782 52.185s3.478-1.74 3.261-3.261 0-2.174-1.304-3.479c-1.305-1.304-3.479-7.61-3.696-9.783-.218-2.175 2.826-10.654 10.653-10.654s9.348 10.654 8.479 13.262c-.87 2.61-4.131 7.392-4.348 8.697-.218 1.304 0 3.261 1.304 4.13 1.305.87 1.305 1.088 1.305 1.088s-8.914 3.044-15.654 0" style="fill:#1e2864"/><path d="M32.609 42.619s3.26.217 5-1.74c1.74-1.956 1.957-3.043 1.957-4.565s-1.133-6.539-3.936-7.183-5.413.443-6.717 1.095-2.827 2.392-3.044 3.261-.217 3.696 0 4.349c.217.652 1.304 2.391 1.522 2.609s2.391 1.521 5.218 2.174M15.868 34.14s-5.218-1.305-5.435-3.696c-.218-2.392 0-5 1.739-6.088 1.74-1.087 4.348-.87 5-.652s3.262 1.957 3.044 3.696-.217 3.478-1.087 4.566-3.261 2.174-3.261 2.174" style="fill:#fff"/><path d="M40.55 35.795c0-.262-.047-.507-.072-.763a8 8 0 0 0-.1-.758c-.052-.256.073-.551-.002-.798-.076-.25-.282-.451-.38-.69-.101-.24-.077-.54-.2-.768-.123-.23-.373-.383-.518-.598-.144-.216-.154-.537-.319-.737-.165-.201-.521-.229-.705-.412-.183-.184-.298-.435-.499-.6-.2-.164-.332-.432-.547-.577s-.496-.196-.726-.319c-.227-.122-.428-.322-.669-.422-.238-.099-.488-.212-.737-.288-.247-.075-.543.014-.8-.037-.252-.05-.505-.118-.766-.143-.256-.025-.517-.161-.779-.161s-.51.269-.766.294c-.26.025-.5.09-.753.14-.257.051-.58-.172-.827-.097-.25.076-.48.235-.72.335s-.414.34-.642.462c-.23.123-.4.323-.616.467s-.448.247-.649.412c-.2.165-.384.335-.567.519-.184.183-.501.246-.666.447-.165.2-.22.487-.365.703-.144.215-.402.368-.525.597-.122.228-.19.493-.29.733-.098.239-.16.497-.237.747-.075.247-.036.522-.087.778-.05.253-.302.482-.327.742-.025.256.17.53.17.792s.074.51.099.765c.025.261-.202.558-.152.81.05.257.147.514.222.76.076.25.306.447.406.686s.056.554.179.782c.123.23.365.395.51.61.144.216.246.47.41.67.166.2.506.239.69.422.183.184.18.572.382.737.2.165.548.137.763.282.216.144.42.293.65.416.228.122.414.333.654.433s.541.014.79.09c.247.075.477.18.733.232.253.05.502.078.762.104.256.025.507.243.769.243s.513-.21.769-.236c.26-.025.532.055.785.005.256-.05.495-.166.742-.241.25-.076.486-.178.725-.277.24-.1.426-.296.654-.419s.431-.263.646-.408.598-.065.798-.23.223-.529.406-.712c.184-.184.557-.198.722-.399.164-.2.22-.493.364-.709s.196-.483.32-.712c.122-.228.326-.416.426-.657.1-.238.14-.5.217-.75.075-.246.171-.49.222-.746.05-.252-.035-.523-.01-.784.026-.256.033-.504.033-.767m-7.819 6.198c-.27 0-.554.017-.815-.017a6 6 0 0 1-.797-.17c-.258-.07-.453-.34-.696-.442-.247-.102-.541-.108-.77-.24-.23-.134-.367-.406-.577-.568s-.498-.235-.686-.422c-.187-.188-.221-.505-.383-.716s-.513-.293-.646-.523-.157-.523-.26-.77c-.1-.242-.054-.53-.124-.788-.068-.254-.216-.485-.251-.751-.034-.26.043-.522.043-.79 0-.27.038-.517.072-.777.035-.267-.07-.55-.002-.804.07-.258.184-.5.286-.744.102-.246.326-.42.458-.65.134-.23.069-.592.23-.801.162-.21.327-.443.515-.63.187-.188.582-.141.792-.303.21-.161.379-.361.609-.494.228-.133.403-.378.65-.48.242-.101.48-.27.738-.339.254-.068.542-.068.808-.103.26-.034.537-.055.806-.055.27 0 .522.21.782.244.266.035.547-.038.802.03.258.07.458.288.702.39.246.102.498.168.726.3.23.134.462.255.672.416.21.162.48.261.668.449.188.187.199.525.36.736.162.21.48.31.613.54.132.23.312.451.414.698.101.243-.068.58.002.838.068.254.147.492.181.758.035.26.202.51.202.78s-.19.518-.225.778c-.034.266.035.541-.033.795-.07.259-.22.482-.32.726-.103.246-.021.588-.154.816-.133.23-.52.29-.682.5s-.163.56-.35.747c-.188.187-.41.352-.62.514s-.493.219-.723.352-.391.417-.637.519c-.244.101-.524.147-.782.216-.254.068-.525.131-.791.166-.26.034-.538.069-.807.069" style="fill:#1e2864"/><path d="M30.56 33.148c-.256 0-.501.134-.669.301s-.282.413-.282.668c0 .394.005.394.005.788s.016.394.016.789.028.395.028.79c0 .396-.034.396-.034.792 0 .255.132.469.299.636s.381.309.636.309.522-.09.689-.257.208-.433.208-.688c0-.394.019-.394.019-.788s.042-.394.042-.789-.045-.395-.045-.79c0-.396-.031-.396-.031-.792 0-.255-.07-.477-.238-.644s-.388-.325-.644-.325M34.705 33.175c-.255 0-.474.133-.642.3s-.33.387-.33.642c0 .394.022.394.022.788s.026.394.026.789.017.395.017.79c0 .396.027.396.027.792 0 .255.05.495.218.662s.407.29.662.29.497-.121.664-.288.23-.409.23-.664c0-.394.046-.394.046-.788s-.044-.394-.044-.789.04-.395.04-.79l-.001-.792c0-.255-.14-.46-.307-.628s-.372-.314-.628-.314M21.712 28.724c0-.257-.16-.505-.19-.754-.031-.255.032-.526-.029-.77a6 6 0 0 0-.214-.74c-.091-.238-.371-.388-.49-.612-.118-.225-.059-.558-.203-.766a7 7 0 0 0-.49-.598c-.168-.19-.468-.251-.658-.42s-.32-.41-.529-.554c-.208-.144-.404-.324-.63-.443-.223-.118-.52-.077-.76-.168-.235-.09-.421-.354-.67-.415-.243-.06-.53.078-.785.047a6 6 0 0 0-.753-.052c-.257 0-.517-.092-.766-.062-.254.031-.52.043-.764.103a6 6 0 0 0-.734.237c-.238.091-.437.278-.66.396-.226.119-.42.284-.627.428-.21.144-.505.185-.694.353-.19.168-.278.445-.447.635s-.34.374-.484.583-.395.362-.513.587c-.118.223-.072.528-.162.767-.09.235-.288.442-.35.69-.06.244.029.52-.002.775-.03.249-.197.496-.197.753s.18.503.21.752c.032.255.023.51.083.754.061.249.158.482.247.718.091.238.063.535.181.759.119.225.358.384.502.592.145.209.38.338.549.528.168.19.304.397.494.565.19.169.28.472.488.617.208.144.533.102.758.22s.41.312.649.402c.235.09.48.16.729.22.244.06.5.07.754.1.25.03.5.107.756.107.257 0 .498-.157.747-.187.255-.03.49-.08.734-.141.249-.061.517-.03.753-.12.238-.09.462-.209.685-.327.225-.118.496-.168.705-.312s.291-.447.48-.616c.19-.168.472-.24.64-.43s.227-.462.371-.671c.144-.208.322-.39.44-.615s.341-.407.432-.645c.09-.235.03-.523.091-.771.06-.245.051-.496.082-.75.03-.25.241-.492.241-.749m-6.4 4.353c-.265 0-.531.122-.782.078-.259-.046-.479-.22-.72-.308a4.3 4.3 0 0 1-.684-.338c-.225-.13-.55-.123-.748-.29-.199-.166-.225-.508-.391-.706a4.3 4.3 0 0 1-.449-.611c-.129-.223-.39-.385-.48-.63-.088-.24-.05-.523-.096-.78-.044-.252-.014-.504-.014-.768s-.136-.534-.092-.786c.045-.258.301-.453.39-.694.089-.245.027-.554.156-.777.13-.225.291-.442.458-.64.166-.198.426-.306.624-.473s.422-.278.647-.408c.222-.13.44-.24.685-.33.241-.088.463-.239.72-.284.252-.045.512-.108.775-.108.264 0 .505.172.756.216.258.046.537-.017.778.071.245.09.474.221.697.35.225.13.352.384.55.55s.495.227.662.425c.166.198.21.48.34.706.129.222.362.397.451.642.088.24.008.526.053.784.045.252.232.493.232.756 0 .264-.078.525-.122.776a4.5 4.5 0 0 1-.181.76c-.09.244-.33.41-.46.633-.13.225-.175.5-.34.697-.168.199-.284.464-.483.63-.197.167-.451.284-.676.414-.223.13-.53.071-.776.16-.24.089-.435.352-.693.398-.251.044-.524-.115-.788-.115" style="fill:#1e2864"/><path d="M13.645 26.549c-.255 0-.48.073-.647.24s-.261.393-.261.648c0 .403-.024.403-.024.806 0 .405-.012.405-.012.809s.056.404.056.808q0 .385.253.636c.253.251.38.29.635.29s.507-.085.674-.252.212-.418.212-.674c0-.403.013-.403.013-.806 0-.404.005-.404.005-.808s.007-.405.007-.809c0-.255-.09-.487-.257-.654s-.398-.234-.654-.234M16.826 26.53c-.256 0-.514.059-.681.226s-.247.426-.247.681c0 .403.015.403.015.806 0 .405-.032.405-.032.809s.048.404.048.808c0 .256.09.472.258.639s.383.267.639.267.48-.092.647-.259.287-.391.287-.647c0-.403.01-.403.01-.806 0-.404-.006-.404-.006-.808v-.809c0-.255-.11-.494-.276-.662s-.407-.244-.662-.244M56.449 28.724c0-.257-.09-.496-.12-.745-.031-.255.059-.523-.001-.768-.062-.248-.045-.528-.135-.764-.09-.238-.384-.386-.502-.61a6 6 0 0 0-.395-.637c-.145-.209-.193-.49-.361-.679-.169-.19-.415-.301-.604-.47-.19-.168-.41-.284-.619-.428-.208-.144-.397-.303-.622-.422a6 6 0 0 0-.688-.305 6 6 0 0 0-.716-.231c-.244-.06-.493-.052-.748-.083-.249-.03-.489-.185-.746-.185s-.508.065-.757.095c-.255.03-.5.08-.745.14-.249.061-.463.203-.699.292-.238.091-.51.093-.734.211-.225.119-.42.286-.627.43-.21.145-.434.269-.623.437-.19.168-.405.319-.573.509s-.243.454-.387.663c-.144.208-.212.453-.33.678-.118.223-.33.399-.42.637-.09.236-.257.456-.318.704-.06.244-.067.51-.097.765-.03.249-.077.51-.077.766 0 .257.097.512.127.76.03.255.166.484.227.728.06.249-.011.536.078.772.091.238.277.436.395.66.119.225.286.414.43.622.145.21.23.462.399.651.168.19.422.29.612.458s.322.405.53.55c.209.144.47.196.695.315.224.118.453.203.692.294.235.09.44.273.687.334.245.06.51 0 .765.031.25.03.493.048.75.048s.514.086.763.056c.254-.03.475-.208.72-.268.248-.061.536.021.772-.068.238-.091.428-.29.651-.408.225-.118.487-.176.695-.32a6 6 0 0 0 .602-.473c.19-.168.413-.315.581-.505s.294-.424.439-.633c.144-.208.205-.469.323-.694.118-.223.246-.44.337-.68.09-.235.283-.447.344-.694.06-.245-.066-.53-.036-.784.03-.249.066-.495.066-.752m-6.257 4.497c-.264 0-.543.05-.795.007-.258-.046-.481-.248-.722-.336-.245-.09-.427-.285-.65-.414-.225-.13-.554-.11-.752-.276a4.7 4.7 0 0 1-.565-.555c-.166-.198-.207-.492-.338-.717-.129-.223-.325-.419-.415-.664-.088-.24-.202-.493-.248-.751-.044-.251-.03-.527-.03-.79 0-.265.019-.535.063-.786.045-.258.123-.518.211-.759.09-.245.158-.516.287-.74.13-.224.4-.362.565-.56.167-.198.316-.416.514-.583s.411-.321.636-.452c.223-.129.438-.307.683-.397.24-.088.527-.051.785-.096.251-.045.507-.11.771-.11s.52.065.772.11c.258.045.49.155.732.243.245.089.523.104.746.233.225.13.489.232.687.398.198.167.304.442.47.64.167.198.234.457.365.682.129.223.271.428.36.673.088.24.123.487.169.745.044.251.147.495.147.758 0 .264.068.538.024.79-.046.257-.263.47-.351.71-.09.245-.12.514-.248.737-.13.224-.248.469-.414.667-.167.198-.415.321-.614.488-.198.166-.352.408-.577.538-.222.13-.507.147-.752.237-.24.088-.472.244-.73.289-.252.044-.522.041-.786.041" style="fill:#1e2864"/><path d="M48.526 26.534c-.255 0-.504.064-.671.232s-.218.416-.218.671c0 .403-.03.403-.03.806 0 .405-.006.405-.006.809s.004.404.004.808c0 .256.13.458.297.625s.369.334.624.334.467-.157.634-.325.277-.378.277-.634c0-.403-.028-.403-.028-.806 0-.404.053-.404.053-.808 0-.405-.009-.405-.009-.809a.914.914 0 0 0-.927-.903M51.707 26.478c-.256 0-.482.142-.65.31s-.3.394-.3.65c0 .402-.005.402-.005.805 0 .405.012.405.012.809s.026.404.026.808c0 .256.111.47.279.638s.382.324.638.324.515-.112.682-.28.26-.426.26-.682c0-.403-.043-.403-.043-.806 0-.404.006-.404.006-.808 0-.405.004-.405.004-.809 0-.255-.1-.474-.268-.642s-.386-.317-.641-.317" style="fill:#1e2864"/><path d="M10.986 37.798c.132.284.144.526.04.786-.328.824-1.67 1.516-2.113 1.693a.924.924 0 1 0 .677 1.72c.25-.099 2.467-1.013 3.152-2.723.293-.731.266-1.51-.078-2.253-.275-.593-.71-1.128-1.214-1.748-1.182-1.454-2.653-3.264-2.687-6.756-.038-3.847 2.906-7.008 6.563-7.047h.087c6.167 0 6.454 7.013 6.456 7.084.082 2.678-1.239 4.703-2.3 6.33-.63.964-1.172 1.796-1.371 2.64-.327 1.391.082 2.662 1.152 3.58a4.9 4.9 0 0 0 1.645.919.92.92 0 0 0 1.146-.617.927.927 0 0 0-.612-1.154c-.323-.1-1.913-.684-1.531-2.304.124-.53.585-1.236 1.119-2.054.318-.488.669-1.028 1.008-1.622q-.064.628-.06 1.274c.053 5.296 2.323 8.09 3.981 10.129.566.697 1.056 1.299 1.302 1.83.203.44.222.836.058 1.247-.468 1.175-2.262 2.104-2.913 2.363a.924.924 0 1 0 .678 1.72c.315-.124 3.1-1.272 3.95-3.393.353-.88.32-1.818-.096-2.714-.343-.741-.9-1.426-1.544-2.22-1.569-1.93-3.521-4.33-3.566-8.98-.05-5.17 3.911-9.417 8.832-9.47h.118c8.307 0 8.692 9.411 8.695 9.507.11 3.578-1.64 6.258-3.045 8.412-.805 1.235-1.5 2.3-1.748 3.353-.783 3.326 1.916 5.072 3.453 5.53a.92.92 0 0 0 1.147-.617.926.926 0 0 0-.614-1.153c-.284-.087-2.754-.924-2.187-3.336.174-.738.787-1.678 1.498-2.766 1.465-2.246 3.471-5.321 3.344-9.48a12 12 0 0 0-.136-1.342c.537.93 1.132 1.667 1.625 2.274.425.523.793.975.97 1.358.132.284.144.526.04.786-.328.824-1.67 1.516-2.113 1.693a.924.924 0 1 0 .677 1.72c.25-.099 2.467-1.013 3.152-2.723.293-.731.266-1.51-.078-2.253-.275-.593-.71-1.128-1.213-1.748-1.183-1.454-2.654-3.264-2.688-6.756-.038-3.847 2.906-7.008 6.562-7.047h.088c6.167 0 6.454 7.013 6.456 7.084.082 2.678-1.24 4.703-2.3 6.33-.63.964-1.173 1.796-1.371 2.64-.327 1.391.081 2.662 1.151 3.58a4.9 4.9 0 0 0 1.646.919.92.92 0 0 0 1.145-.617.927.927 0 0 0-.611-1.154c-.323-.1-1.913-.684-1.532-2.304.125-.53.586-1.236 1.12-2.054 1.14-1.746 2.7-4.138 2.6-7.396-.008-.268-.118-2.683-1.453-4.99-1.49-2.575-3.89-3.912-6.958-3.887-4.675.05-8.44 4.049-8.392 8.914.004.41.03.798.067 1.173q-.145-.286-.31-.572c-1.867-3.226-4.868-4.927-8.687-4.927h-.138c-3.816.041-7.153 2.158-9.036 5.306a10 10 0 0 0 .026-1.017c-.008-.268-.119-2.684-1.453-4.99-1.49-2.575-3.895-3.912-6.958-3.887-4.675.05-8.44 4.049-8.392 8.914.04 4.138 1.883 6.405 3.102 7.904.425.524.793.976.97 1.36" style="fill:#1e2864"/><path d="M59.945 34.87a1.232 1.232 0 1 0-2.167 1.174c.723 1.335 1.09 2.72 1.09 4.116 0 3.768-2.651 7.363-7.465 10.124-5.03 2.884-11.742 4.473-18.903 4.473s-13.874-1.589-18.903-4.473c-4.814-2.76-7.465-6.356-7.465-10.124 0-1.604.482-3.185 1.432-4.701a1.233 1.233 0 1 0-2.089-1.309c-1.2 1.914-1.808 3.936-1.808 6.01 0 4.689 3.091 9.043 8.704 12.262 5.396 3.096 12.545 4.8 20.129 4.8s14.733-1.704 20.13-4.8c5.612-3.219 8.703-7.573 8.703-12.262 0-1.811-.467-3.591-1.388-5.29M24.69 17.185c-.013.265-.097.52-.188.744-.104.254-.308.436-.444.62-.256.343-.425.625-.428.628-.2.158-.382.333-.41.568a1 1 0 0 0 .185.713c.182.231.488.344.762.344.2 0 .43-.05.6-.184.025-.02.267-.21.556-.537.148-.167.32-.371.476-.607.132-.2.196-.464.307-.71.102-.224.238-.45.303-.708.06-.239.054-.5.068-.767.014-.28.07-.565.025-.839-.044-.27-.173-.529-.275-.793-.097-.252-.189-.52-.338-.766-.138-.23-.28-.478-.463-.702-.17-.207-.437-.341-.645-.543-.21-.205-.336-.45-.47-.655-.16-.245-.228-.494-.297-.731-.079-.273-.1-.52-.089-.772.012-.28.047-.532.129-.773.093-.274.154-.548.278-.752.206-.34.414-.575.479-.643.176-.184.227-.398.222-.634s-.033-.48-.216-.657c-.184-.177-.43-.213-.666-.209s-.479.05-.656.234c-.043.045-.275.267-.53.64a6 6 0 0 0-.418.72c-.117.232-.22.494-.312.773-.08.242-.173.479-.212.718-.04.25-.06.504-.059.749.002.25.07.496.115.74.046.242.142.47.23.704.087.228.141.477.268.695.122.21.3.39.458.589.15.189.29.399.472.576.223.217.436.411.593.626.184.252.301.513.395.762.106.283.207.561.194.839M32.953 17.182c-.012.264-.092.495-.184.72-.104.253-.16.523-.298.707-.255.343-.536.525-.54.528a.89.89 0 0 0-.321.615c-.028.235-.032.507.126.707.183.231.491.315.764.315.2 0 .378-.088.548-.222.025-.02.299-.162.588-.49.148-.166.305-.376.461-.612.133-.2.284-.417.396-.662.101-.224.128-.488.194-.746.06-.24.114-.487.127-.753.015-.28.056-.563.011-.837a4 4 0 0 0-.208-.817c-.097-.252-.311-.458-.46-.704-.139-.23-.249-.49-.432-.713-.17-.207-.348-.426-.556-.628a3.5 3.5 0 0 1-.503-.613c-.16-.244-.333-.456-.402-.693-.079-.273-.07-.546-.06-.799.013-.279.082-.536.164-.777.093-.274.247-.496.371-.7.206-.34.351-.61.416-.678.176-.184.338-.41.334-.647-.005-.236-.138-.495-.321-.672a.97.97 0 0 0-.685-.248.96.96 0 0 0-.663.283c-.044.044-.283.264-.538.637-.136.2-.274.45-.412.725-.117.233-.256.485-.348.764-.08.241-.019.511-.058.751-.04.249-.13.486-.128.73.002.25.082.488.128.731.045.242.027.504.116.738.086.228.257.422.384.64.121.21.203.456.361.655.15.188.374.32.558.499.222.216.388.457.545.672.184.252.262.526.355.775.107.283.183.541.17.819M41.349 17.184c-.012.265-.146.497-.238.721a3 3 0 0 1-.361.662c-.256.344-.488.56-.49.562-.201.158-.261.391-.289.626s-.013.467.145.667a.9.9 0 0 0 .718.344c.2 0 .428-.016.598-.15.025-.02.248-.226.538-.554.147-.167.337-.354.493-.59.132-.2.24-.444.351-.69.102-.223.138-.483.204-.74.06-.24.09-.488.103-.754.015-.28.1-.565.055-.839-.044-.27-.187-.525-.289-.79-.097-.251-.174-.526-.323-.772-.138-.23-.328-.44-.511-.664-.17-.207-.404-.367-.612-.57a3.7 3.7 0 0 1-.515-.628c-.16-.244-.226-.513-.295-.75-.079-.273-.14-.538-.129-.791.013-.28.133-.53.215-.77.093-.275.202-.52.326-.725.206-.339.352-.618.416-.687.176-.183.36-.383.355-.619-.004-.235-.14-.484-.323-.66-.184-.178-.437-.23-.673-.227s-.505.05-.682.233c-.044.045-.204.323-.46.696-.135.2-.25.451-.388.725-.117.233-.264.468-.356.747-.08.241-.123.482-.162.721-.041.25-.124.491-.122.736.002.25.1.487.146.73s.048.497.136.732c.087.228.223.438.35.657.122.21.227.44.385.639.15.188.386.308.569.486.222.216.379.47.536.685.184.251.286.52.38.768.105.283.211.556.199.833" style="fill:#1e2864"/></svg>