<svg xmlns="http://www.w3.org/2000/svg" viewBox="0 0 65 65"><path d="M0 0h65v65H0z" style="fill:none"/><path d="M44.317 49.598s-25.253.621-28.565-6.21.62-24.838 4.76-29.6c4.14-4.76 17.18-3.725 23.805.829 6.623 4.554 11.591 11.177 9.935 17.8-1.656 6.625-9.935 17.181-9.935 17.181" style="fill:#fff"/><path d="m13.061 45.872-6.21 6.624v1.863l3.105 4.14h2.277l8.28-6.21z" style="fill:#80a4dc"/><path d="m49.905 21.861-3.312 1.035-1.241 1.656h-2.319l-1.821-1.449-1.035-4.14s-1.45-2.69-.207-4.346 5.382-6.21 9.521-4.554 7.452 7.866 8.487 13.04 1.242 18.009-4.76 23.39c-6.004 5.382-12.627 9.729-19.872 9.108s-12.833-3.726-12.833-3.726S8.3 44.837 8.92 30.762 19.191 8.117 28.585 6.13c10.764-2.277 17.18 3.933 17.18 3.933l-5.343 4.252s-3.35-4.045-13.7-.733c-4.495 1.438-6.21 2.898-7.865 6.417 0 0-3.726 6.002-3.726 12.419s3.312 11.591 5.175 12.833 5.891 4.087 9.259 4.217c3.367.13 12.475-.49 14.752-2.354 2.276-1.863 6.623-8.486 7.244-10.142s1.242-5.796.828-8.073-2.484-7.038-2.484-7.038" style="fill:#80a4dc"/><path d="M26.722 47.114s2.484-2.277 1.656-4.14-4.346-5.588-5.174-8.693-1.035-12.213 3.518-15.11c4.554-2.898 10.557-1.656 12.006-.621s2.277 3.311 2.277 3.311v1.242l2.898 2.07v6.831l-5.175 11.177 2.69 4.347s-10.763 5.796-14.696-.414" style="fill:#1e2864"/><path d="M35.002 36.972s-8.073-.828-8.694-2.898c-.62-2.07-1.034-10.97 4.347-12.213 5.382-1.241 9.287.916 10.35 4.554s-1.45 9.729-6.003 10.557" style="fill:#fff"/><path d="M52.273 10.612c-2.249-1.363-4.791-2.538-8.95-.69-3.038 1.35-4.824 3.96-4.824 6.818a11.84 11.84 0 0 0-5.25-1.227c-3.216 0-6.268 1.295-8.596 3.645-2.495 2.52-3.85 5.906-3.815 9.533.06 6.144 2.692 9.382 4.613 11.746.649.797 1.209 1.486 1.487 2.086 1.048 2.263-.698 3.317-1.05 3.5-.293.148-.498.402-.591.692-5.512-3.009-9.26-8.859-9.26-15.568 0-9.772 7.95-17.722 17.723-17.722 1.06 0 2.12.094 3.154.28a1.173 1.173 0 1 0 .415-2.31 20 20 0 0 0-3.569-.317c-11.066 0-20.07 9.003-20.07 20.07s9.004 20.069 20.07 20.069 20.07-9.003 20.07-20.07v-.023c-.005-.227-.13-5.185-2.294-9.046a1.17 1.17 0 0 0 .294-1.561 1.175 1.175 0 0 0-1.615-.375c-.016.01-1.584.965-3.806 1.07a1.2 1.2 0 0 0-.318.06c-.342-.282-.719-.466-1.061-.63l-.138-.068c-.93-.455-1.854-.536-2.644-.378-.574-.527-.994-1.285-1.246-2.253-.628-2.407.657-4.713 3.274-5.876 3.137-1.394 4.857-.614 6.78.552 6.187 3.75 6.317 18.055 6.318 18.195 0 13.02-10.593 23.613-23.614 23.613S10.146 43.834 10.146 30.814 20.74 7.2 33.76 7.2c1.928 0 3.845.233 5.698.692a1.173 1.173 0 1 0 .564-2.278 26 26 0 0 0-6.262-.76c-14.315 0-25.96 11.645-25.96 25.96 0 5.289 1.591 10.213 4.318 14.32l-5.601 5.547c-.225.207-1.188 1.17-1.236 2.566-.022.653.158 1.639 1.142 2.622.916.917 1.237 1.319 1.548 1.708.307.385.626.783 1.4 1.558.737.737 1.553 1.012 2.324 1.012 1.011 0 1.945-.473 2.52-1q.018-.015.034-.032l6.124-6.067a25.8 25.8 0 0 0 13.387 3.726c14.315 0 25.96-11.646 25.96-25.964-.002-.642-.137-15.768-7.447-20.198m-24.728 37.13c.36-.262.818-.66 1.215-1.21 1.028-1.43 1.137-3.203.308-4.995-.402-.866-1.048-1.661-1.795-2.58-1.798-2.213-4.036-4.966-4.088-10.289-.03-2.996 1.084-5.787 3.136-7.858 1.883-1.902 4.344-2.95 6.928-2.95 2.042 0 4.014.652 5.7 1.885q.124.088.26.14.42.92 1.045 1.621c-.204.353-.297.74-.278 1.134a9.23 9.23 0 0 0-6.734-2.916c-5.103 0-9.254 4.151-9.254 9.254s4.151 9.254 9.254 9.254 9.254-4.151 9.254-9.254a9.2 9.2 0 0 0-1.004-4.184c.328.179.666.31.972.41q.209.07.401.121.01.073.03.145c.292 1.032.432 2.106.418 3.194-.055 4.099-1.985 7.176-3.536 9.648-.91 1.45-1.696 2.704-1.987 3.94-.472 2.008.118 3.843 1.661 5.166q.225.192.452.353a17.6 17.6 0 0 1-6.143 1.099c-2.186 0-4.28-.4-6.215-1.128M40.15 28.978c0 3.808-3.098 6.907-6.907 6.907s-6.907-3.099-6.907-6.907 3.099-6.907 6.907-6.907 6.907 3.098 6.907 6.907m2.409 17.544q-.018-.007-.036-.013c-.317-.098-3.079-1.036-2.447-3.72.201-.856.891-1.956 1.69-3.23 1.617-2.577 3.83-6.107 3.895-10.864a13.6 13.6 0 0 0-.366-3.32c.87-.278 1.523-.926 1.703-1.718.01-.045.014-.091.021-.137.9-.084 1.7-.27 2.366-.481 1.934 3.28 2.092 7.891 2.099 8.122-.006 6.566-3.602 12.303-8.925 15.361M43 21.885c.339 0 .721.076 1.116.27l.147.07c.325.158.633.307.81.5.155.17.24.393.206.543-.045.199-.326.4-.654.466-.254.053-.539.05-.871-.008a5 5 0 0 1-.738-.192c-.427-.142-.948-.349-1.173-.69-.172-.262-.126-.408-.002-.548.191-.218.62-.41 1.16-.41M12.623 57.422c-.339.29-.981.665-1.592.053a14 14 0 0 1-1.226-1.363c-.335-.419-.714-.893-1.723-1.902q-.463-.464-.455-.874c.008-.41.348-.808.468-.918q.028-.024.054-.05l5.37-5.318a26.2 26.2 0 0 0 4.864 4.666z" style="fill:#1e2864"/><path d="M30.738 25.87c-.648 0-1.173.525-1.173 1.173v3.642a1.173 1.173 0 0 0 2.347 0v-3.642c0-.648-.526-1.173-1.174-1.173M35.518 25.87c-.648 0-1.173.525-1.173 1.173v3.642a1.173 1.173 0 0 0 2.347 0v-3.642c0-.648-.526-1.173-1.174-1.173" style="fill:#1e2864"/><path d="M58.074 52.134c-.245.07-.452.131-.68.201-.244.075-.47.175-.695.25-.243.081-.487.127-.708.21-.241.088-.447.234-.665.327-.236.1-.472.175-.683.282-.228.116-.47.19-.672.315-.215.133-.372.337-.561.485a6 6 0 0 0-.556.477c-.172.172-.349.34-.501.535-.147.188-.246.413-.379.627-.124.201-.26.402-.374.628q-.16.315-.31.666c-.092.217-.215.431-.304.67-.082.222-.191.443-.272.685-.075.226-.124.47-.199.714-.07.228-.125.442-.196.688-.07-.245-.15-.451-.22-.68-.075-.244-.105-.493-.18-.718q-.122-.363-.247-.696c-.09-.24-.23-.45-.323-.667-.101-.237-.198-.462-.305-.674-.115-.228-.197-.464-.323-.666-.133-.215-.294-.403-.442-.592-.153-.196-.345-.35-.518-.521-.172-.172-.32-.371-.515-.524-.189-.146-.38-.304-.593-.436-.201-.125-.434-.212-.66-.327q-.316-.16-.668-.31c-.217-.093-.43-.22-.67-.31-.22-.081-.479-.085-.72-.165-.226-.075-.442-.208-.686-.283-.229-.07-.486-.12-.732-.191.246-.07.491-.16.719-.229.244-.075.482-.136.708-.211.242-.081.489-.12.71-.203.241-.089.45-.23.668-.323.237-.1.487-.149.699-.256.228-.115.427-.266.63-.392.214-.133.401-.292.59-.44.196-.154.387-.305.559-.478.172-.172.34-.35.492-.546.147-.188.273-.397.405-.61.125-.202.274-.4.389-.626.106-.21.179-.448.279-.683q.137-.325.267-.684.124-.33.246-.693c.075-.225.195-.446.27-.69.07-.23.1-.45.171-.696.07.245.126.459.196.686.074.245.17.473.245.698.08.242.14.482.222.704q.133.36.27.689c.101.236.223.451.33.663q.175.34.364.643c.134.214.302.392.45.581.153.196.263.423.436.595.172.172.402.28.597.431.189.147.367.313.58.445.202.125.4.272.626.386.211.107.454.165.69.265.216.093.423.233.662.322.221.082.45.176.69.256.226.075.482.084.727.159.228.07.424.166.67.237" style="fill:#fff500"/><path d="M58.074 52.134c-.245.07-.452.131-.68.201-.244.075-.47.175-.695.25-.243.081-.487.127-.708.21-.241.088-.447.234-.665.327-.236.1-.472.175-.683.282-.228.116-.47.19-.672.315-.215.133-.372.337-.561.485a6 6 0 0 0-.556.477c-.172.172-.349.34-.501.535-.147.188-.246.413-.379.627-.124.201-.26.402-.374.628q-.16.315-.31.666c-.092.217-.215.431-.304.67-.082.222-.191.443-.272.685-.075.226-.124.47-.199.714-.07.228-.125.442-.196.688-.07-.245-.15-.451-.22-.68-.075-.244-.105-.493-.18-.718q-.122-.363-.247-.696c-.09-.24-.23-.45-.323-.667-.101-.237-.198-.462-.305-.674-.115-.228-.197-.464-.323-.666-.133-.215-.294-.403-.442-.592-.153-.196-.345-.35-.518-.521-.172-.172-.32-.371-.515-.524-.189-.146-.38-.304-.593-.436-.201-.125-.434-.212-.66-.327q-.316-.16-.668-.31c-.217-.093-.43-.22-.67-.31-.22-.081-.479-.085-.72-.165-.226-.075-.442-.208-.686-.283-.229-.07-.486-.12-.732-.191.246-.07.491-.16.719-.229.244-.075.482-.136.708-.211.242-.081.489-.12.71-.203.241-.089.45-.23.668-.323.237-.1.487-.149.699-.256.228-.115.427-.266.63-.392.214-.133.401-.292.59-.44.196-.154.387-.305.559-.478.172-.172.34-.35.492-.546.147-.188.273-.397.405-.61.125-.202.274-.4.389-.626.106-.21.179-.448.279-.683q.137-.325.267-.684.124-.33.246-.693c.075-.225.195-.446.27-.69.07-.23.1-.45.171-.696.07.245.126.459.196.686.074.245.17.473.245.698.08.242.14.482.222.704q.133.36.27.689c.101.236.223.451.33.663q.175.34.364.643c.134.214.302.392.45.581.153.196.263.423.436.595.172.172.402.28.597.431.189.147.367.313.58.445.202.125.4.272.626.386.211.107.454.165.69.265.216.093.423.233.662.322.221.082.45.176.69.256.226.075.482.084.727.159.228.07.424.166.67.237" style="fill:none;stroke:#ff9333;stroke-linecap:round;stroke-linejoin:round;stroke-width:1.1734867px"/></svg>