<svg xmlns="http://www.w3.org/2000/svg" viewBox="0 0 65 65"><path d="M0 0h65v65H0z" style="fill:none"/><path d="m50.169 13.215-8.914 7.175H30.82l-3.043-2.175s.87-5.435 0-7.174-3.696-2.174-3.696-2.174l-1.087 1.74s-7.175-3.045-10.654-.653-6.304 6.087-6.087 8.261c.217 2.175.652 6.523 2.826 8.262s7.827 2.392 7.827 2.392 1.305.217 1.305 0 3.913 3.043 3.913 3.043l10.377 2.1 15.112-.233 11.036-10.346s-2.174-10.218-8.479-10.218" style="fill:#80a4dc"/><path d="M35.82 20.39h5.435l6.357 13.389-5.27-.562zM24.08 33.217l6.74-12.827 3.695.652-5.87 12.175z" style="fill:#fff500"/><path d="m12.774 39.74 4.131 15.435 2.826 1.305h31.96l2.609-.87 4.348-16.74-2.826-5.218-42.178.652-1.305 3.478z" style="fill:#fff500"/><path d="M58.75 34.365c-.155-.191-.277-.426-.519-.617-.199-.158-.307-.517-.575-.65a5 5 0 0 0-.807-.297c-.248-.071-.547-.078-.842-.115-.259-.033-.547.199-.844.199-.387 0-.387-.219-.775-.219-.387 0-.387-.09-.774-.09s-.387.04-.773.04c-.389 0-.389.23-.778.23s-.389-.087-.778-.087c-.39 0-.39-.013-.78-.013s-.636.34-.79-.02c-.147-.344.325-.21.611-.454.285-.242.26-.272.545-.514s.188-.357.473-.6c.285-.242.418-.085.704-.327.286-.244.236-.302.523-.546.286-.243.357-.16.643-.402s.256-.279.542-.522c.287-.244.31-.215.598-.459.285-.242.255-.277.54-.52.287-.243.184-.364.47-.607s.38-.133.666-.376c.287-.244.224-.319.511-.563.288-.245.25-.29.538-.535s.402-.112.69-.357.207-.342.496-.588c.26-.22.338-.47.363-.784.026-.314.122-.686-.098-.945-.22-.26-.589-.401-.903-.427s-.711.042-.97.263c-.3.254-.238.325-.537.58-.298.252-.381.154-.68.407-.297.253-.18.39-.478.643-.298.254-.317.23-.615.484-.3.254-.363.179-.663.433-.298.254-.316.233-.615.486-.299.254-.233.332-.532.585-.3.255-.253.31-.552.565-.298.253-.36.18-.657.433-.3.255-.359.185-.658.439q-.299.254-.596.509c-.3.255-.184.392-.484.647-.3.256-.266.297-.567.552-.302.256-.38.164-.682.42s-.227.73-.618.668c-.375-.06-.194-.46-.377-.794-.183-.332-.251-.295-.434-.627-.182-.332.044-.456-.139-.788-.182-.332-.402-.211-.585-.544-.184-.333-.053-.405-.237-.74-.183-.332-.33-.251-.514-.584-.183-.334-.125-.366-.308-.699-.184-.334-.193-.329-.377-.663s-.105-.377-.288-.71c-.184-.334-.072-.396-.255-.73-.183-.332-.221-.311-.404-.644-.184-.335-.265-.29-.45-.625-.184-.335-.109-.376-.293-.711-.185-.337-.128-.368-.313-.704s-.686-.24-.611-.616.388-.236.688-.476c.299-.239.407-.104.707-.343s.103-.486.403-.725c.3-.241.458-.045.759-.286.3-.24.158-.418.459-.658.3-.24.44-.066.74-.306.302-.241.264-.289.566-.53.3-.24.251-.3.55-.539.302-.24.348-.183.649-.424.3-.24.297-.245.597-.485.302-.242.387-.136.69-.377.302-.242.128-.46.43-.702.304-.242.407-.114.71-.357s.292-.257.595-.5c.266-.212.282-.54.317-.853s.106-.648-.106-.914a1.3 1.3 0 0 0-.85-.462c-.314-.035-.564.18-.83.392-.298.239-.448.051-.747.29-.298.238-.25.296-.549.534-.297.238-.35.17-.648.408s-.29.248-.588.486c-.299.24-.29.25-.588.49-.299.239-.315.218-.614.457-.298.238-.286.253-.585.492-.3.24-.202.361-.501.6-.297.238-.285.253-.583.491-.299.24-.418.09-.717.329s-.167.403-.466.642c-.3.24-.32.215-.62.455s-.362.162-.663.402c-.3.241-.229.331-.53.572s-.307.236-.67.364c-.366.128-.367.028-.754.028-.386 0-.386.188-.772.188-.388 0-.388-.128-.776-.128-.389 0-.389-.057-.777-.057-.39 0-.39.189-.78.189s-.39-.205-.78-.205c-.046 0-.046.095-.093.095-.395 0-.395.096-.79.096-.396 0-.396-.196-.79-.196-.398 0-.398-.069-.794-.069-.398 0-.398.003-.796.003s-.398-.015-.797-.015-.427.28-.807.16c-.336-.106-.267-.248-.547-.463s-.375-.091-.655-.306-.205-.308-.42-.588c.062-.215.013-.444.082-.715.058-.229.32-.428.377-.689.05-.236.045-.5.09-.758.043-.242.112-.492.146-.749.033-.247-.054-.514-.032-.77.022-.25.062-.503.07-.758.008-.253.003-.508-.005-.762s-.123-.498-.15-.75c-.026-.253.09-.527.04-.774-.049-.251-.231-.468-.306-.708-.076-.244-.134-.488-.24-.718s-.078-.546-.217-.758c-.137-.21-.389-.356-.562-.543-.17-.184-.475-.21-.681-.368a4.4 4.4 0 0 0-.618-.403c-.223-.12-.356-.383-.564-.461-.239-.09-.451-.27-.668-.313-.25-.05-.516.156-.736.154-.256-.002-.504-.114-.717-.07-.254.054-.428.275-.618.362-.244.113-.478.202-.676.357-.21.164-.54.215-.703.407-.174.205-.196.534-.323.746-.215-.149-.413-.354-.65-.492-.227-.132-.543-.106-.79-.226-.237-.115-.446-.294-.701-.394a10 10 0 0 0-.761-.262c-.252-.077-.473-.315-.742-.374-.256-.057-.566.138-.839.099-.26-.037-.521-.07-.797-.09-.263-.018-.526-.2-.803-.2-.259 0-.508.19-.767.217-.257.028-.517.002-.774.055-.252.054-.521.05-.771.127-.246.076-.516.11-.758.209-.239.096-.486.2-.72.317-.23.115-.449.27-.674.404-.221.132-.45.265-.666.414-.212.147-.33.425-.535.587-.203.16-.424.296-.62.47-.191.173-.5.23-.684.416-.182.184-.196.529-.369.725-.17.194-.507.253-.669.459-.16.203-.308.426-.457.64-.148.212-.193.498-.33.72-.137.22-.386.38-.51.61-.125.228-.084.543-.196.779-.11.234-.357.412-.455.654-.097.24-.206.486-.29.733-.086.255-.063.546-.133.8-.07.26-.189.51-.242.768-.054.264.057.553.022.815-.037.266-.002.53-.019.794-.017.268-.104.525-.102.79.002.269.098.523.12.788.023.267-.083.542-.04.804.043.264.229.492.292.75.064.26-.09.58-.007.832.084.253.335.444.439.69.104.244.077.552.2.789.123.235.425.367.566.594.14.225.17.523.33.739.157.213.394.362.57.566.172.2.337.404.526.595.186.187.36.388.564.565.198.174.438.297.652.46.203.156.373.344.581.476.215.138.433.258.652.374.226.119.42.299.647.396.235.1.512.079.746.158.242.081.44.3.68.36.247.064.516.023.758.067.252.046.493.15.737.177.256.03.52-.104.763-.091.26.013.508.244.75.242.263-.003.52-.028.758-.044.27-.018.52-.104.748-.132.283-.036.542-.165.748-.203.327.184.245.303.535.542s.384.124.673.363c.29.24.223.321.514.561s.239.304.53.545c.291.24.283.251.574.493s.752.045.603.393c-.156.363-.355.14-.75.14-.396 0-.396-.22-.791-.22s-.395.223-.79.223c-.396 0-.396-.217-.792-.217-.397 0-.397-.004-.794-.004-.399 0-.399.175-.797.175s-.398.03-.797.03c-.26 0-.5.004-.74.026-.259.024-.517-.047-.753.003-.253.053-.51.077-.736.16-.242.088-.384.357-.595.479-.218.126-.536.101-.72.263-.187.164-.395.335-.547.535-.176.23-.162.566-.274.808-.12.262-.296.49-.357.75-.067.283.052.573.037.834-.017.305-.109.578-.086.82.04.43.013.756.034.836.1.368.208.339.307.707.1.368-.086.419.014.787s.357.298.457.666c.099.366-.033.402.066.767.1.366.207.337.306.703.1.367-.057.41.043.776.1.368.062.378.162.747.1.37.281.32.381.69.1.368.175.348.275.716s-.163.439-.064.806c.1.369.227.335.326.703.1.37.002.397.102.767.1.369.236.332.336.701.1.37.132.36.232.73s-.024.404.076.775c.1.37.216.338.316.708s.06.38.16.75.14.358.24.727c.1.371.105.37.205.74.1.372.122.366.223.738.1.372.153.358.254.73s-.19.448-.097.823c.043.24.265.436.355.658.092.225.33.358.464.559s.235.403.405.575.336.326.535.464c.2.137.36.332.583.429.221.096.476.067.713.118.235.05.456.122.7.122.39 0 .39-.056.778-.056.39 0 .39-.041.78-.041s.39.051.779.051.389.035.778.035.389.17.778.17c.388 0 .388-.25.777-.25.388 0 .388.24.776.24s.388-.258.777-.258c.388 0 .388.048.776.048.389 0 .389.195.778.195s.389-.238.778-.238c.39 0 .39.182.78.182s.39-.006.78-.006.39-.18.78-.18c.389 0 .389.254.778.254.39 0 .39-.189.778-.189.39 0 .39.214.779.214s.389-.05.778-.05c.39 0 .39-.165.78-.165.391 0 .391.077.782.077.39 0 .39-.125.78-.125.389 0 .389.28.779.28s.39-.268.78-.268.39-.012.78-.012.39.206.781.206c.388 0 .388-.138.776-.138.39 0 .39.221.78.221s.39-.185.78-.185.39-.082.78-.082c.388 0 .388.24.777.24.39 0 .39-.08.78-.08s.39-.18.782-.18c.39 0 .39.226.781.226.39 0 .39-.057.781-.057.392 0 .392-.062.784-.062.39 0 .39-.028.782-.028.39 0 .39-.039.782-.039.39 0 .39.092.78.092.392 0 .392-.048.784-.048.393 0 .393.038.786.038.394 0 .394.041.788.041s.394.138.788.138c.245 0 .492-.161.727-.211.238-.051.509-.049.73-.145.223-.097.32-.42.52-.557s.5-.15.67-.322.381-.338.515-.54.076-.512.168-.738c.09-.223.387-.39.43-.63.09-.38-.126-.434-.028-.813s.185-.356.283-.734c.098-.38.038-.395.137-.774.097-.376.128-.368.226-.744.098-.377.12-.372.218-.749.098-.378.078-.383.177-.762.098-.38.132-.37.23-.75.099-.379.133-.37.23-.748.099-.378.177-.358.275-.736s-.165-.447-.067-.825c.099-.38.102-.38.201-.76.098-.38.376-.307.475-.686s.006-.404.104-.783c.1-.38-.048-.42.05-.8.099-.38.12-.374.219-.755.098-.38.268-.335.367-.715s-.163-.447-.065-.826c.1-.381.291-.331.39-.712.099-.382.206-.354.305-.736.1-.383-.003-.41.096-.792s.205-.355.305-.738c.004-.018-.051-.056-.047-.075.017-.08-.176-.384-.15-.776.016-.219.109-.461.096-.74-.011-.236-.07-.473-.116-.734-.042-.239.008-.505-.074-.751-.077-.233-.273-.415-.395-.642-.116-.216-.288-.375-.451-.576m-1.674 1.345c.161.197.226.517.294.77.068.256-.142.55-.136.795q.013.48-.033.726c-.093.38-.045.39-.143.769s.144.441.046.82c-.099.38-.31.325-.409.705s.082.42-.23.658c-.319.242-.312.01-.712.01s-.4.229-.801.229c-.402 0-.402-.087-.804-.087-.4 0-.4-.013-.802-.013-.4 0-.4-.014-.801-.014-.4 0-.4-.055-.8-.055-.403 0-.403.04-.805.04-.403 0-.403.15-.805.15-.404 0-.404-.206-.808-.206s-.542.367-.819.073c-.255-.271.162-.363.22-.73.06-.367.013-.374.072-.741.058-.366.095-.36.153-.727.059-.366.013-.373.072-.739.058-.367-.099-.392-.04-.76.058-.368.201-.346.26-.714.059-.37-.038-.385.02-.754s-.185-.599.108-.831c.319-.253.49.146.896.146s.407-.128.813-.128.406-.037.811-.037c.408 0 .408.212.816.212s.408-.035.816-.035c.41 0 .41.051.82.051s.409-.094.818-.094c.237 0 .432.143.63.175.236.039.484-.074.664.01.21.099.487.165.62.326m-2.101 11.963c-.28.239-.471-.037-.84-.037-.367 0-.367-.242-.736-.242s-.369.015-.738.015-.369.055-.738.055c-.368 0-.368.25-.736.25s-.368-.219-.736-.219c-.37 0-.37-.09-.74-.09s-.37.04-.74.04c-.372 0-.372.23-.743.23s-.544.193-.771-.1c-.247-.321.07-.426.133-.825.064-.401.078-.4.142-.8.064-.403.118-.394.182-.796.065-.403.026-.41.09-.812s-.279-.644.026-.915c.29-.258.484.17.872.17s.388-.078.776-.078c.39 0 .39.11.78.11.388 0 .388-.047.777-.047.388 0 .388.037.777.037.387 0 .387-.046.775-.046.39 0 .39-.159.78-.159s.39.145.78.145c.392 0 .392-.098.784-.098s.662-.322.89-.005c.242.335-.251.467-.355.866-.104.402.02.434-.084.835-.105.402-.069.412-.173.813-.105.404-.417.36-.417.776 0 .492.3.657-.017.927m-18.118 7.559c-.263-.25.024-.478.022-.842-.002-.363.24-.364.238-.727-.002-.362-.017-.362-.019-.725-.002-.364-.057-.364-.059-.728-.002-.365-.252-.363-.254-.728-.002-.366.216-.367.214-.733s-.223-.373.04-.626c.276-.265.28 0 .663 0 .381 0 .381-.228.763-.228.383 0 .383.086.766.086.382 0 .382.013.764.013s.382.014.764.014c.381 0 .381.055.763.055.383 0 .383-.039.766-.039.384 0 .384-.15.768-.15.385 0 .385.205.77.205s.524-.358.781-.072c.247.274-.162.359-.22.722s-.011.37-.07.733c-.057.363-.094.357-.152.72-.058.364-.012.37-.07.735s.099.39.04.755c-.058.366-.2.343-.259.709s.239.554-.045.792c-.289.243-.425.077-.802.077-.379 0-.379-.175-.757-.175s-.378.127-.756.127-.378.037-.756.037c-.377 0-.377-.211-.754-.211-.379 0-.379.035-.758.035-.38 0-.38-.051-.759-.051-.38 0-.397-.008-.764.094-.45.126-.592.388-.868.126m-9.11.006c-.281-.237-.04-.47-.101-.834-.06-.363.178-.403.118-.766-.061-.363-.076-.36-.137-.723-.06-.364-.115-.355-.176-.72-.06-.364-.307-.323-.368-.688-.062-.365.154-.402.092-.767s-.307-.345-.067-.628c.242-.284.262.012.634.012.373 0 .373-.23.745-.23.374 0 .374.087.748.087.373 0 .373.013.746.013s.373.014.746.014c.372 0 .372.055.745.055.374 0 .374-.039.748-.039.375 0 .375-.15.75-.15.376 0 .376.205.751.205s.492-.333.763-.073c.261.252-.103.375-.1.738.001.363.048.363.05.726.002.362-.036.363-.034.725.003.364.048.364.05.728.002.365.161.364.163.73.003.365-.142.366-.14.732s.34.525.08.784c-.26.26-.42.08-.788.08-.37 0-.37-.174-.739-.174-.368 0-.368.127-.737.127s-.369.037-.737.037-.368-.211-.736-.211c-.37 0-.37.035-.74.035s-.37-.051-.74-.051c-.372 0-.388-.005-.746.094-.436.12-.558.371-.842.132m-12.676-11.79c.204-.313.506.003.879.003.372 0 .372.242.744.242s.372-.015.744-.015c.373 0 .373-.055.746-.055.372 0 .372-.25.745-.25.372 0 .372.218.744.218s.372.09.744.09c.373 0 .373-.04.747-.04s.374-.229.748-.229c.375 0 .375.086.75.086s.488-.232.766.02c.3.27.06.414.127.813.068.402.013.41.08.812.068.402.106.396.173.798.068.403.217.378.284.781s.2.472-.055.792c-.242.303-.34.053-.729.053s-.388-.109-.776-.109c-.39 0-.39.047-.78.047-.389 0-.389-.038-.778-.038-.388 0-.388.046-.777.046-.388 0-.388.16-.776.16-.39 0-.39-.145-.78-.145-.391 0-.391.098-.782.098s-.391.06-.783.06-.452.078-.758-.167c-.323-.258-.217-.344-.325-.743-.108-.401-.144-.392-.253-.793-.109-.402.096-.457-.013-.86-.11-.403-.045-.45-.258-.81-.262-.443-.626-.516-.398-.866m10.717-.012c.24-.304.511.015.898.015s.387.242.773.242.386-.015.772-.015c.388 0 .388-.055.776-.055.386 0 .386-.25.773-.25s.387.218.774.218c.385 0 .385.09.771.09.388 0 .388-.04.776-.04.389 0 .389-.229.777-.229.39 0 .39.086.78.086s.523-.258.796.02c.28.285-.006.416-.003.815.002.401-.053.402-.05.803.001.402.04.402.042.804.003.403.154.402.156.805s.096.474-.184.764c-.273.282-.348.058-.74.058-.393 0-.393-.109-.785-.109-.394 0-.394.047-.788.047-.393 0-.393-.038-.786-.038s-.393.046-.786.046c-.392 0-.392.16-.784.16-.394 0-.394-.145-.788-.145-.395 0-.395.098-.79.098-.396 0-.396.06-.792.06s-.464.093-.764-.165c-.307-.265-.179-.354-.246-.753-.067-.402-.103-.396-.17-.797-.068-.402.141-.437.074-.839-.068-.403-.001-.444-.174-.814-.213-.458-.562-.562-.308-.882m9.668-20.06c.4-.004.269.47.462.822s-.02.468.174.82c.195.354.208.346.402.7.194.352.242.326.436.678s.413.232.607.585c.195.354.003.459.198.813.194.353.116.396.31.749s.229.334.423.687c.194.352.394.242.588.594.195.354.12.396.314.75.195.354.184.36.379.715.195.356.183.363.379.718s.534.337.343.694c-.183.341-.346.015-.733.015s-.387.151-.773.151c-.39 0-.39-.206-.778-.206s-.388.077-.775.077c-.388 0-.388-.109-.776-.109-.39 0-.39.047-.778.047-.389 0-.389-.038-.777-.038s-.388.046-.777.046c-.387 0-.387.16-.775.16-.39 0-.39-.145-.779-.145-.39 0-.39.098-.78.098-.391 0-.391.06-.783.06s-.553.186-.746-.154c-.196-.35.082-.372.275-.723.194-.352.161-.37.355-.722.194-.353.38-.251.574-.604s.163-.37.357-.723c.194-.352.238-.327.432-.68.195-.354.113-.4.307-.753s.307-.291.501-.644.036-.44.23-.793c.194-.352.22-.338.414-.69.195-.354.281-.307.476-.66.195-.356.22-.342.415-.697.195-.356.209-.369.303-.764.12-.506-.03-.868.376-.873m11.622 11.705c.25.276-.094.488-.152.855-.059.367-.298.328-.357.695s-.043.369-.102.735-.004.375-.062.74c-.059.368.188.407.13.775-.059.368-.274.334-.333.702-.059.37-.147.355-.206.725s.243.439-.042.68c-.29.244-.31.204-.689.204-.38 0-.38-.087-.76-.087s-.38-.013-.76-.013-.38-.014-.759-.014c-.38 0-.38-.055-.761-.055-.38 0-.38.04-.76.04s-.38.15-.76.15-.38-.206-.759-.206c-.381 0-.381.077-.762.077-.382 0-.382-.109-.764-.109-.383 0-.383.047-.766.047s-.43.25-.707-.014c-.266-.254-.022-.306-.024-.673s-.16-.366-.163-.733c-.002-.366.143-.367.14-.733-.001-.366-.1-.366-.102-.731-.002-.368-.061-.368-.063-.735-.002-.369.173-.37.17-.738-.001-.37-.129-.368-.13-.738s-.27-.571-.004-.827c.278-.268.471.177.857.177.387 0 .387-.035.774-.035.389 0 .389.051.777.051s.388-.094.776-.094c.387 0 .387.128.775.128.39 0 .39-.18.778-.18.389 0 .389.03.777.03s.388.099.776.099.388.027.775.027c.39 0 .39-.101.779-.101.39 0 .39-.073.78-.073.391 0 .415.199.792.094.468-.131.628-.431.89-.142M34.5 35.073c.265.254-.024.482-.022.85.002.366-.24.367-.239.734.002.366.017.366.02.733.001.365.056.365.058.73.002.369.253.367.255.735s-.217.37-.215.738c.002.369-.087.37-.085.739s.35.41.078.659c-.298.273-.333.2-.738.2s-.404-.086-.809-.086c-.404 0-.404-.013-.808-.013-.406 0-.406-.014-.812-.014-.405 0-.405-.055-.81-.055-.404 0-.404.04-.809.04-.404 0-.404.15-.808.15-.406 0-.406-.206-.812-.206s-.407.077-.814.077c-.408 0-.408-.109-.815-.109s-.466.308-.787.057c-.293-.23-.007-.344-.068-.711s-.107-.36-.168-.726-.219-.34-.28-.706.082-.39.02-.756c-.061-.368-.158-.351-.22-.719-.061-.368-.12-.358-.181-.727-.062-.369.11-.398.049-.767s-.474-.503-.23-.788c.245-.286.442-.067.82-.067s.378.212.756.212c.38 0 .38-.035.76-.035.378 0 .378.051.757.051.38 0 .38-.094.758-.094.38 0 .38.128.76.128s.38-.18.76-.18.38.03.758.03c.38 0 .38.099.758.099.38 0 .38.027.761.027s.381-.101.762-.101c.383 0 .381.032.75-.07.452-.127.613-.323.89-.059m2.312 12.593c-.285-.28.026-.513.023-.912-.002-.401.24-.403.238-.804-.002-.402-.017-.402-.02-.804-.002-.403-.056-.403-.059-.806s-.49-.63-.208-.919c.277-.283.512.17.908.17.395 0 .395.09.79.09.396 0 .396-.04.792-.04s.396-.229.793-.229c.396 0 .396.086.792.086s.396.013.792.013c.395 0 .395.014.79.014.397 0 .397.055.794.055.398 0 .398-.039.796-.039.399 0 .399-.15.798-.15s.494-.122.75.183c.26.31-.001.362-.065.761-.064.402-.172.384-.236.786s-.018.41-.082.811c-.064.403-.1.397-.165.8s.238.524-.07.79c-.304.264-.377.15-.779.15-.401 0-.401-.144-.803-.144-.404 0-.404.098-.807.098-.402 0-.402.06-.805.06-.402 0-.402-.176-.804-.176s-.402.128-.804.128c-.403 0-.403.037-.807.037s-.404-.212-.809-.212-.434-.07-.825.037c-.478.132-.618.45-.908.166m3.224-25.68c.329.184.177.429.359.759s-.03.448.152.778c.18.33.194.323.375.653.182.33.23.303.41.632.182.33.401.21.583.54s-.01.436.173.767c.182.33.104.374.285.705.182.33.217.311.399.642.182.332.383.221.565.553.183.331.107.373.29.704.181.331.17.337.352.668.182.33.17.337.351.668.183.332.135.359.317.69.183.333.217.315.4.647.184.334.316.261.5.595s.403.386.189.701c-.23.34-.359.05-.768.05-.411 0-.411-.109-.822-.109s-.44.253-.8.053c-.328-.183-.13-.33-.311-.66-.182-.33-.222-.308-.404-.64-.182-.329-.32-.252-.502-.582-.181-.33-.055-.399-.236-.728-.181-.33-.267-.283-.449-.613-.182-.331-.234-.303-.416-.634-.182-.33-.029-.415-.21-.746-.183-.33-.295-.269-.476-.6-.183-.331-.215-.313-.398-.645-.182-.331.003-.433-.179-.765-.182-.33-.212-.314-.395-.645-.181-.33-.137-.355-.318-.685-.183-.332-.265-.287-.448-.62-.183-.332-.07-.394-.253-.726-.184-.334-.342-.247-.526-.58s-.553-.379-.34-.694c.23-.339.42.094.83.094s.45.124.85.024c.461-.114.512-.45.87-.25M27.669 32.863c-.357.2-.487-.055-.897-.055s-.411-.242-.822-.242-.47.414-.705.076c-.215-.309.142-.205.323-.535s-.037-.451.145-.782c.181-.33.373-.225.554-.554s.26-.287.44-.616c.182-.33.147-.35.329-.679.182-.331-.018-.442.164-.773.182-.33.257-.29.44-.62.181-.33.192-.324.374-.655.183-.332.195-.325.377-.657.183-.331.23-.304.413-.636.182-.33.148-.35.33-.68s.05-.404.231-.734c.183-.332.363-.233.546-.565.183-.333.115-.37.298-.702.184-.334.28-.281.463-.615s-.024-.485.308-.671c.357-.201.386.043.796.043s.411-.046.822-.046.686-.444.92-.107c.216.309-.3.387-.482.716-.182.331-.096.379-.278.71-.181.33-.13.358-.31.688-.182.33-.335.245-.516.574-.182.33-.07.391-.251.721-.183.332-.15.35-.332.681-.182.33-.368.229-.55.56-.182.33-.15.347-.333.678-.182.331-.227.307-.41.639-.182.33-.1.376-.281.707s-.295.27-.477.6-.023.418-.205.748c-.183.332-.21.318-.392.65s-.27.285-.452.618c-.184.333-.31.312-.402.68-.11.437.154.648-.178.835M18 27.475c-.01.003-.31.004-.757.072-.209.031-.482-.179-.76-.156-.226.019-.462.047-.725.05-.235.004-.475.054-.732.04-.24-.015-.513.21-.765.176-.24-.033-.45-.292-.696-.349-.238-.054-.444-.203-.684-.283-.231-.076-.465-.124-.694-.227-.223-.1-.55-.012-.767-.141-.21-.125-.376-.34-.577-.494-.207-.159-.396-.331-.58-.495-.194-.174-.367-.361-.536-.54-.178-.189-.3-.415-.453-.608-.16-.203-.336-.384-.469-.591-.14-.218-.4-.37-.51-.59-.117-.23-.033-.548-.121-.779-.092-.24-.242-.455-.306-.693-.067-.249-.012-.515-.053-.76-.041-.253-.115-.491-.132-.736-.018-.258-.085-.422-.08-.667.346.057.3.123.605.296.307.174.385.035.691.209s.235.3.542.473c.144.081.312.025.467.025.322 0 .519-.16.689-.46.126-.223.306-.42.243-.648s-.296-.347-.518-.472c-.31-.177-.33-.144-.64-.32-.311-.177-.207-.361-.518-.538-.313-.177-.33-.146-.642-.323s-.35-.086-.568-.371c.083-.354.102-.598.188-.851.093-.276.316-.496.43-.763.116-.268.122-.626.256-.883.358.067.304.23.61.427.307.199.253.281.56.48s.293.222.6.421c.309.2.364.114.673.314s.347.139.656.338c.155.1.297.234.47.234.302 0 .706-.116.883-.39a1.18 1.18 0 0 0 .144-.79c-.05-.232-.34-.372-.555-.511-.307-.199-.336-.154-.643-.352-.309-.2-.243-.302-.552-.502s-.396-.065-.706-.265-.25-.292-.56-.493-.462-.072-.691-.361c.147-.197.499-.368.657-.553.16-.187.139-.536.308-.71.172-.176.453-.24.633-.4.184-.165.39-.472.58-.62.332.118.278.28.562.489s.291.2.576.408c.285.209.232.282.517.49s.21.313.496.522c.164.12.441.163.63.163.286 0 .573-.226.755-.473.15-.206.29-.474.254-.707-.036-.234-.161-.568-.367-.719-.276-.202-.431.01-.707-.192s-.228-.269-.504-.472-.237-.202-.41-.499c.252-.112.327-.287.58-.366.264-.081.59.099.852.056.27-.044.526-.293.793-.293.272 0 .528.236.783.258.27.024.535-.001.786.045.267.049.543.035.79.105.26.075.489.23.727.325a8 8 0 0 1 .722.321c.241.125.394.372.608.51.23.148.604.075.802.231.217.17.312.471.493.643.206.195.4.373.562.556.197.223.478.345.61.527.262.358.265.702.288.746.158.3.446.52.746.614s.586-.069.887-.226.677-.274.772-.575 0-.689-.157-.99c-.024-.046-.09-.349-.342-.72-.126-.185-.297-.398-.482-.632-.152-.19-.317-.35-.51-.56.081-.19.194-.299.32-.478.137-.192.241-.33.422-.413.168-.076.347-.228.592-.167.177.044.394.111.61.226.24.128.315.438.483.646.161.2.469.322.572.58.095.236.141.516.194.788.048.252-.018.532 0 .806.016.26.136.527.13.798-.007.264-.162.523-.186.79s-.025.534-.063.796c-.04.269.1.567.05.823-.052.272-.234.51-.293.759-.066.278-.19.524-.256.76-.084.294.014.612-.059.819-.089.251-.286.475-.214.719.072.243.293.411.504.574.309.237.367.161.676.399s.19.394.5.632.457.078.535.462c.079.389-.177.269-.368.617-.192.348-.205.34-.396.688s-.05.426-.241.774c-.192.35-.223.333-.416.683-.192.349-.055.424-.246.773-.192.349-.377.247-.57.596-.192.35-.077.414-.27.764-.192.35-.376.248-.568.598-.192.349-.142.376-.334.726-.192.348-.218.334-.41.683-.193.35-.091.406-.284.757-.193.35-.215.339-.408.69-.194.352-.189.354-.382.707s.034.707-.358.793c-.376.082-.27-.381-.567-.626-.298-.247-.378-.15-.676-.397-.298-.245-.277-.27-.575-.516-.299-.247-.187-.383-.486-.63-.3-.247-.37-.162-.67-.41s-.42-.103-.72-.351-.297-.252-.597-.5c-.155-.128-.238-.367-.429-.408s-.36.162-.553.215m-4.262 8.28c.148-.19.447-.308.683-.407.22-.093.521.082.768.046.252-.036.483-.062.712-.062.382 0 .382-.055.764-.055s.382-.25.763-.25c.38 0 .38.218.762.218.38 0 .38.09.76.09.383 0 .383-.04.765-.04.383 0 .383-.23.766-.23.384 0 .384.087.768.087s.487-.226.783.018c.287.237.056.384.117.751s.007.376.069.743c.06.366.1.36.16.726.062.366.21.34.272.707.061.367-.142.401-.08.769s.137.356.199.724c.062.369-.046.387.016.756s.427.41.18.692c-.252.29-.348-.053-.732-.053s-.384.045-.767.045c-.384 0-.384.16-.767.16-.385 0-.385-.145-.77-.145-.384 0-.384.098-.768.098s-.384.06-.767.06c-.384 0-.384-.176-.767-.176-.385 0-.385.128-.77.128-.386 0-.386.037-.772.037s-.386-.212-.773-.212-.427.268-.743.045c-.285-.2-.02-.32-.112-.656-.091-.337-.182-.313-.274-.65-.091-.34.033-.373-.059-.711-.092-.34-.266-.293-.358-.632s-.063-.347-.154-.687c-.046-.177-.005-.546.03-.94.029-.312-.098-.742.096-.993m4.166 18.38c-.007-.045.06-.091.048-.134-.106-.394.128-.457.021-.851-.107-.396-.122-.392-.229-.788s-.16-.382-.267-.778c-.108-.398-.35-.332-.457-.73s-.242-.464-.012-.805c.21-.312.328.115.704.115s.376-.04.751-.04c.377 0 .377-.23.754-.23.376 0 .376.087.753.087.376 0 .376.013.752.013.375 0 .375.014.75.014.378 0 .378.055.755.055.378 0 .378-.039.756-.039.379 0 .379-.15.758-.15s.426-.05.718.191c.284.235.115.313.176.676s-.047.381.014.744c.06.363.106.355.167.717.06.365.024.37.085.735s.106.358.167.722c.062.366.218.34.28.706s.23.456-.015.735c-.251.288-.363.09-.745.09-.38 0-.38.06-.762.06-.38 0-.38-.175-.761-.175-.38 0-.38.127-.76.127-.383 0-.383.037-.765.037-.383 0-.383-.211-.766-.211s-.383.035-.767.035-.384-.051-.768-.051c-.267 0-.533-.024-.75-.21-.218-.186-.543-.404-.585-.668m35.43 0c-.04.263-.304.553-.522.74-.217.185-.545.083-.812.083-.408 0-.408.015-.815.015s-.407.055-.814.055-.407.25-.813.25c-.409 0-.409-.218-.817-.218-.41 0-.41-.09-.819-.09-.41 0-.41.04-.82.04s-.623.486-.909.192c-.256-.264.11-.454.168-.818s.07-.36.129-.724c.057-.362.071-.36.129-.722.058-.365.112-.356.17-.72.059-.365.02-.371.078-.736.059-.366-.09-.39-.032-.756s.01-.428.298-.66c.307-.249.356-.064.751-.064.396 0 .396.11.793.11.396 0 .396-.047.792-.047.395 0 .395.037.79.037.396 0 .396-.046.79-.046.398 0 .398-.159.795-.159s.397.145.795.145.398-.099.797-.099.665-.325.904-.006c.245.327-.25.465-.352.86-.103.397.02.429-.082.826-.104.397-.068.407-.17.804-.104.399-.31.346-.413.744s-.07.408-.173.807c-.01.039.191.116.185.156" style="fill:#1e2864"/></svg>