<svg xmlns="http://www.w3.org/2000/svg" viewBox="0 0 65 65"><path d="M0 0h65v65H0z" style="fill:none"/><path d="m26.258 28.152 31.09.435V54.24h-46.09l.434-9.566 14.566-.652z" style="fill:#ff51ce"/><path d="M26.476 35.544h23.48l-.435 3.26H26.258zM19.519 53.589l.217-8.914 6.088-.217v-5H47.13v14.566z" style="fill:#80a4dc"/><path d="m25.824 12.933 31.09.435-.218 10.653-30.655.435z" style="fill:#fff500"/><path d="M7.996 10.976V7.063h2.826v51.092H7.996z" style="fill:#1e2864"/><path d="M7.996 11.846h3.044V9.454l14.349.435v34.569H7.996V41.63h2.391l.435-6.74-2.826-.87v-2.39l3.261-.218-.435-6.522-3.044-.435.218-3.044h3.044l-.218-6.087-3.044-.218z" style="fill:#fff"/><path d="M57.24 25.797c.68 0 1.232-.552 1.232-1.233V13.042c0-.681-.552-1.233-1.232-1.233h-30.6V9.563a.924.924 0 0 0-.925-.924H12.073V6.954a.924.924 0 0 0-.925-.924h-3.26a.924.924 0 0 0-.925.924v4.22a.92.92 0 0 0-.435.78v3.262c0 .33.174.618.435.781v4.525a.92.92 0 0 0-.435.781v3.261c0 .33.174.618.435.782v4.96a.92.92 0 0 0-.435.78v3.262c0 .33.174.618.435.781v5.395a.92.92 0 0 0-.435.781v3.261c0 .33.174.618.435.782v12.698c0 .51.414.924.924.924h3.261c.511 0 .925-.414.925-.924v-2.681H57.24c.68 0 1.232-.552 1.232-1.233V28.26c0-.68-.552-1.232-1.232-1.232h-5.943v-1.231zm-1.233-11.523v9.058H26.64v-9.058zM25.715 45.491c.51 0 .924-.414.924-.925v-4.293h5.978V52.9H20.552v-7.41zm8.751-5.218h11.747V52.9H34.466zm-7.827-1.849v-2.01h22.502v2.01zM24.79 10.488v33.154H12.073V10.488zM8.16 32.01h2.064v1.413H8.159zm0-9.783h2.064v1.412H8.159zm2.064-7.937H8.159V12.88h2.065zm0 1.85v4.238H8.159V16.14zm0 9.348v4.673H8.159V25.49zm0 9.783v5.109H8.159v-5.109zM8.159 42.23h2.065v1.412H8.159zm2.065-34.351v3.151H8.159V7.88zM8.159 57.12v-11.63h2.065v11.63zm3.914-11.63h6.63V52.9h-6.63zM56.007 52.9h-7.945V40.273h2.003c.51 0 .924-.414.924-.925V35.49a.924.924 0 0 0-.924-.924H26.639v-5.073h29.368zm-7.175-25.872H26.64v-1.231h22.193z" style="fill:#1e2864"/><path d="M30.173 19.836h2.37v.543h-2.37c-.572 0-1.034.414-1.034.924s.462.925 1.034.925h3.403c.572 0 1.034-.414 1.034-.925v-2.391c0-.51-.462-.925-1.034-.925h-2.37v-.542h2.37c.572 0 1.034-.414 1.034-.925s-.462-.924-1.034-.924h-3.403c-.572 0-1.034.414-1.034.924v2.392c0 .51.462.924 1.034.924M49.867 22.228c.57 0 1.034-.414 1.034-.925v-1.467h2.37c.57 0 1.034-.414 1.034-.924V16.52c0-.51-.463-.924-1.034-.924h-3.404c-.571 0-1.034.414-1.034.924v4.783c0 .51.463.925 1.034.925m1.034-4.783h1.336v.542H50.9zM43.302 22.228h3.404c.571 0 1.034-.414 1.034-.925V16.52c0-.51-.463-.924-1.034-.924h-3.404c-.571 0-1.034.414-1.034.924v4.783c0 .51.463.925 1.034.925m1.034-4.783h1.336v2.934h-1.336zM36.737 22.228c.571 0 1.034-.414 1.034-.925v-1.575h1.336v1.575c0 .51.463.925 1.034.925s1.034-.414 1.034-.925V16.52c0-.51-.463-.924-1.034-.924s-1.034.414-1.034.924v1.359h-1.336V16.52c0-.51-.463-.924-1.034-.924s-1.034.414-1.034.924v4.783c0 .51.463.925 1.034.925" style="fill:#1e2864"/><path d="M15.28 21.358c.51 0 .924-.414.924-.924V17.88h4.945a.924.924 0 1 0 0-1.85h-4.945v-2.553a.924.924 0 1 0-1.85 0v6.957c0 .51.415.924.925.924M15.062 27.446c.51 0 .924-.414.924-.925v-1.467h4.021v1.8l-1.916 2.439h-2.377a.924.924 0 1 0 0 1.849h2.826c.284 0 .552-.13.727-.354l2.392-3.043a.93.93 0 0 0 .197-.572V24.13a.924.924 0 0 0-.924-.925h-5.87a.924.924 0 0 0-.925.925v2.391c0 .51.414.925.925.925M14.307 36.187c.415.297.993.2 1.29-.215l.81-1.134h2.483l-1.035 1.412H15.93a.924.924 0 1 0 0 1.849h.568l-1.313 1.79a.924.924 0 0 0 1.49 1.093l4.784-6.522a.925.925 0 0 0-.746-1.471h-4.783a.92.92 0 0 0-.752.387l-1.087 1.522a.925.925 0 0 0 .215 1.29M19.845 37.99a.924.924 0 0 0-.925.924v1.522a.924.924 0 1 0 1.85 0v-1.522a.924.924 0 0 0-.925-.925M21.095 38.914v1.522a.924.924 0 1 0 1.848 0v-1.522a.924.924 0 1 0-1.848 0" style="fill:#0049b9"/></svg>