<svg xmlns="http://www.w3.org/2000/svg" viewBox="0 0 65 65"><path d="M0 0h65v65H0z" style="fill:none"/><path d="M8.192 55.835s-1.06-1.766-.9-4.575-.017-24.656-.017-24.656l3.818-3.594 3.582-2.408.963-8.587h9.44l6.21-4.976h3.532l3.852 4.174 10.114.24 1.362 4.575v6.822l6.1 1.926 1.926 3.834-.401 24.979-2.649 3.851-36.837.482-8.267-.402z" style="fill:#ff51ce"/><path d="m15.237 33.785.401-21.77 34.912-.401-.562 21.268-12.52 9.266-4.922-1.698-5.19.87z" style="fill:#0049b9"/><path d="m20.775 26.604 2.086 2.586 4.254 2.326 6.581.964 5.377-1.773 4.735-3.363v-3.933s-4.253-5.136-9.149-4.895-10.112 1.204-11.958 2.729c-1.846 1.524-2.42 2.63-1.926 5.36" style="fill:#fff"/><path d="M26.794 25.82s.887 3.848 2.008 4.291 4.011.848 4.573.806 3.189-1.326 3.189-1.326l.824-1.384V25.82z" style="fill:#ff9333"/><path d="M44.13 25.132s-2.978-7.275-11.923-6.624c-8.944.65-11.677 5.016-11.6 5.305s-.314 1.681-.314 1.681z" style="fill:#fff500"/><path d="m55.444 23.082-4.297-3.653V11.52c0-.683-.554-1.238-1.238-1.238h-9.522l-2.699-2.294c-.542-.488-5.496-4.677-10.759-.002l-2.716 2.296h-9.078c-.684 0-1.238.555-1.238 1.238v7.484l-5.835 4.933a6.06 6.06 0 0 0-2.347 4.788v24.41a6.076 6.076 0 0 0 6.07 6.069h41.43a6.076 6.076 0 0 0 6.07-6.07V28.726a6.08 6.08 0 0 0-3.84-5.643M39.921 41.888l16.887-11.18v22.427q-.002.23-.032.454zm13.294-16.756c1.7 0 3.126 1.189 3.497 2.778-.152.03-.301.09-.439.181l-5.126 3.394v-6.353zM28.54 9.867l.024-.02c3.756-3.346 7.086-.381 7.45-.036q.028.029.059.054l.49.417H28.05zM16.373 12.76h32.298v19.77c0 .186.042.361.115.52l-10.707 7.088q-.195.131-.323.313c-1.23-.701-3.22-1.606-5.305-1.606-1.892 0-3.786.82-5.124 1.57l-11.08-7.341c.08-.164.126-.348.126-.543zm-8.15 40.83q-.029-.224-.031-.454V30.707l16.887 11.188zM9.6 25.879a3.57 3.57 0 0 1 2.184-.747h2.113v6.384l-5.17-3.425a1.2 1.2 0 0 0-.439-.18 3.6 3.6 0 0 1 1.06-1.819zm2.184 30.849a3.57 3.57 0 0 1-2.402-.929l17.561-12.184q.03-.02.06-.044c.028-.022 2.9-2.251 5.448-2.251 2.488 0 5.033 1.888 5.057 1.906l.04.03 18.07 12.543a3.57 3.57 0 0 1-2.403.929z" style="fill:#1e2864"/><path d="m21.996 30-1.302 1.091a.928.928 0 1 0 1.192 1.424l1.615-1.352c.033-.028.06-.06.089-.091.797.443 1.69.825 2.663 1.134l-.865 1.764a.929.929 0 1 0 1.668.818l1.032-2.107c1.047.215 2.16.351 3.318.399v2.067a.929.929 0 1 0 1.857 0V33.08a21 21 0 0 0 3.189-.373l1.103 2.02a.928.928 0 1 0 1.63-.89l-.873-1.6a14.4 14.4 0 0 0 3.05-1.327l1.608 1.48a.925.925 0 0 0 1.312-.055.93.93 0 0 0-.054-1.312l-1.325-1.219c1.426-1.246 2.256-2.768 2.256-4.43 0-4.332-5.633-7.726-12.824-7.726S19.51 21.042 19.51 25.375c0 1.749.919 3.344 2.486 4.625m13.871.917a6.49 6.49 0 0 0 2.895-4.613h4.394c-.663 2.125-3.549 3.906-7.289 4.613m-3.532-.806a4.63 4.63 0 0 1-4.547-3.807h9.093a4.63 4.63 0 0 1-4.546 3.807m-6.427-3.807a6.49 6.49 0 0 0 2.894 4.613c-3.74-.707-6.626-2.488-7.289-4.613zm6.427-6.798c5.356 0 9.96 2.182 10.821 4.94H21.513c.86-2.758 5.466-4.94 10.822-4.94" style="fill:#1e2864"/></svg>