<svg xmlns="http://www.w3.org/2000/svg" viewBox="0 0 65 65"><path d="M0 0h65v65H0z" style="fill:none"/><path d="M26.763 63.739s-1.74-9.132 0-12.828c0 0-8.262-10.218-9.349-14.784-1.087-4.565-2.391-15.87-2.391-15.87s-3.479-5.001-3.479-8.48 1.305-7.392 3.914-8.479 5.652 0 5.652 0l1.087 3.261-.217 1.305s2.391.217 3.261 1.304.435 4.783.435 4.783l-1.087 2.827-1.74 3.043 1.305 4.566s6.957-13.697 16.088-10.87 12.61 11.74 11.74 15.436-6.087 13.914-6.087 13.914l-.435 1.74.435 2.826s7.392 5 7.61 6.74c.217 1.739-1.088 9.566-1.088 9.566z" style="fill:#ff51ce"/><path d="M33.72 36.127s4.13 1.74 6.522.87 5.218-2.826 5.653-3.696 3.261-6.088.652-9.349-5-5.435-8.261-5.435-8.914 3.913-9.349 6.088c-.435 2.174 1.522 10.218 2.392 10.435s2.391 1.087 2.391 1.087" style="fill:#fff"/><path d="M30.024 27.866s4.783 1.956 5.435 3.26c.653 1.305 2.827 5.001 2.827 5.001s2.609-5 4.783-6.305 3.696-1.956 3.696-1.956-5.653-2.392-6.088-3.479-2.391-5.218-2.391-5.218-3.696 9.132-8.262 8.697" style="fill:#fff500"/><path d="M52.342 51.012c-.874-.91-1.95-1.572-2.992-2.212-2.348-1.443-3.549-2.3-3.024-4.532.24-1.018 1.083-2.31 2.059-3.806 2.007-3.076 4.756-7.29 4.582-12.983-.015-.468-.208-4.69-2.542-8.724-2.553-4.413-6.66-6.741-11.885-6.741h-.189c-6.39.069-11.801 4.388-13.782 10.348-.08-.879-.139-1.79-.168-2.745.841-.799 2.431-2.665 2.86-5.668.792-5.546-1.96-6.641-2.822-6.845a3.3 3.3 0 0 0-.594-.08c.003-1.249-.243-2.882-1.32-4.109C21.397 1.631 19.68 1.09 17.43 1.31c-3.02.292-5.53 2.288-6.712 5.34-1.61 4.155-.5 9.277 2.822 13.162.117 1.387.58 5.968 1.98 11.532 2.149 8.55 5.384 15.145 9.621 19.616-.392 1.866-1.268 7.157.172 11.838a1.233 1.233 0 0 0 2.357-.725c-1.539-5 0-11.124.015-11.185a1.23 1.23 0 0 0-.322-1.18C17.42 39.764 15.981 19.43 15.967 19.227a1.23 1.23 0 0 0-.315-.746c-2.923-3.236-3.958-7.53-2.636-10.94.852-2.197 2.547-3.574 4.651-3.778 1.415-.136 2.426.124 3.001.775.79.895.775 2.48.658 3.375a4.15 4.15 0 0 0-1.264 1.865 1.232 1.232 0 1 0 2.338.78c.26-.777.97-1.172 1.472-1.054.739.175 1.318 1.51.949 4.097-.425 2.976-2.314 4.411-2.387 4.466a1.23 1.23 0 0 0-.511 1.022c.133 7.356 1.8 12.721 3.327 16.13.334.803.708 1.536 1.102 2.213.786 1.409 1.38 2.159 1.453 2.248q.088.107.19.188c.418.55.83 1.058 1.219 1.535.778.958 1.45 1.785 1.79 2.518a1.232 1.232 0 1 0 2.237-1.036c-.47-1.013-1.232-1.95-2.115-3.037-.822-1.012-1.722-2.12-2.523-3.458-.34-.6-.73-1.356-1.134-2.264-.723-1.78-1.216-3.924-1.243-6.62-.07-7.11 5.382-12.953 12.151-13.025l.163-.001c11.43 0 11.959 12.944 11.963 13.076.15 4.919-2.252 8.601-4.183 11.56-1.102 1.69-2.055 3.15-2.393 4.588-.957 4.069 1.865 5.803 4.132 7.197.952.585 1.85 1.137 2.505 1.82 1.456 1.515 2.111 3.497 1.95 5.89-.127 1.866-.724 3.296-.74 3.336a1.233 1.233 0 0 0 2.262.978c.124-.285 2.976-7.047-1.694-11.912" style="fill:#1e2864"/><path d="M49.203 27.872c0-5.981-4.866-10.847-10.847-10.847s-10.847 4.866-10.847 10.847 4.866 10.846 10.847 10.846 10.847-4.865 10.847-10.846m-2.558-1.245c-4.161-1.556-5.54-2.92-7.095-7.05a8.4 8.4 0 0 1 7.095 7.05m-8.299 7.458c-1.42-3.253-3.026-4.86-6.28-6.28 3.254-1.42 4.86-3.027 6.28-6.28 1.42 3.253 3.027 4.86 6.28 6.28-3.253 1.42-4.86 3.027-6.28 6.28M37.142 19.58c-1.551 4.122-2.929 5.488-7.074 7.041a8.4 8.4 0 0 1 7.074-7.04m-7.092 9.405c4.205 1.572 5.569 2.951 7.143 7.187a8.4 8.4 0 0 1-7.143-7.187m9.448 7.19c1.578-4.245 2.944-5.622 7.165-7.198a8.4 8.4 0 0 1-7.165 7.197M18.37 11.412a.925.925 0 0 0-1.305.076c-.764.86-1.747 3.006 0 4.972a.92.92 0 0 0 1.305.077.924.924 0 0 0 .077-1.305c-1.044-1.175-.181-2.304.005-2.52a.925.925 0 0 0-.082-1.3M47.082 56.31a.924.924 0 0 0-.925.924v5.2a.924.924 0 1 0 1.85 0v-5.2a.924.924 0 0 0-.925-.924" style="fill:#1e2864"/></svg>