<?xml version="1.0" encoding="UTF-8"?><svg id="b" xmlns="http://www.w3.org/2000/svg" viewBox="0 0 407 334"><g id="c"><path d="M267.7393722,167.5015467c7.1594982,15.8124728-4.3446932,31.5668327-18.8334188,41.4491038-4.8325964,3.3953341-10.0248327,6.508799-15.7844608,8.7274202-5.9151878,2.3948835-12.1875324,2.9096914-18.6642349,2.3925643-6.3029805-.4106065-12.5081469-1.3859215-18.6699311-2.5264266-15.9753392-3.0343656-47.5743026-9.1559289-56.1959168-21.3269889-4.5379651-6.2679654-2.4877376-13.9205624-.2455304-20.5216663,1.1245594-3.3759055,2.3146813-6.7178684,3.2002726-10.1316538.4909111-1.7342477,1.2607915-3.4004911,2.2055915-4.9860771,2.8658743-4.7352693,7.1026061-8.787007,11.5400678-12.5257253,5.9589664-4.9550747,12.5112658-9.3657781,19.0120243-13.7971782,5.6737637-3.845782,11.2146517-7.8357677,16.1288908-12.3516087.7027797-.644416,1.3532342-1.3310088,2.0626587-1.975404,1.4129566-1.32389,2.7736987-2.7418545,4.5703313-3.7644647,5.0549158-2.8067449,12.9797997-2.5555638,18.7894593-2.0335431,8.3664409.8315356,16.8244508,2.7267947,23.8407631,6.7475252,7.1347291,3.9611795,11.6390292,10.3532057,14.6537961,16.8837446,4.514805,9.8001903,8.3889841,19.7911351,12.3896374,29.7403786h0ZM267.6294418,167.5334307c-4.0035617-9.9385053-8.0499556-19.8867219-12.7756493-29.6023224-2.4011232-4.8093382-5.3859463-9.4829355-9.8948235-13.1269725-7.4945424-6.1118706-18.0417448-8.7011367-28.2362858-9.6853311-3.0889316-.2775281-6.2055466-.4103687-9.2982131-.2100627-2.9579925.2820422-6.1902835.6824858-8.6545299,2.110512-1.6414053.9307181-2.94383,2.2816198-4.3448913,3.5941993-1.3852553,1.3181157-2.7519949,2.6656587-4.2362947,3.9095935-10.3022748,8.7563234-22.7548911,15.4934186-33.1733365,24.1368015-5.8015403,4.8554366-11.5572185,10.2943713-13.6965609,17.056938-2.3471023,9.5770969-9.8740598,21.0454113-3.3738814,30.3283826,7.3254911,10.377776,30.3337335,15.7029355,43.7525457,18.5368221,8.1323586,1.6238411,16.3188047,3.1694601,24.6103807,4.100202,6.1477249.6255328,12.4871149,1.2267779,18.5624023-.0479512,8.0609989-1.7864642,15.0682971-5.9075855,21.5020775-10.2242005,14.5830016-9.6091926,26.3893011-25.1000658,19.25706-40.8766106h0Z" style="fill:#fff;"/><path d="M219.0932978,242.6817209c-5.9934457.0046265-11.9547475-.6038164-17.8769222-1.3078555-5.9036636-.8421657-11.762219-1.8654346-17.6047359-2.9549797-11.6659547-2.2192239-23.2518172-4.8941041-34.3398855-8.72174-2.7584178-.9781742-5.498525-2.001666-8.1535948-3.169862-.3327984-.1443418-.6704418-.2810749-.9992974-.4317155l-.9854308-.4538726c-.6540358-.306911-1.3216374-.5940896-1.9594008-.925025l-1.9311998-.9667752-1.8903686-1.0225721c-4.986129-2.7848019-9.6367865-6.0598753-13.4218005-9.9816859-1.8838863-1.960111-3.5761463-4.0525237-4.9976901-6.2707442-1.427625-2.2149876-2.5810255-4.5522992-3.4560916-6.9579495-.8749658-2.4061798-1.4647809-4.88251-1.7803379-7.3807185-.3193996-2.4987938-.3536819-5.0179611-.1748862-7.5228307.3769377-5.0173758,1.7486619-9.9305713,3.3984199-14.7286333.815022-2.4043961,1.7000119-4.789255,2.4579302-7.1969956.1882851-.6022278.3670473-1.2054032.5311409-1.811923l.5511222-1.8238238.6443124-1.8017224c.2471262-.5917484.4851306-1.1862282.739875-1.7754683,2.0922863-4.7034971,5.1209524-9.0818559,8.6688309-13.1086272,3.5474441-4.0348955,7.6014702-7.7400819,11.8977775-11.2189034,4.295873-3.4838382,8.8513688-6.7321977,13.4602929-9.9171376,2.3049632-1.5925815,4.6312108-3.1636747,6.9489046-4.7413593,2.3316606-1.5645994,4.6112964-3.1774149,6.8342963-4.8452609,2.2090999-1.6759424,4.3930728-3.3909594,6.3345306-5.2753321.2422144-.2345729.4666863-.4909266.7242041-.7185875l.7465243-.6997052c.4958229-.4646446.9825573-.9405629,1.4844948-1.4045246.4956892-.468867,1.0109253-.9239102,1.5242569-1.3802912.5289691-.4441876,1.0484821-.896374,1.602244-1.3199513,2.1740157-1.7293564,4.5947233-3.2455585,7.1960642-4.5033584,2.5991356-1.2618411,5.3759308-2.2619774,8.2408374-3.0195001l1.0793228-.2718916c.360398-.0887678.7172541-.1888093,1.0850031-.254347l2.1921927-.4392824c.7360659-.1230347,1.4765758-.2264207,2.2147468-.3405508.7388392-.1140325,1.4756068-.2199547,2.2216634-.3068831,2.9783788-.3483964,5.9876985-.4757092,8.9891327-.4445778,6.0049065.0559084,11.9924046.6457059,17.8679006,1.6700338,1.4706616.2508353,2.9290438.5497753,4.3832994.8612013,1.4512651.3230062,2.8932078.6705665,4.3220525,1.0564209,2.8627848.7558087,5.6805784,1.6417313,8.4200173,2.6762041,5.4702906,2.0816268,10.6233868,4.7665126,15.2012028,8.0300197,4.5859857,3.2577101,8.5560436,7.1013019,11.8400557,11.3079081,3.286351,4.2119853,5.8523238,8.7758368,8.0770779,13.4190777.5566856,1.1616463,1.0952109,2.3285463,1.6229436,3.4978292.5234892,1.1721675,1.0573534,2.3332564,1.5562002,3.5178263l2.9920449,7.0614609c1.9794823,4.7122206,3.9229784,9.4365371,5.8049768,14.1767677l1.4104505,3.5617225c.1248161.2955955.2235029.5986604.3224904.9016694l.3011893.9077452.3010556.9077731c.1030639.3020058.1703086.6115644.2571837.9169983l.4909111,1.8387903.3822003,1.8568504c.1433773.6169713.2177056,1.2424432.3094257,1.8657412l.1346063.9353093c.0212176.1559917.0475474.3115654.0645549.4678637l.0389434.4698982.1554229,1.8796207c.035151.6271162.0335472,1.2555981.0519914,1.8833275.0048617.3139344.0180934.6279245.0160218.941831l-.0363706.9414687-.036521.9414687c-.0139167.3137393-.016523.628036-.0558172.9405211l-.1873495,1.8772796c-.0245255.3134884-.0768343.6244407-.1288926.9353929l-.1516137.933219-.1517307.9331075c-.0508386.3109801-.1327518.6178075-.1976241.9268923l-.4167832,1.8504959c-.3585435,1.2188368-.6595156,2.450076-1.1089772,3.6484837l-.3132515.9040106-.1566592.4519774c-.0543638.1500831-.1196203.2972956-.1788959.4460689l-.7284142,1.7807916c-1.0458424,2.3504387-2.2009136,4.6709443-3.5856023,6.8967456-1.3732279,2.2283655-2.8619829,4.4105215-4.5429324,6.4870758-1.6684695,2.0825744-3.4620058,4.0936607-5.3684128,6.02657-3.8199478,3.8621675-8.0930495,7.4009526-12.6743907,10.6245769-4.5838138,3.2150402-9.3943047,6.2229183-14.5230091,8.8101455-5.1245611,2.5811793-10.5389342,4.8043608-16.2649716,6.2940719-2.8634698.7333311-5.7928812,1.290074-8.7577442,1.6450897-2.964696.3572731-5.9611014.5140731-8.9547335.5116205ZM219.0932978,242.6170053c2.990391-.0054905,5.9816507-.1700664,8.9394301-.5345301,2.9579799-.3622062,5.8788207-.9254988,8.7333189-1.664822,5.7016456-1.5060154,11.1105221-3.7211423,16.1921803-6.3400863,5.092718-2.6152929,9.8603896-5.6458019,14.4043077-8.8843092,4.5356816-3.2420468,8.7511283-6.7995609,12.510414-10.6668009,1.8757-1.9358078,3.6369922-3.947145,5.2720483-6.0267929l1.2014324-1.5729884,1.1372116-1.6054019c.3905537-.5296528.7253569-1.0855596,1.0861391-1.6291477l.5327448-.8193118c.1765068-.2735499.332765-.5558233.5001499-.833275,1.3592944-2.2124513,2.4889379-4.5166527,3.5101546-6.8478885l.7100702-1.7656857c.0577552-.1474633.1215249-.2934216.174385-.442167l.1521316-.4478804.3042967-.8956773c.4376667-1.187343.7270276-2.4062913,1.0745112-3.6125306.5710199-2.4351653.9964907-4.8941877,1.1812005-7.3706294.0386761-.3085832.0406976-.6188944.0540965-.9286482l.0350508-.92954.0351844-.9295122c.0017208-.3098931-.0118284-.619842-.0169573-.929763-.0189622-.6196748-.0177259-1.2401021-.0530439-1.8591637l-.1554062-1.8553176-.0387764-.4638224c-.0169239-.1542916-.0431702-.3078586-.0642876-.4618157l-.1339213-.9232134c-.0911854-.6152155-.1647954-1.232577-.3072872-1.8415774l-.3789759-1.832826-.4867177-1.815156c-.0861066-.3015041-.1524992-.6070773-.2547111-.9052369l-.2983658-.8961789-.2982489-.8962068c-.0979517-.2990515-.1955191-.5981866-.3198006-.8914131l-1.4088467-3.5472577c-1.8856907-4.7360779-3.8319099-9.4540677-5.815168-14.1625537l-2.9978589-7.0561794c-1.0172238-2.3387469-2.0542283-4.6842246-3.1551362-6.9962715-2.2016487-4.6244283-4.7333058-9.1496372-7.9711738-13.3195379-3.2347439-4.1633511-7.1491183-7.9699307-11.6697805-11.1950322-4.51276-3.2356784-9.6059792-5.8902967-15.0096433-7.9755188-2.7075624-1.0353368-5.4940977-1.9242415-8.3316386-2.6858055-1.4159637-.3886694-2.8475316-.7398667-4.2855649-1.0660641-1.4420263-.314868-2.8887972-.6176263-4.348683-.8726283-5.8320585-1.0410921-11.7851573-1.6514163-17.7501681-1.7304852-2.9811187-.042851-5.9672829.0719619-8.9184965.4052384-.7363332.0827478-1.4749051.185869-2.2078636.2960693-.7334262.1104233-1.4698263.2101303-2.2009804.3292632l-2.1745838.4266709c-.365009.0634195-.7187243.1612035-1.0761819.2477278l-1.0706352.2650633c-2.8420183.7383199-5.596794,1.7167589-8.177853,2.9552027-2.5832642,1.2345698-4.9899381,2.7256187-7.157505,4.4324835-1.0941918.84427-2.1254325,1.7444205-3.1236607,2.6707136-.5032407.4604501-.9905097.9320763-1.4922467,1.3975291l-.7496652.6955246c-.2575178.2255567-.4770779.4735075-.7230346.7116338-1.9655823,1.9003425-4.1546675,3.6115412-6.3737247,5.2891698-2.2302841,1.6671492-4.5199105,3.2808287-6.8548456,4.8416517-2.3224385,1.5748976-4.6509582,3.1415315-6.9584274,4.7298209-4.6170101,3.1728302-9.1434362,6.4418418-13.4255094,9.9237987-4.2761256,3.4825561-8.3145476,7.1829766-11.8274421,11.2150851-3.5038729,4.0295862-6.4808483,8.3994166-8.5209428,13.0759071-.2482289.5858678-.4797176,1.1766686-.7204618,1.7645988l-.6251665,1.7891806-.532277,1.8093032c-.1605853.6117317-.336641,1.2210943-.521451,1.8274191-.7445529,2.4247974-1.6124685,4.8145615-2.4081107,7.2177034-.8015229,2.4014976-1.5396939,4.8157599-2.1137378,7.2564714-.5754138,2.4396524-.984395,4.905754-1.165563,7.3833662-.1709434,2.4773613-.131148,4.9656201.1897552,7.430802.3170941,2.4646523.9043697,4.9047786,1.7719177,7.2742807,1.7200934,4.7470589,4.625564,9.1687843,8.3296839,13.0422952,3.7151464,3.8787227,8.3015832,7.1350392,13.2350525,9.9120373,4.9589972,2.7611397,10.2844737,5.054806,15.7721058,7.0167286,11.0087446,3.8895643,22.5581196,6.6381623,34.1955058,8.9309645,2.9121533.5708455,5.8339296,1.1081627,8.7645272,1.6099448,2.9303636.4989951,5.8677441.985755,8.8134779,1.4045664,5.9165612.7174448,11.8714811,1.339182,17.8580436,1.3484351Z" style="fill:#fff;"/><path d="M219.0932978,265.4971463c-3.8890971.0010033-7.7760891-.1855345-11.6455725-.5042627-1.9350758-.1577476-3.866543-.3450937-5.7948024-.5521165l-2.890234-.324358-1.4436301-.1712648-.7218986-.0872071-.7185238-.1046262c-7.6577719-1.1314904-15.2690991-2.4754661-22.8289026-3.9976744-3.7778635-.7682808-7.5399893-1.5912158-11.2807973-2.4778351-3.7420443-.8827453-7.458995-1.8423856-11.137988-2.8950022l-1.3806457-.3923343-1.3734952-.4095305-2.7454199-.8229072c-.9103173-.2851998-1.8139185-.5855333-2.721262-.8775614l-1.359662-.4409964c-.4522183-.1491077-.8977204-.3120949-1.3469315-.4674456l-2.6899869-.9430294-2.6575758-1.0052923c-.4417932-.1695926-.8879303-.3314928-1.3261817-.5073563l-1.3099093-.536286c-.8700206-.3628751-1.7539078-.7030636-2.6125679-1.084612-3.4616716-1.4836911-6.8251076-3.123987-10.0952196-4.8844888l-2.4246838-1.3566012c-.7960431-.4668324-1.5774846-.9511955-2.3669453-1.4259711-.7978809-.4656898-1.547947-.9842221-2.3165577-1.4823533l-1.1475865-.7530913c-.3766703-.2569947-.7423476-.5251935-1.1141062-.7872607l-1.1109319-.7905773-.555466-.3953165-.5358857-.4137111c-.7122087-.5536215-1.4332719-1.09969-2.1382633-1.6596381l-2.0584384-1.7288965c-.6785947-.5823561-1.318697-1.1952862-1.9799167-1.7914939-2.5906486-2.4262745-4.965847-5.011941-7.09706-7.7333094-4.2417431-5.4550277-7.4262164-11.4737103-9.4379093-17.7537354-1.9777114-6.2898077-2.7654012-12.8256849-2.4401542-19.3166069.1684708-3.2455306.6067557-6.4802475,1.2786009-9.6785375.6606516-3.2007705,1.5585725-6.3636648,2.5739753-9.4959572.5075176-1.5664389,1.0472792-3.1250739,1.5884776-4.6823991.535351-1.5580219,1.0942586-3.1127273,1.5360518-4.686078.8622687-3.1660437,1.9787473-6.2863796,3.3717225-9.3187002,2.7753584-6.0714277,6.6036095-11.7864602,11.1302695-17.0636735,4.530703-5.2819513,9.7508267-10.1294837,15.318384-14.6572149,2.7858503-2.2641374,5.659177-4.4523831,8.5936505-6.5808743,2.9350749-2.1281289,5.9260172-4.2014502,8.9321627-6.2583836l4.5205119-3.0735133,2.2601891-1.5362689c.7457892-.5191037,1.4892061-1.0408552,2.2228663-1.5720548,1.4687571-1.0606015,2.9127881-2.146189,4.2955388-3.2830305.3442593-.2851998.6853442-.5733399,1.0150686-.8691584.3231753-.2962365.6211903-.6219323.9330385-.9314631l.9790823-.9030212.9616738-.9128177c1.2821427-1.219659,2.6004054-2.4150009,3.9771751-3.5623496,1.3787745-1.1455511,2.8109438-2.2468019,4.2984458-3.2938583,2.9735339-2.0957432,6.1711052-3.9693021,9.5364457-5.6017385,6.739569-3.2573199,14.1588354-5.5083163,21.8010032-6.7429557l.7155834-.1204428.7192923-.1026474,1.4385847-.2052948c.9584996-.1363569,1.921109-.2596146,2.8861242-.3660524,1.9298299-.2150913,3.870018-.3610914,5.8130462-.4582483,3.8872259-.1901471,7.7857456-.1538596,11.6715347.0260729,3.8843524.2018249,7.7601007.5374705,11.604691,1.0446038,1.9247343.2410667,3.8375066.5429192,5.746971.8563797,1.9041683.3350045,3.8068665.6795408,5.6902015,1.0907296.9458191.1916939,1.8802944.4200795,2.8201659.6308509.9323702.2326916,1.8709553.448396,2.7950724.7038022.9264059.2489819,1.8560195.4900208,2.7798191.7455663l2.748778.822949c3.6444602,1.143851,7.2143247,2.452877,10.682796,3.9310497,3.4698245,1.4770997,6.808618,3.1634378,10.0258031,4.993421,3.2094164,1.8389436,6.3056614,3.8238176,9.1937068,6.0058064,5.7928143,4.3451789,10.9085376,9.3188117,15.1667201,14.7617854,4.2723499,5.4401169,7.6765002,11.3197531,10.5749205,17.3411252,2.8862912,6.0305694,5.4028621,12.1706702,7.9807802,18.2896452,1.2771307,3.0635496,2.5370199,6.1321856,3.7735532,9.2074826l1.8386445,4.6173491.4582828,1.1564345c.151881.385729.312316.7691448.4375497,1.1620087l.8007879,2.3440005c.9848127,3.1443883,1.7458218,6.336268,2.2682919,9.557384.4905268,3.2247949.7236695,6.4743668.7256743,9.7239665l-.0458099,2.4372277-.1665496,2.4335766-.0417836.6083872-.070302.6065199-.1436112,1.2128446-.1436613,1.2128446-.2004142,1.207159-.2031206,1.2069082-.1015603.6034541c-.0355854.2009191-.0856054.3998873-.1277064.5999145l-.5276993,2.3972613c-.4242345,1.5855581-.8229243,3.1769132-1.3578744,4.7397847l-.3782575,1.1768916c-.1241646.3927524-.2834801.7770322-.4234994,1.1659663-.2953419.7739106-.5645043,1.5550676-.8813645,2.3229582l-.9759915,2.2965927c-.1546544.3852552-.346381.7588605-.5240406,1.1368973l-.5408977,1.131574c-1.4763586,3.0043664-3.1113812,5.9592625-5.0068621,8.796907-1.8836859,2.8406545-3.9004744,5.6247875-6.1528113,8.2739153-.2780838.3330257-.5459598.6720994-.832397,1.0001084l-.8691519.9782021-.8691352.9781742c-.2894444.3262253-.5758315.6543737-.8846223.9681966l-1.819298,1.9041747c-.2979314.3209856-.6165291.6277294-.9332891.9357552l-.9485256.9252201-.9484922.9251922c-.3140535.3099489-.653167.6013917-.9784975.9030072l-1.9715132,1.7951728-2.041715,1.7395431c-.3420373.2884606-.6773918.5825233-1.0249089.8663295l-1.0554154.8405214c-2.7791007,2.2733765-5.7510475,4.3733142-8.7486724,6.4397515-6.015415,4.1126406-12.4073333,7.8569433-19.1910583,11.0376191-3.3910021,1.5894878-6.8778174,3.0403752-10.4643552,4.2979521-3.5839149,1.2599738-7.2556572,2.3548422-11.0132387,3.1964505-7.5042703,1.7207026-15.2929396,2.5274448-23.0684941,2.5201148ZM219.0932978,265.4647607c7.7725306-.0060758,15.5531472-.8258336,23.0455557-2.5577123,3.7518511-.8472661,7.4157078-1.9469561,10.9927897-3.2117794,3.5792704-1.2622592,7.0584006-2.7174386,10.4414503-4.3108841,6.7680206-3.1887582,13.1422799-6.9390532,19.141456-11.0579089,2.9899232-2.0689178,5.9505929-4.1722558,8.7178652-6.448057l1.0510048-.8413575c.3460469-.2840571.6798978-.5783984,1.0204315-.867082l2.0326265-1.7408252,1.9621742-1.7961204c.3237601-.301727.6613199-.5933092.9737695-.9033417l.9436974-.9254152.9436807-.9253873c.3151561-.3080537.6321165-.6148253.9284107-.9358109l1.8093742-1.9039796c.3071369-.3137393.5918366-.641804.8795936-.9679179l.864073-.9778119.8640563-.9777562c.2847331-.3278418.5508883-.6667203.8272346-.9995231,2.238604-2.6474834,4.2412085-5.42869,6.1105934-8.2651639,1.8811965-2.8334918,3.501701-5.782758,4.9637252-8.7801289l.5355348-1.1288705c.1758552-.377117.365811-.7498305.5186777-1.1340823l.9653493-2.290489c.3133351-.7657724.5789724-1.5446719.8708225-2.3162972.1382818-.3877636.2958765-.7709006.4183036-1.1624267l.3730784-1.1732126c.5281003-1.5579104.9200239-3.1438308,1.3377093-4.7236755l.517976-2.3883705c.0414829-.1992469.0901162-.3975461.125735-.5975734l.1012763-.6008343.202586-1.2016685.2000132-1.2019472.1433439-1.2075771.143394-1.2075771.0702352-.6039.0417335-.6057395.1666498-2.4229579.0462944-2.426609c-.0010525-3.2354694-.2321069-6.4709387-.7194594-9.6819098-.5192959-3.2073201-1.2760614-6.3857104-2.255695-9.5171389l-.7967281-2.3344131c-.1244653-.391108-.284399-.7735483-.435712-1.1580789l-.456562-1.1530065-1.8365227-4.6160113c-1.2350631-3.0743216-2.493549-6.1421493-3.7693431-9.205044-2.5755791-6.1186265-5.0901786-12.2585462-7.9690019-18.2778002-2.8907185-6.0098058-6.282155-11.8702113-10.5365284-17.2905819-4.240039-5.4228232-9.3337929-10.3775041-15.1015304-14.7061696-2.8757326-2.1739063-5.9593138-4.1516176-9.1558827-5.9842485l-1.1988762-.6879577c-.4051888-.2222959-.8181963-.4347395-1.2269102-.6526039l-1.2291823-.649775-.6155434-.3235497-.6287585-.3054896c-.8400153-.4047786-1.6728801-.8202455-2.5177404-1.2178335l-2.5665575-1.1452166c-3.4529841-1.4781866-7.0080298-2.7882996-10.6384897-3.9341294l-2.7384532-.8246073c-.9205585-.2561865-1.8470814-.49795-2.7703631-.7476705-.9209428-.2561308-1.8566878-.4726853-2.7861176-.7062269-.9368476-.2115796-1.8681319-.4407874-2.8111109-.633401-1.8774375-.4130004-3.7747728-.7595712-5.6737119-1.0967218-1.9043187-.3156066-3.8121458-.6197445-5.7321354-.8631941-3.8350675-.5119131-7.7018443-.8527148-11.5771082-1.0600302-3.8765002-.185437-7.7658312-.2275634-11.6429662-.0438404-1.9379494.0939239-3.8728915.2365517-5.7974421.4480755-.9624089.1046541-1.9218441.2259887-2.8799427.3607848l-1.4360452.202675-.7180226.1013235-.7138793.1190353c-7.6231889,1.223101-15.0241781,3.4596186-21.750315,6.7007178-3.358591,1.6243679-6.5505823,3.4894819-9.5200063,5.5768501-1.485397,1.0428897-2.9158622,2.1399599-4.293367,3.2815116-1.3756002,1.1434468-2.6927937,2.3347057-3.9756714,3.5519121l-.9646142.9131521-.9781467.8998021c-.3138864.3106456-.6064884.6305025-.9378166.9335813-.3325979.2976301-.6750529.5861325-1.0208157.8718758-1.3881971,1.1383605-2.8355695,2.2235856-4.3076011,3.283797-.7352306.5309487-1.4801511,1.0524076-2.2277112,1.5713998l-2.2631295,1.5342204-4.5250896,3.0685384c-6.0229832,4.0992487-11.9448906,8.3117496-17.5006528,12.8479535-5.5539579,4.5314659-10.7579763,9.3803361-15.2704022,14.6592634-4.5084496,5.2742451-8.3163519,10.9816828-11.0722303,17.0402482-1.3835526,3.0265235-2.489506,6.1373556-3.3443568,9.297212-.4423279,1.5853351-.9984621,3.1396503-1.5312403,4.6992608-.5384585,1.5580498-1.0749456,3.1158766-1.5789548,4.6807826-1.0084193,3.1290873-1.8985883,6.2859616-2.5517887,9.4788725-.664394,3.1904862-1.0953947,6.4153648-1.2575503,9.6495799-.3125164,6.4681795.4840279,12.9764927,2.4640115,19.236033,2.0163708,6.2498413,5.1978369,12.2315954,9.3963764,17.6749731,2.1147402,2.7133138,4.4733321,5.2925979,7.047441,7.7141623.6571766.5950929,1.2932025,1.2069639,1.9677876,1.7884003l2.0465098,1.7264439c.701082.5592792,1.4182693,1.1047625,2.1266354,1.6578823l.5329787.4133209.5526592.3950378,1.1053185.7900477c.3698874.2619278.7336936.5299872,1.1085596.7868983l1.1421735.7528683c.7650354.4980475,1.5114929,1.0164963,2.3059656,1.4823254.7860859.474887,1.5640523.9593894,2.356821,1.4264449l2.4149939,1.3576045c3.2576154,1.762174,6.6096239,3.405257,10.0611713,4.892627.8560872.3824403,1.7376355.7236321,2.6052169,1.0875106l1.3063341.537791c.4371154.176393.8821497.3388785,1.3228403.5090007l2.6509934,1.0086647,2.6839057.9466805c.4482086.1559917.892675.3195642,1.3439576.4693408l1.3568887.4429195c.9054723.293338,1.8072358.5949814,2.715849.8815469l2.7402408.8282583,1.3708221.4125963,1.3781397.3954837c3.6723103,1.0609778,7.3830461,2.0291743,11.1200784,2.9208382,3.7356957.89551,7.4934109,1.7275309,11.2673651,2.5050368,7.5504144,1.5464278,15.1622761,2.8862229,22.8157711,4.0273844l.7175548.1051279.7209296.0877645,1.4430621.1724911,2.8891648.3268942c1.9275244.2086671,3.8581896.3977134,5.7924301.5571332,3.8678127.3221005,7.7529336.5120107,11.6405604.5144633Z" style="fill:#fff;"/><path d="M219.0934315,334c-5.3531762-.0054348-10.7056842-.195345-16.0410511-.5586939-5.3358681-.3610635-10.6542943-.886034-15.9540757-1.5120076-1.3239764-.1611199-2.651127-.3088062-3.9724303-.4865091l-3.9524825-.5889614c-2.6318809-.4054057-5.2621913-.8186151-7.88485-1.264015-5.2476898-.8805993-10.4776037-1.8356688-15.6839945-2.8736812-10.411445-2.0765265-20.740392-4.4635871-30.885498-7.3240576-10.1512207-2.839484-20.1096455-6.1803599-29.7252812-10.1190322-9.6161035-3.9337671-18.873179-8.4933126-27.581204-13.7029397-8.7039485-5.2107419-16.8607176-11.0715655-24.2344747-17.5624038-14.7639872-12.9632263-26.3564322-28.4518907-33.6951387-45.2643526-1.8281526-4.2037774-3.4046348-8.4837809-4.7091979-12.8210027-.6679692-2.1655173-1.2294162-4.3524949-1.7682088-6.5424268-.5000998-2.1963421-.9786145-4.3969206-1.3488026-6.6114344-.3986564-2.2110578-.6909911-4.4341279-.9599029-6.6583127-.2308538-2.2271949-.4392204-4.4567309-.5409645-6.6908934-.1300787-2.2331592-.1543369-4.4693005-.155874-6.7046058.0350173-2.2351101.0909515-4.4708334.2576181-6.7021253.6002066-8.9288464,2.2437831-17.7986071,4.7257042-26.4916683.6223264-2.1731259,1.2820759-4.3388662,1.9925804-6.4926499.705693-2.1532542,1.4601698-4.3015196,2.197472-6.4395146,1.3104773-4.3240111,2.6324823-8.6629609,4.3805762-12.8898152l.3093756-.7972244c.1061213-.2648821.2252404-.5260575.3372424-.7892673l.6820697-1.5763608.6821031-1.576319c.219393-.5279527.4877702-1.0404232.7292496-1.5613803.4992645-1.0366607.9831921-2.0785889,1.4950535-3.1108181l1.6055185-3.072287c2.2049566-4.0723118,4.6229577-8.0635062,7.2549722-11.9553142,2.6608504-3.878012,5.5215134-7.6590761,8.5684233-11.3327548l1.1520974-1.372139c.3838208-.4575097.7645342-.9168729,1.1671334-1.3631229l2.385022-2.6956717,2.4585316-2.6492532c.8276857-.8776589,1.6822025-1.7375782,2.5220173-2.6072104,6.8036227-6.9009541,14.2457105-13.3529269,22.1078059-19.4150319,3.9299952-3.0330313,7.9640734-5.9708706,12.0625395-8.8434369,4.0989338-2.8712564,8.2749526-5.6688788,12.4094384-8.4981482l-.0084536.0068283c10.1882762-9.8495236,22.1031949-18.4926685,35.3834558-25.3412398,13.2698693-6.8598868,27.8547602-11.9251512,43.0073799-15.0488037l1.4196726-.2964456c.4733022-.0986062.9514827-.1799326,1.4269902-.2707489l2.8571547-.5300848c1.9162974-.3063536,3.82501-.6484999,5.7525009-.9025056,3.8425521-.5646582,7.7090282-1.0249481,11.5919772-1.3542879,7.764528-.6669433,15.584322-.88239,23.3850703-.6632783,15.6020144.4263086,31.1427652,2.3614754,46.2232618,5.7316712,15.0758688,3.3841938,29.6622466,8.311457,43.2534034,14.7329672,6.8048256,3.1977813,13.3108677,6.8314936,19.5169736,10.7836414,6.2020461,3.9583629,12.0837403,8.2659304,17.5870935,12.8882823,5.5038377,4.6216133,10.6312891,9.5576906,15.3208399,14.7680842,4.6876796,5.2123445,8.9376592,10.6944764,12.7739212,16.3682882,3.8520332,5.6681541,7.2261865,11.5551621,10.2706154,17.5512695,1.5222187,2.9988341,2.9355761,6.0347361,4.3087288,9.0806993,1.3836696,3.0419778,2.6798961,6.1151567,3.9794722,9.1795563,2.5986344,6.133398,5.1471653,12.2841732,7.6019045,18.4583459.6076578,1.5432784,1.2438341,3.0852887,1.8389452,4.6352839.5700342,1.558008,1.1611775,3.110846,1.6681437,4.6842804.5461018,1.5642928,1.0101568,3.1468548,1.4918959,4.7254731.2401428.7894624.4405402,1.5869237.66274,2.3800094.2186412.7938381.4387526,1.5873975.623145,2.3873672,3.2037612,12.7558133,4.253797,25.8825564,3.1654109,38.8809554-1.0827643,12.9992909-4.2946367,25.8747527-9.5206579,38.1532264l-.4838775,1.1528114-.5143172,1.1436419c-.3451698.7616755-.6806747,1.5264724-1.0337885,2.285528-.7366841,1.5081336-1.4351932,3.0294499-2.2267255,4.5184364-.3900942.7463745-.7624709,1.4992986-1.1671418,2.2402383l-1.2210879,2.2201715c-.3964177.7442285-.8413435,1.4693098-1.2688942,2.2012195l-1.292008,2.1920222c-3.5173886,5.8160355-7.5150128,11.4260237-11.8802187,16.8241954-8.7461664,10.7909644-19.0302475,20.6998802-30.4799166,29.5449197l-1.0710028.8316585c-.354868.2791797-.7143471.5540953-1.083299.8203152l-2.1947822,1.6146828c-1.4484417,1.0907436-2.9604692,2.119475-4.4555394,3.1646223-1.4870342,1.0534806-3.0204297,2.059386-4.5367509,3.0827106-.7536748.5164142-1.5381569,1.0005543-2.3064167,1.5016676-.7742575.494703-1.5389922.9998576-2.3210184,1.4859764l-2.3522934,1.4514448-1.1779594.7236321-1.194048.7050703-2.3880626,1.4101406-2.422562,1.3685576c-1.6046163.9254431-3.2622432,1.7841639-4.8957956,2.6730408-.8215376.4383208-1.6588966.8557387-2.4875346,1.2846393-.832113.4242183-1.6562068.8595291-2.5030217,1.2633183l-2.5254422,1.2320753c-.8397146.413739-1.7017828.7948693-2.5515548,1.1938648-1.6962194.803565-3.4313155,1.547236-5.1567383,2.3056506-3.4755716,1.4761381-6.9838217,2.9023879-10.5659824,4.1906782-1.777999.6690615-3.5911991,1.2691154-5.392955,1.8915215-.902983.3068831-1.8190642.5863416-2.7279447.8808501-.9101001.2920281-1.8193482.5859792-2.7416108.850499-1.838327.5424732-3.6690859,1.1053477-5.5352297,1.5794544-.931017.241638-1.8577737.494926-2.7922991.7269766l-2.8064998.6880135c-7.5072608,1.7675531-15.1585004,3.1084631-22.8864407,3.9929921-7.730179.8736874-15.5310442,1.2843606-23.329938,1.2907708ZM219.0934315,333.9514494c7.7964379-.0134615,15.5935107-.4310466,23.3186108-1.3112836,7.7228948-.8910786,15.367836-2.238148,22.8679964-4.0113867,14.9991347-3.5656244,29.3484271-8.9268397,42.7230477-15.5964121.8446431-.4052384,1.6665315-.8420264,2.4964058-1.267694.8264327-.4302941,1.6615195-.8491334,2.480785-1.2888477,1.6290249-.8916918,3.2819738-1.7531161,4.8819123-2.6812069l2.4154282-1.3724874,2.3808286-1.413931,1.1903892-.7069376,1.1742839-.7254437,2.3448422-1.455068c.7795369-.4872895,1.5417823-.9936145,2.3135004-1.4894603.7657705-.502256,1.5475628-.9874551,2.2988653-1.5050957,1.5114595-1.0256379,3.0400935-2.0339681,4.5212804-3.0898734,1.4894734-1.0475163,2.9959042-2.0785889,4.4382646-3.1713113l2.1857272-1.6176093c.3674315-.2666937.7253903-.542083,1.0787046-.8217366l1.0663917-.8329963c11.4013532-8.8586961,21.6262841-18.7762797,30.3180784-29.5599141,4.3433703-5.3916221,8.3188496-10.9930262,11.8141185-16.7979413l1.2837048-2.187758c.4248025-.7304604.8669716-1.4540089,1.2606662-2.1967881l1.212935-2.2156007c.4019644-.7394069.7716179-1.4907144,1.1590307-2.2354446.7861444-1.4857814,1.479274-3.0036975,2.2106453-4.5083194.3504491-.7572998.683306-1.520313,1.0258278-2.280149l.5103744-1.1408828.4799431-1.1500243c5.1750238-12.2500736,8.3740153-25.0800784,9.450122-38.0351665,1.080133-12.9538897.0292702-26.0341167-3.1676412-38.744278-.1839664-.7971269-.403635-1.5878156-.6217918-2.3788109-.2217069-.7902149-.4216031-1.5848334-.6611946-2.371481-.4806615-1.5729327-.943522-3.1498509-1.488304-4.7085139-.5056631-1.5677906-1.0953863-3.1150266-1.6638835-4.6674465-.5945598-1.5469016-1.2278959-3.0804252-1.8373831-4.6267555-2.4566187-6.1729324-5.0049491-12.3174228-7.6050955-18.4488281-1.3036276-3.0668244-2.5916761-6.1309871-3.9715783-9.1716271-1.3686252-3.0428417-2.7759849-6.0725286-4.2916545-9.0646598-3.031239-5.9825205-6.3900889-11.8540464-10.2250645-17.5068856-3.8192211-5.6584691-8.0504139-11.1253139-12.7177113-16.3231379-4.6695695-5.196305-9.7759704-10.119506-15.2576048-14.729344-5.4813504-4.6107299-11.3403903-8.9082361-17.5196317-12.858182l-2.3321785-1.4652407-1.1660809-.7326482c-.3923413-.2400076-.7970288-.4658012-1.1949335-.6994126l-2.3970174-1.3906172-1.1985087-.6953295c-.3981051-.2335138-.7978976-.4649372-1.2115233-.6790949l-4.915426-2.6299737-5.0284973-2.4770548c-13.5397669-6.421343-28.0777786-11.3559292-43.1144701-14.75325-15.0399994-3.3831417-30.5506614-5.3363268-46.1222027-5.7827929-7.7854783-.2291869-15.5903364-.0249651-23.3410647.6305164-3.8758653.3250129-7.7348234.7806414-11.5726642,1.3408473-1.9249515.251762-3.8301557.5914628-5.7434459.8953986l-2.8525102.5263919c-.474739.0901962-.9521844.1709025-1.4247181.2688816l-1.4174339.2945573c-15.1286956,3.1034812-29.6941398,8.1454458-42.9522142,14.9817262-13.2695018,6.8262261-25.1751983,15.4411102-35.3720618,25.2760296l-.0037757.003665-.0047447.0032191-6.2270394,4.2291257c-2.0753791,1.4089839-4.1340848,2.8345648-6.1857403,4.2670576-4.0937882,2.8742525-8.1225202,5.8132624-12.0467349,8.8470044-7.8504675,6.0635264-15.2791899,12.5150672-22.0684448,19.4134154-6.8088018,6.8844826-12.8880199,14.2659118-18.1856963,22.0156788-2.6178138,3.8903726-5.0213134,7.8790029-7.2116683,11.947594l-1.5945923,3.0692909c-.5081859,1.0311562-.9884715,2.0719417-1.4840939,3.10739-.2396416.520344-.5062145,1.0322153-.7237697,1.559513l-.6766233,1.5743402-.6766233,1.5742844c-.1110665.2628615-.2292834.5236885-.3345359.7882083l-.3066357.7961096c-1.7336927,4.2220326-3.0402272,8.5481619-4.3416495,12.8795588-.7367342,2.1536862-1.4818551,4.2911935-2.182202,6.4456183-.7041226,2.1519164-1.3572562,4.3148417-1.9730001,6.484874-2.455491,8.6802686-4.0725038,17.5308543-4.6488197,26.4347565-.1622559,2.2249652-.2177892,4.4541668-.250501,6.6826716.0033748,2.2286999.0292368,4.4581244.1606855,6.6844275.1031809,2.2273621.3127503,4.4499305.5445732,6.670102.2698808,2.2171336.562984,4.4330966.962175,6.636936.3707227,2.2073232.8495381,4.4005995,1.3497048,6.5896117.538826,2.1826298,1.100106,4.3621939,1.7676408,6.5202975,1.3036944,4.3222553,2.8784725,8.587571,4.7037849,12.7762425,7.3041903,16.7575568,18.8255982,32.2144766,33.5321142,45.1551835,7.3490312,6.4752865,15.4533077,12.3508815,24.1259477,17.5677828,8.6728071,5.2189638,17.8985073,9.7921659,27.4889159,13.742934,9.5905088,3.9552274,19.5278162,7.3145537,29.663533,10.1747734,10.1295019,2.8787258,20.4445489,5.2950226,30.8495117,7.3840351,5.2037511,1.0418585,10.4312926,2.0008299,15.6767437,2.8853868,2.6215561.4474066,5.2508307.8625949,7.8816423,1.2699793l3.9501101.5918599c1.3201672.1786226,2.646115.3272565,3.9698909.4894076,5.2978769.6300426,10.6138973,1.1590544,15.9475935,1.5242428,5.3332284.3674459,10.6836647.5615367,16.0351035.5712078Z" style="fill:#fff;"/><path d="M219.0932978,292.9438005c-8.3000796.0013935-16.5790418-.6623725-24.789239-1.6262491l-3.0798556-.368505-3.0641179-.4506118c-2.0397269-.3105899-4.0784179-.6265867-6.112097-.9640717-4.0688283-.6683647-8.1257279-1.3880113-12.1684937-2.1602219-4.0427323-.7718482-8.0759752-1.5812939-12.0877667-2.4625063-4.0108559-.883888-8.0031672-1.828088-11.9715879-2.8415743-1.9773773-.5249426-3.9599337-1.0375943-5.9217403-1.6027264-1.9695251-.5464309-3.9268877-1.1208717-5.8785366-1.7126759-3.8970495-1.1957321-7.7566425-2.4806222-11.5556567-3.8840738-7.600568-2.7979289-14.9790699-6.0464417-21.9493926-9.8426674-6.967282-3.7931321-13.5455307-8.1141332-19.4638628-13.0137-2.9634764-2.4443904-5.7715466-5.0219465-8.3975133-7.7250318-.669974-.6683368-1.2772977-1.3755532-1.9093474-2.0670783-.6220925-.6977682-1.265035-1.3830503-1.8698861-2.0912143l-1.769278-2.1518885c-.2930698-.3596421-.5936576-.7152152-.8805125-1.0782854l-.8265831-1.1077725-1.6528988-2.2158516-1.5352499-2.2741568-.7662383-1.1378449c-.2516705-.3809353-.474338-.7748025-.7128769-1.1615906l-1.4085794-2.3310128c-1.7596215-3.1540594-3.4092793-6.3586481-4.7103674-9.6673335l-.506415-1.2350296c-.0824979-.206326-.1729817-.4105617-.2488971-.6186436l-.2196603-.6263916-.8781735-2.5055942-.2194264-.6263916-.1862802-.633833-.3710569-1.2679448-.3708898-1.2679448c-.1258018-.4222674-.2509019-.8446462-.3427891-1.2731009-.3924081-1.7088855-.8481682-3.4085736-1.1185168-5.1349618-.1474538-.8611456-.3229749-1.7192533-.447106-2.5827679l-.3246789-2.5954212c-.0510892-.4327746-.1147419-.8646573-.155473-1.2980729l-.0938585-1.3022256-.1873161-2.6042562-.0543972-2.608158-.0255613-1.3040093c-.0139668-.4346977.0199813-.8691445.0276664-1.3037028.0533614-3.4773861.3343689-6.9512327.8549177-10.3994104.5142003-3.4483728,1.2202609-6.8754246,2.1121339-10.2660217.442094-1.6961486.9361793-3.3817064,1.4524179-5.0616343.5234892-1.6783114,1.0806927-3.3482338,1.6548368-5.012164l.8667795-2.4909064.8443591-2.4786713.2088009-.6203158.1777932-.6306001.3704888-1.265743c.2399757-.845343.5321433-1.6789803.7957424-2.5188885,1.1272043-3.3433007,2.4809521-6.6315988,4.0311379-9.8523246,1.5448396-3.223053,3.3239078-6.3650583,5.2671699-9.4312138,1.9479734-3.0644693,4.0724369-6.05026,6.3730898-8.9375838,4.5925848-5.7800546,9.813477-11.201108,15.4780337-16.264526,5.6653585-5.0652017,11.7310776-9.8076341,18.0268152-14.3148247,3.1430405-2.2591346,6.3468602-4.4573998,9.5577301-6.6459242l4.8212668-3.2747808c1.6030125-1.0901304,3.1758526-2.2158098,4.6697032-3.3998919l-.019313.0173773c.4516836-.4793324.9511152-.9146571,1.435377-1.3639729.4924147-.4442015.9536546-.9008055,1.4366801-1.3530337.9572298-.9047213,1.9252522-1.8032971,2.9200723-2.6811511,1.9851292-1.7590665,4.051353-3.4558839,6.2018791-5.0755278,4.3070999-3.2337832,8.9490031-6.1580634,13.8600185-8.7275789,2.4578634-1.2816571,4.9835896-2.4723725,7.563479-3.5752537,2.5758464-1.1101972,5.2213266-2.1065849,7.9072371-3.0170754,5.3672433-1.8359196,10.936939-3.2436633,16.5909704-4.3208339,5.6659266-1.0276167,11.4069333-1.7844287,17.1977595-2.1348596,2.8931076-.1787481,5.7935327-.2721563,8.6943254-.2829144,2.9005588-.0041527,5.8005161.0638376,8.6961297.1983829,11.5784113.569006,23.0880744,2.1993661,34.2274825,4.9299875,11.1323077,2.7363767,21.8912364,6.5999517,31.8288947,11.6361819,9.9173763,5.0570496,18.9968758,11.2688196,26.8295172,18.4415817,7.8384053,7.1672716,14.4300695,15.2721656,19.6555895,23.9295803l.977445,1.6244933.9369144,1.6405189c.3172277.5450373.6176485,1.0962898.9146778,1.6488243.2971295.552437.6028797,1.1019057.8929089,1.6568232,1.1649448,2.2182345,2.2631128,4.4589606,3.3192466,6.7109742.5235728,1.1272819,1.0415488,2.2557483,1.5481475,3.3865837.5029399,1.1308772,1.0209661,2.2568213,1.5059797,3.4014666l2.8981697,6.8188055c1.9185361,4.5505015,3.8076016,9.1106741,5.6441744,13.6864125l1.3639389,3.4309955,1.338812,3.459967.334586.8650196c.1116512.2883213.1939319.5845578.2923347.8764466l.5673946,1.7575754c.3675485,1.1738815.7909977,2.3364197,1.0682629,3.528668l.9215275,3.5583223c.2649523,1.1928335.4810708,2.3934151.7237196,3.5897325.1132383.5992178.2473601,1.1959829.343307,1.7972074l.2484795,1.8083277.2482289,1.8082441c.0804263.6029246.1787956,1.2044556.2107222,1.8110312l.2828954,3.6323187c.0187784.3028419.0576884.6050148.0598937.9084141l.0173583.9098634.0345328,1.8196711.0342822,1.8195875c.0076517.606492-.0392442,1.2126217-.0562516,1.8189186-.0528267,1.2122872-.0859729,2.4254942-.1554396,3.6369174-.2523721,2.4167985-.4154634,4.8414008-.8563545,7.2411147l-.2843321,1.8038963c-.0511728.3001384-.0864073.6023671-.1506949.9007776l-.1942494.8951199-.7775321,3.5802286c-.0578221.2995253-.1448141.5940338-.2274457.8893228l-.2472599.8858668-.4946534,1.7715943-.4973933,1.7708697-.5959965,1.7495765-.5961636,1.7493536-.2981486.8746071-.149091.4372896c-.0533781.1448156-.1146417.2875967-.171595.4314647l-1.3914215,3.446617-.3479514.8615358c-.1149758.2874852-.2595727.565996-.387914.8494121l-.7931529,1.693473-.7932865,1.6932501c-.1354416.2810749-.2572338.5668879-.4039023.8440609l-.4440988.8300142-1.7810229,3.3178827c-.2849336.5575512-.6299948,1.0915797-.9461867,1.63684l-.9676883,1.6281722c-2.6387306,4.317573-5.6339164,8.4785969-8.9008375,12.4796994-6.5527709,7.9943454-14.2301398,15.3263182-22.7391707,21.888561l-1.5985852,1.2279505c-.5355181.4067713-1.0885449.7973777-1.6318985,1.196819l-1.6368102,1.1919417c-.5493179.3935607-1.113321.7724335-1.6692213,1.1593052l-1.672713,1.1555427-1.6920762,1.1347234c-1.1221923.7622329-2.273471,1.4949229-3.421542,2.2305951-4.5971458,2.9376163-9.3891256,5.6613537-14.3286428,8.1797684-9.888056,5.0156478-20.4655159,9.1345314-31.5705248,11.8701138-5.5503994,1.3617572-11.216326,2.3987105-16.9449363,3.0701967-5.728059.675193-11.5134889.9927227-17.2965632.9919423ZM219.0932978,292.8143694c11.5489239-.0117893,23.1144711-1.3349736,34.1681067-4.138811.6933802-.1671957,1.3806624-.3510023,2.0679446-.5347531.6874827-.1834164,1.3769368-.361175,2.0571186-.5614252l2.0379393-.6091954,1.0186104-.3053502,1.0093716-.3260581,2.0174401-.6546524,1.9974588-.6959566.9977103-.3498317.9881206-.3684492,1.9741362-.7404102c1.2978804-.5263083,2.6125679-1.0232967,3.8916031-1.5810988l1.9279922-.8200922,1.9057722-.8555436.9521176-.4287055.9408572-.4458738,1.8814973-.8916082,1.8572725-.9263349c.6202881-.3070503,1.2385047-.6168877,1.8460288-.9414129,4.8939579-2.5490724,9.6368199-5.3004574,14.1827929-8.2632687,4.5439515-2.9649016,8.9647742-6.0653101,13.1540415-9.367,8.3812242-6.6005927,15.9145643-13.951434,22.3122631-21.9347426,3.1994425-3.9897591,6.130441-8.1304932,8.7016764-12.4212826l.9425947-1.6176093c.3078218-.5416371.6445631-1.0720145.9211433-1.6256917l1.7341939-3.2926598.4346929-.8226284c.1435277-.2746647.262179-.5579135.3944964-.8364523l.7746251-1.6777261.7747587-1.6775589c.1253006-.2807126.2668736-.5565758.3788088-.8412739l.338863-.8532025,1.3558194-3.412364c.0554831-.1424187.1152933-.2837226.1672345-.4270611l.1447139-.4328025.2894611-.8656049.5790559-1.7310147.579223-1.7308475.4809037-1.7515553.4785147-1.7518898.2393409-.8758891c.0801757-.2918887.16396-.5831643.2200112-.87915l.7584864-3.5370013.1897552-.8841946c.0628174-.2947873.0965817-.5932813.146301-.8897408l.2758952-1.7816277c.4299482-2.3700038.5832827-4.7640042.8272179-7.1499221.0652566-1.1958993.0944934-2.393443.1437616-3.5899833.0152198-.5984374.0604283-1.1966797.0511561-1.7952286l-.0388599-1.7957024-.0386093-1.7956466-.0192128-.8977954c-.00279-.2993859-.0422848-.5974898-.0615978-.8962904l-.2884253-3.5835731c-.0326784-.5984095-.131716-1.1917745-.2127103-1.7864772l-.2496489-1.7836344-.2493816-1.7835786c-.096164-.5930026-.2304028-1.1815181-.3436745-1.7724583-.2427156-1.1797622-.4585167-2.3637608-.7228175-3.5399835l-.9161145-3.5089914c-.2723701-1.1762505-.6906403-2.3230697-1.0526421-3.4812601l-.5588574-1.7340805c-.0969827-.2881541-.1775927-.5799871-.2880076-.8651311l-.330827-.8555715-1.3228904-3.4223974-1.3634711-3.4334481c-1.8315942-4.5681436-3.7161488-9.1221986-5.6308591-13.6682548l-2.8926064-6.8140397c-.4743213-1.1292886-.9882042-2.2553163-1.4867836-3.3855107-.5014029-1.1283549-1.0131974-2.2521948-1.5300708-3.3738329-1.042334-2.2400293-2.1246139-4.4649667-3.271883-6.6654337-.2856353-.5505418-.5866742-1.0951053-.8792427-1.6429715-.2924349-.5479498-.5881945-1.0945758-.9004603-1.6345546l-.9221624-1.6258868-.9619746-1.6092341c-5.1421199-8.5751964-11.6252069-16.5901939-19.3468487-23.6891268-7.7130545-7.1011486-16.6653488-13.2593374-26.4567897-18.2834021-9.8017489-5.0188529-20.4274412-8.8850617-31.4516229-11.6414773-2.7547924-.6960263-5.5372178-1.3110745-8.3397581-1.8595957-2.8011703-.5521861-5.6210522-1.0418167-8.4570896-1.4568377-5.6681987-.8481022-11.3951717-1.4280195-17.1423599-1.7435983-2.8741287-.1504315-5.7530356-.2348237-8.6325438-.2476442-2.8791073-.0062012-5.7584485.0696347-8.6309066.2301693-5.7441142.3117605-11.4568196,1.0335949-17.0908029,2.0264848-5.6205176,1.0408552-11.1610434,2.4101514-16.5049975,4.2064669-2.6742826.8907163-5.309605,1.867065-7.8769645,2.9571536-2.571369,1.0827726-5.0902454,2.2533236-7.5429966,3.5149696-4.8935068,2.5391922-9.5210421,5.4345568-13.8193877,8.6389922-2.1450796,1.6059872-4.2113702,3.2856086-6.1902177,5.0349621-.9916792.8730324-1.9567946,1.7668563-2.913022,2.6684839-.478782.4472115-.9498455.9119816-1.4392195,1.352323-.4823572.4464033-.9833592.8823969-1.4255868,1.3511943l-.007919.008389-.0114608.0090579c-1.5132304,1.19661-3.0912162,2.3228189-4.7022479,3.4160151l-4.8273146,3.2711855c-3.2155144,2.1812781-6.4085749,4.3844207-9.5428946,6.6438339-3.1370261,2.2566262-6.2203233,4.5647991-9.2186166,6.9474005-3.00247,2.3786716-5.9229098,4.829305-8.7277055,7.3689292-5.613434,5.0731866-10.8033185,10.4810434-15.3111667,16.2675639-2.2628288,2.8871566-4.3480649,5.8694634-6.256176,8.9271323-1.9034332,3.0593272-3.6419709,6.1910901-5.1461796,9.4000545-1.5095884,3.2066512-2.8227053,6.477126-3.9100473,9.7987712-.2537755.8342784-.5365205,1.6627039-.7667061,2.5014694l-.3560208,1.2559604-.1725139.6328018-.2055598.6294016-.8325975,2.5161572-.84476,2.4957281c-.5578717,1.6626203-1.0977002,3.3276932-1.6034134,4.9992041-.4983957,1.672793-.974371,3.3497667-1.3982546,5.0354917-.8554857,3.369945-1.5250254,6.770464-2.0042418,10.1880398-.4831257,3.4176037-.7322234,6.8551627-.7735559,10.2935021-.0055132.4297088-.0373563.8593898-.0213178,1.2890986l.0316426,1.2890428.065858,2.5777512.1977077,2.5728181.0986701,1.2862836c.0422681.4280923.1074244.8545124.1599838,1.2818243l.3327984,2.5624781c.1266372.8523942.3044304,1.6991865.4539892,2.5489888.268845,1.7044819.7208294,3.3820687,1.1094951,5.0689085.0909181.4229641.2150158.8397967.339715,1.25649l.3674816,1.2513339.367348,1.2513618.1842754.6255276.2173882.618114.8692187,2.4724004.2172211.618114c.0751135.2053227.164762.4067992.2464245.610366l.5011356,1.2185302c1.2849494,3.265486,2.9250509,6.423057,4.6451777,9.5425011l1.3831183,2.3039226c.234262.3823567.452519.7717925.6998457,1.1484078l.7531068,1.1249129,1.5083521,2.2489618,1.6254998,2.1917714.8126162,1.0960668c.2822104.3592241.5781537.7110067.8665122,1.0669142l1.7408432,2.129815c.5952949.7010012,1.2287145,1.3793993,1.8411505,2.0703392.6235627.6838886,1.2178885,1.3873703,1.8732608,2.0492133,2.5740755,2.6837988,5.3309229,5.2466393,8.2445463,7.6802438,5.8261109,4.870442,12.2884481,9.2071343,19.1583632,13.0295862,6.8730225,3.8238176,14.1694609,7.113774,21.7044048,9.9613125,3.7656008,1.4287024,7.5965918,2.7382301,11.4673115,3.9605507,1.937916.6048755,3.8850875,1.1935303,5.843252,1.7538965,1.9507802.5791231,3.9225774,1.105933,5.8896633,1.6451733,3.9484394,1.0422766,7.9235095,2.0161588,11.9190619,2.9302306,3.9971229.9092781,8.0151293,1.7563491,12.0485392,2.5496019,4.0344458.7896575,8.0838942,1.5269462,12.1458727,2.2131202,2.0302375.3463479,4.0655872.6712911,6.1021064.9908275l3.057101.4637109,3.0743758.3752218c8.2032138.97391,16.4721186,1.6475701,24.7622409,1.6569347Z" style="fill:#fff;"/></g></svg>