<svg xmlns="http://www.w3.org/2000/svg">
  <symbol viewBox="0 0 20 20" id="bag">
    <path d="M15.832 4.688h-2.214v-.823c0-1.082-.88-1.963-1.963-1.963H8.342c-1.083 0-1.963.88-1.963 1.963v.822H4.168c-1.081 0-1.962.88-1.962 1.963v9.485c0 1.082.88 1.963 1.962 1.963h11.664c1.081 0 1.962-.88 1.962-1.963V6.65c0-1.082-.88-1.963-1.962-1.963m-8.24-.823a.75.75 0 0 1 .75-.748h3.313a.75.75 0 0 1 .75.748v.822H7.592zM4.169 5.903H6.38v2.675h1.214V5.903h4.811v2.675h1.214V5.903h2.214a.75.75 0 0 1 .748.747v3.247H3.42V6.65a.75.75 0 0 1 .748-.747m11.664 10.98H4.168a.75.75 0 0 1-.748-.748v-5.022h13.16v5.022a.75.75 0 0 1-.748.748"/>
  </symbol>

  <symbol viewBox="0 0 20 20" id="building">
    <path d="M5.454 4.51h1.818v1.818H5.454zm0 2.972h1.818V9.3H5.454zm0 2.881h1.818v1.818H5.454zM9.137 4.51h1.818v1.818H9.137zm0 2.972h1.818V9.3H9.137zm0 2.881h1.818v1.818H9.137zm3.59-5.853h1.818v1.818h-1.818zm0 2.972h1.818V9.3h-1.818zm0 2.881h1.818v1.818h-1.818zm-7.273 3.028h1.818v1.826H5.454zm7.273 0h1.818v1.826h-1.818zm3.421-12.049H3.852a2.145 2.145 0 0 0-2.143 2.143v13.03c0 1.182.961 2.143 2.143 2.143h12.296a2.145 2.145 0 0 0 2.143-2.143V3.485a2.145 2.145 0 0 0-2.143-2.143m.714 15.173c0 .395-.32.715-.714.715H11.52v-3.226H8.481v3.226H3.85a.715.715 0 0 1-.713-.715V3.485c0-.395.32-.715.714-.715h12.296c.394 0 .714.32.714.715z"/>
  </symbol>

  <symbol viewBox="0 0 20 20" id="map-pin">
    <path d="M10 1.144a6.087 6.087 0 0 0-6.086 6.088c.002.493.105.99.26 1.515.277.914.731 1.913 1.256 2.924 1.577 3.021 3.818 6.136 3.83 6.153l.74 1.032.74-1.031a65 65 0 0 0 2.63-4.023c.658-1.099 1.32-2.291 1.828-3.42.253-.564.47-1.112.627-1.636.156-.524.26-1.02.261-1.514A6.087 6.087 0 0 0 10 1.144m4.08 7.077c-.22.733-.632 1.658-1.127 2.607-.744 1.428-1.672 2.919-2.41 4.047q-.297.451-.544.816a61 61 0 0 1-1.93-3.036c-.614-1.035-1.213-2.137-1.65-3.121a11 11 0 0 1-.51-1.354c-.12-.398-.173-.736-.172-.948 0-1.181.475-2.241 1.248-3.016A4.25 4.25 0 0 1 10 2.968c1.18 0 2.24.476 3.015 1.248a4.24 4.24 0 0 1 1.247 3.016c.002.22-.057.574-.183.99M10 5.25a1.98 1.98 0 1 0-.001 3.959 1.98 1.98 0 0 0 .002-3.958"/>
  </symbol>

  <symbol viewBox="0 0 20 20" id="user">
    <path d="M11.701 11.762a5.4 5.4 0 0 1-1.7.278c-.596 0-1.167-.1-1.702-.278-3.889.638-5.924 3.496-5.924 6.965h15.25c0-3.469-2.035-6.327-5.924-6.965M10 10.804a4.173 4.173 0 0 0 4.173-4.173V5.446a4.173 4.173 0 0 0-8.346 0V6.63a4.173 4.173 0 0 0 4.172 4.174z"/>
  </symbol>
</svg>