<svg xmlns="http://www.w3.org/2000/svg" class="svg-defs">
  <symbol viewBox="0 0 30 30" id="line">
    <path d="M30,12.8803615C30,6.1683754,23.2711718.7075946,14.999939.7075946,6.7295605.7075946,0,6.1683754,0,12.8803615c0,6.017306,5.336417,11.0567875,12.54476,12.0092266.488302.105935,1.1534472.3221988,1.3215031.7400808.1512137.3788276.0989785.9729426.0485739,1.3561639,0,0-.1759889,1.0583741-.214189,1.2839133-.0654161.3793158-.3014511,1.4835788,1.2992909.8089142,1.6009861-.6746647,8.6383441-5.086835,11.7853961-8.708642h-.0007323c2.1738653-2.3842708,3.2153972-4.8032025,3.2153972-7.4896567ZM9.7078243,16.4699486c0,.1581703-.1283913.2860734-.2864396.2860734h-4.2142134c-.1582923,0-.2864396-.1279031-.2864396-.2860734v-6.546493c0-.1581703.1281472-.2865616.2864396-.2865616h1.0637441c.1575601,0,.2864396.1288795.2864396.2865616v5.1961873h2.8640297c.1575601,0,.2864396.1288795.2864396.2865616v1.0637441ZM12.2446514,16.4699486c0,.1576821-.1281472.2860734-.2863175.2860734h-1.0637441c-.1581703,0-.2864396-.1283913-.2864396-.2860734v-6.546493c0-.1581703.1282693-.2865616.2864396-.2865616h1.0637441c.1581703,0,.2863175.1283913.2863175.2865616v6.546493ZM19.4865567,16.4699486c0,.1576821-.1281472.2860734-.2863175.2860734h-1.0578859c-.0259956,0-.0510148-.0034173-.0749356-.0097636-.0014645-.0004882-.002685-.0009764-.0041495-.0014645-.0067125-.0014645-.0131809-.0039054-.0197713-.0058582-.0029291-.0014645-.0061022-.0024409-.0090313-.0034173-.0046377-.0019527-.0092754-.0039054-.0140352-.0063463-.0047598-.0019527-.0093975-.0039054-.0137911-.0063463-.0029291-.0014645-.0056141-.0034173-.0084211-.0048818-.0059802-.0034173-.0120825-.0068345-.0179406-.01074-.0012204-.0009764-.0021968-.0014645-.0034173-.0024409-.0278263-.019039-.0532116-.0429598-.0737152-.0722506l-2.9990114-4.0499408v3.8873769c0,.1576821-.1281472.2860734-.2864396.2860734h-1.0637441c-.1581703,0-.2863175-.1283913-.2863175-.2860734v-6.546493c0-.1581703.1281472-.2865616.2863175-.2865616h1.0578859c.0034173,0,.0065904.0004882.0098856.0004882.0051259.0004882.0101297.0004882.0152556.0009764s.0103738.0009764.0154997.0019527c.0040275.0004882.008177.0009764.0122045.0014645.0057361.0014645.0113502.0024409.0169643.0039054.0034173.0009764.0068345.0014645.0102518.0024409.0058582.0019527.0114722.0039054.0173304.0058582.0031732.0009764.0062243.0019527.0092754.0034173.0056141.0019527.0112281.0043936.0168422.0073227.0029291.0014645.0061022.0024409.0090313.0043936.00537.0024409.0104959.00537.0158658.0087872.0029291.0014645.0058582.0029291.0087872.0048818.0051259.0034173.0102518.0068345.0151336.01074l.0076888.0058582c.0052479.0039054.0104959.0082991.0154997.0126927.0018307.0019527.0036613.0034173.00537.0048818.0061022.0058582.0117163.0117163.0173304.0180627.0006102.0004882.0012204.0014645.0018307.0019527.008177.0092754.0159879.019039.0230665.029779l2.995106,4.045059v-3.8883532c0-.1581703.1282693-.2865616.2864396-.2865616h1.0637441c.1581703,0,.2863175.1283913.2863175.2865616v6.546493ZM25.2962642,10.9871997c0,.1581703-.1282693.2865616-.2864396.2865616h-2.8640297v1.1047512h2.8640297c.157438,0,.2864396.1288795.2864396.2860734v1.0637441c0,.1581703-.1282693.2865616-.2864396.2865616h-2.8640297v1.1047512h2.8640297c.157438,0,.2864396.1288795.2864396.2865616v1.0637441c0,.1581703-.1282693.2860734-.2864396.2860734h-4.2142134c-.1581703,0-.2863175-.1279031-.2863175-.2860734v-6.5401467h0v-.0063463c0-.1581703.1281472-.2865616.2863175-.2865616h4.2142134c.157438,0,.2864396.1288795.2864396.2865616v1.0637441Z"/>
  </symbol>

  <symbol viewBox="0 0 30 30" id="facebook">
    <path d="M17.2163545,29.0984769v-9.9120295h3.3051383l.6288909-4.1002558h-3.9340292v-2.660809c0-1.121769.5495197-2.2151708,2.3115783-2.2151708h1.7886775v-3.4907583s-1.6232676-.2770443-3.1752264-.2770443c-3.2400521,0-5.3577383,1.9636851-5.3577383,5.518723v3.1250595h-3.601576v4.1002558h3.601576v9.9120295C6.0024602,28.0344147.8153314,22.1661702.8153314,15.0861917.8153314,7.2522143,7.1660243.9015231,15,.9015231s14.1846686,6.3506912,14.1846686,14.1846686c0,7.0799786-5.1871288,12.9482231-11.9683141,14.0122853Z"/>
  </symbol>

  <symbol viewBox="0 0 30 30" id="x">
    <path d="M17.333521,13.0806399L26.464733,2.4663444h-2.1638047l-7.9286306,9.2162436L10.0397233,2.4663444H2.735849l9.5760944,13.9365925L2.735849,27.5336556h2.1639276l8.3728387-9.7326662,6.6876613,9.7326662h7.3038743l-9.9311615-14.4530157h.0005315ZM14.3697244,16.5257218l-.970257-1.3877701L5.6794701,4.0953179h3.3236664l6.2301273,8.9117576.9702582,1.3877701,8.0984267,11.5839212h-3.3236655l-6.6085589-9.4525135v-.0005315Z"/>
  </symbol>
</svg>